<?xml version="1.0" encoding="utf-8"?>
<!-- Generator: Adobe Illustrator 25.0.0, SVG Export Plug-In . SVG Version: 6.00 Build 0)  -->
<svg version="1.1" id="Layer_1" xmlns:serif="http://www.serif.com/"
	 xmlns="http://www.w3.org/2000/svg" xmlns:xlink="http://www.w3.org/1999/xlink" x="0px" y="0px" viewBox="0 0 464.3 464.3"
	 style="enable-background:new 0 0 464.3 464.3;" xml:space="preserve">
<style type="text/css">
	.st0{fill-rule:evenodd;clip-rule:evenodd;fill:url(#SVGID_1_);}
	.st1{fill-rule:evenodd;clip-rule:evenodd;fill:url(#SVGID_2_);}
	.st2{fill-rule:evenodd;clip-rule:evenodd;fill:url(#SVGID_3_);}
	.st3{fill-rule:evenodd;clip-rule:evenodd;fill:url(#SVGID_4_);}
</style>
<g id="Icon">
	<g transform="matrix(.5 0 0 .5 1.5 53.5)">
		<linearGradient id="SVGID_1_" gradientUnits="userSpaceOnUse" x1="-10.4286" y1="144.1141" x2="453.2865" y2="144.1141">
			<stop  offset="0" style="stop-color:#FACC15"/>
			<stop  offset="1" style="stop-color:#F97316"/>
		</linearGradient>
		<path class="st0" d="M494.1-3.5c0-26.1-10.4-51.1-28.8-69.6c-18.5-18.4-43.5-28.8-69.6-28.8H100.5C74.4-101.9,49.4-91.5,31-73
			C12.5-54.6,2.1-29.6,2.1-3.5v295.2c0,26.1,10.4,51.1,28.8,69.6c18.5,18.4,43.5,28.8,69.6,28.8h295.2c26.1,0,51.1-10.4,69.6-28.8
			c18.4-18.5,28.8-43.5,28.8-69.6V-3.5z M428.5-3.5v295.2c0,8.7-3.5,17-9.6,23.2c-6.1,6.1-14.5,9.6-23.2,9.6H100.5
			c-8.7,0-17-3.5-23.2-9.6s-9.6-14.5-9.6-23.2V-3.5c0-8.7,3.5-17,9.6-23.2s14.5-9.6,23.2-9.6h295.2c8.7,0,17,3.5,23.2,9.6
			C425-20.5,428.5-12.2,428.5-3.5z"/>
	</g>
	<g transform="matrix(.5 0 0 .5 1.5 66.5)">
		<linearGradient id="SVGID_2_" gradientUnits="userSpaceOnUse" x1="-10.4286" y1="544.4573" x2="453.2865" y2="544.4573">
			<stop  offset="0" style="stop-color:#FACC15"/>
			<stop  offset="1" style="stop-color:#F97316"/>
		</linearGradient>
		<path class="st1" d="M494.1,396.9c0-26.1-10.4-51.1-28.8-69.6c-18.5-18.4-43.5-28.8-69.6-28.8H100.5c-26.1,0-51.1,10.4-69.6,28.8
			c-18.4,18.5-28.8,43.5-28.8,69.6V692c0,26.1,10.4,51.1,28.8,69.6c18.5,18.4,43.5,28.8,69.6,28.8h295.2c26.1,0,51.1-10.4,69.6-28.8
			c18.4-18.5,28.8-43.5,28.8-69.6V396.9z M428.5,396.9V692c0,8.7-3.5,17-9.6,23.2c-6.1,6.1-14.5,9.6-23.2,9.6H100.5
			c-8.7,0-17-3.5-23.2-9.6s-9.6-14.5-9.6-23.2V396.9c0-8.7,3.5-17,9.6-23.2c6.1-6.1,14.5-9.6,23.2-9.6h295.2c8.7,0,17,3.5,23.2,9.6
			C425,379.8,428.5,388.2,428.5,396.9z"/>
	</g>
	<g transform="matrix(.5 0 0 .5 14.5 66.5)">
		<linearGradient id="SVGID_3_" gradientUnits="userSpaceOnUse" x1="-36.4286" y1="544.4573" x2="427.2865" y2="544.4573">
			<stop  offset="0" style="stop-color:#FACC15"/>
			<stop  offset="1" style="stop-color:#F97316"/>
		</linearGradient>
		<path class="st2" d="M894.4,396.9c0-26.1-10.4-51.1-28.8-69.6c-18.5-18.4-43.5-28.8-69.6-28.8H500.9c-26.1,0-51.1,10.4-69.6,28.8
			c-18.4,18.5-28.8,43.5-28.8,69.6V692c0,26.1,10.4,51.1,28.8,69.6c18.5,18.4,43.5,28.8,69.6,28.8H796c26.1,0,51.1-10.4,69.6-28.8
			c18.4-18.5,28.8-43.5,28.8-69.6V396.9z M828.8,396.9V692c0,8.7-3.5,17-9.6,23.2s-14.5,9.6-23.2,9.6H500.9c-8.7,0-17-3.5-23.2-9.6
			s-9.6-14.5-9.6-23.2V396.9c0-8.7,3.5-17,9.6-23.2c6.1-6.1,14.5-9.6,23.2-9.6H796c8.7,0,17,3.5,23.2,9.6
			C825.4,379.8,828.8,388.2,828.8,396.9z"/>
	</g>
	<g transform="matrix(.987 0 0 .987 .427 1.394)">
		<linearGradient id="SVGID_4_" gradientUnits="userSpaceOnUse" x1="-4.1958" y1="125.8526" x2="459.5193" y2="125.8526">
			<stop  offset="0" style="stop-color:#FACC15"/>
			<stop  offset="1" style="stop-color:#F97316"/>
		</linearGradient>
		<path class="st3" d="M377.7,15.7c-19.3-19.3-50.6-19.3-69.9,0c-21.6,21.6-53.6,53.6-75.2,75.2c-19.3,19.3-19.3,50.6,0,69.9
			c21.6,21.6,53.6,53.6,75.2,75.2c19.3,19.3,50.6,19.3,69.9,0c21.6-21.6,53.6-53.6,75.2-75.2c19.3-19.3,19.3-50.6,0-69.9
			C431.3,69.3,399.3,37.3,377.7,15.7z M354.2,39.2l75.2,75.2c6.3,6.3,6.3,16.6,0,22.9c-21.6,21.6-53.6,53.6-75.2,75.2
			c-6.3,6.3-16.6,6.3-22.9,0c-21.6-21.6-53.6-53.6-75.2-75.2c-6.3-6.3-6.3-16.6,0-22.9l75.2-75.2C337.6,32.9,347.9,32.9,354.2,39.2z
			"/>
	</g>
</g>
<g id="Layer_1_1_">
</g>
</svg>
