<?xml version="1.0" encoding="utf-8"?>
<!-- Generator: Adobe Illustrator 25.2.0, SVG Export Plug-In . SVG Version: 6.00 Build 0)  -->
<svg version="1.1" id="svg6996" xmlns:svg="http://www.w3.org/2000/svg"
	 xmlns="http://www.w3.org/2000/svg" xmlns:xlink="http://www.w3.org/1999/xlink" x="0px" y="0px" viewBox="0 0 682.7 682.7"
	 style="enable-background:new 0 0 682.7 682.7;" xml:space="preserve">
<style type="text/css">
	.st0{clip-path:url(#SVGID_2_);}
	.st1{fill:url(#SVGID_3_);}
	.st2{fill:url(#SVGID_4_);}
	.st3{fill:url(#SVGID_5_);}
	.st4{fill:url(#SVGID_6_);}
	.st5{fill:url(#SVGID_7_);}
	.st6{fill:url(#SVGID_8_);}
	.st7{fill:url(#SVGID_9_);}
	.st8{fill:url(#SVGID_10_);}
	.st9{fill:url(#SVGID_11_);}
</style>
<g id="g7002" transform="matrix(1.3333333,0,0,-1.3333333,0,682.66667)">
	<g id="g7004">
		<g>
			<defs>
				<rect id="SVGID_1_" x="-85.3" y="-85.3" width="682.7" height="682.7"/>
			</defs>
			<clipPath id="SVGID_2_">
				<use xlink:href="#SVGID_1_"  style="overflow:visible;"/>
			</clipPath>
			<g class="st0">
				<linearGradient id="SVGID_3_" gradientUnits="userSpaceOnUse" x1="-24.6429" y1="255.9998" x2="715.6484" y2="255.9998">
					<stop  offset="0" style="stop-color:#FACC15"/>
					<stop  offset="1" style="stop-color:#F97316"/>
				</linearGradient>
				<path class="st1" d="M489.5,334.7h-14l1.4,48.8l-60.6,32.7l-32.7,60.6l-68.9-2L256,511.1l-58.7-36.1l-68.9,2l-32.7-60.6
					l-60.6-32.7l1.4-48.8h-14C10.1,334.7,0,324.7,0,312.2V199.8c0-12.4,10.1-22.5,22.5-22.5h14l-1.4-48.8l60.6-32.7l32.7-60.6
					l68.9,2L256,0.9l58.7,36.1l68.9-2l32.7,60.6l60.6,32.7l-1.4,48.8h14c12.4,0,22.5,10.1,22.5,22.5v112.5
					C512,324.7,501.9,334.7,489.5,334.7z M50.4,374.7l56.4,30.5l30.5,56.4l64.1-1.8l54.6,33.6l54.6-33.6l64.1,1.8l30.5-56.4
					l56.4-30.5l-1.1-40h-34.3C395.5,401,329.3,443.5,256,443.5c-34,0-67.4-9.2-96.4-26.7l7.7-12.9c26.7,16,57.4,24.5,88.7,24.5
					c65.1,0,124.1-36.4,153.5-93.8h-307C114.9,359,133,380,155.3,396l-8.8,12.2c-26.3-18.9-47.2-44.2-60.7-73.5H51.5L50.4,374.7z
					 M461.6,137.3l-56.4-30.5l-30.5-56.4l-64.1,1.8L256,18.6l-54.6,33.6l-64.1-1.8l-30.5,56.4l-56.4,30.5l1.1,40h34.3
					C116.5,111,182.7,68.5,256,68.5c73.3,0,139.5,42.5,170.2,108.8h34.3L461.6,137.3z M497,199.8c0-4.1-3.4-7.5-7.5-7.5h-211v-15
					h131c-29.4-57.3-88.4-93.8-153.5-93.8c-65.1,0-124.1,36.4-153.5,93.8h131v15h-211c-4.1,0-7.5,3.4-7.5,7.5v112.5
					c0,4.1,3.4,7.5,7.5,7.5h467c4.1,0,7.5-3.4,7.5-7.5V199.8z"/>
				<linearGradient id="SVGID_4_" gradientUnits="userSpaceOnUse" x1="-24.6429" y1="184.7503" x2="715.6484" y2="184.7503">
					<stop  offset="0" style="stop-color:#FACC15"/>
					<stop  offset="1" style="stop-color:#F97316"/>
				</linearGradient>
				<rect x="246" y="174.8" class="st2" width="20" height="20"/>
				<linearGradient id="SVGID_5_" gradientUnits="userSpaceOnUse" x1="-24.6429" y1="376" x2="715.6484" y2="376">
					<stop  offset="0" style="stop-color:#FACC15"/>
					<stop  offset="1" style="stop-color:#F97316"/>
				</linearGradient>
				<rect x="328.5" y="366" class="st3" width="20" height="20"/>
				<linearGradient id="SVGID_6_" gradientUnits="userSpaceOnUse" x1="-24.6429" y1="391.0011" x2="715.6484" y2="391.0011">
					<stop  offset="0" style="stop-color:#FACC15"/>
					<stop  offset="1" style="stop-color:#F97316"/>
				</linearGradient>
				<rect x="298.5" y="381" class="st4" width="20" height="20"/>
				<linearGradient id="SVGID_7_" gradientUnits="userSpaceOnUse" x1="-24.6429" y1="255.2857" x2="715.6484" y2="255.2857">
					<stop  offset="0" style="stop-color:#FACC15"/>
					<stop  offset="1" style="stop-color:#F97316"/>
				</linearGradient>
				<path class="st5" d="M242.4,293.8l-27.3-71.7l14-5.3l6.5,17.1h26.3l6.4-17.1l14,5.3l-27.1,71.8L242.4,293.8z M241.3,248.8
					l7.5,19.7l7.4-19.7H241.3z"/>
				<linearGradient id="SVGID_8_" gradientUnits="userSpaceOnUse" x1="-24.6429" y1="256.058" x2="715.6484" y2="256.058">
					<stop  offset="0" style="stop-color:#FACC15"/>
					<stop  offset="1" style="stop-color:#F97316"/>
				</linearGradient>
				<polygon class="st6" points="354.9,248.4 326.4,293.8 312.1,293.8 312.1,218.2 327.1,218.2 327.1,264.5 355.6,219.1 
					369.9,219.1 369.9,293.9 354.9,293.9 				"/>
				<linearGradient id="SVGID_9_" gradientUnits="userSpaceOnUse" x1="-24.6429" y1="256.9565" x2="715.6484" y2="256.9565">
					<stop  offset="0" style="stop-color:#FACC15"/>
					<stop  offset="1" style="stop-color:#F97316"/>
				</linearGradient>
				<path class="st7" d="M423.3,293.9h-24.2V220h24.7l0.1,0c17.8,0.3,30.7,15.9,30.7,37C454.6,279.1,442,293.9,423.3,293.9z
					 M423.7,235h-9.6v43.9h9.2c12,0,16.3-11.3,16.3-22C439.6,246.5,434.6,235.2,423.7,235z"/>
				<linearGradient id="SVGID_10_" gradientUnits="userSpaceOnUse" x1="-24.6429" y1="255.941" x2="715.6484" y2="255.941">
					<stop  offset="0" style="stop-color:#FACC15"/>
					<stop  offset="1" style="stop-color:#F97316"/>
				</linearGradient>
				<path class="st8" d="M100.5,260.6c2.2,3.4,3.5,7.4,3.5,11.7c0,11.8-9.6,21.5-21.5,21.5H57.4v-75.7h28.2
					c13.2,0,23.8,10.7,23.8,23.9C109.5,249.5,106,256.2,100.5,260.6z M72.4,278.8h10.1c3.6,0,6.5-2.9,6.5-6.5c0-3.6-2.9-6.5-6.5-6.5
					H75h-2.6V278.8z M85.6,233.1H72.4v17.8h13.2c4.9,0,8.8-4,8.8-8.8C94.5,237.1,90.5,233.1,85.6,233.1z"/>
				<linearGradient id="SVGID_11_" gradientUnits="userSpaceOnUse" x1="-24.6429" y1="255.1558" x2="715.6484" y2="255.1558">
					<stop  offset="0" style="stop-color:#FACC15"/>
					<stop  offset="1" style="stop-color:#F97316"/>
				</linearGradient>
				<path class="st9" d="M186.5,270.5c0,12.8-10.8,23.3-24.2,23.3h-23.6l0-75.7l15,0l0,25.2l22.6-26.7l11.5,9.7l-18.6,22
					C179.2,251,186.5,260,186.5,270.5z M153.7,278.8h8.7c5,0,9.2-3.8,9.2-8.3c0-4.5-4.2-8.3-9.2-8.3l-8.6,0L153.7,278.8z"/>
			</g>
		</g>
	</g>
</g>
</svg>
