<?xml version="1.0" encoding="utf-8"?>
<!-- Generator: Adobe Illustrator 25.2.0, SVG Export Plug-In . SVG Version: 6.00 Build 0)  -->
<svg version="1.1" id="svg1827" xmlns:svg="http://www.w3.org/2000/svg"
	 xmlns="http://www.w3.org/2000/svg" xmlns:xlink="http://www.w3.org/1999/xlink" x="0px" y="0px" viewBox="0 0 682.7 682.7"
	 style="enable-background:new 0 0 682.7 682.7;" xml:space="preserve">
<style type="text/css">
	.st0{fill:url(#SVGID_1_);}
	.st1{fill:url(#SVGID_2_);}
	.st2{fill:url(#SVGID_3_);}
</style>
<g>
	<linearGradient id="SVGID_1_" gradientUnits="userSpaceOnUse" x1="4.4286" y1="376.0004" x2="673.0309" y2="376.0004">
		<stop  offset="0" style="stop-color:#FACC15"/>
		<stop  offset="1" style="stop-color:#F97316"/>
	</linearGradient>
	<path class="st0" d="M642.7,176h-175L425,83.4c0-0.1-0.1-0.2-0.1-0.3c-4.2-8.5-12.6-13.7-22.1-13.8c0,0-0.1,0-0.1,0
		c-9.4,0-17.9,5.2-22.1,13.6c-0.1,0.1-0.1,0.3-0.2,0.4L337.7,176h-175c-22.1,0-40,17.9-40,40v26.7h-21.3c-22.1,0-40,17.9-40,40v26.7
		H40c-22.1,0-40,17.9-40,40v293.3c0,22.1,17.9,40,40,40h53.3c7.4,0,13.3-6,13.3-13.3c0-7.4-6-13.3-13.3-13.3H40
		c-5.3,0-9.9-3.2-12.1-7.7L79,609.2c6.4,4.3,14.1,6.8,22.3,6.8h388.6l42.1,32.3c-2.1,4.5-6.7,7.7-12.1,7.7H213.3
		c-7.4,0-13.3,6-13.3,13.3c0,7.4,6,13.3,13.3,13.3H520c22.1,0,40-17.9,40-40V616c0,0,0,0,0,0h21.3c22.1,0,40-17.9,40-40v-26.7h21.3
		c22.1,0,40-17.9,40-40V216C682.7,193.9,664.7,176,642.7,176z M402.7,98.7l65.6,142.1H437c-7.4,0-13.3,6-13.3,13.3v55.3h-41.9v-55.3
		c0-7.4-6-13.3-13.3-13.3h-31.2L402.7,98.7z M162.7,202.7h162.7l-12.9,28c-4.2,7.9-4.2,17.1,0.2,24.5c4.4,7.6,12.6,12.3,21.4,12.3
		h21v43.8c0,13.7,11.1,24.8,24.8,24.8h45.7c13.7,0,24.8-11.1,24.8-24.8v-43.8h21c0,0,0,0,0,0c8.6,0,16.5-4.4,21-11.8
		c4.5-7.3,4.9-16.2,1.2-23.9L480,202.7h162.7c5.3,0,10,3.2,12.1,7.7L616.1,240c-5.8,4.5-7,12.8-2.5,18.7c2.6,3.4,6.6,5.2,10.6,5.2
		c2.8,0,5.7-0.9,8.1-2.8L656,243v239.3L499.9,362.7l37.2-28.5c5.8-4.5,7-12.8,2.5-18.7c-4.5-5.8-12.8-7-18.7-2.5l-108.1,82.8
		c-5.2,4-15.3,3.7-20.8-0.5L150.6,210.4C152.7,205.8,157.3,202.7,162.7,202.7z M26.7,376.4l34.5,26.4c0.1,0,0.1,0.1,0.2,0.1V576
		c0,4.1,0.6,8,1.8,11.7l-36.4,27.9V376.4z M88,309.7l34.7,26.6v173.1c0,4.1,0.6,8,1.8,11.7L88,549V309.7z M149.3,243l156.1,119.6
		L149.3,482.3V243z M101.3,269.3h21.3v33.3l-33.4-25.6C91.4,272.5,96,269.3,101.3,269.3z M40,336h21.3v33.3l-33.4-25.6
		C30,339.2,34.7,336,40,336z M581.3,589.3h-480c-5.3,0-10-3.2-12.1-7.7l51.1-39.1c6.4,4.3,14.1,6.8,22.4,6.8h388.6l42.1,32.3
		C591.3,586.2,586.7,589.3,581.3,589.3z M642.7,522.7h-480c-5.3,0-10-3.2-12.1-7.7l176.8-135.5l48.3,37c7.7,5.9,17.5,8.8,27.2,8.8
		c9.4,0,18.8-2.8,26.1-8.3l49-37.5l176.8,135.5C652.6,519.5,648,522.7,642.7,522.7z"/>
	<linearGradient id="SVGID_2_" gradientUnits="userSpaceOnUse" x1="4.4286" y1="669.3337" x2="673.0309" y2="669.3337">
		<stop  offset="0" style="stop-color:#FACC15"/>
		<stop  offset="1" style="stop-color:#F97316"/>
	</linearGradient>
	<path class="st1" d="M153.3,656L153.3,656c-7.4,0-13.3,6-13.3,13.3s6,13.3,13.3,13.3s13.3-6,13.3-13.3S160.7,656,153.3,656z"/>
	<linearGradient id="SVGID_3_" gradientUnits="userSpaceOnUse" x1="4.4286" y1="287.0939" x2="673.0309" y2="287.0939">
		<stop  offset="0" style="stop-color:#FACC15"/>
		<stop  offset="1" style="stop-color:#F97316"/>
	</linearGradient>
	<path class="st2" d="M576.6,300.4c7.4,0,13.3-6,13.3-13.3s-6-13.3-13.3-13.3h0c-7.4,0-13.3,6-13.3,13.3S569.2,300.4,576.6,300.4z"
		/>
</g>
</svg>
