<svg width="18" height="18" viewBox="0 0 18 18" fill="none" xmlns="http://www.w3.org/2000/svg">
<g clip-path="url(#clip0_1_95)">
<path d="M9 0.5625C7.33122 0.5625 5.69992 1.05735 4.31238 1.98448C2.92484 2.9116 1.84338 4.22936 1.20477 5.77111C0.566152 7.31286 0.399061 9.00936 0.724624 10.6461C1.05019 12.2828 1.85378 13.7862 3.03379 14.9662C4.21379 16.1462 5.71721 16.9498 7.35393 17.2754C8.99064 17.6009 10.6871 17.4338 12.2289 16.7952C13.7706 16.1566 15.0884 15.0752 16.0155 13.6876C16.9426 12.3001 17.4375 10.6688 17.4375 9C17.4375 6.76224 16.5486 4.61612 14.9662 3.03379C13.3839 1.45145 11.2378 0.5625 9 0.5625ZM9.36169 5.74537C10.1287 5.74627 10.864 6.05135 11.4063 6.59368C11.9487 7.13602 12.2537 7.87133 12.2546 8.63831H11.5312C11.5307 8.06309 11.3019 7.5116 10.8951 7.10486C10.4884 6.69811 9.93691 6.46935 9.36169 6.46875V5.74537ZM11.7045 14.0625C11.6826 14.0625 9.51075 14.0254 6.71794 11.2821C3.97462 8.49037 3.9375 6.31744 3.9375 6.2955C3.9375 6.02494 5.625 3.9375 5.99794 3.9375C6.12731 3.9375 6.228 4.02525 6.33825 4.15687C6.60375 4.473 7.77769 6.32587 7.72369 6.63469C7.69781 6.77981 7.57463 6.89006 7.22137 7.1865C7.04732 7.32333 6.88443 7.47381 6.73425 7.6365C6.80617 7.93417 6.91304 8.2223 7.05263 8.49487C7.57268 9.56415 8.43674 10.4278 9.50625 10.9474C9.77882 11.087 10.067 11.1938 10.3646 11.2657C10.5273 11.1156 10.6778 10.9527 10.8146 10.7786C11.1111 10.4254 11.2213 10.3022 11.3664 10.2763C11.6753 10.2201 13.5281 11.3962 13.8442 11.6617C13.9759 11.7742 14.0636 11.8727 14.0636 12.0021C14.0625 12.375 11.9751 14.0625 11.7045 14.0625ZM13.3391 8.63831C13.3379 7.5838 12.9185 6.57281 12.1728 5.82715C11.4272 5.0815 10.4162 4.66207 9.36169 4.66087V3.9375C10.608 3.93899 11.8028 4.43473 12.684 5.31598C13.5653 6.19723 14.061 7.39204 14.0625 8.63831H13.3391Z" fill="#5E636E"/>
</g>
<defs>
<clipPath id="clip0_1_95">
<rect width="18" height="18" fill="white"/>
</clipPath>
</defs>
</svg>
