<?xml version="1.0" encoding="utf-8"?>
<!-- Generator: Adobe Illustrator 25.0.0, SVG Export Plug-In . SVG Version: 6.00 Build 0)  -->
<svg version="1.1" id="Layer_1" xmlns="http://www.w3.org/2000/svg" xmlns:xlink="http://www.w3.org/1999/xlink" x="0px" y="0px"
	 viewBox="0 0 512 512" style="enable-background:new 0 0 512 512;" xml:space="preserve">
<style type="text/css">
	.st0{fill:url(#SVGID_1_);}
	.st1{fill:url(#SVGID_2_);}
	.st2{fill:url(#SVGID_3_);}
	.st3{fill:url(#SVGID_4_);}
	.st4{fill:url(#SVGID_5_);}
</style>
<g>
	<linearGradient id="SVGID_1_" gradientUnits="userSpaceOnUse" x1="4" y1="255.996" x2="515.0352" y2="255.996">
		<stop  offset="0" style="stop-color:#FACC15"/>
		<stop  offset="1" style="stop-color:#F97316"/>
	</linearGradient>
	<path class="st0" d="M476,223.2c-2-55.8-24.6-108.1-64.3-147.8C370.1,33.8,314.8,10.9,256,10.9c-118.8,0-215.9,94.6-220,212.3
		c-18.1,8.1-30.8,26.2-30.8,47.3v58.1c0,28.5,23.2,51.7,51.7,51.7c18.5,0,33.5-15,33.5-33.5v-94.6c0-17.3-13.3-31.5-30.2-33.2
		C66.4,116.5,151.8,34.9,256,34.9c52.4,0,101.7,20.4,138.8,57.5c34.1,34.1,54,78.5,57,126.7c-16.9,1.7-30.2,15.8-30.2,33.1v94.6
		c0,17.5,13.5,31.7,30.6,33.2V404c0,26.9-21.9,48.8-48.8,48.8h-36.2c-1.8-5.1-4.6-9.8-8.5-13.6c-6.8-6.9-16-10.7-25.7-10.7h-37.3
		c-5.4,0-10.5,1.1-15.2,3.3c-12.8,5.9-21.1,18.8-21.1,33c0,9.7,3.8,18.8,10.6,25.7c6.9,6.9,16,10.7,25.7,10.7h37.3
		c15.5,0,29.1-10,34.2-24.3h36.1c40.2,0,72.8-32.7,72.8-72.8v-28.2c18-8.1,30.6-26.2,30.6-47.2v-58.1
		C506.9,249.4,494.2,231.3,476,223.2L476,223.2z M66.4,252.2v94.6c0,5.2-4.2,9.5-9.5,9.5c-15.3,0-27.7-12.4-27.7-27.7v-58.1
		c0-15.3,12.4-27.7,27.7-27.7C62.1,242.8,66.4,247,66.4,252.2L66.4,252.2z M345.1,467.4c-1.2,5.6-6.3,9.8-12,9.8h-37.3
		c-3.3,0-6.4-1.3-8.7-3.6c-2.3-2.3-3.6-5.4-3.6-8.7c0-4.8,2.8-9.2,7.2-11.2c1.6-0.7,3.3-1.1,5.1-1.1h37.3c3.3,0,6.4,1.3,8.7,3.6
		c2.3,2.3,3.6,5.4,3.6,8.7C345.4,465.7,345.3,466.6,345.1,467.4L345.1,467.4z M482.9,328.6c0,15.3-12.4,27.7-27.7,27.7
		c-5.2,0-9.5-4.2-9.5-9.5v-94.6c0-5.2,4.2-9.5,9.5-9.5c15.3,0,27.7,12.4,27.7,27.7V328.6z"/>
	<linearGradient id="SVGID_2_" gradientUnits="userSpaceOnUse" x1="4" y1="256.004" x2="515.0352" y2="256.004">
		<stop  offset="0" style="stop-color:#FACC15"/>
		<stop  offset="1" style="stop-color:#F97316"/>
	</linearGradient>
	<path class="st1" d="M333.7,332.7c28,0,50.8-22.8,50.8-50.8V178.3c0-13.6-5.3-26.3-14.9-35.9s-22.4-14.9-35.9-14.9H178.3
		c-28,0-50.8,22.8-50.8,50.8v103.6c0,28,22.8,50.8,50.8,50.8h1v26.8c0,10.2,6.1,19.3,15.5,23.2c3,1.2,6.2,1.8,9.4,1.8
		c6.5,0,12.9-2.6,17.6-7.4l44.7-44.4H333.7z M253,312.2l-48.3,48.1c-0.2,0.2-0.4,0.4-0.8,0.2c-0.6-0.2-0.6-0.6-0.6-0.9v-38.8
		c0-6.6-5.4-12-12-12h-13c-14.8,0-26.8-12-26.8-26.8V178.3c0-14.8,12-26.8,26.8-26.8h155.4c7.2,0,13.9,2.8,19,7.9
		c5.1,5.1,7.9,11.8,7.9,19v103.6c0,14.8-12,26.8-26.8,26.8h-72.3C258.3,308.7,255.2,310,253,312.2L253,312.2z"/>
	<linearGradient id="SVGID_3_" gradientUnits="userSpaceOnUse" x1="4" y1="232" x2="515.0352" y2="232">
		<stop  offset="0" style="stop-color:#FACC15"/>
		<stop  offset="1" style="stop-color:#F97316"/>
	</linearGradient>
	<path class="st2" d="M197.7,214.3c-9.8,0-17.7,8-17.7,17.7s8,17.7,17.7,17.7c9.8,0,17.7-8,17.7-17.7S207.5,214.3,197.7,214.3z"/>
	<linearGradient id="SVGID_4_" gradientUnits="userSpaceOnUse" x1="4" y1="232" x2="515.0352" y2="232">
		<stop  offset="0" style="stop-color:#FACC15"/>
		<stop  offset="1" style="stop-color:#F97316"/>
	</linearGradient>
	<path class="st3" d="M256,214.3c-9.8,0-17.7,8-17.7,17.7s8,17.7,17.7,17.7c9.8,0,17.7-8,17.7-17.7S265.8,214.3,256,214.3z"/>
	<linearGradient id="SVGID_5_" gradientUnits="userSpaceOnUse" x1="4" y1="232" x2="515.0352" y2="232">
		<stop  offset="0" style="stop-color:#FACC15"/>
		<stop  offset="1" style="stop-color:#F97316"/>
	</linearGradient>
	<path class="st4" d="M314.3,214.3c-9.8,0-17.7,8-17.7,17.7s8,17.7,17.7,17.7c9.8,0,17.7-8,17.7-17.7S324,214.3,314.3,214.3z"/>
</g>
</svg>
