<?xml version="1.0" encoding="utf-8"?>
<!-- Generator: Adobe Illustrator 25.0.0, SVG Export Plug-In . SVG Version: 6.00 Build 0)  -->
<svg version="1.1" id="Layer_1" xmlns="http://www.w3.org/2000/svg" xmlns:xlink="http://www.w3.org/1999/xlink" x="0px" y="0px"
	 viewBox="0 0 512 512" style="enable-background:new 0 0 512 512;" xml:space="preserve">
<style type="text/css">
	.st0{fill-rule:evenodd;clip-rule:evenodd;fill:url(#SVGID_1_);}
</style>
<linearGradient id="SVGID_1_" gradientUnits="userSpaceOnUse" x1="18.899" y1="255.9995" x2="493.101" y2="255.9995">
	<stop  offset="0" style="stop-color:#FACC15"/>
	<stop  offset="1" style="stop-color:#F97316"/>
</linearGradient>
<path class="st0" d="M376.4,207.4c5.9,5.9,5.9,15.5,0,21.4l-81.5,81.5c2.4,5.3,3.8,11.3,3.8,17.5c0,23.5-19.1,42.6-42.6,42.6
	c-23.5,0-42.6-19.1-42.6-42.6c0-23.5,19.1-42.6,42.6-42.6c6.2,0,12.1,1.4,17.5,3.8l81.5-81.5C360.9,201.5,370.5,201.5,376.4,207.4
	L376.4,207.4z M256,187.8c16.6,0,32.9,2.9,48.3,8.5c7.8,2.9,16.5-1.1,19.4-9c2.9-7.8-1.1-16.5-9-19.4c-18.8-6.9-38.5-10.4-58.7-10.4
	c-93.9,0-170.3,76.4-170.3,170.3c0,8.4,6.8,15.1,15.1,15.1c8.4,0,15.1-6.8,15.1-15.1C116,250.6,178.8,187.8,256,187.8L256,187.8z
	 M457.1,376.5c3.8-15.9,5.8-32.2,5.8-48.7c0-114.1-92.8-206.9-206.9-206.9c-114.1,0-206.9,92.8-206.9,206.9
	c0,16.5,1.9,32.9,5.8,48.7c2.1,8.7,9.5,14.5,18.4,14.5h365.3C447.6,391.1,455,385.2,457.1,376.5z M423.7,160.2
	C378.9,115.4,319.3,90.7,256,90.7c-63.3,0-122.9,24.7-167.6,69.5C43.6,205,18.9,264.5,18.9,327.8c0,18.9,2.2,37.6,6.6,55.8
	c5.4,22.2,25,37.6,47.8,37.6h365.3c22.8,0,42.5-15.5,47.8-37.6c4.4-18.2,6.6-37,6.6-55.8C493.1,264.5,468.4,205,423.7,160.2
	L423.7,160.2z"/>
</svg>
