<?xml version="1.0" encoding="utf-8"?>
<!-- Generator: Adobe Illustrator 25.0.0, SVG Export Plug-In . SVG Version: 6.00 Build 0)  -->
<svg version="1.1" id="svg5862" xmlns:svg="http://www.w3.org/2000/svg"
	 xmlns="http://www.w3.org/2000/svg" xmlns:xlink="http://www.w3.org/1999/xlink" x="0px" y="0px" viewBox="0 0 682.7 682.7"
	 style="enable-background:new 0 0 682.7 682.7;" xml:space="preserve">
<style type="text/css">
	.st0{fill:url(#SVGID_1_);}
	.st1{fill:url(#SVGID_2_);}
	.st2{fill:url(#SVGID_3_);}
	.st3{fill:url(#SVGID_4_);}
	.st4{fill:url(#SVGID_5_);}
	.st5{fill:url(#SVGID_6_);}
	.st6{fill:url(#SVGID_7_);}
	.st7{fill:url(#SVGID_8_);}
	.st8{fill:url(#SVGID_9_);}
	.st9{fill:url(#SVGID_10_);}
	.st10{fill:url(#SVGID_11_);}
	.st11{fill:url(#SVGID_12_);}
</style>
<g>
	<linearGradient id="SVGID_1_" gradientUnits="userSpaceOnUse" x1="12.4286" y1="487.2752" x2="668.0123" y2="487.2752">
		<stop  offset="0" style="stop-color:#FACC15"/>
		<stop  offset="1" style="stop-color:#F97316"/>
	</linearGradient>
	<path class="st0" d="M49.5,503.7c5.4,0,9.9-4.4,9.9-9.9v-13.1c0-5.4-4.4-9.9-9.9-9.9s-9.9,4.4-9.9,9.9v13.1
		C39.6,499.3,44,503.7,49.5,503.7z"/>
	<linearGradient id="SVGID_2_" gradientUnits="userSpaceOnUse" x1="12.4286" y1="558.9311" x2="668.0123" y2="558.9311">
		<stop  offset="0" style="stop-color:#FACC15"/>
		<stop  offset="1" style="stop-color:#F97316"/>
	</linearGradient>
	<path class="st1" d="M49.5,542.5c-5.4,0-9.9,4.4-9.9,9.9v13.1c0,5.4,4.4,9.9,9.9,9.9s9.9-4.4,9.9-9.9v-13.1
		C59.3,546.9,54.9,542.5,49.5,542.5z"/>
	<linearGradient id="SVGID_3_" gradientUnits="userSpaceOnUse" x1="12.4286" y1="630.5869" x2="668.0123" y2="630.5869">
		<stop  offset="0" style="stop-color:#FACC15"/>
		<stop  offset="1" style="stop-color:#F97316"/>
	</linearGradient>
	<path class="st2" d="M39.6,624v13.1c0,5.4,4.4,9.9,9.9,9.9s9.9-4.4,9.9-9.9V624c0-5.4-4.4-9.9-9.9-9.9S39.6,618.6,39.6,624z"/>
	<linearGradient id="SVGID_4_" gradientUnits="userSpaceOnUse" x1="12.4286" y1="225.632" x2="668.0123" y2="225.632">
		<stop  offset="0" style="stop-color:#FACC15"/>
		<stop  offset="1" style="stop-color:#F97316"/>
	</linearGradient>
	<path class="st3" d="M415.6,183.6c0,41-33.3,74.3-74.3,74.3c-18.6,0-36.4-7-49.9-19.3l11.6-0.4c5.4-0.2,9.7-4.7,9.5-10.2
		c-0.2-5.4-4.7-9.7-10.2-9.5l-31.9,1.1c-5.2,0.2-9.4,4.3-9.5,9.5l-1.1,31.9c-0.2,5.4,4.1,10,9.5,10.2c0.1,0,0.2,0,0.3,0
		c5.3,0,9.7-4.2,9.8-9.5l0.2-7c16.9,14.6,38.8,23,61.5,23c51.8,0,94-42.2,94-94c0-5.4-4.4-9.9-9.9-9.9
		C420,173.7,415.6,178.1,415.6,183.6z"/>
	<linearGradient id="SVGID_5_" gradientUnits="userSpaceOnUse" x1="12.4286" y1="141.4856" x2="668.0123" y2="141.4856">
		<stop  offset="0" style="stop-color:#FACC15"/>
		<stop  offset="1" style="stop-color:#F97316"/>
	</linearGradient>
	<path class="st4" d="M370.1,139.2c0.2,5.3,4.6,9.5,9.8,9.5c0.1,0,0.2,0,0.3,0l31.9-1.1c5.2-0.2,9.4-4.3,9.5-9.5l1.1-31.9
		c0.2-5.4-4.1-10-9.5-10.2c-0.1,0-0.2,0-0.3,0c-5.3,0-9.7,4.2-9.8,9.5l-0.2,7c-16.9-14.6-38.8-23-61.5-23c-51.8,0-94,42.2-94,94
		c0,5.4,4.4,9.9,9.9,9.9c5.4,0,9.9-4.4,9.9-9.9c0-41,33.3-74.3,74.3-74.3c18.9,0,36.5,6.9,50,19.3l-11.7,0.4
		C374.2,129.2,370,133.7,370.1,139.2z"/>
	<linearGradient id="SVGID_6_" gradientUnits="userSpaceOnUse" x1="12.4286" y1="487.2752" x2="668.0123" y2="487.2752">
		<stop  offset="0" style="stop-color:#FACC15"/>
		<stop  offset="1" style="stop-color:#F97316"/>
	</linearGradient>
	<path class="st5" d="M290.7,470.8c-5.4,0-9.9,4.4-9.9,9.9v13.1c0,5.4,4.4,9.9,9.9,9.9s9.9-4.4,9.9-9.9v-13.1
		C300.6,475.3,296.2,470.8,290.7,470.8z"/>
	<linearGradient id="SVGID_7_" gradientUnits="userSpaceOnUse" x1="12.4286" y1="558.9311" x2="668.0123" y2="558.9311">
		<stop  offset="0" style="stop-color:#FACC15"/>
		<stop  offset="1" style="stop-color:#F97316"/>
	</linearGradient>
	<path class="st6" d="M290.7,575.4c5.4,0,9.9-4.4,9.9-9.9v-13.1c0-5.4-4.4-9.9-9.9-9.9s-9.9,4.4-9.9,9.9v13.1
		C280.9,571,285.3,575.4,290.7,575.4z"/>
	<linearGradient id="SVGID_8_" gradientUnits="userSpaceOnUse" x1="12.4286" y1="630.5869" x2="668.0123" y2="630.5869">
		<stop  offset="0" style="stop-color:#FACC15"/>
		<stop  offset="1" style="stop-color:#F97316"/>
	</linearGradient>
	<path class="st7" d="M290.7,614.2c-5.4,0-9.9,4.4-9.9,9.9v13.1c0,5.4,4.4,9.9,9.9,9.9s9.9-4.4,9.9-9.9V624
		C300.6,618.6,296.2,614.2,290.7,614.2z"/>
	<linearGradient id="SVGID_9_" gradientUnits="userSpaceOnUse" x1="12.4286" y1="341.3334" x2="668.0123" y2="341.3334">
		<stop  offset="0" style="stop-color:#FACC15"/>
		<stop  offset="1" style="stop-color:#F97316"/>
	</linearGradient>
	<path class="st8" d="M677.9,463c0-12.7-10.3-23-23-23h-7.6c-5.4,0-9.9,4.4-9.9,9.9s4.4,9.9,9.9,9.9h7.6c1.8,0,3.3,1.5,3.3,3.3v46.5
		c0,1.8-1.5,3.3-3.3,3.3H510.3c-1.8,0-3.3-1.5-3.3-3.3V463c0-1.8,1.5-3.3,3.3-3.3h94.3c5.4,0,9.9-4.4,9.9-9.9s-4.4-9.9-9.9-9.9
		h-13.5c0-0.2,0-0.4,0-0.7v-64c0-5.4-4.4-9.9-9.9-9.9H351.2v-36.2c27.8-0.8,54.3-5,77.4-12.3c15.4,10.3,33.2,15.7,51.7,15.7
		c0.4,0,0.8,0,1.2,0c23.7-0.3,46.4-10.1,64-27.5c17.6-17.4,27.5-40.1,28.1-63.8c0.6-25.5-8.9-49.5-26.6-67.7
		c-17.7-18.1-41.4-28.1-66.7-28.1h-0.1c0,0-0.2,0-0.3-0.1c-0.1-0.2-0.1-0.3-0.1-0.4c0-0.5,0-1.1,0-1.7c0-26.7-7.6-52.7-22-75
		c-2.9-4.6-9-5.9-13.6-3c-4.6,2.9-5.9,9-3,13.6c12.3,19.2,18.8,41.4,18.8,64.4c0,0.5,0,0.9,0,1.4c-0.1,5.5,2,10.6,5.8,14.5
		c3.8,3.9,8.9,6,14.3,6c0,0,0,0,0,0h0.1c19.9,0,38.6,7.9,52.6,22.2c14,14.3,21.5,33.3,21,53.4c-0.9,38.5-34.1,71.5-72.6,72
		c-15.3,0.2-30.1-4.3-42.7-13c-4.3-2.9-9.7-3.8-14.6-2.2c-24.2,7.8-52.8,12-82.7,12c-29.9,0-58.5-4.1-82.7-12
		c-4.9-1.6-10.3-0.8-14.6,2.2c-12.6,8.7-27.3,13.2-42.7,13c-38.4-0.5-71.7-33.5-72.6-72c-0.5-20.1,7-39.1,21-53.4
		c14-14.3,32.6-22.2,52.6-22.2h0.1c0,0,0,0,0,0c5.4,0,10.5-2.1,14.3-6c3.8-3.9,5.9-9,5.8-14.5c0-0.5,0-0.9,0-1.4
		c0-65.6,53.2-119,118.7-119c27.2,0,52.8,9,74,26c4.3,3.4,10.5,2.7,13.9-1.5c3.4-4.3,2.7-10.5-1.5-13.9
		c-24.4-19.5-55.1-30.3-86.3-30.3C265,4.7,202.9,67,202.9,143.5c0,0.6,0,1.1,0,1.6c0,0.1,0,0.2-0.1,0.4c-0.1,0.1-0.3,0.1-0.3,0.1
		h-0.1c-25.3,0-49,10-66.7,28.1c-17.8,18.2-27.2,42.2-26.6,67.7c0.6,23.7,10.5,46.4,28.1,63.8c17.6,17.4,40.3,27.2,64,27.5
		c19,0.2,37.3-5.2,53-15.7c23.1,7.3,49.6,11.5,77.4,12.3v36.2H101.4c-5.4,0-9.9,4.4-9.9,9.9v64c0,0.2,0,0.4,0,0.7H27.8
		c-12.7,0-23,10.3-23,23v46.5c0,4.9,1.5,9.4,4.1,13.1c-2.6,3.7-4.1,8.3-4.1,13.1v46.5c0,4.9,1.5,9.4,4.1,13.1
		c-2.6,3.7-4.1,8.3-4.1,13.1v46.5c0,12.7,10.3,23,23,23h60.1c5.4,0,9.9-4.4,9.9-9.9c0-5.4-4.4-9.9-9.9-9.9H27.8
		c-1.8,0-3.3-1.5-3.3-3.3v-46.5c0-1.8,1.5-3.3,3.3-3.3h0h144.6c1.8,0,3.3,1.5,3.3,3.3v46.5c0,1.8-1.5,3.3-3.3,3.3h-39.8
		c-5.4,0-9.9,4.4-9.9,9.9c0,5.4,4.4,9.9,9.9,9.9h39.8c12.7,0,23-10.3,23-23v-46.5c0-4.9-1.5-9.4-4.1-13.1c2.6-3.7,4.1-8.3,4.1-13.1
		v-46.5c0-4.9-1.5-9.4-4.1-13.1c2.6-3.7,4.1-8.3,4.1-13.1V463c0-12.7-10.3-23-23-23h-61.2c0-0.2,0-0.4,0-0.7v-54.1h220.2v54.8H269
		c-12.7,0-23,10.3-23,23v46.5c0,4.9,1.5,9.4,4.1,13.1c-2.6,3.7-4.1,8.3-4.1,13.1v46.5c0,4.9,1.5,9.4,4.1,13.1
		c-2.6,3.7-4.1,8.3-4.1,13.1v46.5c0,12.7,10.3,23,23,23h144.6c12.7,0,23-10.3,23-23v-46.5c0-4.9-1.5-9.4-4.1-13.1
		c2.6-3.7,4.1-8.3,4.1-13.1v-46.5c0-4.9-1.5-9.4-4.1-13.1c2.6-3.7,4.1-8.3,4.1-13.1V463c0-12.7-10.3-23-23-23h-62.5v-54.8h220.2
		v54.1c0,0.2,0,0.4,0,0.7h-61.2c-12.7,0-23,10.3-23,23v46.5c0,4.9,1.5,9.4,4.1,13.1c-2.6,3.7-4.1,8.3-4.1,13.1v46.5
		c0,4.9,1.5,9.4,4.1,13.1c-2.6,3.7-4.1,8.3-4.1,13.1v46.5c0,12.7,10.3,23,23,23h144.6c12.7,0,23-10.3,23-23v-46.5
		c0-4.9-1.5-9.4-4.1-13.1c2.6-3.7,4.1-8.3,4.1-13.1v-46.5c0-4.9-1.5-9.4-4.1-13.1c2.6-3.7,4.1-8.3,4.1-13.1V463z M27.8,585.4
		c-1.8,0-3.3-1.5-3.3-3.3v-46.5c0-1.8,1.5-3.3,3.3-3.3h144.6c1.8,0,3.3,1.5,3.3,3.3v46.5c0,1.8-1.5,3.3-3.3,3.3H27.8z M175.7,463
		v46.5c0,1.8-1.5,3.3-3.3,3.3H27.8c-1.8,0-3.3-1.5-3.3-3.3V463c0-1.8,1.5-3.3,3.3-3.3h144.6C174.2,459.7,175.7,461.1,175.7,463z
		 M416.9,535.7v46.5c0,1.8-1.5,3.3-3.3,3.3H269c-1.8,0-3.3-1.5-3.3-3.3v-46.5c0-1.8,1.5-3.3,3.3-3.3h144.6
		C415.5,532.4,416.9,533.9,416.9,535.7z M416.9,654.9c0,1.8-1.5,3.3-3.3,3.3H269c-1.8,0-3.3-1.5-3.3-3.3v-46.5
		c0-1.8,1.5-3.3,3.3-3.3h144.6c1.8,0,3.3,1.5,3.3,3.3V654.9z M416.9,463v46.5c0,1.8-1.5,3.3-3.3,3.3H269c-1.8,0-3.3-1.5-3.3-3.3V463
		c0-1.8,1.5-3.3,3.3-3.3h144.6C415.5,459.7,416.9,461.1,416.9,463z M654.9,532.4c1.8,0,3.3,1.5,3.3,3.3v46.5c0,1.8-1.5,3.3-3.3,3.3
		H510.3c-1.8,0-3.3-1.5-3.3-3.3v-46.5c0-1.8,1.5-3.3,3.3-3.3H654.9z M658.2,654.9c0,1.8-1.5,3.3-3.3,3.3H510.3
		c-1.8,0-3.3-1.5-3.3-3.3v-46.5c0-1.8,1.5-3.3,3.3-3.3h144.6c1.8,0,3.3,1.5,3.3,3.3V654.9z"/>
	<linearGradient id="SVGID_10_" gradientUnits="userSpaceOnUse" x1="12.4286" y1="487.2752" x2="668.0123" y2="487.2752">
		<stop  offset="0" style="stop-color:#FACC15"/>
		<stop  offset="1" style="stop-color:#F97316"/>
	</linearGradient>
	<path class="st9" d="M522.1,480.7v13.1c0,5.4,4.4,9.9,9.9,9.9c5.4,0,9.9-4.4,9.9-9.9v-13.1c0-5.4-4.4-9.9-9.9-9.9
		C526.5,470.8,522.1,475.3,522.1,480.7z"/>
	<linearGradient id="SVGID_11_" gradientUnits="userSpaceOnUse" x1="12.4286" y1="558.9311" x2="668.0123" y2="558.9311">
		<stop  offset="0" style="stop-color:#FACC15"/>
		<stop  offset="1" style="stop-color:#F97316"/>
	</linearGradient>
	<path class="st10" d="M532,575.4c5.4,0,9.9-4.4,9.9-9.9v-13.1c0-5.4-4.4-9.9-9.9-9.9c-5.4,0-9.9,4.4-9.9,9.9v13.1
		C522.1,571,526.5,575.4,532,575.4z"/>
	<linearGradient id="SVGID_12_" gradientUnits="userSpaceOnUse" x1="12.4286" y1="630.5869" x2="668.0123" y2="630.5869">
		<stop  offset="0" style="stop-color:#FACC15"/>
		<stop  offset="1" style="stop-color:#F97316"/>
	</linearGradient>
	<path class="st11" d="M532,614.2c-5.4,0-9.9,4.4-9.9,9.9v13.1c0,5.4,4.4,9.9,9.9,9.9c5.4,0,9.9-4.4,9.9-9.9V624
		C541.8,618.6,537.4,614.2,532,614.2z"/>
</g>
<g id="Layer_1_1_">
</g>
</svg>
