<svg width="18" height="18" viewBox="0 0 18 18" fill="none" xmlns="http://www.w3.org/2000/svg">
<g clip-path="url(#clip0_1_93)">
<path fill-rule="evenodd" clip-rule="evenodd" d="M9 18C4.03738 18 0 13.9626 0 9C0 4.03738 4.03738 0 9 0C13.9626 0 18 4.03738 18 9C18 13.9626 13.9626 18 9 18ZM13.6673 12.1616C13.7782 12.1616 13.8685 12.0714 13.8685 11.9604V6.31016L9.28944 9.94644C9.20471 10.0138 9.1023 10.0474 8.99996 10.0474C8.89762 10.0474 8.79525 10.0137 8.71049 9.94644L4.13142 6.31016V11.9604C4.13142 12.0714 4.22174 12.1616 4.33269 12.1616H13.6673ZM12.9656 5.83836L9 8.98748L5.03441 5.83836H12.9656ZM14.7996 6.03963V11.9604C14.7996 12.5848 14.2916 13.0927 13.6673 13.0927H4.33269C3.70832 13.0927 3.20041 12.5848 3.20041 11.9604V6.03963C3.20041 5.41529 3.70835 4.90736 4.33269 4.90736H13.6673C14.2916 4.90732 14.7996 5.41529 14.7996 6.03963Z" fill="#5E636E"/>
</g>
<defs>
<clipPath id="clip0_1_93">
<rect width="18" height="18" fill="white"/>
</clipPath>
</defs>
</svg>
