<?xml version="1.0" encoding="utf-8"?>
<!-- Generator: Adobe Illustrator 25.0.0, SVG Export Plug-In . SVG Version: 6.00 Build 0)  -->
<svg version="1.1" xmlns="http://www.w3.org/2000/svg" xmlns:xlink="http://www.w3.org/1999/xlink" x="0px" y="0px"
	 viewBox="0 0 500 500" style="enable-background:new 0 0 500 500;" xml:space="preserve">
<style type="text/css">
	.st0{opacity:0.3;}
	.st1{fill:none;stroke:#2C54AC;stroke-width:1.0454;stroke-miterlimit:10;stroke-dasharray:4.3168,4.3168;}
	.st2{opacity:0.3;fill:#9DDCF9;}
	.st3{opacity:0.4;}
	.st4{fill:#FAC215;}
	.st5{fill:#55A3F3;}
	.st6{fill:none;stroke:#55A3F3;stroke-width:1.0506;stroke-miterlimit:10;}
	.st7{fill:#2C54AC;}
	.st8{fill:#FFFFFF;}
	.st9{fill:none;stroke:#2C54AC;stroke-width:0.9215;stroke-miterlimit:10;}
	.st10{fill:url(#SVGID_1_);}
	.st11{fill:none;stroke:#F97D16;stroke-width:1.1674;stroke-miterlimit:10;}
	.st12{fill:url(#SVGID_2_);}
	.st13{fill:#F97516;}
	.st14{fill:#FF8775;}
	.st15{fill:#0A2A6B;}
	.st16{fill:none;stroke:#0A2A6B;stroke-miterlimit:10;}
	.st17{opacity:0.31;}
	.st18{opacity:0.29;}
</style>
<g id="BACKGROUND">
	<g>
		<g class="st0">
			<path class="st1" d="M137.8,442.2c21.3-0.2,41.8-7.3,62.7-11.2c25.1-4.6,51-4.6,76.1,0.1c26.5,5,52.1,15.2,79.1,17.2
				c45,3.4,81.1-18,106.5-54.1c25.4-36.1,29.1-85.5,9.2-124.8c-6.8-13.4-16-25.5-22-39.2c-19.8-44.9,13.3-117.2-17-156.2
				c-16.5-21.3-44.3-32.5-71.7-34.1c-27.4-1.6-54.7,11.4-80.4,21c-24.7,9.3-57.8,30.5-83.8,25.3c-18.1-3.7-33.3-15.3-50.8-20.9
				c-37.3-12-80.5,6.6-102.3,38.2c-21.8,31.6-24.4,73.1-13.8,109.7c6.3,22,17.1,43.3,17.2,66.2c0,15-4.6,29.6-7.1,44.4
				C29.9,381.1,75.1,442.9,137.8,442.2z"/>
		</g>
		<path class="st2" d="M113.4,425.7c21.2,2.4,42.4-2.1,63.7-3.3c25.5-1.5,51.2,1.8,75.4,9.6c25.7,8.2,49.7,21.5,76.1,26.9
			c44.2,9,82.7-16.7,112.7-49.3c30-32.7,40.2-81.2,25.7-122.6c-4.9-14.1-12.4-27.3-16.6-41.6c-13.7-46.9,25.8-95.7,5.4-140.5
			c-11.1-24.4-34.1-40.4-61.1-45.3c-27-5-64-1.4-90.7,5c-25.8,6.1-60.2,24.1-85.3,15.7c-17.4-5.9-31-19.3-47.7-27
			c-35.4-16.5-80.7-3.4-106.6,25.2c-25.8,28.6-33.9,69.4-28.3,107.1c3.4,22.6,11.2,45.1,8.3,67.8c-1.9,14.9-8.5,28.8-12.9,43.1
			C14.6,351.8,51.2,418.6,113.4,425.7z"/>
	</g>
</g>
<g id="OBJECTS">
	<g class="st3">
		<g>
			<path class="st4" d="M453.5,209.2l-0.8-4.1c-0.5-2.6-0.6-4.8-0.3-6.7c0.3-1.9,0.8-3.5,1.6-5c0.8-1.5,1.6-2.8,2.4-4
				c1.1-1.6,2.1-3.1,3-4.6c0.8-1.5,1-3.3,0.6-5.4c-0.2-1.1-0.7-2.1-1.4-2.7c-0.7-0.7-1.5-1.1-2.4-1.4c-0.9-0.3-1.7-0.3-2.5-0.2
				c-1.5,0.3-2.7,0.9-3.6,1.8c-0.9,0.9-1.5,2-2,3.2c-0.4,1.2-0.8,2.5-1,3.8l-9.8-2.4c0.1-1,0.4-2.3,0.9-3.9c0.5-1.6,1.3-3.3,2.4-5
				c1.1-1.7,2.7-3.3,4.6-4.8c2-1.4,4.5-2.4,7.5-3.1c3-0.6,5.7-0.6,8.3-0.1c2.6,0.5,4.8,1.7,6.6,3.5c1.8,1.8,3.1,4.5,3.8,7.9
				c0.6,2.9,0.7,5.3,0.2,7.2c-0.4,1.9-1.1,3.6-2,5.1c-0.9,1.5-1.8,2.9-2.7,4.3c-0.7,1.1-1.4,2.2-1.9,3.4c-0.6,1.2-1,2.6-1.2,4.1
				c-0.2,1.5-0.1,3.2,0.3,5.2l0.3,1.6L453.5,209.2z M462.3,224.6c-1.9,0.4-3.5,0.2-4.9-0.6c-1.4-0.8-2.3-2-2.6-3.7
				c-0.3-1.6,0-3.1,1-4.4c1-1.3,2.4-2.2,4.2-2.6c1.8-0.4,3.4-0.1,4.8,0.7c1.4,0.9,2.3,2.1,2.6,3.7c0.3,1.7,0,3.1-0.9,4.4
				C465.6,223.4,464.2,224.3,462.3,224.6z"/>
		</g>
		<g>
			<path class="st5" d="M46.7,269.4l-1.6-3.5c-1-2.2-1.6-4.2-1.7-5.9c-0.1-1.7,0-3.3,0.4-4.8c0.4-1.4,0.8-2.8,1.3-4
				c0.7-1.6,1.2-3.2,1.7-4.7c0.4-1.5,0.2-3.1-0.6-4.9c-0.4-1-1.1-1.7-1.8-2.1c-0.8-0.4-1.6-0.7-2.5-0.7c-0.9-0.1-1.6,0.1-2.3,0.4
				c-1.3,0.6-2.2,1.4-2.8,2.4c-0.6,1-0.9,2.1-1.1,3.2c-0.1,1.2-0.2,2.4-0.1,3.6l-9.2-0.1c-0.1-0.9-0.1-2.1,0-3.7
				c0.1-1.5,0.5-3.2,1.1-5c0.6-1.8,1.7-3.5,3.1-5.2c1.4-1.7,3.4-3.1,6-4.3c2.5-1.1,5-1.8,7.4-1.8c2.4-0.1,4.6,0.5,6.6,1.8
				c2,1.2,3.7,3.3,5,6.2c1.1,2.4,1.7,4.5,1.7,6.3c0,1.8-0.2,3.4-0.7,4.9c-0.5,1.5-1,2.9-1.5,4.4c-0.4,1.1-0.7,2.2-1,3.5
				c-0.3,1.2-0.3,2.5-0.2,3.9c0.1,1.4,0.6,2.9,1.4,4.6l0.6,1.4L46.7,269.4z M57.7,281.2c-1.6,0.7-3.1,0.9-4.5,0.5
				c-1.4-0.4-2.4-1.3-3.1-2.7c-0.6-1.4-0.6-2.7,0-4.1c0.6-1.4,1.7-2.4,3.2-3.2c1.5-0.7,3-0.8,4.4-0.4c1.4,0.5,2.4,1.4,3.1,2.8
				c0.6,1.4,0.7,2.8,0.1,4.1C60.3,279.5,59.2,280.5,57.7,281.2z"/>
		</g>
		<g>
			<path class="st4" d="M258.5,51.4l0.5-3.2c0.3-2,0.8-3.7,1.5-4.9c0.7-1.3,1.5-2.3,2.5-3.2c0.9-0.8,1.9-1.6,2.8-2.2
				c1.2-0.8,2.4-1.7,3.3-2.6c1-0.9,1.6-2.1,1.9-3.7c0.1-0.9,0-1.7-0.3-2.3c-0.4-0.7-0.8-1.2-1.4-1.7c-0.6-0.4-1.2-0.7-1.8-0.8
				c-1.2-0.2-2.2-0.1-3.1,0.4c-0.9,0.4-1.6,1-2.2,1.8c-0.6,0.8-1.2,1.6-1.7,2.5l-6.5-4.3c0.4-0.7,0.9-1.5,1.7-2.6c0.8-1,1.8-2,3.1-3
				c1.3-1,2.8-1.7,4.6-2.2c1.8-0.5,3.8-0.6,6.2-0.2c2.3,0.3,4.3,1,6,2.1c1.7,1.1,3,2.5,3.8,4.3c0.8,1.8,1.1,4,0.7,6.7
				c-0.3,2.2-0.9,4-1.7,5.2c-0.8,1.3-1.7,2.3-2.8,3.1c-1,0.8-2.1,1.6-3.1,2.4c-0.8,0.6-1.6,1.2-2.3,2c-0.7,0.7-1.4,1.6-1.9,2.6
				c-0.5,1-0.9,2.3-1.1,3.8l-0.2,1.3L258.5,51.4z M260.8,64.8c-1.4-0.2-2.6-0.8-3.4-1.7c-0.8-0.9-1.1-2-0.9-3.3
				c0.2-1.2,0.8-2.2,1.9-2.9c1.1-0.7,2.3-0.9,3.7-0.7c1.4,0.2,2.5,0.8,3.3,1.8c0.8,1,1.1,2.1,0.9,3.3c-0.2,1.3-0.8,2.3-1.8,2.9
				C263.4,64.8,262.2,65,260.8,64.8z"/>
		</g>
		<g>
			<path class="st5" d="M230.2,88.1l-0.5-2.6c-0.3-1.6-0.4-3-0.2-4.2c0.2-1.2,0.5-2.2,1-3.1c0.5-0.9,1-1.7,1.5-2.5
				c0.7-1,1.4-1.9,1.9-2.8c0.5-0.9,0.7-2,0.4-3.3c-0.1-0.7-0.4-1.3-0.9-1.7c-0.4-0.4-1-0.7-1.5-0.9c-0.6-0.2-1.1-0.2-1.6-0.1
				c-0.9,0.2-1.7,0.5-2.2,1.1c-0.6,0.6-1,1.2-1.2,2c-0.3,0.8-0.5,1.5-0.6,2.3l-6.1-1.6c0.1-0.6,0.3-1.4,0.6-2.4c0.3-1,0.8-2,1.6-3.1
				c0.7-1.1,1.7-2,2.9-2.9c1.2-0.9,2.8-1.5,4.7-1.8c1.8-0.3,3.6-0.3,5.2,0c1.6,0.4,3,1.1,4.1,2.3c1.1,1.1,1.9,2.8,2.3,4.9
				c0.3,1.8,0.4,3.3,0.1,4.5c-0.3,1.2-0.7,2.2-1.3,3.1c-0.6,0.9-1.1,1.8-1.7,2.7c-0.4,0.7-0.9,1.4-1.2,2.1c-0.4,0.8-0.6,1.6-0.8,2.5
				c-0.1,0.9-0.1,2,0.2,3.2l0.2,1L230.2,88.1z M235.6,97.7c-1.2,0.2-2.2,0.1-3.1-0.4c-0.9-0.5-1.4-1.3-1.6-2.3c-0.2-1,0-1.9,0.7-2.7
				c0.6-0.8,1.5-1.3,2.7-1.6c1.1-0.2,2.1,0,3,0.5c0.9,0.5,1.4,1.3,1.6,2.3c0.2,1,0,1.9-0.6,2.7C237.6,97,236.7,97.5,235.6,97.7z"/>
		</g>
		<g>
			<path class="st5" d="M285.5,87.9l0.5-1.9c0.3-1.2,0.7-2.1,1.2-2.9c0.5-0.7,1-1.3,1.6-1.8c0.6-0.5,1.2-0.8,1.8-1.2
				c0.8-0.4,1.5-0.9,2.1-1.3c0.6-0.5,1.1-1.2,1.3-2.1c0.1-0.5,0.1-1-0.1-1.4c-0.2-0.4-0.4-0.8-0.7-1.1c-0.3-0.3-0.7-0.5-1-0.6
				c-0.7-0.2-1.3-0.2-1.8,0c-0.5,0.2-1,0.5-1.4,0.9c-0.4,0.4-0.8,0.9-1.2,1.4l-3.6-2.9c0.2-0.4,0.6-0.9,1.2-1.4
				c0.5-0.6,1.2-1.1,2-1.6c0.8-0.5,1.8-0.9,2.9-1.1c1.1-0.2,2.3-0.1,3.7,0.2c1.3,0.3,2.5,0.9,3.5,1.6c1,0.7,1.6,1.7,2,2.8
				c0.4,1.1,0.4,2.5,0,4c-0.3,1.3-0.8,2.3-1.3,3c-0.6,0.7-1.2,1.3-1.8,1.7c-0.7,0.4-1.3,0.8-2,1.3c-0.5,0.3-1,0.6-1.5,1
				c-0.5,0.4-0.9,0.9-1.3,1.5c-0.4,0.6-0.7,1.3-0.9,2.2l-0.2,0.7L285.5,87.9z M286.1,96c-0.9-0.2-1.5-0.6-1.9-1.2
				c-0.4-0.6-0.5-1.3-0.4-2c0.2-0.7,0.6-1.3,1.3-1.6c0.7-0.4,1.4-0.4,2.3-0.2c0.8,0.2,1.4,0.6,1.9,1.3c0.4,0.6,0.5,1.3,0.3,2
				c-0.2,0.8-0.6,1.3-1.2,1.6C287.7,96.1,286.9,96.2,286.1,96z"/>
		</g>
		<g>
			<path class="st5" d="M430.3,262.5l0.4-2.6c0.3-1.6,0.7-3,1.3-4c0.6-1,1.3-1.9,2-2.6c0.8-0.7,1.5-1.3,2.3-1.8c1-0.7,1.9-1.4,2.7-2
				c0.8-0.7,1.3-1.7,1.5-3c0.1-0.7,0-1.3-0.2-1.9c-0.3-0.5-0.6-1-1.1-1.4c-0.5-0.4-0.9-0.6-1.4-0.7c-0.9-0.2-1.8-0.1-2.5,0.3
				c-0.7,0.3-1.3,0.8-1.8,1.4c-0.5,0.6-1,1.3-1.4,2l-5.2-3.5c0.3-0.6,0.8-1.2,1.4-2.1c0.6-0.8,1.5-1.6,2.5-2.4
				c1-0.8,2.3-1.4,3.7-1.8c1.5-0.4,3.1-0.4,5-0.1c1.9,0.3,3.5,0.9,4.9,1.8c1.4,0.9,2.4,2,3.1,3.5c0.7,1.5,0.8,3.3,0.5,5.4
				c-0.3,1.8-0.8,3.2-1.4,4.2c-0.7,1-1.4,1.9-2.3,2.5c-0.8,0.6-1.7,1.3-2.5,1.9c-0.6,0.5-1.3,1-1.9,1.6c-0.6,0.6-1.1,1.3-1.6,2.1
				c-0.4,0.8-0.8,1.9-1,3.1l-0.2,1L430.3,262.5z M432,273.3c-1.2-0.2-2.1-0.7-2.7-1.4c-0.6-0.8-0.9-1.7-0.7-2.7
				c0.2-1,0.7-1.8,1.6-2.4c0.9-0.6,1.9-0.7,3-0.6c1.1,0.2,2,0.7,2.6,1.5c0.6,0.8,0.9,1.7,0.7,2.7c-0.2,1-0.7,1.8-1.5,2.3
				C434.2,273.3,433.2,273.5,432,273.3z"/>
		</g>
		<g>
			<path class="st4" d="M58.4,211.2l-0.1-2.6c0-1.6,0.1-3,0.5-4.1c0.4-1.1,0.9-2.1,1.5-2.8c0.6-0.8,1.2-1.5,1.9-2.2
				c0.9-0.8,1.6-1.7,2.3-2.5c0.7-0.8,1-1.9,0.9-3.2c0-0.7-0.2-1.3-0.6-1.8c-0.4-0.5-0.8-0.8-1.3-1.1c-0.5-0.3-1-0.4-1.5-0.4
				c-0.9,0-1.7,0.3-2.4,0.7c-0.6,0.5-1.1,1-1.5,1.7c-0.4,0.7-0.7,1.4-1,2.2l-5.7-2.5c0.2-0.6,0.5-1.3,1-2.3c0.5-0.9,1.1-1.9,2-2.8
				c0.9-0.9,2-1.7,3.3-2.4c1.3-0.7,2.9-1,4.8-1.1c1.9,0,3.5,0.2,5,0.8c1.5,0.6,2.7,1.5,3.6,2.8c0.9,1.3,1.4,3,1.5,5.2
				c0,1.8-0.2,3.2-0.6,4.4c-0.5,1.1-1,2.1-1.7,2.9c-0.7,0.8-1.4,1.6-2.1,2.3c-0.5,0.6-1.1,1.2-1.5,1.9c-0.5,0.7-0.9,1.5-1.1,2.4
				c-0.3,0.9-0.4,1.9-0.4,3.2l0,1L58.4,211.2z M62.1,221.4c-1.2,0-2.1-0.3-2.9-0.9c-0.8-0.6-1.2-1.4-1.2-2.5c0-1,0.3-1.9,1.1-2.6
				c0.7-0.7,1.7-1.1,2.8-1.1c1.1,0,2.1,0.3,2.8,1c0.8,0.7,1.1,1.5,1.2,2.5c0,1-0.3,1.9-1,2.5C64.2,221.1,63.2,221.4,62.1,221.4z"/>
		</g>
	</g>
	<g>
		<g>
			
				<ellipse transform="matrix(0.271 -0.9626 0.9626 0.271 -20.3378 176.3191)" class="st5" cx="106.2" cy="101.6" rx="70.4" ry="70.4"/>
			
				<ellipse transform="matrix(0.7219 -0.692 0.692 0.7219 -40.5882 101.8451)" class="st6" cx="106.4" cy="101.4" rx="76.9" ry="70.4"/>
			<polygon class="st5" points="100.2,168.7 129.1,193.7 115.9,159.1 			"/>
		</g>
		<g>
			<g>
				<path class="st7" d="M105.5,125.6l-1.7-6.5c-1.1-4.1-1.5-7.6-1.2-10.7c0.3-3,1-5.7,2.1-8.1c1.1-2.4,2.2-4.6,3.4-6.6
					c1.7-2.6,3.1-5.2,4.3-7.6c1.2-2.5,1.3-5.3,0.5-8.6c-0.5-1.8-1.3-3.2-2.6-4.2c-1.2-1-2.6-1.7-4-2c-1.5-0.4-2.8-0.4-4,0
					c-2.4,0.6-4.2,1.7-5.5,3.2c-1.3,1.5-2.2,3.3-2.8,5.3c-0.6,2-1,4-1.2,6.1l-3.3,0.9L76.8,83c0.1-1.6,0.5-3.7,1.1-6.3
					c0.6-2.6,1.7-5.4,3.4-8.3c1.6-2.9,4-5.6,6.9-8c3-2.5,6.8-4.3,11.6-5.6c4.7-1.2,9.1-1.6,13.2-1c4.1,0.6,7.8,2.3,10.9,5
					c3.1,2.7,5.4,6.8,6.8,12.2c1.2,4.5,1.6,8.3,1.1,11.4c-0.5,3.1-1.4,5.9-2.7,8.3c-1.3,2.4-2.6,4.8-3.9,7.1c-1,1.8-1.9,3.7-2.8,5.7
					c-0.8,2-1.3,4.2-1.5,6.6c-0.1,2.4,0.2,5.2,1,8.3l0.7,2.6L105.5,125.6z M121,149.2c-2.9,0.8-5.6,0.6-7.9-0.5
					c-2.3-1.1-3.8-3-4.5-5.6c-0.7-2.5-0.3-4.9,1.2-7.2c1.5-2.2,3.6-3.7,6.5-4.5c2.9-0.8,5.4-0.5,7.7,0.7c2.3,1.2,3.8,3.1,4.5,5.7
					c0.7,2.6,0.4,5-1,7C126.1,147,123.9,148.4,121,149.2z"/>
			</g>
			<g>
				<path class="st8" d="M102.1,126.5l-1.7-6.5c-1.1-4.1-1.5-7.6-1.2-10.7c0.3-3,1-5.7,2.1-8.1c1.1-2.4,2.2-4.6,3.4-6.6
					c1.7-2.6,3.1-5.2,4.3-7.6c1.2-2.5,1.3-5.3,0.5-8.6c-0.5-1.8-1.3-3.2-2.6-4.2c-1.2-1-2.6-1.7-4-2c-1.5-0.4-2.8-0.4-4,0
					c-2.4,0.6-4.2,1.7-5.5,3.2c-1.3,1.5-2.2,3.3-2.8,5.3c-0.6,2-1,4-1.2,6.1l-15.9-2.9c0.1-1.6,0.5-3.7,1.1-6.3
					c0.6-2.6,1.7-5.4,3.4-8.3c1.6-2.9,4-5.6,6.9-8c3-2.5,6.8-4.3,11.6-5.6c4.7-1.2,9.1-1.6,13.2-1c4.1,0.6,7.8,2.3,10.9,5
					c3.1,2.7,5.4,6.8,6.8,12.2c1.2,4.5,1.6,8.3,1.1,11.4c-0.5,3.1-1.4,5.9-2.7,8.3c-1.3,2.4-2.6,4.8-3.9,7.1c-1,1.8-1.9,3.7-2.8,5.7
					c-0.8,2-1.3,4.2-1.5,6.6c-0.1,2.4,0.2,5.2,1,8.3l0.7,2.6L102.1,126.5z M117.6,150.1c-2.9,0.8-5.6,0.6-7.9-0.5
					c-2.3-1.1-3.8-3-4.5-5.6c-0.7-2.5-0.3-4.9,1.2-7.2c1.5-2.2,3.6-3.7,6.5-4.5c2.9-0.8,5.4-0.5,7.7,0.7c2.3,1.2,3.8,3.1,4.5,5.7
					c0.7,2.6,0.4,5-1,7C122.7,147.9,120.6,149.3,117.6,150.1z"/>
			</g>
		</g>
	</g>
	<g>
		<g>
			
				<ellipse transform="matrix(0.963 -0.2694 0.2694 0.963 -9.9334 108.083)" class="st7" cx="388.8" cy="90.2" rx="73.2" ry="73.2"/>
			<ellipse class="st9" cx="389" cy="90.2" rx="79.9" ry="73.2"/>
			<polygon class="st7" points="417.2,152.8 398.9,188.1 398.4,149.7 			"/>
		</g>
		<g>
			<g>
				<path class="st5" d="M382.8,112l0.3-6.7c0.2-4.2,0.9-7.7,2.1-10.5c1.2-2.8,2.7-5.1,4.4-7.1c1.8-1.9,3.5-3.7,5.3-5.2
					c2.4-2,4.5-4,6.4-6c1.9-2,2.9-4.7,3.1-8.1c0.1-1.9-0.3-3.4-1.2-4.8c-0.9-1.3-1.9-2.4-3.2-3.1c-1.3-0.8-2.5-1.2-3.8-1.3
					c-2.5-0.1-4.5,0.3-6.2,1.4c-1.7,1.1-3.1,2.5-4.3,4.2c-1.1,1.7-2.1,3.5-3,5.4l-3.5-0.2l-10.8-7.4c0.6-1.5,1.6-3.4,3-5.7
					c1.4-2.3,3.3-4.6,5.7-6.8c2.4-2.3,5.5-4.1,9.1-5.5c3.6-1.4,7.8-2,12.7-1.8c4.8,0.2,9.1,1.3,12.9,3.1c3.8,1.8,6.7,4.5,8.8,8.1
					c2.1,3.5,3,8.1,2.8,13.7c-0.2,4.7-1.1,8.4-2.5,11.2c-1.4,2.8-3.1,5.2-5.1,7.1c-2,1.9-3.9,3.8-5.9,5.6c-1.5,1.4-3,2.9-4.4,4.6
					c-1.4,1.7-2.5,3.6-3.4,5.9c-0.9,2.2-1.4,5-1.6,8.2l-0.1,2.7L382.8,112z M390.3,139.2c-3-0.2-5.5-1.1-7.4-2.8
					c-1.9-1.7-2.7-4-2.6-6.7c0.1-2.6,1.2-4.8,3.3-6.5c2.1-1.7,4.6-2.4,7.6-2.3c3,0.1,5.3,1.2,7.2,3c1.8,1.9,2.7,4.1,2.5,6.7
					c-0.1,2.7-1.2,4.8-3.1,6.4C395.9,138.7,393.4,139.4,390.3,139.2z"/>
			</g>
			<g>
				<path class="st8" d="M379.3,111.8l0.3-6.7c0.2-4.2,0.9-7.7,2.1-10.5c1.2-2.8,2.7-5.1,4.4-7.1c1.8-1.9,3.5-3.7,5.3-5.2
					c2.4-2,4.5-4,6.4-6c1.9-2,2.9-4.7,3.1-8.1c0.1-1.9-0.3-3.4-1.2-4.8c-0.9-1.3-1.9-2.4-3.2-3.1c-1.3-0.8-2.5-1.2-3.8-1.3
					c-2.5-0.1-4.5,0.3-6.2,1.4c-1.7,1.1-3.1,2.5-4.3,4.2c-1.1,1.7-2.1,3.5-3,5.4L365,62.5c0.6-1.5,1.6-3.4,3-5.7
					c1.4-2.3,3.3-4.6,5.7-6.8c2.4-2.3,5.5-4.1,9.1-5.5c3.6-1.4,7.8-2,12.7-1.8c4.8,0.2,9.1,1.3,12.9,3.1c3.8,1.8,6.7,4.5,8.8,8.1
					c2.1,3.5,3,8.1,2.8,13.7c-0.2,4.7-1.1,8.4-2.5,11.2c-1.4,2.8-3.1,5.2-5.1,7.1c-2,1.9-3.9,3.8-5.9,5.6c-1.5,1.4-3,2.9-4.4,4.6
					c-1.4,1.7-2.5,3.6-3.4,5.9c-0.9,2.2-1.4,5-1.6,8.2l-0.1,2.7L379.3,111.8z M386.9,139c-3-0.2-5.5-1.1-7.4-2.8
					c-1.9-1.7-2.7-4-2.6-6.7c0.1-2.6,1.2-4.8,3.3-6.5c2.1-1.7,4.6-2.4,7.6-2.3c3,0.1,5.3,1.2,7.2,3c1.8,1.9,2.7,4.1,2.5,6.7
					c-0.1,2.7-1.2,4.8-3.1,6.4C392.4,138.5,389.9,139.2,386.9,139z"/>
			</g>
		</g>
	</g>
	<g>
		<g>
			<linearGradient id="SVGID_1_" gradientUnits="userSpaceOnUse" x1="152.166" y1="74.6532" x2="292.7374" y2="210.9389">
				<stop  offset="0" style="stop-color:#FACC15"/>
				<stop  offset="1" style="stop-color:#F97316"/>
			</linearGradient>
			<circle class="st10" cx="250" cy="169.5" r="57.3"/>
			
				<ellipse transform="matrix(0.9554 -0.2952 0.2952 0.9554 -38.9773 81.5103)" class="st11" cx="250.5" cy="169.8" rx="62.4" ry="57.3"/>
			<linearGradient id="SVGID_2_" gradientUnits="userSpaceOnUse" x1="129.1712" y1="98.371" x2="269.7427" y2="234.6567">
				<stop  offset="0" style="stop-color:#FACC15"/>
				<stop  offset="1" style="stop-color:#F97316"/>
			</linearGradient>
			<polygon class="st12" points="251.7,224 267.9,244.2 265.9,219.6 			"/>
		</g>
		<g>
			<g>
				<path class="st13" d="M247.1,188.7l-0.7-5.4c-0.4-3.4-0.4-6.3,0.2-8.7c0.6-2.4,1.4-4.5,2.5-6.3c1.1-1.8,2.3-3.4,3.5-4.9
					c1.6-1.9,3.1-3.8,4.3-5.7c1.2-1.9,1.7-4.1,1.3-6.9c-0.2-1.5-0.7-2.7-1.6-3.6c-0.9-0.9-1.9-1.6-3-2.1c-1.1-0.4-2.2-0.6-3.2-0.5
					c-2,0.2-3.6,0.9-4.8,2c-1.2,1.1-2.2,2.4-2.8,3.9c-0.7,1.5-1.2,3.1-1.6,4.8l-2.8,0.4l-9.7-4.4c0.3-1.3,0.8-2.9,1.6-5
					c0.8-2,2-4.1,3.6-6.3c1.6-2.1,3.8-4,6.5-5.7c2.7-1.7,6-2.7,9.9-3.2c3.9-0.5,7.5-0.3,10.7,0.7c3.3,0.9,6,2.7,8.2,5.2
					c2.2,2.5,3.6,6,4.1,10.5c0.5,3.8,0.3,6.9-0.4,9.3c-0.7,2.4-1.7,4.6-3,6.4c-1.3,1.8-2.6,3.6-3.9,5.3c-1,1.3-2,2.7-2.8,4.3
					c-0.9,1.5-1.5,3.3-1.9,5.2c-0.4,1.9-0.4,4.2-0.1,6.8l0.3,2.1L247.1,188.7z M257,209.4c-2.5,0.3-4.6-0.1-6.3-1.2
					c-1.7-1.1-2.7-2.8-3-5c-0.3-2.1,0.3-4,1.7-5.6c1.4-1.6,3.3-2.6,5.7-2.9c2.4-0.3,4.4,0.2,6.2,1.4c1.7,1.2,2.7,2.9,3,5
					c0.3,2.2-0.3,4-1.6,5.6C261.3,208.2,259.4,209.1,257,209.4z"/>
			</g>
			<g>
				<path class="st8" d="M244.3,189.1l-0.7-5.4c-0.4-3.4-0.4-6.3,0.2-8.7c0.6-2.4,1.4-4.5,2.5-6.3c1.1-1.8,2.3-3.4,3.5-4.9
					c1.6-1.9,3.1-3.8,4.3-5.7c1.2-1.9,1.7-4.1,1.3-6.9c-0.2-1.5-0.7-2.7-1.6-3.6c-0.9-0.9-1.9-1.6-3-2.1c-1.1-0.4-2.2-0.6-3.2-0.5
					c-2,0.2-3.6,0.9-4.8,2c-1.2,1.1-2.2,2.4-2.8,3.9c-0.7,1.5-1.2,3.1-1.6,4.8l-12.5-4c0.3-1.3,0.8-2.9,1.6-5c0.8-2,2-4.1,3.6-6.3
					c1.6-2.1,3.8-4,6.5-5.7c2.7-1.7,6-2.7,9.9-3.2c3.9-0.5,7.5-0.3,10.7,0.7c3.3,0.9,6,2.7,8.2,5.2c2.2,2.5,3.6,6,4.1,10.5
					c0.5,3.8,0.3,6.9-0.4,9.3c-0.7,2.4-1.7,4.6-3,6.4c-1.3,1.8-2.6,3.6-3.9,5.3c-1,1.3-2,2.7-2.8,4.3c-0.9,1.5-1.5,3.3-1.9,5.2
					c-0.4,1.9-0.4,4.2-0.1,6.8l0.3,2.1L244.3,189.1z M254.2,209.7c-2.5,0.3-4.6-0.1-6.3-1.2c-1.7-1.1-2.7-2.8-3-5
					c-0.3-2.1,0.3-4,1.7-5.6c1.4-1.6,3.3-2.6,5.7-2.9c2.4-0.3,4.4,0.2,6.2,1.4c1.7,1.2,2.7,2.9,3,5c0.3,2.2-0.3,4-1.6,5.6
					C258.5,208.5,256.7,209.4,254.2,209.7z"/>
			</g>
		</g>
	</g>
	<g>
		<path class="st14" d="M101.7,479.9l-41.6-26.3l12.2-24.9l-29.6-11.2l-20.8,46.6c0,0,29.5,13.4,49.9,21.1
			c20.4,7.7,35.1,8.2,35.1,8.2L101.7,479.9z"/>
		<polygon class="st15" points="229.2,455.3 235.8,500 101.5,500 111.6,463.7 		"/>
		<path class="st14" d="M123.3,268.7v48.1l-11.7,5.8c0,0,21.1,37.3,39.4,25.5c18.3-11.9,18-32.4,18-32.4l-14.2-0.6l-1.2-16.8
			L130.9,265L123.3,268.7z"/>
		<path class="st14" d="M124.2,225.7c-2.4,7.2-2.8,15-2.6,22.6c0.4,15.2,5.5,30.4,12.3,43.6c1.8,3.4,3.8,6.7,6.4,9.4
			c7.4,7.6,21.1,9.3,29.8,3.7c3.1-2,5.8-4.8,8.2-7.8c6.6-8.2,8.3-19.4,10.2-31c1.9-11.7,3.8-23.9,2.1-34.8c-1-6.2-3.9-8.8-7.2-13.9
			c-4.8-7.3-12.6-11.7-20.6-12.8c-8.2-1.2-16.5,1-24.4,3.7C131.5,210.8,126.6,218.6,124.2,225.7z"/>
		<path class="st15" d="M129,225.8c3.9,14.1,2.5,29.6-3.9,42.8c-5.8-2.9-11.2-7.5-14.2-13.3c-3.1-5.7-4.7-12.1-5.4-18.6
			c-0.6-4.6-0.6-9.5,1.3-13.8c1.9-4.3,6.3-7.7,11-7.2c0.6-5.5,4.7-10.8,9.2-14.1c4.5-3.3,10-5,15.5-5.8c16-2.5,32.9,1.8,45.6,11.8
			c3.3,2.5,6.4,5.5,8,9.3c1.6,3.8,1.5,8.6-1.2,11.7c-3.2,3.7-8.7,4.1-13.6,4.2C162.5,233.3,145.8,233.7,129,225.8z"/>
		<g>
			<path class="st14" d="M109.6,260.6c0.6,4.1,3,8,6.5,10.3c1.1,0.7,2.3,1.3,3.6,1.4c3,0.2,5.6-2.2,6.5-5c0.9-2.8,0.4-5.9-0.5-8.7
				c-1.2-3.6-3.4-7.5-7.1-8.3C112.7,248.8,108.9,255.4,109.6,260.6z"/>
			<path class="st14" d="M123.3,268.7c-1.3-0.4-2.5-1.2-3.4-2.2c-0.2-0.2-0.4-0.4-0.4-0.7c-0.1-0.5,0.3-1,0.7-1.3
				c0.7-0.7,1.5-1.5,2.2-2.2c0.1-0.1,0.3-0.3,0.4-0.5c0.1-0.2,0-0.5-0.1-0.7c-0.8-2.8-1.8-5.8-4.3-7.5c-0.7-0.4-1.4-0.8-2.2-0.8
				c-1.2,0-2.3,0.7-3,1.6c-0.8,0.9-1.2,2-1.6,3.1c0,0-0.6,6,3.6,9.6C119.3,270.7,123.3,268.7,123.3,268.7z"/>
			<g>
				<path class="st15" d="M111.6,257.5c0.3-1.2,0.7-2.3,1.5-3.4c0.8-1,2-1.8,3.4-1.7c1.4,0.1,2.5,0.9,3.5,1.8
					c0.9,0.9,1.6,2.1,2.1,3.2c0.5,1.2,0.9,2.3,1.2,3.5c0,0.1,0.1,0.3,0.1,0.6c0,0.2,0,0.5-0.2,0.8c-0.3,0.4-0.5,0.5-0.7,0.8
					l-1.3,1.2c-0.4,0.4-1,0.8-1.2,1.2c-0.1,0.2-0.1,0.3,0,0.6c0.1,0.2,0.3,0.4,0.5,0.7c0.7,0.9,1.8,1.6,2.9,2.1
					c-1.2-0.2-2.3-0.8-3.3-1.7c-0.2-0.2-0.5-0.4-0.7-0.7c-0.2-0.3-0.2-0.8-0.1-1.2c0.2-0.4,0.4-0.6,0.6-0.9l0.6-0.7l1.2-1.3
					c0.2-0.2,0.5-0.5,0.5-0.6c0,0,0-0.1-0.1-0.4c-0.4-1.1-0.7-2.3-1.2-3.4c-0.5-1.1-1-2.1-1.8-2.9c-0.7-0.8-1.7-1.5-2.7-1.7
					c-1-0.1-2.1,0.4-2.9,1.2C112.7,255.3,112.2,256.4,111.6,257.5z"/>
			</g>
		</g>
		<path class="st5" d="M117.5,319.7c0,0-42.4,19.7-49.4,26.3c-6.9,6.7-43.1,65.1-43.1,65.1s11.4,13,24.6,18.2s27.7,5.5,27.7,5.5
			L93,401.5l18.6,62.2c0,0,30,22,68.7,16.8c38.8-5.2,48.9-25.2,48.9-25.2l-7.5-53.4c0,0,14.5-3.6,24-11.1
			c9.5-7.5,20.8-21.7,20.8-21.7s-46-43.7-50.9-49.2c-4.9-5.5-51.2-4.5-51.2-4.5s1.7,17.3-12.1,20.1
			C138.4,338.5,117.5,319.7,117.5,319.7z"/>
		<path class="st15" d="M154.4,308.1c-5.1-1.1-9.8-3.6-13.9-7c-3.6-3-6.5-6.8-9.3-10.6c1.1,2.3,1.7,4.1,3.1,6.3
			c2.3,3.6,5,7.1,8.3,9.8c3.3,2.7,7.8,5,12,5.3"/>
		<path class="st15" d="M157.4,254.7c0,2-1.1,3.7-2.5,3.7c-1.4,0-2.5-1.6-2.5-3.7s1.1-3.7,2.5-3.7
			C156.3,251.1,157.4,252.7,157.4,254.7z"/>
		<path class="st15" d="M182.8,254.7c0,2-1.1,3.7-2.5,3.7c-1.4,0-2.5-1.6-2.5-3.7s1.1-3.7,2.5-3.7
			C181.7,251.1,182.8,252.7,182.8,254.7z"/>
		<g>
			<path class="st15" d="M170.3,250c1.1,1.9,2,4,2.7,6c0.7,2.1,1.3,4.2,1.8,6.4c0.5,2.2,0.7,4.4,0.9,6.6c0.1,2.2,0.1,4.5-0.1,6.7
				l-0.1,0.5l-0.5,0c-1.9,0-3.7-0.1-5.6-0.2c-1.9-0.1-3.7-0.2-5.6-0.4c1.9-0.2,3.7-0.3,5.6-0.4c1.9-0.1,3.7-0.1,5.6-0.2l-0.5,0.5
				c0.3-4.3-0.1-8.7-0.8-13c-0.4-2.1-0.8-4.3-1.4-6.4C171.7,254.2,171.1,252.1,170.3,250z"/>
		</g>
		<ellipse class="st15" cx="169" cy="289.8" rx="4.7" ry="2"/>
		<g>
			<path class="st15" d="M143.7,248.6c0.7-1.9,1.9-3.6,3.3-5.1c1.4-1.5,3.2-2.7,5.1-3.6c0.9-0.5,1.9-0.9,2.9-1.3
				c1-0.4,2.1-0.6,3.1-0.6c2.1,0,4.2,0.5,6.1,1.8l0,0.4c-2,0.9-3.8,1.4-5.6,1.8c-0.9,0.2-1.7,0.4-2.6,0.4c-0.9,0.1-1.8,0.2-2.7,0.4
				c-0.9,0.2-1.7,0.6-2.5,0.9c-0.8,0.4-1.7,0.8-2.4,1.3c-1.6,1-3,2.2-4.2,3.7L143.7,248.6z"/>
		</g>
		<g>
			<path class="st15" d="M188.3,248.8c-1.1-1.4-2.3-2.7-3.7-3.6c-1.4-1-2.9-1.8-4.4-2.3c-0.8-0.3-1.6-0.4-2.4-0.5
				c-0.8-0.1-1.6-0.2-2.4-0.5c-0.8-0.2-1.6-0.4-2.4-0.7c-0.8-0.3-1.7-0.6-2.6-1l0-0.4c0.8-0.6,1.8-1,2.7-1.3
				c0.9-0.3,1.9-0.4,2.9-0.4c1,0,2,0.2,2.9,0.6c0.9,0.4,1.8,0.9,2.6,1.3c1.7,1,3.2,2.2,4.5,3.7c1.2,1.5,2.2,3.1,2.8,4.9L188.3,248.8
				z"/>
		</g>
		<path class="st16" d="M111.6,322.6c0,0,22.4,22.1,43.1,17.4c20.7-4.6,16.1-24.6,16.1-24.6"/>
		<g>
			<path class="st15" d="M222.1,404c-0.5-5.2-1.1-10.3-1.7-15.5c-0.6-5.2-1.3-10.3-2.2-15.4c-0.8-5.1-1.7-10.2-2.6-15.3
				c-0.5-2.6-1-5.1-1.5-7.6l-1.6-7.6c0.7,2.5,1.4,5,2.1,7.5c0.6,2.5,1.2,5.1,1.8,7.6c1.1,5.1,2,10.2,2.9,15.3
				c0.8,5.1,1.5,10.3,1.9,15.5C221.7,393.6,222,398.8,222.1,404z"/>
		</g>
		<path class="st16" d="M261.3,364.2c0,0-7.8,13.2-16.7,19.5c-8.9,6.3-23,11.9-23,11.9"/>
		<g>
			<path class="st15" d="M91.8,403.4c1.4-4.2,2.6-8.5,3.3-12.9c0.7-4.4,1.1-8.8,0.8-13.2c-0.2-4.4-1-8.8-2.4-12.9
				c-0.7-2.1-1.5-4.1-2.6-6.1c-1-2-2.2-3.8-3.5-5.6c1.5,1.7,2.8,3.5,3.9,5.4c1.1,1.9,2.1,4,2.9,6.1c1.6,4.2,2.4,8.7,2.7,13.1
				c0.2,4.5-0.2,9-1.1,13.4C95,395.1,93.6,399.3,91.8,403.4z"/>
		</g>
		<path class="st16" d="M28.1,406.1c0,0,6.9,9.4,21.7,16.7c14.9,7.3,30.4,6,30.4,6"/>
		<g class="st17">
			<g>
				<path class="st8" d="M118.5,211.3c1.5,0.9,3.1,1.7,4.8,2.3c1.7,0.6,3.4,1.1,5.1,1.5c3.4,0.8,7,1.1,10.5,1.2
					c7.1,0.2,14.1-0.8,21.2-1.5c3.5-0.3,7.1-0.6,10.7-0.6c1.8,0,3.6,0,5.4,0.2c1.8,0.1,3.6,0.4,5.3,0.8c3.5,0.8,7,2.3,9.4,5
					c1.2,1.4,2.1,2.9,2.7,4.7c0.5,1.7,0.6,3.6,0.1,5.3c0.8-3.5-0.7-7.2-3.1-9.6c-2.4-2.5-5.8-3.9-9.2-4.6
					c-6.9-1.3-14.1-0.8-21.1-0.1c-7.1,0.6-14.2,1.6-21.3,1.3c-3.6-0.2-7.1-0.6-10.6-1.5C124.8,214.7,121.5,213.3,118.5,211.3z"/>
			</g>
			<g>
				<path class="st8" d="M125.7,202.6c1.2,0.4,2.3,0.7,3.5,0.9c1.2,0.2,2.4,0.3,3.6,0.4c2.4,0.1,4.8,0,7.2-0.3
					c4.8-0.6,9.5-1.8,14.3-2.9c4.8-1,9.7-1.9,14.6-1.6c2.5,0.2,4.9,0.6,7.2,1.4c2.3,0.8,4.5,2.1,6.3,3.7c-1-0.7-2-1.4-3.1-1.9
					c-1.1-0.5-2.2-1-3.4-1.3c-2.3-0.7-4.7-1.1-7.1-1.1c-4.8-0.2-9.6,0.7-14.4,1.8c-4.8,1-9.5,2.3-14.4,2.7c-2.4,0.2-4.9,0.3-7.4,0
					C130.4,204.2,128,203.6,125.7,202.6z"/>
			</g>
			<g>
				<path class="st8" d="M124.3,225c0.3,1.2,0.3,2.5,0.1,3.7c-0.2,1.2-0.7,2.4-1.2,3.5c-1,2.3-2.5,4.3-4.1,6.2
					c-1.7,1.8-3.6,3.4-5.8,4.6c-2.1,1.2-4.5,2.1-6.9,2.6c1.1-0.5,2.3-0.9,3.3-1.5c1.1-0.5,2.1-1.1,3.1-1.8c2-1.3,3.8-2.9,5.4-4.6
					c1.6-1.8,3-3.7,4.2-5.8c0.6-1.1,1-2.2,1.4-3.3C124.2,227.4,124.3,226.2,124.3,225z"/>
			</g>
			<g>
				<path class="st8" d="M115.2,219.7c-0.4,2.7-1.7,5.3-3.5,7.4c-1.8,2.1-4.1,3.8-6.7,4.7l-0.3,0.1l0.2-0.3c0.2-0.3,0.3-0.6,0.5-0.9
					c-0.1,0.3-0.2,0.7-0.3,1l-0.2-0.2c2.3-1.4,4.4-3.1,6.1-5.1C112.7,224.4,114.1,222.2,115.2,219.7z"/>
			</g>
		</g>
		<path class="st14" d="M105.3,493.3c0,0,5.3-1.1,7.5-2.8c2.2-1.7,4.3-4.2,4.6-7c2.9,0.4,5,2.8,7.6,4c0.3,0.1,0.7,0.3,1,0.1
			c0.5-0.2,0.4-0.9,0.3-1.5c-1.6-5.5-6.6-10.1-12.3-10.9c2.8,0.4,5.6,0.8,8.1,2c1.8,0.9,3.4,2.1,5.3,2.5c0.2,0,0.4,0.1,0.6,0
			c0.2-0.1,0.2-0.3,0.3-0.5c0.1-1.1-0.7-2-1.5-2.7c-4.3-3.8-9.6-6.3-15.3-7.1c5.7-1.1,11.7,0,16.8,2.8c0.5,0.3,1,0.6,1.6,0.6
			c0.6,0,1.2-0.4,1.3-1c0-0.2-0.1-0.5-0.2-0.7c-1-2.2-3-3.9-5.2-5.1c-5.4-3.1-11.9-4.5-18-3.4c5.5-2.1,11.7-2.3,17.4-0.5
			c1.5,0.5,3.1,1.1,4.7,1.4c0.2,0,0.4,0,0.5-0.1c0.3-0.2,0.1-0.6-0.1-0.9c-2.4-3.7-6.6-6.1-11-6.9c-4.4-0.8-9.4-0.8-12.8,2
			c0,0-1.8,3.7-2.5,8.4c-0.7,4.6-2.2,13.8-2.2,13.8l-4.4,0.2l7.1,13.1L105.3,493.3z"/>
		<path class="st14" d="M256,381.2c0,0-3.6,4.2-10.7,9.4c-4.7,3.4-11.5,7.1-11.5,7.1l24.8,33.2l-19.1,32.6c0,0-3.2-8.6-4.9-12.9
			c-1.6-4.3-4.1-7.6-4.1-7.6c-3.9-2-8.7-1-12.8,0.6c-4.1,1.6-7.6,4.8-9.2,8.8c-0.1,0.3-0.2,0.7,0.1,0.9c0,0,0.1,0,0.2,0
			c0.8,0.1,1.6-0.3,2.3-0.8c5.5-3.9,12.5-5.5,19.2-4.4c-7.3,0.2-14.4,3.9-19.1,9.4c-0.9,1.1-1.6,2.5-1.6,3.9c0,0.1,0,0.1,0,0.2
			c0.1,0.6,0.9,0.8,1.4,0.7c0.6-0.1,1-0.6,1.4-0.9c4.3-3.7,9.9-5.9,15.6-6c-5.4,2-9.9,5.3-13.3,9.9c-0.6,0.8-1.2,1.9-0.9,2.9
			c0.1,0.2,0.2,0.4,0.4,0.5c0.2,0.1,0.4,0,0.6-0.1c1.8-0.8,3.1-2.3,4.6-3.5c2.2-1.7,4.8-2.6,7.4-3.6c-5.3,1.9-9.2,7.3-9.7,12.9
			c0,0.5,0,1.2,0.6,1.3c0.3,0.1,0.6-0.1,0.9-0.3c2.3-1.7,3.8-4.4,6.5-5.4c0.8,2.6,3.3,4.7,5.8,5.9c2.5,1.2,5,1.2,5,1.2l0,0
			c4.8-0.2,9.3-2.1,12.8-5.3l42.4-46.8L256,381.2z"/>
		<g>
			<path class="st15" d="M254.4,438c1.2-2.7,2.6-5.2,4.2-7.7c1.6-2.5,3.3-4.9,5.3-7c1-1.1,2.1-2.1,3.3-3c1.2-0.8,2.5-1.6,3.8-2.3
				c2.6-1.3,5.4-2.4,8.3-2.9c-1.4,0.4-2.8,1-4.1,1.6c-1.3,0.6-2.6,1.2-3.9,2c-2.5,1.5-4.9,3.1-6.8,5.2c-2,2.1-3.7,4.4-5.4,6.8
				c-0.8,1.2-1.7,2.4-2.5,3.6C256,435.5,255.2,436.8,254.4,438z"/>
		</g>
		<g>
			<path class="st15" d="M67.3,458.1l-2.9-1.7c-1-0.6-2-1.1-2.9-1.7c-1-0.5-1.9-1.1-3-1.5c-1-0.4-2.1-0.8-3.1-1.1
				c-2.1-0.6-4.3-0.9-6.6-1.2c-2.2-0.2-4.5-0.2-6.7,0c1.1-0.3,2.2-0.5,3.3-0.6c1.1-0.1,2.3-0.1,3.4-0.1c2.3,0,4.6,0.4,6.8,1
				c1.1,0.3,2.2,0.7,3.3,1.2c1.1,0.5,2,1.1,3,1.7C63.7,455.3,65.6,456.6,67.3,458.1z"/>
		</g>
	</g>
	<g>
		<g>
			<g>
				<path class="st14" d="M318.4,360.1c0,0-6.1-12.5-10.2-15.5c-4.1-3-14.1-6.5-16-6.4c-1.9,0.1-0.9,3.9-0.1,4.7
					c0.8,0.8,6.7,4.7,6.7,4.7s-9.7-3.5-12-5.2c-2.2-1.7-15-14.3-16.4-13.9c-1.4,0.5-0.2,5.6,1.8,7.9c2,2.2,13.6,12.7,13.6,12.7
					s-19.3-15.6-20.6-15.1c-1.3,0.6-2.5,10.4,2.9,16.4c5.4,6,14.2,11,17.6,12.1c3.4,1.1,14.6,2.9,14.6,2.9l4.1,4.3L318.4,360.1z"/>
				<g>
					<path class="st15" d="M298.7,347.5c0.3,2,0.8,4,1.6,5.8c0.8,1.8,1.8,3.5,3,5.2c-1.7-1.2-3-3-3.8-4.9
						C298.7,351.7,298.4,349.6,298.7,347.5z"/>
				</g>
				<g>
					<path class="st15" d="M265.4,345.6c0-0.5,0.6-0.9,1.1-0.8c0.5,0,1,0.4,1.4,0.7c0.7,0.6,1.5,1.3,2.2,1.9c1.5,1.2,3,2.4,4.5,3.6
						c1.5,1.2,3.1,2.3,4.7,3.3c1.6,1.1,3.2,2.1,4.9,3.1c-1.8-0.7-3.5-1.6-5.2-2.6c-1.7-1-3.3-2.1-4.9-3.2c-1.5-1.2-3.1-2.4-4.5-3.8
						c-0.7-0.7-1.4-1.4-2.1-2.1c-0.3-0.3-0.7-0.7-1.1-0.7C266.1,344.9,265.5,345.1,265.4,345.6z"/>
				</g>
				<g>
					<path class="st15" d="M264.1,340.1c0.1-0.5,0.3-1,0.7-1.5c0.2-0.2,0.4-0.4,0.7-0.4c0.3-0.1,0.6,0,0.9,0.2
						c0.5,0.3,0.8,0.7,1.2,1l1.2,1c1.6,1.4,3.2,2.7,4.9,4c1.6,1.3,3.3,2.6,5,3.8c1.7,1.3,3.3,2.5,5,3.9c-1.8-1.1-3.6-2.2-5.3-3.4
						c-1.7-1.2-3.4-2.4-5.1-3.7c-1.6-1.3-3.3-2.7-4.8-4.1l-1.1-1.1c-0.4-0.4-0.7-0.8-1.1-1.1c-0.4-0.3-0.9-0.3-1.2,0.1
						C264.6,339.2,264.3,339.7,264.1,340.1z"/>
				</g>
			</g>
			<polygon class="st14" points="300.2,365.3 330.9,465.9 348.2,430.5 318.4,360.1 			"/>
		</g>
		<path class="st14" d="M389.7,276.1c0,0,18.8-21.4,17.3-35.5c-0.6-6.1-2.3-12-4.9-17.6c-1.8-3.8-4.1-7.5-7.4-10.1
			c-4.2-3.3-9.6-4.6-14.8-6c-7.6-2-15.5-4.4-23.3-3.3c-5.8,0.8-11.3,3.2-16.5,6c-6.6,3.4-9.1,10-11.5,17c-2.4,7-3.9,14.3-3.9,21.7
			c0,2.9,0,5.8-0.8,8.6c-1.3,4.4-9.6,11.3-9.6,11.3s5.7,3,8.6,3.6c1.1,3.7,2,7,2.9,10.1c0.1,0,0.2,0,0.3,0c1.8,0,4.3,1,4.3,2.1
			c0,0.9-2.1,1.7-3.4,2c0.7,2.1,1.5,4.3,2.5,6.7c0.8,1.8,3.4,6.5,5,7.6c1.6,1.1,3.7,1.3,5.7,1.2c5.7-0.1,11.5-1.5,16.6-4
			c0.4,2.5,0.4,4.4,0.6,6.9c0.2,1.9,0.3,3.9,0,5.8c-0.7,4.2-3.3,7.9-5.8,11.4c5.8,2.5,12.3,1.9,18.6,1c6.9-1.1,14.4-2.7,19-8
			c1.8,0,1.2-0.3,1.7-2c0.5-1.7,0.4-5.3,0.4-5.3L389.7,276.1z"/>
		<path class="st15" d="M391.5,307.3c0,0-8.8,7.5-20.1,10.6c-11.3,3.1-17.8,1.1-17.8,1.1s-16.7,25.3-19.4,60.9S327.4,500,327.4,500
			h21h95.1l-24.3-122l22.5-10.3c0,0-9.4-23-18.6-37.7C411.2,311,391.5,307.3,391.5,307.3z"/>
		<polygon class="st14" points="429.8,373.2 398.7,387.1 414.3,434.6 388.8,500 409.3,500 441.4,432.5 		"/>
		<g>
			<path class="st8" d="M398.7,387.1l-6.6,3.3c-2.2,1.1-4.4,2.2-6.6,3.3l-0.3,0.1l-0.1-0.3c-2.2-5.5-4.3-11-6.2-16.6
				c-1.9-5.6-3.8-11.2-5.2-16.9c-0.7-2.9-1.4-5.8-1.8-8.7c-0.4-2.9-0.5-5.9-0.5-8.9c0-5.9,0.6-11.8,1.9-17.6
				c-0.9,5.8-1.3,11.7-1.2,17.6c0.1,2.9,0.3,5.9,0.7,8.7c0.4,2.9,1.1,5.7,1.8,8.6c1.5,5.7,3.3,11.3,5.2,16.9
				c0.9,2.8,1.9,5.6,2.9,8.3c1,2.8,2,5.5,3,8.3l-0.4-0.2c2.2-1,4.5-2.1,6.7-3.1L398.7,387.1z"/>
		</g>
		<path class="st15" d="M356.4,297.7c4.2-2.7,7.9-6.3,10.8-10.5c-1.9,5.6-5.7,11.5-9.8,15.8L356.4,297.7z"/>
		<path class="st15" d="M335.2,255.4c0,1.8-1,3.3-2.2,3.3c-1.2,0-2.2-1.5-2.2-3.3c0-1.8,1-3.3,2.2-3.3
			C334.3,252.1,335.2,253.6,335.2,255.4z"/>
		<g>
			<path class="st15" d="M342.1,252.6c-0.8-1.4-1.8-2.7-3-3.7c-1.1-1.1-2.4-1.9-3.8-2.5c-1.4-0.6-2.9-0.7-4.3-1.2
				c-1.4-0.4-2.9-0.8-4.6-1.4l-0.1-0.3c1.5-1.1,3.4-1.4,5.2-1.3c1.8,0.1,3.5,1.1,4.9,2.1c1.5,1,2.8,2.2,3.8,3.7c1,1.4,1.7,3,2.1,4.6
				L342.1,252.6z"/>
		</g>
		<g>
			<path class="st15" d="M397,286.1c0,1.1,0.7,2,1.1,3c0.4,1,0.5,2.3-0.4,3c-0.6,0.4-1.3,0.4-2,0.3c-7.5-1.1-14-7.5-15-15.1
				c0.1,1.2,0.1,2.4,0.2,3.7c0,0.5,0,1.1-0.3,1.5c-0.4,0.5-1,0.5-1.6,0.5c-2.1-0.3-3.5-2.2-4.6-4c-6.5-10.7-15.8-17.6-15.8-17.6
				s-6-13.3,4.8-28.7c-4.5,3.5-9.7,5.5-15.4,6.4c-0.7,0.1-1.4,0.2-2.1,0c-0.7-0.2-1.2-0.8-1.2-1.5c0-0.5,0.3-0.9,0.6-1.2
				c1.5-2,3.2-3.8,5.2-5.3c-7.1,3.5-15.6,4.6-23.5,4.9c-1.1,0-2.5-0.2-2.6-1.3c-0.1-0.5,0.2-1,0.5-1.4c0.9-1.3,2-2.5,3.3-3.4
				c-4.9,2.3-10,4.3-15.1,2.5c-1.1-0.4-2.2-1-2.9-2c-0.6-1-0.6-2.5,0.3-3.3c0.4-0.4,1-0.5,1.5-0.7c6.9-2.5,10.7-9.6,15.6-15
				c6.5-7.1,15.6-11.6,25.2-12.6c-1.6-0.6-3.1-1.6-4.3-2.7c-0.6-0.5-1.2-1.1-1.1-1.9c0-1.2,1.3-1.8,2.4-2.1
				c9.1-2.7,19.1-2.3,27.9,1.2s16.5,9.9,21.3,18.1c-0.1-2.3-0.3-4.2-0.4-6.5c-0.1-1.2,0.1-2.8,1.3-3.2c0.8-0.2,1.6,0.2,2.2,0.8
				c2.7,2.5,3,6.7,3.1,10.4c2.2,0.5,4.2,1.4,6.1,2.7c1.9,1.3,3.4,3.3,3.8,5.5c0.1,0.3,0.1,0.7-0.2,0.9c-0.2,0.1-0.4,0.1-0.7,0.1
				c-2.4-0.4-4.8-1-7.1-1.7c5.9,5.2,8.1,14,7.5,21.9c-0.6,7.8-3.8,15.2-7.5,22.2C403.5,271.3,396.7,278.3,397,286.1z"/>
			<g class="st18">
				<g>
					<path class="st8" d="M327.2,229.6c2.1-0.2,3.9-1.5,5.5-2.9c1.6-1.4,3-2.9,4.5-4.4c2.8-3.1,5.5-6.4,8.9-9
						c3.3-2.7,7.4-4.5,11.6-5.2c4.2-0.7,8.6-0.4,12.7,1.1l-0.5,0.7c-0.5-0.7-1-1.4-1.3-2.2c-0.2-0.4-0.3-0.8-0.5-1.2
						c-0.1-0.4-0.3-0.8-0.3-1.3c0-0.5,0.3-1.1,0.7-1.4c0.4-0.3,0.9-0.4,1.4-0.5c0.9-0.1,1.7,0,2.6,0.2c3.4,0.6,6.3,2.3,9.2,3.8
						c5.8,3.2,11.2,7,16.5,10.8c-5.5-3.6-11-7.2-16.8-10.2c-2.9-1.5-5.9-3-9-3.5c-0.8-0.1-1.6-0.2-2.3-0.2c-0.4,0-0.7,0.1-0.9,0.3
						c-0.2,0.2-0.3,0.4-0.3,0.7c0,0.3,0.1,0.7,0.2,1.1c0.1,0.4,0.3,0.7,0.4,1.1c0.3,0.7,0.7,1.4,1.2,2l1,1.3l-1.6-0.5
						c-3.9-1.4-8.1-1.7-12.2-1.1c-4.1,0.6-8,2.4-11.2,4.9c-3.3,2.5-6.1,5.7-9,8.8c-1.5,1.5-3,3-4.7,4.3
						C331.2,228.2,329.3,229.5,327.2,229.6z"/>
				</g>
				<g>
					<path class="st8" d="M395.2,222.2c-3.6-2.2-7.7-3.5-11.9-3.5c-2.1,0-4.1,0.3-6.1,0.8c-2,0.5-4,1.3-5.9,2.1
						c-3.8,1.6-7.6,3.7-11.4,5.4c-1.9,0.9-3.9,1.7-5.8,2.5c-2,0.8-3.9,1.5-5.9,2.2c1.9-0.9,3.8-1.8,5.7-2.7c1.9-0.9,3.8-1.8,5.7-2.7
						l5.6-2.8c1.9-1,3.8-1.9,5.7-2.8c3.9-1.7,8.1-3,12.4-2.8c2.1,0.1,4.3,0.5,6.3,1.2C391.6,220,393.5,220.9,395.2,222.2z"/>
				</g>
				<g>
					<path class="st8" d="M399.4,225.6c3.4,4.5,4.9,10.4,4.3,16c-0.6,5.7-3.4,11.1-7.6,14.9l-0.4-0.8c0.5-0.1,1.1,0.1,1.5,0.5
						c0.4,0.3,0.7,0.7,0.9,1.2c0.4,0.8,0.5,1.8,0.5,2.7c-0.1,1.8-0.6,3.4-1.2,5c-1.3,3.1-3.3,5.9-4.4,8.9c-1.1,3.1-1.1,6.5-0.2,9.6
						c0.9,3.2,2.7,6.1,5.3,8.2c-2.7-1.9-4.8-4.8-5.8-8c-1-3.2-1.2-6.8-0.1-10c1.1-3.3,3.1-6,4.3-9c0.6-1.5,1.1-3.1,1.1-4.7
						c0-0.8-0.1-1.5-0.4-2.2c-0.3-0.7-0.8-1.2-1.4-1.1l-1.6,0.2l1.2-1c4.1-3.6,6.8-8.8,7.6-14.3
						C403.7,236.1,402.4,230.3,399.4,225.6z"/>
				</g>
				<g>
					<path class="st8" d="M381.5,279.6c-1.5-4.4-2.4-9-2.7-13.6c-0.3-4.6,0-9.3,1-13.9c1.1-4.5,2.8-9,5.2-12.9
						c1.2-2,2.6-3.9,4.1-5.6c1.6-1.7,3.2-3.3,5.1-4.7c-1.7,1.6-3.3,3.2-4.7,5.1c-1.4,1.8-2.7,3.7-3.8,5.7c-2.2,4-3.9,8.3-4.9,12.8
						c-1,4.5-1.4,9.1-1.2,13.6C379.8,270.6,380.5,275.1,381.5,279.6z"/>
				</g>
			</g>
		</g>
		<g>
			<path class="st14" d="M375.8,258.1c-0.6,4.1-3,8-6.5,10.3c-1.1,0.7-2.3,1.3-3.6,1.4c-3,0.2-5.6-2.2-6.5-5
				c-0.9-2.8-0.4-5.9,0.5-8.7c1.2-3.6,3.4-7.5,7.1-8.3C372.7,246.3,376.5,253,375.8,258.1z"/>
			<path class="st14" d="M362.1,266.2c1.3-0.4,2.5-1.2,3.4-2.2c0.2-0.2,0.4-0.4,0.4-0.7c0.1-0.5-0.3-1-0.7-1.3
				c-0.7-0.7-1.5-1.5-2.2-2.2c-0.1-0.1-0.3-0.3-0.4-0.5c-0.1-0.2,0-0.5,0.1-0.7c0.8-2.8,1.8-5.8,4.3-7.5c0.7-0.4,1.4-0.8,2.2-0.8
				c1.2,0,2.3,0.7,3,1.6c0.8,0.9,1.2,2,1.6,3.1c0,0,0.6,6-3.6,9.6S362.1,266.2,362.1,266.2z"/>
			<g>
				<path class="st15" d="M373.8,255c-0.6-1.1-1.1-2.2-1.9-3c-0.8-0.8-1.9-1.3-2.9-1.2c-1,0.2-2,0.8-2.7,1.7
					c-0.8,0.8-1.3,1.8-1.8,2.9c-0.5,1.1-0.8,2.2-1.2,3.4c-0.1,0.3-0.1,0.4-0.1,0.4c0,0.1,0.3,0.4,0.5,0.6l1.2,1.3l0.6,0.7
					c0.2,0.2,0.4,0.5,0.6,0.9c0.2,0.3,0.2,0.9-0.1,1.2c-0.2,0.3-0.4,0.5-0.7,0.7c-0.9,0.8-2.1,1.4-3.3,1.7c1.1-0.5,2.1-1.2,2.9-2.1
					c0.2-0.2,0.4-0.5,0.5-0.7c0.1-0.2,0.1-0.4,0-0.6c-0.2-0.4-0.7-0.8-1.2-1.2l-1.3-1.2c-0.2-0.2-0.4-0.3-0.7-0.8
					c-0.1-0.2-0.2-0.5-0.2-0.8c0-0.2,0.1-0.4,0.1-0.6c0.3-1.2,0.7-2.3,1.2-3.5c0.5-1.1,1.2-2.3,2.1-3.2c0.9-0.9,2-1.7,3.5-1.8
					c1.4-0.1,2.7,0.7,3.4,1.7C373,252.6,373.5,253.8,373.8,255z"/>
			</g>
		</g>
	</g>
</g>
</svg>
