<?xml version="1.0" encoding="utf-8"?>
<!-- Generator: Adobe Illustrator 25.0.0, SVG Export Plug-In . SVG Version: 6.00 Build 0)  -->
<svg version="1.1" id="Layer_1" xmlns="http://www.w3.org/2000/svg" xmlns:xlink="http://www.w3.org/1999/xlink" x="0px" y="0px"
	 viewBox="0 0 600.9 366.6" style="enable-background:new 0 0 600.9 366.6;" xml:space="preserve">
<style type="text/css">
	.st0{opacity:0.3;fill:#43457B;}
	.st1{fill:#FFFFFF;}
	.st2{fill:url(#SVGID_1_);}
	.st3{fill:#363868;}
	.st4{fill:url(#SVGID_2_);}
	.st5{fill:url(#SVGID_3_);}
	.st6{fill:url(#SVGID_4_);}
	.st7{fill:url(#SVGID_5_);}
	.st8{fill:url(#SVGID_6_);}
	.st9{fill:url(#SVGID_7_);}
	.st10{fill:#F1406D;}
	.st11{fill:#8C68F6;}
	.st12{fill:url(#SVGID_8_);}
	.st13{fill:url(#SVGID_9_);}
	.st14{fill:url(#SVGID_10_);}
	.st15{fill:url(#SVGID_11_);}
	.st16{opacity:0.5;fill:#FFFFFF;}
	.st17{fill:url(#SVGID_12_);}
	.st18{fill:url(#SVGID_13_);}
	.st19{fill:url(#SVGID_14_);}
	.st20{fill:url(#SVGID_15_);}
	.st21{fill:url(#SVGID_16_);}
	.st22{fill:url(#SVGID_17_);}
	.st23{fill:#2C325E;}
	.st24{fill:url(#SVGID_18_);}
	.st25{opacity:0.3;}
	.st26{fill:#FEFEFE;}
	.st27{fill:#FDFDFD;}
	.st28{fill:#FCFCFC;}
	.st29{fill:#FBFBFB;}
	.st30{fill:#FAFAFA;}
	.st31{fill:#F9F9F9;}
	.st32{fill:#F8F8F8;}
	.st33{fill:#F7F7F7;}
	.st34{fill:#F6F6F6;}
	.st35{fill:#F5F5F5;}
	.st36{fill:#F4F4F4;}
	.st37{fill:#F3F3F3;}
	.st38{fill:#F2F2F2;}
	.st39{fill:#F1F1F1;}
	.st40{fill:#F0F0F0;}
	.st41{fill:#EFEFEF;}
	.st42{fill:#EEEEEE;}
	.st43{fill:#EDEDED;}
	.st44{fill:#ECECEC;}
	.st45{fill:#EBEBEB;}
	.st46{fill:#EAEAEA;}
	.st47{fill:#E9E9E9;}
	.st48{fill:#E8E8E8;}
	.st49{fill:#E7E7E7;}
	.st50{fill:#E6E6E6;}
	.st51{fill:#E5E5E5;}
	.st52{fill:#E4E4E4;}
	.st53{fill:#E3E3E3;}
	.st54{fill:#E2E2E2;}
	.st55{fill:#E1E1E1;}
	.st56{fill:#E0E0E0;}
	.st57{fill:#DFDFDF;}
	.st58{fill:#DEDEDE;}
	.st59{fill:#DDDDDD;}
	.st60{fill:#DCDCDC;}
	.st61{fill:#DBDBDB;}
	.st62{fill:#DADADA;}
	.st63{fill:#D9D9D9;}
	.st64{fill:#D8D8D8;}
	.st65{fill:#D7D7D7;}
	.st66{fill:#D6D6D6;}
	.st67{fill:#D5D5D5;}
	.st68{fill:#D4D4D4;}
	.st69{fill:#D3D3D3;}
	.st70{fill:#D2D2D2;}
	.st71{fill:#D1D1D1;}
	.st72{fill:#D0D0D0;}
	.st73{fill:#CFCFCF;}
	.st74{fill:#CECECE;}
	.st75{fill:#CDCDCD;}
	.st76{fill:#CCCCCC;}
	.st77{fill:#CBCBCB;}
	.st78{fill:#CACACA;}
	.st79{fill:#C9C9C9;}
	.st80{fill:#C8C8C8;}
	.st81{fill:#C7C7C7;}
	.st82{fill:#C6C6C6;}
	.st83{fill:#C5C5C5;}
	.st84{fill:#C4C4C4;}
	.st85{fill:#C3C3C3;}
	.st86{fill:#C2C2C2;}
	.st87{fill:#C1C1C1;}
	.st88{fill:#C0C0C0;}
	.st89{fill:#BFBFBF;}
	.st90{fill:#BEBEBE;}
	.st91{fill:#BDBDBD;}
	.st92{fill:#BCBCBC;}
	.st93{fill:#BBBBBB;}
	.st94{fill:#BABABA;}
	.st95{fill:#B9B9B9;}
	.st96{fill:#B8B8B8;}
	.st97{fill:#B7B7B7;}
	.st98{fill:#B6B6B6;}
	.st99{fill:#B5B5B5;}
	.st100{fill:#B4B4B4;}
	.st101{fill:#B3B3B3;}
	.st102{fill:#B2B2B2;}
	.st103{fill:#B1B1B1;}
	.st104{fill:#B0B0B0;}
	.st105{fill:#AFAFAF;}
	.st106{fill:#AEAEAE;}
	.st107{fill:#ADADAD;}
	.st108{fill:#ACACAC;}
	.st109{fill:#ABABAB;}
	.st110{fill:#AAAAAA;}
	.st111{fill:#A9A9A9;}
	.st112{fill:#A8A8A8;}
	.st113{fill:#A7A7A7;}
	.st114{fill:#A6A6A6;}
	.st115{fill:#A5A5A5;}
	.st116{fill:#A4A4A4;}
	.st117{fill:#A3A3A3;}
	.st118{fill:#A2A2A2;}
	.st119{fill:#A1A1A1;}
	.st120{fill:#A0A0A0;}
	.st121{fill:#9F9F9F;}
	.st122{fill:#9E9E9E;}
	.st123{fill:#9D9D9D;}
	.st124{fill:#9C9C9C;}
	.st125{fill:#9B9B9B;}
	.st126{fill:#9A9A9A;}
	.st127{fill:#999999;}
	.st128{fill:#989898;}
	.st129{fill:#979797;}
	.st130{fill:#969696;}
	.st131{fill:#959595;}
	.st132{fill:#949494;}
	.st133{fill:#939393;}
	.st134{fill:#929292;}
	.st135{fill:#919191;}
	.st136{fill:#909090;}
	.st137{fill:#8F8F8F;}
	.st138{fill:#8E8E8E;}
	.st139{fill:#8D8D8D;}
	.st140{fill:#8C8C8C;}
	.st141{fill:#8B8B8B;}
	.st142{fill:#8A8A8A;}
	.st143{fill:#898989;}
	.st144{fill:#888888;}
	.st145{fill:#878787;}
	.st146{fill:#868686;}
	.st147{fill:#858585;}
	.st148{fill:#848484;}
	.st149{fill:#838383;}
	.st150{fill:#828282;}
	.st151{fill:#818181;}
	.st152{fill:#808080;}
	.st153{fill:#7F7F7F;}
	.st154{fill:#7E7E7E;}
	.st155{fill:#7D7D7D;}
	.st156{fill:#7C7C7C;}
	.st157{fill:#7B7B7B;}
	.st158{fill:#7A7A7A;}
	.st159{fill:#797979;}
	.st160{fill:#787878;}
	.st161{fill:#777777;}
	.st162{fill:#767676;}
	.st163{fill:#757575;}
	.st164{fill:#747474;}
	.st165{fill:#737373;}
	.st166{fill:#727272;}
	.st167{fill:#717171;}
	.st168{fill:#707070;}
	.st169{fill:#6F6F6F;}
	.st170{fill:#6E6E6E;}
	.st171{fill:#6D6D6D;}
	.st172{fill:#6C6C6C;}
	.st173{fill:#6B6B6B;}
	.st174{fill:#6A6A6A;}
	.st175{fill:#696969;}
	.st176{fill:#686868;}
	.st177{fill:#676767;}
	.st178{fill:#666666;}
	.st179{fill:#656565;}
	.st180{fill:#646464;}
	.st181{fill:#636363;}
	.st182{fill:#626262;}
	.st183{fill:#616161;}
	.st184{fill:#606060;}
	.st185{fill:#5F5F5F;}
	.st186{fill:#5E5E5E;}
	.st187{fill:#5D5D5D;}
	.st188{fill:#5C5C5C;}
	.st189{fill:#5B5B5B;}
	.st190{fill:#5A5A5A;}
	.st191{fill:#595959;}
	.st192{fill:#585858;}
	.st193{fill:#575757;}
	.st194{fill:#565656;}
	.st195{fill:#555555;}
	.st196{fill:#545454;}
	.st197{fill:#535353;}
	.st198{fill:#525252;}
	.st199{fill:#515151;}
	.st200{fill:#505050;}
	.st201{fill:#4F4F4F;}
	.st202{fill:#4E4E4E;}
	.st203{fill:#4D4D4D;}
	.st204{fill:#4C4C4C;}
	.st205{fill:#4B4B4B;}
	.st206{fill:#4A4A4A;}
	.st207{fill:#494949;}
	.st208{fill:#484848;}
	.st209{fill:#474747;}
	.st210{fill:#464646;}
	.st211{fill:#454545;}
	.st212{fill:#444444;}
	.st213{fill:#434343;}
	.st214{fill:#424242;}
	.st215{fill:#414141;}
	.st216{fill:#404040;}
	.st217{fill:#3F3F3F;}
	.st218{fill:#3E3E3E;}
	.st219{fill:#3D3D3D;}
	.st220{fill:#3C3C3C;}
	.st221{fill:#3B3B3B;}
	.st222{fill:#3A3A3A;}
	.st223{fill:#393939;}
	.st224{fill:#383838;}
	.st225{fill:#373737;}
	.st226{fill:#363636;}
	.st227{fill:#353535;}
	.st228{fill:#343434;}
	.st229{fill:#333333;}
	.st230{fill:#323232;}
	.st231{fill:#313131;}
	.st232{fill:#303030;}
	.st233{fill:#2F2F2F;}
	.st234{fill:#2E2E2E;}
	.st235{fill:#2D2D2D;}
	.st236{fill:#2C2C2C;}
	.st237{fill:#2B2B2B;}
	.st238{fill:#2A2A2A;}
	.st239{fill:#292929;}
	.st240{fill:#282828;}
	.st241{fill:#272727;}
	.st242{fill:#262626;}
	.st243{fill:#252525;}
	.st244{fill:#242424;}
	.st245{fill:#232323;}
	.st246{fill:#222222;}
	.st247{fill:#212121;}
	.st248{fill:#202020;}
	.st249{fill:#1F1F1F;}
	.st250{fill:#1E1E1E;}
	.st251{fill:#1D1D1D;}
	.st252{fill:#1C1C1C;}
	.st253{fill:#1B1B1B;}
	.st254{fill:#1A1A1A;}
	.st255{fill:#191919;}
	.st256{fill:#181818;}
	.st257{fill:#171717;}
	.st258{fill:#161616;}
	.st259{fill:#151515;}
	.st260{fill:#141414;}
	.st261{fill:#131313;}
	.st262{fill:#121212;}
	.st263{fill:#111111;}
	.st264{fill:#101010;}
	.st265{fill:#0F0F0F;}
	.st266{fill:#0E0E0E;}
	.st267{fill:#0D0D0D;}
	.st268{fill:#0C0C0C;}
	.st269{fill:#0B0B0B;}
	.st270{fill:#0A0A0A;}
	.st271{fill:#090909;}
	.st272{fill:#080808;}
	.st273{fill:#070707;}
	.st274{fill:#060606;}
	.st275{fill:#050505;}
	.st276{fill:#040404;}
	.st277{fill:#030303;}
	.st278{fill:#020202;}
	.st279{fill:#010101;}
	.st280{fill:url(#SVGID_19_);}
	.st281{fill:url(#SVGID_20_);}
	.st282{fill:url(#SVGID_21_);}
	.st283{fill:url(#SVGID_22_);}
	.st284{fill:url(#SVGID_23_);}
	.st285{fill:url(#SVGID_24_);}
	.st286{fill:url(#SVGID_25_);}
	.st287{fill:#4F36E0;}
	.st288{fill:#5854D3;}
	.st289{fill:url(#SVGID_26_);}
	.st290{fill:#6F62ED;}
	.st291{fill:url(#SVGID_27_);}
	.st292{fill:url(#SVGID_28_);}
	.st293{fill:url(#SVGID_29_);}
	.st294{fill:url(#SVGID_30_);}
	.st295{fill:url(#SVGID_31_);}
	.st296{fill:url(#SVGID_32_);}
	.st297{fill:url(#SVGID_33_);}
	.st298{fill:url(#SVGID_34_);}
	.st299{opacity:0.1;fill:#221F1F;}
	.st300{fill:#F8AC9B;}
	.st301{fill:url(#SVGID_35_);}
	.st302{fill:url(#SVGID_36_);}
	.st303{fill:#FFDAD4;}
	.st304{opacity:0.5;fill:#F8AC9B;}
	.st305{fill:url(#SVGID_37_);}
	.st306{opacity:0.1;}
	.st307{fill:#221F1F;}
	.st308{fill:url(#SVGID_38_);}
	.st309{fill:url(#SVGID_39_);}
	.st310{opacity:0.3;fill:#FFFFFF;}
	.st311{fill:#43457B;}
	.st312{fill:url(#SVGID_40_);}
	.st313{fill:url(#SVGID_41_);}
	.st314{fill:url(#SVGID_42_);}
</style>
<g>
	<ellipse class="st0" cx="308.1" cy="359.1" rx="292.8" ry="7.6"/>
	<g>
		<g>
			<g>
				<polygon class="st1" points="268.7,92.7 266.6,92.7 266.6,108.2 472.1,108.2 472.1,186.5 474.3,186.5 474.3,106.1 268.7,106.1 
									"/>
				<rect x="260.7" y="92.7" class="st1" width="2.1" height="33.5"/>
				<rect x="201.3" y="72.5" class="st1" width="2.1" height="53.9"/>
				<polygon class="st1" points="262.4,13.3 264.1,15.5 514,15.5 514,185.9 516.2,185.9 516.2,13.3 				"/>
			</g>
			<g>
				<g>
					<linearGradient id="SVGID_1_" gradientUnits="userSpaceOnUse" x1="102.1247" y1="230.4106" x2="408.1651" y2="230.4106">
						<stop  offset="0.4665" style="stop-color:#010168"/>
						<stop  offset="0.7458" style="stop-color:#010138"/>
					</linearGradient>
					<path class="st2" d="M401.4,124.4H108.9c-3.7,0-6.7,3-6.7,6.7v198.5c0,3.7,3,6.7,6.7,6.7h292.6c3.7,0,6.7-3,6.7-6.7V131.2
						C408.2,127.5,405.1,124.4,401.4,124.4z"/>
					<path class="st3" d="M182,348.4c-0.4,0-0.8,0.1-1.1,0.2l-13,6.1c-2.5,1.2-1.7,4.9,1.1,4.9h172.3c2.8,0,3.6-3.7,1.1-4.9
						l-12.9-6.1c-0.3-0.2-0.7-0.3-1.1-0.3h-52v0h-42.6v0H182z"/>
					<linearGradient id="SVGID_2_" gradientUnits="userSpaceOnUse" x1="142.1978" y1="110.5251" x2="385.6264" y2="342.5251">
						<stop  offset="0" style="stop-color:#FACB15"/>
						<stop  offset="1" style="stop-color:#F97416"/>
					</linearGradient>
					<path class="st4" d="M402.4,306.5H107.9c-0.6,0-1.1-0.5-1.1-1.1V131c0-0.6,0.5-1.1,1.1-1.1h294.5c0.6,0,1.1,0.5,1.1,1.1v174.4
						C403.5,306,403,306.5,402.4,306.5z"/>
					<linearGradient id="SVGID_3_" gradientUnits="userSpaceOnUse" x1="221.9213" y1="342.386" x2="288.3686" y2="342.386">
						<stop  offset="0" style="stop-color:#0101C7"/>
						<stop  offset="1" style="stop-color:#010138"/>
					</linearGradient>
					<rect x="221.9" y="336.4" class="st5" width="66.4" height="12"/>
					<linearGradient id="SVGID_4_" gradientUnits="userSpaceOnUse" x1="166.3816" y1="354.0408" x2="343.9083" y2="354.0408">
						<stop  offset="0.4665" style="stop-color:#010168"/>
						<stop  offset="0.7458" style="stop-color:#010138"/>
					</linearGradient>
					<path class="st6" d="M182,348.4c-0.4,0-0.8,0.1-1.1,0.2l-13,6.1c-2.5,1.2-1.7,4.9,1.1,4.9h172.3c2.8,0,3.6-3.7,1.1-4.9
						l-12.9-6.1c-0.3-0.2-0.7-0.3-1.1-0.3h-52v0h-42.6v0H182z"/>
				</g>
				<g>
					<g>
						<linearGradient id="SVGID_5_" gradientUnits="userSpaceOnUse" x1="130.3174" y1="151.707" x2="307.0935" y2="151.707">
							<stop  offset="0" style="stop-color:#FAFF15"/>
							<stop  offset="0.9995" style="stop-color:#F1F9FE"/>
						</linearGradient>
						<path class="st7" d="M305.6,149.3H131.8c-0.8,0-1.5,0.9-1.5,2.1v0.7c0,1.1,0.7,2.1,1.5,2.1h173.7c0.8,0,1.5-0.9,1.5-2.1v-0.7
							C307.1,150.2,306.4,149.3,305.6,149.3z"/>
						<linearGradient id="SVGID_6_" gradientUnits="userSpaceOnUse" x1="130.3174" y1="162.8223" x2="307.0935" y2="162.8223">
							<stop  offset="0" style="stop-color:#FAFF15"/>
							<stop  offset="0.9995" style="stop-color:#F1F9FE"/>
						</linearGradient>
						<path class="st8" d="M305.6,160.4H131.8c-0.8,0-1.5,0.9-1.5,2.1v0.7c0,1.1,0.7,2.1,1.5,2.1h173.7c0.8,0,1.5-0.9,1.5-2.1v-0.7
							C307.1,161.3,306.4,160.4,305.6,160.4z"/>
						<linearGradient id="SVGID_7_" gradientUnits="userSpaceOnUse" x1="130.3174" y1="173.9377" x2="264.3662" y2="173.9377">
							<stop  offset="0" style="stop-color:#FAFF15"/>
							<stop  offset="0.9995" style="stop-color:#F1F9FE"/>
						</linearGradient>
						<path class="st9" d="M262.8,171.5h-131c-0.8,0-1.5,0.9-1.5,2.1v0.7c0,1.1,0.7,2.1,1.5,2.1h131c0.8,0,1.5-0.9,1.5-2.1v-0.7
							C264.4,172.4,263.7,171.5,262.8,171.5z"/>
					</g>
					<g>
						<g>
							<ellipse class="st10" cx="118.6" cy="151.2" rx="4.1" ry="4.1"/>
							<g>
								<path class="st1" d="M117.6,153.2c-0.1,0.1-0.2,0.1-0.2,0l-1.8-1.8l0.6-0.6l1.3,1.2c0.1,0.1,0.2,0.1,0.2,0l3.5-3.2l0.5,0.6
									L117.6,153.2z"/>
							</g>
						</g>
						<g>
							<ellipse class="st10" cx="118.6" cy="162.2" rx="4.1" ry="4.1"/>
							<g>
								<path class="st1" d="M117.6,164.2c-0.1,0.1-0.2,0.1-0.2,0l-1.8-1.8l0.6-0.6l1.3,1.2c0.1,0.1,0.2,0.1,0.2,0l3.5-3.2l0.5,0.6
									L117.6,164.2z"/>
							</g>
						</g>
						<g>
							<ellipse class="st10" cx="118.6" cy="173.1" rx="4.1" ry="4.1"/>
							<g>
								<path class="st1" d="M117.6,175.2c-0.1,0.1-0.2,0.1-0.2,0l-1.8-1.8l0.6-0.6l1.3,1.2c0.1,0.1,0.2,0.1,0.2,0l3.5-3.2l0.5,0.6
									L117.6,175.2z"/>
							</g>
						</g>
					</g>
				</g>
			</g>
			<path class="st11" d="M223.4,73.1h13.1c0.1,0,0.3,0,0.4,0c0.2,0,0.3,0,0.5,0h30.1c10.1,0,18.3-8.2,18.3-18.3l0,0
				c0-8.6-6-15.9-14.1-17.8c0-0.2,0-0.3,0-0.5c0-20.2-16.4-36.5-36.5-36.5c-16.3,0-30,10.6-34.8,25.3c-4.4-3.3-9.9-5.2-15.8-5.2
				c-14.6,0-26.5,11.9-26.5,26.5c0,10.7,6.3,19.9,15.5,24.1c2.7,1.5,5.9,2.4,9.2,2.4h24.8H223.4z"/>
			<linearGradient id="SVGID_8_" gradientUnits="userSpaceOnUse" x1="210.0063" y1="59.0689" x2="329.776" y2="59.0689">
				<stop  offset="0" style="stop-color:#C7E9F9"/>
				<stop  offset="0.9995" style="stop-color:#F1F9FE"/>
			</linearGradient>
			<path class="st12" d="M271.2,93.3h12.3c0.1,0,0.2,0,0.4,0c0.2,0,0.3,0,0.5,0h28.3c9.5,0,17.1-7.7,17.1-17.1l0,0
				c0-8.1-5.6-14.9-13.2-16.7c0-0.2,0-0.3,0-0.5c0-18.9-15.3-34.3-34.3-34.3c-15.3,0-28.2,10-32.6,23.8c-4.1-3.1-9.3-4.9-14.8-4.9
				c-13.7,0-24.8,11.1-24.8,24.8c0,10,6,18.7,14.5,22.6c2.6,1.4,5.5,2.3,8.7,2.3h23.3H271.2z"/>
			<g>
				<g>
					<linearGradient id="SVGID_9_" gradientUnits="userSpaceOnUse" x1="356.435" y1="207.2486" x2="595.8806" y2="207.2486">
						<stop  offset="0.4665" style="stop-color:#010168"/>
						<stop  offset="0.7458" style="stop-color:#010138"/>
					</linearGradient>
					<path class="st13" d="M422.5,235.3h133.3c2.1,0,3.8-1.7,3.8-3.8v-47.3c0-2.7-2.2-4.9-4.9-4.9h-131c-2.7,0-4.9,2.2-4.9,4.9v47.3
						C418.7,233.6,420.4,235.3,422.5,235.3z"/>
					<g>
						<g>
							<g>
								<linearGradient id="SVGID_10_" gradientUnits="userSpaceOnUse" x1="447.737" y1="193.8431" x2="552.8978" y2="193.8431">
									<stop  offset="0" style="stop-color:#6466D7"/>
									<stop  offset="0.999" style="stop-color:#AC81F9"/>
								</linearGradient>
								<path class="st14" d="M447.7,185.1h103.2c1.1,0,2,0.9,2,2v13.5c0,1.1-0.9,2-2,2H447.7V185.1z"/>
								<linearGradient id="SVGID_11_" gradientUnits="userSpaceOnUse" x1="403.8996" y1="192.9928" x2="489.5751" y2="195.3005">
									<stop  offset="0" style="stop-color:#6466D7"/>
									<stop  offset="0.999" style="stop-color:#AC81F9"/>
								</linearGradient>
								<path class="st15" d="M427.4,185.1h16.1v17.5h-16.1c-1.1,0-2-0.9-2-2v-13.5C425.4,186,426.3,185.1,427.4,185.1z"/>
							</g>
						</g>
						<g>
							<rect x="543.2" y="189.9" class="st16" width="5.2" height="5.1"/>
							<rect x="535.3" y="189.9" class="st16" width="5.2" height="5.1"/>
							<rect x="527.4" y="189.9" class="st16" width="5.2" height="5.1"/>
						</g>
					</g>
				</g>
				<g>
					<linearGradient id="SVGID_12_" gradientUnits="userSpaceOnUse" x1="356.435" y1="266.6683" x2="595.8806" y2="266.6683">
						<stop  offset="0.4665" style="stop-color:#010168"/>
						<stop  offset="0.7458" style="stop-color:#010138"/>
					</linearGradient>
					<path class="st17" d="M422.5,294.7h133.3c2.1,0,3.8-1.7,3.8-3.8v-47.3c0-2.7-2.2-4.9-4.9-4.9h-131c-2.7,0-4.9,2.2-4.9,4.9v47.3
						C418.7,293,420.4,294.7,422.5,294.7z"/>
					<g>
						<g>
							<g>
								<linearGradient id="SVGID_13_" gradientUnits="userSpaceOnUse" x1="447.737" y1="253.2628" x2="552.8978" y2="253.2628">
									<stop  offset="0" style="stop-color:#6466D7"/>
									<stop  offset="0.999" style="stop-color:#AC81F9"/>
								</linearGradient>
								<path class="st18" d="M447.7,244.5h103.2c1.1,0,2,0.9,2,2V260c0,1.1-0.9,2-2,2H447.7V244.5z"/>
								<linearGradient id="SVGID_14_" gradientUnits="userSpaceOnUse" x1="402.3004" y1="252.3694" x2="487.9759" y2="254.6772">
									<stop  offset="0" style="stop-color:#6466D7"/>
									<stop  offset="0.999" style="stop-color:#AC81F9"/>
								</linearGradient>
								<path class="st19" d="M427.4,244.5h16.1V262h-16.1c-1.1,0-2-0.9-2-2v-13.5C425.4,245.4,426.3,244.5,427.4,244.5z"/>
							</g>
						</g>
						<g>
							<rect x="543.2" y="249.3" class="st16" width="5.2" height="5.1"/>
							<rect x="535.3" y="249.3" class="st16" width="5.2" height="5.1"/>
							<rect x="527.4" y="249.3" class="st16" width="5.2" height="5.1"/>
						</g>
					</g>
				</g>
				<g>
					<linearGradient id="SVGID_15_" gradientUnits="userSpaceOnUse" x1="356.435" y1="326.088" x2="595.8806" y2="326.088">
						<stop  offset="0.4665" style="stop-color:#010168"/>
						<stop  offset="0.7458" style="stop-color:#010138"/>
					</linearGradient>
					<path class="st20" d="M422.5,354.1h133.3c2.1,0,3.8-1.7,3.8-3.8V303c0-2.7-2.2-4.9-4.9-4.9h-131c-2.7,0-4.9,2.2-4.9,4.9v47.3
						C418.7,352.4,420.4,354.1,422.5,354.1z"/>
					<g>
						<g>
							<g>
								<linearGradient id="SVGID_16_" gradientUnits="userSpaceOnUse" x1="447.737" y1="312.6826" x2="552.8978" y2="312.6826">
									<stop  offset="0" style="stop-color:#6466D7"/>
									<stop  offset="0.999" style="stop-color:#AC81F9"/>
								</linearGradient>
								<path class="st21" d="M447.7,303.9h103.2c1.1,0,2,0.9,2,2v13.5c0,1.1-0.9,2-2,2H447.7V303.9z"/>
								<linearGradient id="SVGID_17_" gradientUnits="userSpaceOnUse" x1="400.701" y1="311.7461" x2="486.3765" y2="314.0538">
									<stop  offset="0" style="stop-color:#6466D7"/>
									<stop  offset="0.999" style="stop-color:#AC81F9"/>
								</linearGradient>
								<path class="st22" d="M427.4,303.9h16.1v17.5h-16.1c-1.1,0-2-0.9-2-2v-13.5C425.4,304.8,426.3,303.9,427.4,303.9z"/>
							</g>
						</g>
						<g>
							<rect x="543.2" y="308.7" class="st16" width="5.2" height="5.1"/>
							<rect x="535.3" y="308.7" class="st16" width="5.2" height="5.1"/>
							<rect x="527.4" y="308.7" class="st16" width="5.2" height="5.1"/>
						</g>
					</g>
				</g>
				<rect x="429.2" y="354.1" class="st23" width="14.3" height="5.6"/>
				<rect x="533.3" y="354.1" class="st23" width="14.3" height="5.6"/>
			</g>
			<linearGradient id="SVGID_18_" gradientUnits="userSpaceOnUse" x1="365.3032" y1="59.0689" x2="406.9732" y2="59.0689">
				<stop  offset="0" style="stop-color:#FB40B7"/>
				<stop  offset="1" style="stop-color:#C639AF"/>
			</linearGradient>
			<path class="st24" d="M404.9,56.1h-3.2c-0.9,0-1.7-0.6-2-1.5c-0.2-0.7-0.5-1.3-0.8-1.9c-0.4-0.8-0.3-1.8,0.4-2.4l2.4-2.4
				c0.7-0.7,0.7-2,0-2.7l-1.4-1.4c-0.8-0.8-2.2-0.8-3,0L395,46c-0.6,0.6-1.6,0.8-2.4,0.4c-0.6-0.3-1.2-0.6-1.9-0.8
				c-0.9-0.3-1.5-1.1-1.5-2v-3.2c0-1.2-0.9-2.1-2.1-2.1h-1.8c-1.2,0-2.1,0.9-2.1,2.1v3.2c0,0.9-0.6,1.7-1.5,2
				c-0.7,0.2-1.3,0.5-1.9,0.8c-0.8,0.4-1.8,0.3-2.4-0.4l-2.3-2.3c-0.8-0.8-2.2-0.8-3,0l-1.4,1.4c-0.7,0.7-0.7,2,0,2.7l2.4,2.4
				c0.6,0.6,0.8,1.6,0.4,2.4c-0.3,0.6-0.6,1.2-0.8,1.9c-0.3,0.9-1.1,1.5-2,1.5h-3.2c-1.2,0-2.1,0.9-2.1,2.1v1.8
				c0,1.2,0.9,2.1,2.1,2.1h3.2c0.9,0,1.7,0.6,2,1.5c0.2,0.7,0.5,1.3,0.8,1.9c0.4,0.8,0.3,1.8-0.4,2.4l-2.4,2.4c-0.7,0.7-0.7,2,0,2.7
				l1.4,1.4c0.8,0.8,2.2,0.8,3,0l2.3-2.3c0.6-0.6,1.6-0.8,2.4-0.4c0.6,0.3,1.2,0.6,1.9,0.8c0.9,0.3,1.5,1.1,1.5,2v3.2
				c0,1.2,0.9,2.1,2.1,2.1h1.8c1.2,0,2.1-0.9,2.1-2.1v-3.2c0-0.9,0.6-1.7,1.5-2c0.7-0.2,1.3-0.5,1.9-0.8c0.8-0.4,1.8-0.3,2.4,0.4
				l2.3,2.3c0.8,0.8,2.2,0.8,3,0l1.4-1.4c0.7-0.7,0.7-2,0-2.7l-2.4-2.4c-0.6-0.6-0.8-1.6-0.4-2.4c0.3-0.6,0.6-1.2,0.8-1.9
				c0.3-0.9,1.1-1.5,2-1.5h3.2c1.2,0,2.1-0.9,2.1-2.1v-1.8C407,57,406,56.1,404.9,56.1z M393.5,59.7c-0.3,3.6-3.2,6.5-6.7,6.8
				c-4.5,0.4-8.3-3.4-7.9-7.9c0.3-3.6,3.2-6.5,6.7-6.7C390.1,51.4,393.8,55.1,393.5,59.7z"/>
			<g>
				<g>
					<g class="st25">
						<path class="st1" d="M279.8,196H129c-3.4,0-6.1,2.7-6.1,6.1v11.2v81.5c0,3.1,2.5,5.6,5.6,5.6h151.8c3.1,0,5.6-2.5,5.6-5.6
							v-81.5v-11.2C285.9,198.7,283.1,196,279.8,196z"/>
						<path class="st26" d="M279.7,195.9H129c-3.4,0-6.1,2.7-6.1,6.1v11.2v81.5c0,3.1,2.5,5.6,5.6,5.6h151.8c3.1,0,5.6-2.5,5.6-5.6
							v-81.5v-11.2C285.9,198.7,283.1,195.9,279.7,195.9z"/>
						<path class="st27" d="M279.7,195.9H128.9c-3.4,0-6.1,2.7-6.1,6.1v11.2v81.5c0,3.1,2.5,5.6,5.6,5.6h151.8
							c3.1,0,5.6-2.5,5.6-5.6v-81.5V202C285.8,198.7,283.1,195.9,279.7,195.9z"/>
						<path class="st28" d="M279.7,195.9H128.9c-3.4,0-6.1,2.7-6.1,6.1v11.2v81.5c0,3.1,2.5,5.6,5.6,5.6h151.8
							c3.1,0,5.6-2.5,5.6-5.6v-81.5V202C285.8,198.6,283.1,195.9,279.7,195.9z"/>
						<path class="st29" d="M279.7,195.9H128.9c-3.4,0-6.1,2.7-6.1,6.1v11.2v81.5c0,3.1,2.5,5.6,5.6,5.6h151.8
							c3.1,0,5.6-2.5,5.6-5.6v-81.5V202C285.8,198.6,283.1,195.9,279.7,195.9z"/>
						<path class="st30" d="M279.7,195.8H128.9c-3.4,0-6.1,2.7-6.1,6.1v11.2v81.5c0,3.1,2.5,5.6,5.6,5.6h151.8
							c3.1,0,5.6-2.5,5.6-5.6v-81.5V202C285.8,198.6,283,195.8,279.7,195.8z"/>
						<path class="st31" d="M279.6,195.8H128.9c-3.4,0-6.1,2.7-6.1,6.1v11.2v81.5c0,3.1,2.5,5.6,5.6,5.6h151.8
							c3.1,0,5.6-2.5,5.6-5.6v-81.5v-11.2C285.8,198.5,283,195.8,279.6,195.8z"/>
						<path class="st32" d="M279.6,195.8H128.9c-3.4,0-6.1,2.7-6.1,6.1v11.2v81.5c0,3.1,2.5,5.6,5.6,5.6h151.8
							c3.1,0,5.6-2.5,5.6-5.6v-81.5v-11.2C285.7,198.5,283,195.8,279.6,195.8z"/>
						<path class="st33" d="M279.6,195.8H128.8c-3.4,0-6.1,2.7-6.1,6.1v11.2v81.5c0,3.1,2.5,5.6,5.6,5.6h151.8
							c3.1,0,5.6-2.5,5.6-5.6v-81.5v-11.2C285.7,198.5,283,195.8,279.6,195.8z"/>
						<path class="st34" d="M279.6,195.7H128.8c-3.4,0-6.1,2.7-6.1,6.1V213v81.5c0,3.1,2.5,5.6,5.6,5.6h151.8c3.1,0,5.6-2.5,5.6-5.6
							V213v-11.2C285.7,198.5,283,195.7,279.6,195.7z"/>
						<path class="st35" d="M279.6,195.7H128.8c-3.4,0-6.1,2.7-6.1,6.1V213v81.5c0,3.1,2.5,5.6,5.6,5.6h151.8c3.1,0,5.6-2.5,5.6-5.6
							V213v-11.2C285.7,198.4,283,195.7,279.6,195.7z"/>
						<path class="st36" d="M279.6,195.7H128.8c-3.4,0-6.1,2.7-6.1,6.1V213v81.5c0,3.1,2.5,5.6,5.6,5.6h151.8c3.1,0,5.6-2.5,5.6-5.6
							V213v-11.2C285.7,198.4,282.9,195.7,279.6,195.7z"/>
						<path class="st37" d="M279.5,195.6H128.8c-3.4,0-6.1,2.7-6.1,6.1V213v81.5c0,3.1,2.5,5.6,5.6,5.6h151.8c3.1,0,5.6-2.5,5.6-5.6
							V213v-11.2C285.7,198.4,282.9,195.6,279.5,195.6z"/>
						<path class="st38" d="M279.5,195.6H128.7c-3.4,0-6.1,2.7-6.1,6.1v11.2v81.5c0,3.1,2.5,5.6,5.6,5.6H280c3.1,0,5.6-2.5,5.6-5.6
							v-81.5v-11.2C285.6,198.4,282.9,195.6,279.5,195.6z"/>
						<path class="st39" d="M279.5,195.6H128.7c-3.4,0-6.1,2.7-6.1,6.1v11.2v81.5c0,3.1,2.5,5.6,5.6,5.6H280c3.1,0,5.6-2.5,5.6-5.6
							v-81.5v-11.2C285.6,198.3,282.9,195.6,279.5,195.6z"/>
						<path class="st40" d="M279.5,195.6H128.7c-3.4,0-6.1,2.7-6.1,6.1v11.2v81.5c0,3.1,2.5,5.6,5.6,5.6H280c3.1,0,5.6-2.5,5.6-5.6
							v-81.5v-11.2C285.6,198.3,282.9,195.6,279.5,195.6z"/>
						<path class="st41" d="M279.5,195.5H128.7c-3.4,0-6.1,2.7-6.1,6.1v11.2v81.5c0,3.1,2.5,5.6,5.6,5.6H280c3.1,0,5.6-2.5,5.6-5.6
							v-81.5v-11.2C285.6,198.3,282.8,195.5,279.5,195.5z"/>
						<path class="st42" d="M279.4,195.5H128.7c-3.4,0-6.1,2.7-6.1,6.1v11.2v81.5c0,3.1,2.5,5.6,5.6,5.6H280c3.1,0,5.6-2.5,5.6-5.6
							v-81.5v-11.2C285.6,198.3,282.8,195.5,279.4,195.5z"/>
						<path class="st43" d="M279.4,195.5H128.7c-3.4,0-6.1,2.7-6.1,6.1v11.2v81.5c0,3.1,2.5,5.6,5.6,5.6H280c3.1,0,5.6-2.5,5.6-5.6
							v-81.5v-11.2C285.5,198.2,282.8,195.5,279.4,195.5z"/>
						<path class="st44" d="M279.4,195.5H128.6c-3.4,0-6.1,2.7-6.1,6.1v11.2v81.5c0,3.1,2.5,5.6,5.6,5.6h151.8
							c3.1,0,5.6-2.5,5.6-5.6v-81.5v-11.2C285.5,198.2,282.8,195.5,279.4,195.5z"/>
						<path class="st45" d="M279.4,195.4H128.6c-3.4,0-6.1,2.7-6.1,6.1v11.2v81.5c0,3.1,2.5,5.6,5.6,5.6h151.8
							c3.1,0,5.6-2.5,5.6-5.6v-81.5v-11.2C285.5,198.2,282.8,195.4,279.4,195.4z"/>
						<path class="st46" d="M279.4,195.4H128.6c-3.4,0-6.1,2.7-6.1,6.1v11.2v81.5c0,3.1,2.5,5.6,5.6,5.6h151.8
							c3.1,0,5.6-2.5,5.6-5.6v-81.5v-11.2C285.5,198.1,282.8,195.4,279.4,195.4z"/>
						<path class="st47" d="M279.4,195.4H128.6c-3.4,0-6.1,2.7-6.1,6.1v11.2v81.5c0,3.1,2.5,5.6,5.6,5.6h151.8
							c3.1,0,5.6-2.5,5.6-5.6v-81.5v-11.2C285.5,198.1,282.7,195.4,279.4,195.4z"/>
						<path class="st48" d="M279.3,195.4H128.6c-3.4,0-6.1,2.7-6.1,6.1v11.2v81.5c0,3.1,2.5,5.6,5.6,5.6h151.8
							c3.1,0,5.6-2.5,5.6-5.6v-81.5v-11.2C285.5,198.1,282.7,195.4,279.3,195.4z"/>
						<path class="st49" d="M279.3,195.3H128.5c-3.4,0-6.1,2.7-6.1,6.1v11.2v81.5c0,3.1,2.5,5.6,5.6,5.6h151.8
							c3.1,0,5.6-2.5,5.6-5.6v-81.5v-11.2C285.4,198.1,282.7,195.3,279.3,195.3z"/>
						<path class="st50" d="M279.3,195.3H128.5c-3.4,0-6.1,2.7-6.1,6.1v11.2v81.5c0,3.1,2.5,5.6,5.6,5.6h151.8
							c3.1,0,5.6-2.5,5.6-5.6v-81.5v-11.2C285.4,198,282.7,195.3,279.3,195.3z"/>
						<path class="st51" d="M279.3,195.3H128.5c-3.4,0-6.1,2.7-6.1,6.1v11.2v81.5c0,3.1,2.5,5.6,5.6,5.6h151.8
							c3.1,0,5.6-2.5,5.6-5.6v-81.5v-11.2C285.4,198,282.7,195.3,279.3,195.3z"/>
						<path class="st52" d="M279.3,195.2H128.5c-3.4,0-6.1,2.7-6.1,6.1v11.2v81.5c0,3.1,2.5,5.6,5.6,5.6h151.8
							c3.1,0,5.6-2.5,5.6-5.6v-81.5v-11.2C285.4,198,282.6,195.2,279.3,195.2z"/>
						<path class="st53" d="M279.2,195.2H128.5c-3.4,0-6.1,2.7-6.1,6.1v11.2v81.5c0,3.1,2.5,5.6,5.6,5.6h151.8
							c3.1,0,5.6-2.5,5.6-5.6v-81.5v-11.2C285.4,198,282.6,195.2,279.2,195.2z"/>
						<path class="st54" d="M279.2,195.2H128.5c-3.4,0-6.1,2.7-6.1,6.1v11.2V294c0,3.1,2.5,5.6,5.6,5.6h151.8c3.1,0,5.6-2.5,5.6-5.6
							v-81.5v-11.2C285.3,197.9,282.6,195.2,279.2,195.2z"/>
						<path class="st55" d="M279.2,195.2H128.4c-3.4,0-6.1,2.7-6.1,6.1v11.2V294c0,3.1,2.5,5.6,5.6,5.6h151.8c3.1,0,5.6-2.5,5.6-5.6
							v-81.5v-11.2C285.3,197.9,282.6,195.2,279.2,195.2z"/>
						<path class="st56" d="M279.2,195.1H128.4c-3.4,0-6.1,2.7-6.1,6.1v11.2V294c0,3.1,2.5,5.6,5.6,5.6h151.8c3.1,0,5.6-2.5,5.6-5.6
							v-81.5v-11.2C285.3,197.9,282.6,195.1,279.2,195.1z"/>
						<path class="st57" d="M279.2,195.1H128.4c-3.4,0-6.1,2.7-6.1,6.1v11.2v81.5c0,3.1,2.5,5.6,5.6,5.6h151.8
							c3.1,0,5.6-2.5,5.6-5.6v-81.5v-11.2C285.3,197.8,282.6,195.1,279.2,195.1z"/>
						<path class="st58" d="M279.2,195.1H128.4c-3.4,0-6.1,2.7-6.1,6.1v11.2v81.5c0,3.1,2.5,5.6,5.6,5.6h151.8
							c3.1,0,5.6-2.5,5.6-5.6v-81.5v-11.2C285.3,197.8,282.5,195.1,279.2,195.1z"/>
						<path class="st59" d="M279.1,195.1H128.4c-3.4,0-6.1,2.7-6.1,6.1v11.2v81.5c0,3.1,2.5,5.6,5.6,5.6h151.8
							c3.1,0,5.6-2.5,5.6-5.6v-81.5v-11.2C285.3,197.8,282.5,195.1,279.1,195.1z"/>
						<path class="st60" d="M279.1,195H128.3c-3.4,0-6.1,2.7-6.1,6.1v11.2v81.5c0,3.1,2.5,5.6,5.6,5.6h151.8c3.1,0,5.6-2.5,5.6-5.6
							v-81.5v-11.2C285.2,197.8,282.5,195,279.1,195z"/>
						<path class="st61" d="M279.1,195H128.3c-3.4,0-6.1,2.7-6.1,6.1v11.2v81.5c0,3.1,2.5,5.6,5.6,5.6h151.8c3.1,0,5.6-2.5,5.6-5.6
							v-81.5v-11.2C285.2,197.7,282.5,195,279.1,195z"/>
						<path class="st62" d="M279.1,195H128.3c-3.4,0-6.1,2.7-6.1,6.1v11.2v81.5c0,3.1,2.5,5.6,5.6,5.6h151.8c3.1,0,5.6-2.5,5.6-5.6
							v-81.5v-11.2C285.2,197.7,282.5,195,279.1,195z"/>
						<path class="st63" d="M279.1,194.9H128.3c-3.4,0-6.1,2.7-6.1,6.1v11.2v81.5c0,3.1,2.5,5.6,5.6,5.6h151.8
							c3.1,0,5.6-2.5,5.6-5.6v-81.5v-11.2C285.2,197.7,282.4,194.9,279.1,194.9z"/>
						<path class="st64" d="M279.1,194.9H128.3c-3.4,0-6.1,2.7-6.1,6.1v11.2v81.5c0,3.1,2.5,5.6,5.6,5.6h151.8
							c3.1,0,5.6-2.5,5.6-5.6v-81.5V201C285.2,197.7,282.4,194.9,279.1,194.9z"/>
						<path class="st65" d="M279,194.9H128.3c-3.4,0-6.1,2.7-6.1,6.1v11.2v81.5c0,3.1,2.5,5.6,5.6,5.6h151.8c3.1,0,5.6-2.5,5.6-5.6
							v-81.5V201C285.1,197.6,282.4,194.9,279,194.9z"/>
						<path class="st66" d="M279,194.9H128.2c-3.4,0-6.1,2.7-6.1,6.1v11.2v81.5c0,3.1,2.5,5.6,5.6,5.6h151.8c3.1,0,5.6-2.5,5.6-5.6
							v-81.5V201C285.1,197.6,282.4,194.9,279,194.9z"/>
						<path class="st67" d="M279,194.8H128.2c-3.4,0-6.1,2.7-6.1,6.1v11.2v81.5c0,3.1,2.5,5.6,5.6,5.6h151.8c3.1,0,5.6-2.5,5.6-5.6
							v-81.5V201C285.1,197.6,282.4,194.8,279,194.8z"/>
						<path class="st68" d="M279,194.8H128.2c-3.4,0-6.1,2.7-6.1,6.1v11.2v81.5c0,3.1,2.5,5.6,5.6,5.6h151.8c3.1,0,5.6-2.5,5.6-5.6
							v-81.5v-11.2C285.1,197.5,282.4,194.8,279,194.8z"/>
						<path class="st69" d="M279,194.8H128.2c-3.4,0-6.1,2.7-6.1,6.1v11.2v81.5c0,3.1,2.5,5.6,5.6,5.6h151.8c3.1,0,5.6-2.5,5.6-5.6
							v-81.5v-11.2C285.1,197.5,282.3,194.8,279,194.8z"/>
						<path class="st70" d="M278.9,194.8H128.2c-3.4,0-6.1,2.7-6.1,6.1v11.2v81.5c0,3.1,2.5,5.6,5.6,5.6h151.8
							c3.1,0,5.6-2.5,5.6-5.6v-81.5v-11.2C285.1,197.5,282.3,194.8,278.9,194.8z"/>
						<path class="st71" d="M278.9,194.7H128.1c-3.4,0-6.1,2.7-6.1,6.1V212v81.5c0,3.1,2.5,5.6,5.6,5.6h151.8c3.1,0,5.6-2.5,5.6-5.6
							V212v-11.2C285,197.5,282.3,194.7,278.9,194.7z"/>
						<path class="st72" d="M278.9,194.7H128.1c-3.4,0-6.1,2.7-6.1,6.1V212v81.5c0,3.1,2.5,5.6,5.6,5.6h151.8c3.1,0,5.6-2.5,5.6-5.6
							V212v-11.2C285,197.4,282.3,194.7,278.9,194.7z"/>
						<path class="st73" d="M278.9,194.7H128.1c-3.4,0-6.1,2.7-6.1,6.1V212v81.5c0,3.1,2.5,5.6,5.6,5.6h151.8c3.1,0,5.6-2.5,5.6-5.6
							V212v-11.2C285,197.4,282.3,194.7,278.9,194.7z"/>
						<path class="st74" d="M278.9,194.6H128.1c-3.4,0-6.1,2.7-6.1,6.1V212v81.5c0,3.1,2.5,5.6,5.6,5.6h151.8c3.1,0,5.6-2.5,5.6-5.6
							V212v-11.2C285,197.4,282.2,194.6,278.9,194.6z"/>
						<path class="st75" d="M278.9,194.6H128.1c-3.4,0-6.1,2.7-6.1,6.1v11.2v81.5c0,3.1,2.5,5.6,5.6,5.6h151.8
							c3.1,0,5.6-2.5,5.6-5.6v-81.5v-11.2C285,197.4,282.2,194.6,278.9,194.6z"/>
						<path class="st76" d="M278.8,194.6H128.1c-3.4,0-6.1,2.7-6.1,6.1v11.2v81.5c0,3.1,2.5,5.6,5.6,5.6h151.8
							c3.1,0,5.6-2.5,5.6-5.6v-81.5v-11.2C284.9,197.3,282.2,194.6,278.8,194.6z"/>
						<path class="st77" d="M278.8,194.6H128c-3.4,0-6.1,2.7-6.1,6.1v11.2v81.5c0,3.1,2.5,5.6,5.6,5.6h151.8c3.1,0,5.6-2.5,5.6-5.6
							v-81.5v-11.2C284.9,197.3,282.2,194.6,278.8,194.6z"/>
						<path class="st78" d="M278.8,194.5H128c-3.4,0-6.1,2.7-6.1,6.1v11.2v81.5c0,3.1,2.5,5.6,5.6,5.6h151.8c3.1,0,5.6-2.5,5.6-5.6
							v-81.5v-11.2C284.9,197.3,282.2,194.5,278.8,194.5z"/>
						<path class="st79" d="M278.8,194.5H128c-3.4,0-6.1,2.7-6.1,6.1v11.2v81.5c0,3.1,2.5,5.6,5.6,5.6h151.8c3.1,0,5.6-2.5,5.6-5.6
							v-81.5v-11.2C284.9,197.3,282.2,194.5,278.8,194.5z"/>
						<path class="st80" d="M278.8,194.5H128c-3.4,0-6.1,2.7-6.1,6.1v11.2v81.5c0,3.1,2.5,5.6,5.6,5.6h151.8c3.1,0,5.6-2.5,5.6-5.6
							v-81.5v-11.2C284.9,197.2,282.1,194.5,278.8,194.5z"/>
						<path class="st81" d="M278.7,194.5H128c-3.4,0-6.1,2.7-6.1,6.1v11.2v81.5c0,3.1,2.5,5.6,5.6,5.6h151.8c3.1,0,5.6-2.5,5.6-5.6
							v-81.5v-11.2C284.9,197.2,282.1,194.5,278.7,194.5z"/>
						<path class="st82" d="M278.7,194.4H127.9c-3.4,0-6.1,2.7-6.1,6.1v11.2v81.5c0,3.1,2.5,5.6,5.6,5.6h151.8
							c3.1,0,5.6-2.5,5.6-5.6v-81.5v-11.2C284.8,197.2,282.1,194.4,278.7,194.4z"/>
						<path class="st83" d="M278.7,194.4H127.9c-3.4,0-6.1,2.7-6.1,6.1v11.2v81.5c0,3.1,2.5,5.6,5.6,5.6h151.8
							c3.1,0,5.6-2.5,5.6-5.6v-81.5v-11.2C284.8,197.1,282.1,194.4,278.7,194.4z"/>
						<path class="st84" d="M278.7,194.4H127.9c-3.4,0-6.1,2.7-6.1,6.1v11.2v81.5c0,3.1,2.5,5.6,5.6,5.6h151.8
							c3.1,0,5.6-2.5,5.6-5.6v-81.5v-11.2C284.8,197.1,282.1,194.4,278.7,194.4z"/>
						<path class="st85" d="M278.7,194.4H127.9c-3.4,0-6.1,2.7-6.1,6.1v11.2v81.5c0,3.1,2.5,5.6,5.6,5.6h151.8
							c3.1,0,5.6-2.5,5.6-5.6v-81.5v-11.2C284.8,197.1,282,194.4,278.7,194.4z"/>
						<path class="st86" d="M278.7,194.3H127.9c-3.4,0-6.1,2.7-6.1,6.1v11.2v81.5c0,3.1,2.5,5.6,5.6,5.6h151.8
							c3.1,0,5.6-2.5,5.6-5.6v-81.5v-11.2C284.8,197.1,282,194.3,278.7,194.3z"/>
						<path class="st87" d="M278.6,194.3H127.9c-3.4,0-6.1,2.7-6.1,6.1v11.2v81.5c0,3.1,2.5,5.6,5.6,5.6h151.8
							c3.1,0,5.6-2.5,5.6-5.6v-81.5v-11.2C284.8,197,282,194.3,278.6,194.3z"/>
						<path class="st88" d="M278.6,194.3H127.8c-3.4,0-6.1,2.7-6.1,6.1v11.2v81.5c0,3.1,2.5,5.6,5.6,5.6h151.8
							c3.1,0,5.6-2.5,5.6-5.6v-81.5v-11.2C284.7,197,282,194.3,278.6,194.3z"/>
						<path class="st89" d="M278.6,194.2H127.8c-3.4,0-6.1,2.7-6.1,6.1v11.2v81.5c0,3.1,2.5,5.6,5.6,5.6h151.8
							c3.1,0,5.6-2.5,5.6-5.6v-81.5v-11.2C284.7,197,282,194.2,278.6,194.2z"/>
						<path class="st90" d="M278.6,194.2H127.8c-3.4,0-6.1,2.7-6.1,6.1v11.2v81.5c0,3.1,2.5,5.6,5.6,5.6h151.8
							c3.1,0,5.6-2.5,5.6-5.6v-81.5v-11.2C284.7,197,282,194.2,278.6,194.2z"/>
						<path class="st91" d="M278.6,194.2H127.8c-3.4,0-6.1,2.7-6.1,6.1v11.2V293c0,3.1,2.5,5.6,5.6,5.6h151.8c3.1,0,5.6-2.5,5.6-5.6
							v-81.5v-11.2C284.7,196.9,281.9,194.2,278.6,194.2z"/>
						<path class="st92" d="M278.5,194.2H127.8c-3.4,0-6.1,2.7-6.1,6.1v11.2V293c0,3.1,2.5,5.6,5.6,5.6h151.8c3.1,0,5.6-2.5,5.6-5.6
							v-81.5v-11.2C284.7,196.9,281.9,194.2,278.5,194.2z"/>
						<path class="st93" d="M278.5,194.1H127.7c-3.4,0-6.1,2.7-6.1,6.1v11.2V293c0,3.1,2.5,5.6,5.6,5.6h151.8c3.1,0,5.6-2.5,5.6-5.6
							v-81.5v-11.2C284.6,196.9,281.9,194.1,278.5,194.1z"/>
						<path class="st94" d="M278.5,194.1H127.7c-3.4,0-6.1,2.7-6.1,6.1v11.2v81.5c0,3.1,2.5,5.6,5.6,5.6H279c3.1,0,5.6-2.5,5.6-5.6
							v-81.5v-11.2C284.6,196.8,281.9,194.1,278.5,194.1z"/>
						<path class="st95" d="M278.5,194.1H127.7c-3.4,0-6.1,2.7-6.1,6.1v11.2v81.5c0,3.1,2.5,5.6,5.6,5.6H279c3.1,0,5.6-2.5,5.6-5.6
							v-81.5v-11.2C284.6,196.8,281.9,194.1,278.5,194.1z"/>
						<path class="st96" d="M278.5,194.1H127.7c-3.4,0-6.1,2.7-6.1,6.1v11.2v81.5c0,3.1,2.5,5.6,5.6,5.6H279c3.1,0,5.6-2.5,5.6-5.6
							v-81.5v-11.2C284.6,196.8,281.9,194.1,278.5,194.1z"/>
						<path class="st97" d="M278.5,194H127.7c-3.4,0-6.1,2.7-6.1,6.1v11.2v81.5c0,3.1,2.5,5.6,5.6,5.6H279c3.1,0,5.6-2.5,5.6-5.6
							v-81.5v-11.2C284.6,196.8,281.8,194,278.5,194z"/>
						<path class="st98" d="M278.4,194H127.7c-3.4,0-6.1,2.7-6.1,6.1v11.2v81.5c0,3.1,2.5,5.6,5.6,5.6H279c3.1,0,5.6-2.5,5.6-5.6
							v-81.5v-11.2C284.6,196.7,281.8,194,278.4,194z"/>
						<path class="st99" d="M278.4,194H127.6c-3.4,0-6.1,2.7-6.1,6.1v11.2v81.5c0,3.1,2.5,5.6,5.6,5.6h151.8c3.1,0,5.6-2.5,5.6-5.6
							v-81.5v-11.2C284.5,196.7,281.8,194,278.4,194z"/>
						<path class="st100" d="M278.4,193.9H127.6c-3.4,0-6.1,2.7-6.1,6.1v11.2v81.5c0,3.1,2.5,5.6,5.6,5.6h151.8
							c3.1,0,5.6-2.5,5.6-5.6v-81.5v-11.2C284.5,196.7,281.8,193.9,278.4,193.9z"/>
						<path class="st101" d="M278.4,193.9H127.6c-3.4,0-6.1,2.7-6.1,6.1v11.2v81.5c0,3.1,2.5,5.6,5.6,5.6h151.8
							c3.1,0,5.6-2.5,5.6-5.6v-81.5V200C284.5,196.7,281.8,193.9,278.4,193.9z"/>
						<path class="st102" d="M278.4,193.9H127.6c-3.4,0-6.1,2.7-6.1,6.1v11.2v81.5c0,3.1,2.5,5.6,5.6,5.6h151.8
							c3.1,0,5.6-2.5,5.6-5.6v-81.5V200C284.5,196.6,281.7,193.9,278.4,193.9z"/>
						<path class="st103" d="M278.3,193.9H127.6c-3.4,0-6.1,2.7-6.1,6.1v11.2v81.5c0,3.1,2.5,5.6,5.6,5.6h151.8
							c3.1,0,5.6-2.5,5.6-5.6v-81.5V200C284.5,196.6,281.7,193.9,278.3,193.9z"/>
						<path class="st104" d="M278.3,193.8H127.6c-3.4,0-6.1,2.7-6.1,6.1v11.2v81.5c0,3.1,2.5,5.6,5.6,5.6h151.8
							c3.1,0,5.6-2.5,5.6-5.6v-81.5V200C284.4,196.6,281.7,193.8,278.3,193.8z"/>
						<path class="st105" d="M278.3,193.8H127.5c-3.4,0-6.1,2.7-6.1,6.1v11.2v81.5c0,3.1,2.5,5.6,5.6,5.6h151.8
							c3.1,0,5.6-2.5,5.6-5.6v-81.5v-11.2C284.4,196.5,281.7,193.8,278.3,193.8z"/>
						<path class="st106" d="M278.3,193.8H127.5c-3.4,0-6.1,2.7-6.1,6.1v11.2v81.5c0,3.1,2.5,5.6,5.6,5.6h151.8
							c3.1,0,5.6-2.5,5.6-5.6v-81.5v-11.2C284.4,196.5,281.7,193.8,278.3,193.8z"/>
						<path class="st107" d="M278.3,193.8H127.5c-3.4,0-6.1,2.7-6.1,6.1v11.2v81.5c0,3.1,2.5,5.6,5.6,5.6h151.8
							c3.1,0,5.6-2.5,5.6-5.6v-81.5v-11.2C284.4,196.5,281.7,193.8,278.3,193.8z"/>
						<path class="st108" d="M278.3,193.7H127.5c-3.4,0-6.1,2.7-6.1,6.1v11.2v81.5c0,3.1,2.5,5.6,5.6,5.6h151.8
							c3.1,0,5.6-2.5,5.6-5.6v-81.5v-11.2C284.4,196.5,281.6,193.7,278.3,193.7z"/>
						<path class="st109" d="M278.2,193.7H127.5c-3.4,0-6.1,2.7-6.1,6.1V211v81.5c0,3.1,2.5,5.6,5.6,5.6h151.8
							c3.1,0,5.6-2.5,5.6-5.6V211v-11.2C284.4,196.4,281.6,193.7,278.2,193.7z"/>
						<path class="st110" d="M278.2,193.7H127.4c-3.4,0-6.1,2.7-6.1,6.1V211v81.5c0,3.1,2.5,5.6,5.6,5.6h151.8
							c3.1,0,5.6-2.5,5.6-5.6V211v-11.2C284.3,196.4,281.6,193.7,278.2,193.7z"/>
						<path class="st111" d="M278.2,193.6H127.4c-3.4,0-6.1,2.7-6.1,6.1V211v81.5c0,3.1,2.5,5.6,5.6,5.6h151.8
							c3.1,0,5.6-2.5,5.6-5.6V211v-11.2C284.3,196.4,281.6,193.6,278.2,193.6z"/>
						<path class="st112" d="M278.2,193.6H127.4c-3.4,0-6.1,2.7-6.1,6.1v11.2v81.5c0,3.1,2.5,5.6,5.6,5.6h151.8
							c3.1,0,5.6-2.5,5.6-5.6v-81.5v-11.2C284.3,196.4,281.6,193.6,278.2,193.6z"/>
						<path class="st113" d="M278.2,193.6H127.4c-3.4,0-6.1,2.7-6.1,6.1v11.2v81.5c0,3.1,2.5,5.6,5.6,5.6h151.8
							c3.1,0,5.6-2.5,5.6-5.6v-81.5v-11.2C284.3,196.3,281.5,193.6,278.2,193.6z"/>
						<path class="st114" d="M278.1,193.6H127.4c-3.4,0-6.1,2.7-6.1,6.1v11.2v81.5c0,3.1,2.5,5.6,5.6,5.6h151.8
							c3.1,0,5.6-2.5,5.6-5.6v-81.5v-11.2C284.3,196.3,281.5,193.6,278.1,193.6z"/>
						<path class="st115" d="M278.1,193.5H127.4c-3.4,0-6.1,2.7-6.1,6.1v11.2v81.5c0,3.1,2.5,5.6,5.6,5.6h151.8
							c3.1,0,5.6-2.5,5.6-5.6v-81.5v-11.2C284.2,196.3,281.5,193.5,278.1,193.5z"/>
						<path class="st116" d="M278.1,193.5H127.3c-3.4,0-6.1,2.7-6.1,6.1v11.2v81.5c0,3.1,2.5,5.6,5.6,5.6h151.8
							c3.1,0,5.6-2.5,5.6-5.6v-81.5v-11.2C284.2,196.3,281.5,193.5,278.1,193.5z"/>
						<path class="st117" d="M278.1,193.5H127.3c-3.4,0-6.1,2.7-6.1,6.1v11.2v81.5c0,3.1,2.5,5.6,5.6,5.6h151.8
							c3.1,0,5.6-2.5,5.6-5.6v-81.5v-11.2C284.2,196.2,281.5,193.5,278.1,193.5z"/>
						<path class="st118" d="M278.1,193.5H127.3c-3.4,0-6.1,2.7-6.1,6.1v11.2v81.5c0,3.1,2.5,5.6,5.6,5.6h151.8
							c3.1,0,5.6-2.5,5.6-5.6v-81.5v-11.2C284.2,196.2,281.5,193.5,278.1,193.5z"/>
						<path class="st119" d="M278.1,193.4H127.3c-3.4,0-6.1,2.7-6.1,6.1v11.2v81.5c0,3.1,2.5,5.6,5.6,5.6h151.8
							c3.1,0,5.6-2.5,5.6-5.6v-81.5v-11.2C284.2,196.2,281.4,193.4,278.1,193.4z"/>
						<path class="st120" d="M278,193.4H127.3c-3.4,0-6.1,2.7-6.1,6.1v11.2v81.5c0,3.1,2.5,5.6,5.6,5.6h151.8c3.1,0,5.6-2.5,5.6-5.6
							v-81.5v-11.2C284.2,196.1,281.4,193.4,278,193.4z"/>
						<path class="st121" d="M278,193.4H127.2c-3.4,0-6.1,2.7-6.1,6.1v11.2v81.5c0,3.1,2.5,5.6,5.6,5.6h151.8c3.1,0,5.6-2.5,5.6-5.6
							v-81.5v-11.2C284.1,196.1,281.4,193.4,278,193.4z"/>
						<path class="st122" d="M278,193.4H127.2c-3.4,0-6.1,2.7-6.1,6.1v11.2v81.5c0,3.1,2.5,5.6,5.6,5.6h151.8c3.1,0,5.6-2.5,5.6-5.6
							v-81.5v-11.2C284.1,196.1,281.4,193.4,278,193.4z"/>
						<path class="st123" d="M278,193.3H127.2c-3.4,0-6.1,2.7-6.1,6.1v11.2v81.5c0,3.1,2.5,5.6,5.6,5.6h151.8c3.1,0,5.6-2.5,5.6-5.6
							v-81.5v-11.2C284.1,196.1,281.4,193.3,278,193.3z"/>
						<path class="st124" d="M278,193.3H127.2c-3.4,0-6.1,2.7-6.1,6.1v11.2v81.5c0,3.1,2.5,5.6,5.6,5.6h151.8c3.1,0,5.6-2.5,5.6-5.6
							v-81.5v-11.2C284.1,196,281.3,193.3,278,193.3z"/>
						<path class="st125" d="M277.9,193.3H127.2c-3.4,0-6.1,2.7-6.1,6.1v11.2v81.5c0,3.1,2.5,5.6,5.6,5.6h151.8
							c3.1,0,5.6-2.5,5.6-5.6v-81.5v-11.2C284.1,196,281.3,193.3,277.9,193.3z"/>
						<path class="st126" d="M277.9,193.2H127.2c-3.4,0-6.1,2.7-6.1,6.1v11.2v81.5c0,3.1,2.5,5.6,5.6,5.6h151.8
							c3.1,0,5.6-2.5,5.6-5.6v-81.5v-11.2C284,196,281.3,193.2,277.9,193.2z"/>
						<path class="st127" d="M277.9,193.2H127.1c-3.4,0-6.1,2.7-6.1,6.1v11.2v81.5c0,3.1,2.5,5.6,5.6,5.6h151.8
							c3.1,0,5.6-2.5,5.6-5.6v-81.5v-11.2C284,196,281.3,193.2,277.9,193.2z"/>
						<path class="st128" d="M277.9,193.2H127.1c-3.4,0-6.1,2.7-6.1,6.1v11.2V292c0,3.1,2.5,5.6,5.6,5.6h151.8
							c3.1,0,5.6-2.5,5.6-5.6v-81.5v-11.2C284,195.9,281.3,193.2,277.9,193.2z"/>
						<path class="st129" d="M277.9,193.2H127.1c-3.4,0-6.1,2.7-6.1,6.1v11.2V292c0,3.1,2.5,5.6,5.6,5.6h151.8
							c3.1,0,5.6-2.5,5.6-5.6v-81.5v-11.2C284,195.9,281.3,193.2,277.9,193.2z"/>
						<path class="st130" d="M277.9,193.1H127.1c-3.4,0-6.1,2.7-6.1,6.1v11.2V292c0,3.1,2.5,5.6,5.6,5.6h151.8
							c3.1,0,5.6-2.5,5.6-5.6v-81.5v-11.2C284,195.9,281.2,193.1,277.9,193.1z"/>
						<path class="st131" d="M277.8,193.1H127.1c-3.4,0-6.1,2.7-6.1,6.1v11.2v81.5c0,3.1,2.5,5.6,5.6,5.6h151.8
							c3.1,0,5.6-2.5,5.6-5.6v-81.5v-11.2C284,195.8,281.2,193.1,277.8,193.1z"/>
						<path class="st132" d="M277.8,193.1H127c-3.4,0-6.1,2.7-6.1,6.1v11.2v81.5c0,3.1,2.5,5.6,5.6,5.6h151.8c3.1,0,5.6-2.5,5.6-5.6
							v-81.5v-11.2C283.9,195.8,281.2,193.1,277.8,193.1z"/>
						<path class="st133" d="M277.8,193.1H127c-3.4,0-6.1,2.7-6.1,6.1v11.2v81.5c0,3.1,2.5,5.6,5.6,5.6h151.8c3.1,0,5.6-2.5,5.6-5.6
							v-81.5v-11.2C283.9,195.8,281.2,193.1,277.8,193.1z"/>
						<path class="st134" d="M277.8,193H127c-3.4,0-6.1,2.7-6.1,6.1v11.2v81.5c0,3.1,2.5,5.6,5.6,5.6h151.8c3.1,0,5.6-2.5,5.6-5.6
							v-81.5v-11.2C283.9,195.8,281.2,193,277.8,193z"/>
						<path class="st135" d="M277.8,193H127c-3.4,0-6.1,2.7-6.1,6.1v11.2v81.5c0,3.1,2.5,5.6,5.6,5.6h151.8c3.1,0,5.6-2.5,5.6-5.6
							v-81.5v-11.2C283.9,195.7,281.1,193,277.8,193z"/>
						<path class="st136" d="M277.7,193H127c-3.4,0-6.1,2.7-6.1,6.1v11.2v81.5c0,3.1,2.5,5.6,5.6,5.6h151.8c3.1,0,5.6-2.5,5.6-5.6
							v-81.5v-11.2C283.9,195.7,281.1,193,277.7,193z"/>
						<path class="st137" d="M277.7,192.9H127c-3.4,0-6.1,2.7-6.1,6.1v11.2v81.5c0,3.1,2.5,5.6,5.6,5.6h151.8c3.1,0,5.6-2.5,5.6-5.6
							v-81.5v-11.2C283.8,195.7,281.1,192.9,277.7,192.9z"/>
						<path class="st138" d="M277.7,192.9H126.9c-3.4,0-6.1,2.7-6.1,6.1v11.2v81.5c0,3.1,2.5,5.6,5.6,5.6h151.8
							c3.1,0,5.6-2.5,5.6-5.6v-81.5V199C283.8,195.7,281.1,192.9,277.7,192.9z"/>
						<path class="st139" d="M277.7,192.9H126.9c-3.4,0-6.1,2.7-6.1,6.1v11.2v81.5c0,3.1,2.5,5.6,5.6,5.6h151.8
							c3.1,0,5.6-2.5,5.6-5.6v-81.5V199C283.8,195.6,281.1,192.9,277.7,192.9z"/>
						<path class="st140" d="M277.7,192.9H126.9c-3.4,0-6.1,2.7-6.1,6.1v11.2v81.5c0,3.1,2.5,5.6,5.6,5.6h151.8
							c3.1,0,5.6-2.5,5.6-5.6v-81.5V199C283.8,195.6,281.1,192.9,277.7,192.9z"/>
						<path class="st141" d="M277.7,192.8H126.9c-3.4,0-6.1,2.7-6.1,6.1v11.2v81.5c0,3.1,2.5,5.6,5.6,5.6h151.8
							c3.1,0,5.6-2.5,5.6-5.6v-81.5V199C283.8,195.6,281,192.8,277.7,192.8z"/>
						<path class="st142" d="M277.6,192.8H126.9c-3.4,0-6.1,2.7-6.1,6.1v11.2v81.5c0,3.1,2.5,5.6,5.6,5.6h151.8
							c3.1,0,5.6-2.5,5.6-5.6v-81.5v-11.2C283.8,195.6,281,192.8,277.6,192.8z"/>
						<path class="st143" d="M277.6,192.8H126.8c-3.4,0-6.1,2.7-6.1,6.1v11.2v81.5c0,3.1,2.5,5.6,5.6,5.6h151.8
							c3.1,0,5.6-2.5,5.6-5.6v-81.5v-11.2C283.7,195.5,281,192.8,277.6,192.8z"/>
						<path class="st144" d="M277.6,192.8H126.8c-3.4,0-6.1,2.7-6.1,6.1v11.2v81.5c0,3.1,2.5,5.6,5.6,5.6h151.8
							c3.1,0,5.6-2.5,5.6-5.6v-81.5v-11.2C283.7,195.5,281,192.8,277.6,192.8z"/>
						<path class="st145" d="M277.6,192.7H126.8c-3.4,0-6.1,2.7-6.1,6.1v11.2v81.5c0,3.1,2.5,5.6,5.6,5.6h151.8
							c3.1,0,5.6-2.5,5.6-5.6v-81.5v-11.2C283.7,195.5,281,192.7,277.6,192.7z"/>
						<path class="st146" d="M277.6,192.7H126.8c-3.4,0-6.1,2.7-6.1,6.1V210v81.5c0,3.1,2.5,5.6,5.6,5.6h151.8
							c3.1,0,5.6-2.5,5.6-5.6V210v-11.2C283.7,195.4,280.9,192.7,277.6,192.7z"/>
						<path class="st147" d="M277.6,192.7H126.8c-3.4,0-6.1,2.7-6.1,6.1V210v81.5c0,3.1,2.5,5.6,5.6,5.6h151.8
							c3.1,0,5.6-2.5,5.6-5.6V210v-11.2C283.7,195.4,280.9,192.7,277.6,192.7z"/>
						<path class="st148" d="M277.5,192.7H126.8c-3.4,0-6.1,2.7-6.1,6.1V210v81.5c0,3.1,2.5,5.6,5.6,5.6h151.8
							c3.1,0,5.6-2.5,5.6-5.6V210v-11.2C283.6,195.4,280.9,192.7,277.5,192.7z"/>
						<path class="st149" d="M277.5,192.6H126.7c-3.4,0-6.1,2.7-6.1,6.1v11.2v81.5c0,3.1,2.5,5.6,5.6,5.6H278c3.1,0,5.6-2.5,5.6-5.6
							v-81.5v-11.2C283.6,195.4,280.9,192.6,277.5,192.6z"/>
						<path class="st150" d="M277.5,192.6H126.7c-3.4,0-6.1,2.7-6.1,6.1v11.2v81.5c0,3.1,2.5,5.6,5.6,5.6H278c3.1,0,5.6-2.5,5.6-5.6
							v-81.5v-11.2C283.6,195.3,280.9,192.6,277.5,192.6z"/>
						<path class="st151" d="M277.5,192.6H126.7c-3.4,0-6.1,2.7-6.1,6.1v11.2v81.5c0,3.1,2.5,5.6,5.6,5.6H278c3.1,0,5.6-2.5,5.6-5.6
							v-81.5v-11.2C283.6,195.3,280.9,192.6,277.5,192.6z"/>
						<path class="st152" d="M277.5,192.5H126.7c-3.4,0-6.1,2.7-6.1,6.1v11.2v81.5c0,3.1,2.5,5.6,5.6,5.6H278c3.1,0,5.6-2.5,5.6-5.6
							v-81.5v-11.2C283.6,195.3,280.8,192.5,277.5,192.5z"/>
						<path class="st153" d="M277.4,192.5H126.7c-3.4,0-6.1,2.7-6.1,6.1v11.2v81.5c0,3.1,2.5,5.6,5.6,5.6H278c3.1,0,5.6-2.5,5.6-5.6
							v-81.5v-11.2C283.6,195.3,280.8,192.5,277.4,192.5z"/>
						<path class="st154" d="M277.4,192.5H126.6c-3.4,0-6.1,2.7-6.1,6.1v11.2v81.5c0,3.1,2.5,5.6,5.6,5.6H278c3.1,0,5.6-2.5,5.6-5.6
							v-81.5v-11.2C283.5,195.2,280.8,192.5,277.4,192.5z"/>
						<path class="st155" d="M277.4,192.5H126.6c-3.4,0-6.1,2.7-6.1,6.1v11.2v81.5c0,3.1,2.5,5.6,5.6,5.6h151.8
							c3.1,0,5.6-2.5,5.6-5.6v-81.5v-11.2C283.5,195.2,280.8,192.5,277.4,192.5z"/>
						<path class="st156" d="M277.4,192.4H126.6c-3.4,0-6.1,2.7-6.1,6.1v11.2v81.5c0,3.1,2.5,5.6,5.6,5.6h151.8
							c3.1,0,5.6-2.5,5.6-5.6v-81.5v-11.2C283.5,195.2,280.8,192.4,277.4,192.4z"/>
						<path class="st157" d="M277.4,192.4H126.6c-3.4,0-6.1,2.7-6.1,6.1v11.2v81.5c0,3.1,2.5,5.6,5.6,5.6h151.8
							c3.1,0,5.6-2.5,5.6-5.6v-81.5v-11.2C283.5,195.1,280.7,192.4,277.4,192.4z"/>
						<path class="st158" d="M277.4,192.4H126.6c-3.4,0-6.1,2.7-6.1,6.1v11.2v81.5c0,3.1,2.5,5.6,5.6,5.6h151.8
							c3.1,0,5.6-2.5,5.6-5.6v-81.5v-11.2C283.5,195.1,280.7,192.4,277.4,192.4z"/>
						<path class="st159" d="M277.3,192.4H126.6c-3.4,0-6.1,2.7-6.1,6.1v11.2v81.5c0,3.1,2.5,5.6,5.6,5.6h151.8
							c3.1,0,5.6-2.5,5.6-5.6v-81.5v-11.2C283.4,195.1,280.7,192.4,277.3,192.4z"/>
						<path class="st160" d="M277.3,192.3H126.5c-3.4,0-6.1,2.7-6.1,6.1v11.2v81.5c0,3.1,2.5,5.6,5.6,5.6h151.8
							c3.1,0,5.6-2.5,5.6-5.6v-81.5v-11.2C283.4,195.1,280.7,192.3,277.3,192.3z"/>
						<path class="st161" d="M277.3,192.3H126.5c-3.4,0-6.1,2.7-6.1,6.1v11.2v81.5c0,3.1,2.5,5.6,5.6,5.6h151.8
							c3.1,0,5.6-2.5,5.6-5.6v-81.5v-11.2C283.4,195,280.7,192.3,277.3,192.3z"/>
						<path class="st162" d="M277.3,192.3H126.5c-3.4,0-6.1,2.7-6.1,6.1v11.2v81.5c0,3.1,2.5,5.6,5.6,5.6h151.8
							c3.1,0,5.6-2.5,5.6-5.6v-81.5v-11.2C283.4,195,280.7,192.3,277.3,192.3z"/>
						<path class="st163" d="M277.3,192.2H126.5c-3.4,0-6.1,2.7-6.1,6.1v11.2v81.5c0,3.1,2.5,5.6,5.6,5.6h151.8
							c3.1,0,5.6-2.5,5.6-5.6v-81.5v-11.2C283.4,195,280.6,192.2,277.3,192.2z"/>
						<path class="st164" d="M277.2,192.2H126.5c-3.4,0-6.1,2.7-6.1,6.1v11.2v81.5c0,3.1,2.5,5.6,5.6,5.6h151.8
							c3.1,0,5.6-2.5,5.6-5.6v-81.5v-11.2C283.4,195,280.6,192.2,277.2,192.2z"/>
						<path class="st165" d="M277.2,192.2H126.4c-3.4,0-6.1,2.7-6.1,6.1v11.2V291c0,3.1,2.5,5.6,5.6,5.6h151.8
							c3.1,0,5.6-2.5,5.6-5.6v-81.5v-11.2C283.3,194.9,280.6,192.2,277.2,192.2z"/>
						<path class="st166" d="M277.2,192.2H126.4c-3.4,0-6.1,2.7-6.1,6.1v11.2V291c0,3.1,2.5,5.6,5.6,5.6h151.8
							c3.1,0,5.6-2.5,5.6-5.6v-81.5v-11.2C283.3,194.9,280.6,192.2,277.2,192.2z"/>
						<path class="st167" d="M277.2,192.1H126.4c-3.4,0-6.1,2.7-6.1,6.1v11.2V291c0,3.1,2.5,5.6,5.6,5.6h151.8
							c3.1,0,5.6-2.5,5.6-5.6v-81.5v-11.2C283.3,194.9,280.6,192.1,277.2,192.1z"/>
						<path class="st168" d="M277.2,192.1H126.4c-3.4,0-6.1,2.7-6.1,6.1v11.2v81.5c0,3.1,2.5,5.6,5.6,5.6h151.8
							c3.1,0,5.6-2.5,5.6-5.6v-81.5v-11.2C283.3,194.8,280.5,192.1,277.2,192.1z"/>
						<path class="st169" d="M277.2,192.1H126.4c-3.4,0-6.1,2.7-6.1,6.1v11.2v81.5c0,3.1,2.5,5.6,5.6,5.6h151.8
							c3.1,0,5.6-2.5,5.6-5.6v-81.5v-11.2C283.3,194.8,280.5,192.1,277.2,192.1z"/>
						<path class="st170" d="M277.1,192.1H126.4c-3.4,0-6.1,2.7-6.1,6.1v11.2v81.5c0,3.1,2.5,5.6,5.6,5.6h151.8
							c3.1,0,5.6-2.5,5.6-5.6v-81.5v-11.2C283.3,194.8,280.5,192.1,277.1,192.1z"/>
						<path class="st171" d="M277.1,192H126.3c-3.4,0-6.1,2.7-6.1,6.1v11.2v81.5c0,3.1,2.5,5.6,5.6,5.6h151.8c3.1,0,5.6-2.5,5.6-5.6
							v-81.5v-11.2C283.2,194.8,280.5,192,277.1,192z"/>
						<path class="st172" d="M277.1,192H126.3c-3.4,0-6.1,2.7-6.1,6.1v11.2v81.5c0,3.1,2.5,5.6,5.6,5.6h151.8c3.1,0,5.6-2.5,5.6-5.6
							v-81.5v-11.2C283.2,194.7,280.5,192,277.1,192z"/>
						<path class="st173" d="M277.1,192H126.3c-3.4,0-6.1,2.7-6.1,6.1v11.2v81.5c0,3.1,2.5,5.6,5.6,5.6h151.8c3.1,0,5.6-2.5,5.6-5.6
							v-81.5v-11.2C283.2,194.7,280.5,192,277.1,192z"/>
						<path class="st174" d="M277.1,191.9H126.3c-3.4,0-6.1,2.7-6.1,6.1v11.2v81.5c0,3.1,2.5,5.6,5.6,5.6h151.8
							c3.1,0,5.6-2.5,5.6-5.6v-81.5v-11.2C283.2,194.7,280.4,191.9,277.1,191.9z"/>
						<path class="st175" d="M277,191.9H126.3c-3.4,0-6.1,2.7-6.1,6.1v11.2v81.5c0,3.1,2.5,5.6,5.6,5.6h151.8c3.1,0,5.6-2.5,5.6-5.6
							v-81.5V198C283.2,194.7,280.4,191.9,277,191.9z"/>
						<path class="st176" d="M277,191.9H126.2c-3.4,0-6.1,2.7-6.1,6.1v11.2v81.5c0,3.1,2.5,5.6,5.6,5.6h151.8c3.1,0,5.6-2.5,5.6-5.6
							v-81.5V198C283.1,194.6,280.4,191.9,277,191.9z"/>
						<path class="st177" d="M277,191.9H126.2c-3.4,0-6.1,2.7-6.1,6.1v11.2v81.5c0,3.1,2.5,5.6,5.6,5.6h151.8c3.1,0,5.6-2.5,5.6-5.6
							v-81.5V198C283.1,194.6,280.4,191.9,277,191.9z"/>
						<path class="st178" d="M277,191.8H126.2c-3.4,0-6.1,2.7-6.1,6.1v11.2v81.5c0,3.1,2.5,5.6,5.6,5.6h151.8c3.1,0,5.6-2.5,5.6-5.6
							v-81.5V198C283.1,194.6,280.4,191.8,277,191.8z"/>
						<path class="st179" d="M277,191.8H126.2c-3.4,0-6.1,2.7-6.1,6.1v11.2v81.5c0,3.1,2.5,5.6,5.6,5.6h151.8c3.1,0,5.6-2.5,5.6-5.6
							v-81.5v-11.2C283.1,194.6,280.3,191.8,277,191.8z"/>
						<path class="st180" d="M277,191.8H126.2c-3.4,0-6.1,2.7-6.1,6.1v11.2v81.5c0,3.1,2.5,5.6,5.6,5.6h151.8c3.1,0,5.6-2.5,5.6-5.6
							v-81.5v-11.2C283.1,194.5,280.3,191.8,277,191.8z"/>
						<path class="st181" d="M276.9,191.8H126.2c-3.4,0-6.1,2.7-6.1,6.1v11.2v81.5c0,3.1,2.5,5.6,5.6,5.6h151.8
							c3.1,0,5.6-2.5,5.6-5.6v-81.5v-11.2C283.1,194.5,280.3,191.8,276.9,191.8z"/>
						<path class="st182" d="M276.9,191.7H126.1c-3.4,0-6.1,2.7-6.1,6.1v11.2v81.5c0,3.1,2.5,5.6,5.6,5.6h151.8
							c3.1,0,5.6-2.5,5.6-5.6v-81.5v-11.2C283,194.5,280.3,191.7,276.9,191.7z"/>
						<path class="st183" d="M276.9,191.7H126.1c-3.4,0-6.1,2.7-6.1,6.1V209v81.5c0,3.1,2.5,5.6,5.6,5.6h151.8
							c3.1,0,5.6-2.5,5.6-5.6V209v-11.2C283,194.4,280.3,191.7,276.9,191.7z"/>
						<path class="st184" d="M276.9,191.7H126.1c-3.4,0-6.1,2.7-6.1,6.1V209v81.5c0,3.1,2.5,5.6,5.6,5.6h151.8
							c3.1,0,5.6-2.5,5.6-5.6V209v-11.2C283,194.4,280.3,191.7,276.9,191.7z"/>
						<path class="st185" d="M276.9,191.7H126.1c-3.4,0-6.1,2.7-6.1,6.1V209v81.5c0,3.1,2.5,5.6,5.6,5.6h151.8
							c3.1,0,5.6-2.5,5.6-5.6V209v-11.2C283,194.4,280.2,191.7,276.9,191.7z"/>
						<path class="st186" d="M276.8,191.6H126.1c-3.4,0-6.1,2.7-6.1,6.1v11.2v81.5c0,3.1,2.5,5.6,5.6,5.6h151.8
							c3.1,0,5.6-2.5,5.6-5.6v-81.5v-11.2C283,194.4,280.2,191.6,276.8,191.6z"/>
						<path class="st187" d="M276.8,191.6H126c-3.4,0-6.1,2.7-6.1,6.1v11.2v81.5c0,3.1,2.5,5.6,5.6,5.6h151.8c3.1,0,5.6-2.5,5.6-5.6
							v-81.5v-11.2C282.9,194.3,280.2,191.6,276.8,191.6z"/>
						<path class="st188" d="M276.8,191.6H126c-3.4,0-6.1,2.7-6.1,6.1v11.2v81.5c0,3.1,2.5,5.6,5.6,5.6h151.8c3.1,0,5.6-2.5,5.6-5.6
							v-81.5v-11.2C282.9,194.3,280.2,191.6,276.8,191.6z"/>
						<path class="st189" d="M276.8,191.5H126c-3.4,0-6.1,2.7-6.1,6.1v11.2v81.5c0,3.1,2.5,5.6,5.6,5.6h151.8c3.1,0,5.6-2.5,5.6-5.6
							v-81.5v-11.2C282.9,194.3,280.2,191.5,276.8,191.5z"/>
						<path class="st190" d="M276.8,191.5H126c-3.4,0-6.1,2.7-6.1,6.1v11.2v81.5c0,3.1,2.5,5.6,5.6,5.6h151.8c3.1,0,5.6-2.5,5.6-5.6
							v-81.5v-11.2C282.9,194.3,280.2,191.5,276.8,191.5z"/>
						<path class="st191" d="M276.8,191.5H126c-3.4,0-6.1,2.7-6.1,6.1v11.2v81.5c0,3.1,2.5,5.6,5.6,5.6h151.8c3.1,0,5.6-2.5,5.6-5.6
							v-81.5v-11.2C282.9,194.2,280.1,191.5,276.8,191.5z"/>
						<path class="st192" d="M276.7,191.5H126c-3.4,0-6.1,2.7-6.1,6.1v11.2v81.5c0,3.1,2.5,5.6,5.6,5.6h151.8c3.1,0,5.6-2.5,5.6-5.6
							v-81.5v-11.2C282.9,194.2,280.1,191.5,276.7,191.5z"/>
						<path class="st193" d="M276.7,191.4H125.9c-3.4,0-6.1,2.7-6.1,6.1v11.2v81.5c0,3.1,2.5,5.6,5.6,5.6h151.8
							c3.1,0,5.6-2.5,5.6-5.6v-81.5v-11.2C282.8,194.2,280.1,191.4,276.7,191.4z"/>
						<path class="st194" d="M276.7,191.4H125.9c-3.4,0-6.1,2.7-6.1,6.1v11.2v81.5c0,3.1,2.5,5.6,5.6,5.6h151.8
							c3.1,0,5.6-2.5,5.6-5.6v-81.5v-11.2C282.8,194.1,280.1,191.4,276.7,191.4z"/>
						<path class="st195" d="M276.7,191.4H125.9c-3.4,0-6.1,2.7-6.1,6.1v11.2v81.5c0,3.1,2.5,5.6,5.6,5.6h151.8
							c3.1,0,5.6-2.5,5.6-5.6v-81.5v-11.2C282.8,194.1,280.1,191.4,276.7,191.4z"/>
						<path class="st196" d="M276.7,191.4H125.9c-3.4,0-6.1,2.7-6.1,6.1v11.2v81.5c0,3.1,2.5,5.6,5.6,5.6h151.8
							c3.1,0,5.6-2.5,5.6-5.6v-81.5v-11.2C282.8,194.1,280,191.4,276.7,191.4z"/>
						<path class="st197" d="M276.6,191.3H125.9c-3.4,0-6.1,2.7-6.1,6.1v11.2v81.5c0,3.1,2.5,5.6,5.6,5.6h151.8
							c3.1,0,5.6-2.5,5.6-5.6v-81.5v-11.2C282.8,194.1,280,191.3,276.6,191.3z"/>
						<path class="st198" d="M276.6,191.3H125.9c-3.4,0-6.1,2.7-6.1,6.1v11.2v81.5c0,3.1,2.5,5.6,5.6,5.6h151.8
							c3.1,0,5.6-2.5,5.6-5.6v-81.5v-11.2C282.7,194,280,191.3,276.6,191.3z"/>
						<path class="st199" d="M276.6,191.3H125.8c-3.4,0-6.1,2.7-6.1,6.1v11.2v81.5c0,3.1,2.5,5.6,5.6,5.6h151.8
							c3.1,0,5.6-2.5,5.6-5.6v-81.5v-11.2C282.7,194,280,191.3,276.6,191.3z"/>
						<path class="st200" d="M276.6,191.2H125.8c-3.4,0-6.1,2.7-6.1,6.1v11.2v81.5c0,3.1,2.5,5.6,5.6,5.6h151.8
							c3.1,0,5.6-2.5,5.6-5.6v-81.5v-11.2C282.7,194,280,191.2,276.6,191.2z"/>
						<path class="st201" d="M276.6,191.2H125.8c-3.4,0-6.1,2.7-6.1,6.1v11.2v81.5c0,3.1,2.5,5.6,5.6,5.6h151.8
							c3.1,0,5.6-2.5,5.6-5.6v-81.5v-11.2C282.7,194,280,191.2,276.6,191.2z"/>
						<path class="st202" d="M276.6,191.2H125.8c-3.4,0-6.1,2.7-6.1,6.1v11.2V290c0,3.1,2.5,5.6,5.6,5.6h151.8
							c3.1,0,5.6-2.5,5.6-5.6v-81.5v-11.2C282.7,193.9,279.9,191.2,276.6,191.2z"/>
						<path class="st203" d="M276.5,191.2H125.8c-3.4,0-6.1,2.7-6.1,6.1v11.2V290c0,3.1,2.5,5.6,5.6,5.6h151.8
							c3.1,0,5.6-2.5,5.6-5.6v-81.5v-11.2C282.7,193.9,279.9,191.2,276.5,191.2z"/>
						<path class="st204" d="M276.5,191.1H125.7c-3.4,0-6.1,2.7-6.1,6.1v11.2V290c0,3.1,2.5,5.6,5.6,5.6H277c3.1,0,5.6-2.5,5.6-5.6
							v-81.5v-11.2C282.6,193.9,279.9,191.1,276.5,191.1z"/>
						<path class="st205" d="M276.5,191.1H125.7c-3.4,0-6.1,2.7-6.1,6.1v11.2v81.5c0,3.1,2.5,5.6,5.6,5.6H277c3.1,0,5.6-2.5,5.6-5.6
							v-81.5v-11.2C282.6,193.8,279.9,191.1,276.5,191.1z"/>
						<path class="st206" d="M276.5,191.1H125.7c-3.4,0-6.1,2.7-6.1,6.1v11.2v81.5c0,3.1,2.5,5.6,5.6,5.6H277c3.1,0,5.6-2.5,5.6-5.6
							v-81.5v-11.2C282.6,193.8,279.9,191.1,276.5,191.1z"/>
						<path class="st207" d="M276.5,191.1H125.7c-3.4,0-6.1,2.7-6.1,6.1v11.2v81.5c0,3.1,2.5,5.6,5.6,5.6H277c3.1,0,5.6-2.5,5.6-5.6
							v-81.5v-11.2C282.6,193.8,279.8,191.1,276.5,191.1z"/>
						<path class="st208" d="M276.4,191H125.7c-3.4,0-6.1,2.7-6.1,6.1v11.2v81.5c0,3.1,2.5,5.6,5.6,5.6H277c3.1,0,5.6-2.5,5.6-5.6
							v-81.5v-11.2C282.6,193.8,279.8,191,276.4,191z"/>
						<path class="st209" d="M276.4,191H125.7c-3.4,0-6.1,2.7-6.1,6.1v11.2v81.5c0,3.1,2.5,5.6,5.6,5.6H277c3.1,0,5.6-2.5,5.6-5.6
							v-81.5v-11.2C282.5,193.7,279.8,191,276.4,191z"/>
						<path class="st210" d="M276.4,191H125.6c-3.4,0-6.1,2.7-6.1,6.1v11.2v81.5c0,3.1,2.5,5.6,5.6,5.6h151.8c3.1,0,5.6-2.5,5.6-5.6
							v-81.5v-11.2C282.5,193.7,279.8,191,276.4,191z"/>
						<path class="st211" d="M276.4,190.9H125.6c-3.4,0-6.1,2.7-6.1,6.1v11.2v81.5c0,3.1,2.5,5.6,5.6,5.6h151.8
							c3.1,0,5.6-2.5,5.6-5.6v-81.5v-11.2C282.5,193.7,279.8,190.9,276.4,190.9z"/>
						<path class="st212" d="M276.4,190.9H125.6c-3.4,0-6.1,2.7-6.1,6.1v11.2v81.5c0,3.1,2.5,5.6,5.6,5.6h151.8
							c3.1,0,5.6-2.5,5.6-5.6v-81.5V197C282.5,193.7,279.8,190.9,276.4,190.9z"/>
						<path class="st213" d="M276.4,190.9H125.6c-3.4,0-6.1,2.7-6.1,6.1v11.2v81.5c0,3.1,2.5,5.6,5.6,5.6h151.8
							c3.1,0,5.6-2.5,5.6-5.6v-81.5V197C282.5,193.6,279.7,190.9,276.4,190.9z"/>
						<path class="st214" d="M276.3,190.9H125.6c-3.4,0-6.1,2.7-6.1,6.1v11.2v81.5c0,3.1,2.5,5.6,5.6,5.6h151.8
							c3.1,0,5.6-2.5,5.6-5.6v-81.5V197C282.5,193.6,279.7,190.9,276.3,190.9z"/>
						<path class="st215" d="M276.3,190.8H125.5c-3.4,0-6.1,2.7-6.1,6.1v11.2v81.5c0,3.1,2.5,5.6,5.6,5.6h151.8
							c3.1,0,5.6-2.5,5.6-5.6v-81.5V197C282.4,193.6,279.7,190.8,276.3,190.8z"/>
						<path class="st216" d="M276.3,190.8H125.5c-3.4,0-6.1,2.7-6.1,6.1v11.2v81.5c0,3.1,2.5,5.6,5.6,5.6h151.8
							c3.1,0,5.6-2.5,5.6-5.6v-81.5v-11.2C282.4,193.6,279.7,190.8,276.3,190.8z"/>
						<path class="st217" d="M276.3,190.8H125.5c-3.4,0-6.1,2.7-6.1,6.1v11.2v81.5c0,3.1,2.5,5.6,5.6,5.6h151.8
							c3.1,0,5.6-2.5,5.6-5.6v-81.5v-11.2C282.4,193.5,279.7,190.8,276.3,190.8z"/>
						<path class="st218" d="M276.3,190.8H125.5c-3.4,0-6.1,2.7-6.1,6.1v11.2v81.5c0,3.1,2.5,5.6,5.6,5.6h151.8
							c3.1,0,5.6-2.5,5.6-5.6v-81.5v-11.2C282.4,193.5,279.6,190.8,276.3,190.8z"/>
						<path class="st219" d="M276.2,190.7H125.5c-3.4,0-6.1,2.7-6.1,6.1v11.2v81.5c0,3.1,2.5,5.6,5.6,5.6h151.8
							c3.1,0,5.6-2.5,5.6-5.6v-81.5v-11.2C282.4,193.5,279.6,190.7,276.2,190.7z"/>
						<path class="st220" d="M276.2,190.7H125.5c-3.4,0-6.1,2.7-6.1,6.1V208v81.5c0,3.1,2.5,5.6,5.6,5.6h151.8
							c3.1,0,5.6-2.5,5.6-5.6V208v-11.2C282.3,193.4,279.6,190.7,276.2,190.7z"/>
						<path class="st221" d="M276.2,190.7H125.4c-3.4,0-6.1,2.7-6.1,6.1V208v81.5c0,3.1,2.5,5.6,5.6,5.6h151.8
							c3.1,0,5.6-2.5,5.6-5.6V208v-11.2C282.3,193.4,279.6,190.7,276.2,190.7z"/>
						<path class="st222" d="M276.2,190.7H125.4c-3.4,0-6.1,2.7-6.1,6.1V208v81.5c0,3.1,2.5,5.6,5.6,5.6h151.8
							c3.1,0,5.6-2.5,5.6-5.6V208v-11.2C282.3,193.4,279.6,190.7,276.2,190.7z"/>
						<path class="st223" d="M276.2,190.6H125.4c-3.4,0-6.1,2.7-6.1,6.1v11.2v81.5c0,3.1,2.5,5.6,5.6,5.6h151.8
							c3.1,0,5.6-2.5,5.6-5.6v-81.5v-11.2C282.3,193.4,279.6,190.6,276.2,190.6z"/>
						<path class="st224" d="M276.2,190.6H125.4c-3.4,0-6.1,2.7-6.1,6.1v11.2v81.5c0,3.1,2.5,5.6,5.6,5.6h151.8
							c3.1,0,5.6-2.5,5.6-5.6v-81.5v-11.2C282.3,193.3,279.5,190.6,276.2,190.6z"/>
						<path class="st225" d="M276.1,190.6H125.4c-3.4,0-6.1,2.7-6.1,6.1v11.2v81.5c0,3.1,2.5,5.6,5.6,5.6h151.8
							c3.1,0,5.6-2.5,5.6-5.6v-81.5v-11.2C282.3,193.3,279.5,190.6,276.1,190.6z"/>
						<path class="st226" d="M276.1,190.5H125.3c-3.4,0-6.1,2.7-6.1,6.1v11.2v81.5c0,3.1,2.5,5.6,5.6,5.6h151.8
							c3.1,0,5.6-2.5,5.6-5.6v-81.5v-11.2C282.2,193.3,279.5,190.5,276.1,190.5z"/>
						<path class="st227" d="M276.1,190.5H125.3c-3.4,0-6.1,2.7-6.1,6.1v11.2v81.5c0,3.1,2.5,5.6,5.6,5.6h151.8
							c3.1,0,5.6-2.5,5.6-5.6v-81.5v-11.2C282.2,193.3,279.5,190.5,276.1,190.5z"/>
						<path class="st228" d="M276.1,190.5H125.3c-3.4,0-6.1,2.7-6.1,6.1v11.2v81.5c0,3.1,2.5,5.6,5.6,5.6h151.8
							c3.1,0,5.6-2.5,5.6-5.6v-81.5v-11.2C282.2,193.2,279.5,190.5,276.1,190.5z"/>
						<path class="st229" d="M276.1,190.5H125.3c-3.4,0-6.1,2.7-6.1,6.1v11.2v81.5c0,3.1,2.5,5.6,5.6,5.6h151.8
							c3.1,0,5.6-2.5,5.6-5.6v-81.5v-11.2C282.2,193.2,279.4,190.5,276.1,190.5z"/>
						<path class="st230" d="M276,190.4H125.3c-3.4,0-6.1,2.7-6.1,6.1v11.2v81.5c0,3.1,2.5,5.6,5.6,5.6h151.8c3.1,0,5.6-2.5,5.6-5.6
							v-81.5v-11.2C282.2,193.2,279.4,190.4,276,190.4z"/>
						<path class="st231" d="M276,190.4H125.3c-3.4,0-6.1,2.7-6.1,6.1v11.2v81.5c0,3.1,2.5,5.6,5.6,5.6h151.8c3.1,0,5.6-2.5,5.6-5.6
							v-81.5v-11.2C282.1,193.1,279.4,190.4,276,190.4z"/>
						<path class="st232" d="M276,190.4H125.2c-3.4,0-6.1,2.7-6.1,6.1v11.2v81.5c0,3.1,2.5,5.6,5.6,5.6h151.8c3.1,0,5.6-2.5,5.6-5.6
							v-81.5v-11.2C282.1,193.1,279.4,190.4,276,190.4z"/>
						<path class="st233" d="M276,190.4H125.2c-3.4,0-6.1,2.7-6.1,6.1v11.2v81.5c0,3.1,2.5,5.6,5.6,5.6h151.8c3.1,0,5.6-2.5,5.6-5.6
							v-81.5v-11.2C282.1,193.1,279.4,190.4,276,190.4z"/>
						<path class="st234" d="M276,190.3H125.2c-3.4,0-6.1,2.7-6.1,6.1v11.2v81.5c0,3.1,2.5,5.6,5.6,5.6h151.8c3.1,0,5.6-2.5,5.6-5.6
							v-81.5v-11.2C282.1,193.1,279.4,190.3,276,190.3z"/>
						<path class="st235" d="M276,190.3H125.2c-3.4,0-6.1,2.7-6.1,6.1v11.2v81.5c0,3.1,2.5,5.6,5.6,5.6h151.8c3.1,0,5.6-2.5,5.6-5.6
							v-81.5v-11.2C282.1,193,279.3,190.3,276,190.3z"/>
						<path class="st236" d="M275.9,190.3H125.2c-3.4,0-6.1,2.7-6.1,6.1v11.2v81.5c0,3.1,2.5,5.6,5.6,5.6h151.8
							c3.1,0,5.6-2.5,5.6-5.6v-81.5v-11.2C282.1,193,279.3,190.3,275.9,190.3z"/>
						<path class="st237" d="M275.9,190.2H125.1c-3.4,0-6.1,2.7-6.1,6.1v11.2v81.5c0,3.1,2.5,5.6,5.6,5.6h151.8
							c3.1,0,5.6-2.5,5.6-5.6v-81.5v-11.2C282,193,279.3,190.2,275.9,190.2z"/>
						<path class="st238" d="M275.9,190.2H125.1c-3.4,0-6.1,2.7-6.1,6.1v11.2v81.5c0,3.1,2.5,5.6,5.6,5.6h151.8
							c3.1,0,5.6-2.5,5.6-5.6v-81.5v-11.2C282,193,279.3,190.2,275.9,190.2z"/>
						<path class="st239" d="M275.9,190.2H125.1c-3.4,0-6.1,2.7-6.1,6.1v11.2V289c0,3.1,2.5,5.6,5.6,5.6h151.8
							c3.1,0,5.6-2.5,5.6-5.6v-81.5v-11.2C282,192.9,279.3,190.2,275.9,190.2z"/>
						<path class="st240" d="M275.9,190.2H125.1c-3.4,0-6.1,2.7-6.1,6.1v11.2V289c0,3.1,2.5,5.6,5.6,5.6h151.8
							c3.1,0,5.6-2.5,5.6-5.6v-81.5v-11.2C282,192.9,279.2,190.2,275.9,190.2z"/>
						<path class="st241" d="M275.9,190.1H125.1c-3.4,0-6.1,2.7-6.1,6.1v11.2V289c0,3.1,2.5,5.6,5.6,5.6h151.8
							c3.1,0,5.6-2.5,5.6-5.6v-81.5v-11.2C282,192.9,279.2,190.1,275.9,190.1z"/>
						<path class="st242" d="M275.8,190.1H125.1c-3.4,0-6.1,2.7-6.1,6.1v11.2v81.5c0,3.1,2.5,5.6,5.6,5.6h151.8
							c3.1,0,5.6-2.5,5.6-5.6v-81.5v-11.2C281.9,192.8,279.2,190.1,275.8,190.1z"/>
						<path class="st243" d="M275.8,190.1H125c-3.4,0-6.1,2.7-6.1,6.1v11.2v81.5c0,3.1,2.5,5.6,5.6,5.6h151.8c3.1,0,5.6-2.5,5.6-5.6
							v-81.5v-11.2C281.9,192.8,279.2,190.1,275.8,190.1z"/>
						<path class="st244" d="M275.8,190.1H125c-3.4,0-6.1,2.7-6.1,6.1v11.2v81.5c0,3.1,2.5,5.6,5.6,5.6h151.8c3.1,0,5.6-2.5,5.6-5.6
							v-81.5v-11.2C281.9,192.8,279.2,190.1,275.8,190.1z"/>
						<path class="st245" d="M275.8,190H125c-3.4,0-6.1,2.7-6.1,6.1v11.2v81.5c0,3.1,2.5,5.6,5.6,5.6h151.8c3.1,0,5.6-2.5,5.6-5.6
							v-81.5v-11.2C281.9,192.8,279.2,190,275.8,190z"/>
						<path class="st246" d="M275.8,190H125c-3.4,0-6.1,2.7-6.1,6.1v11.2v81.5c0,3.1,2.5,5.6,5.6,5.6h151.8c3.1,0,5.6-2.5,5.6-5.6
							v-81.5v-11.2C281.9,192.7,279.1,190,275.8,190z"/>
						<path class="st247" d="M275.7,190H125c-3.4,0-6.1,2.7-6.1,6.1v11.2v81.5c0,3.1,2.5,5.6,5.6,5.6h151.8c3.1,0,5.6-2.5,5.6-5.6
							v-81.5v-11.2C281.9,192.7,279.1,190,275.7,190z"/>
						<path class="st248" d="M275.7,189.9H124.9c-3.4,0-6.1,2.7-6.1,6.1v11.2v81.5c0,3.1,2.5,5.6,5.6,5.6h151.8
							c3.1,0,5.6-2.5,5.6-5.6v-81.5v-11.2C281.8,192.7,279.1,189.9,275.7,189.9z"/>
						<path class="st249" d="M275.7,189.9H124.9c-3.4,0-6.1,2.7-6.1,6.1v11.2v81.5c0,3.1,2.5,5.6,5.6,5.6h151.8
							c3.1,0,5.6-2.5,5.6-5.6v-81.5V196C281.8,192.7,279.1,189.9,275.7,189.9z"/>
						<path class="st250" d="M275.7,189.9H124.9c-3.4,0-6.1,2.7-6.1,6.1v11.2v81.5c0,3.1,2.5,5.6,5.6,5.6h151.8
							c3.1,0,5.6-2.5,5.6-5.6v-81.5V196C281.8,192.6,279.1,189.9,275.7,189.9z"/>
						<path class="st251" d="M275.7,189.9H124.9c-3.4,0-6.1,2.7-6.1,6.1v11.2v81.5c0,3.1,2.5,5.6,5.6,5.6h151.8
							c3.1,0,5.6-2.5,5.6-5.6v-81.5V196C281.8,192.6,279,189.9,275.7,189.9z"/>
						<path class="st252" d="M275.7,189.8H124.9c-3.4,0-6.1,2.7-6.1,6.1v11.2v81.5c0,3.1,2.5,5.6,5.6,5.6h151.8
							c3.1,0,5.6-2.5,5.6-5.6v-81.5V196C281.8,192.6,279,189.8,275.7,189.8z"/>
						<path class="st253" d="M275.6,189.8H124.9c-3.4,0-6.1,2.7-6.1,6.1v11.2v81.5c0,3.1,2.5,5.6,5.6,5.6h151.8
							c3.1,0,5.6-2.5,5.6-5.6v-81.5v-11.2C281.7,192.6,279,189.8,275.6,189.8z"/>
						<path class="st254" d="M275.6,189.8H124.8c-3.4,0-6.1,2.7-6.1,6.1v11.2v81.5c0,3.1,2.5,5.6,5.6,5.6h151.8
							c3.1,0,5.6-2.5,5.6-5.6v-81.5v-11.2C281.7,192.5,279,189.8,275.6,189.8z"/>
						<path class="st255" d="M275.6,189.8H124.8c-3.4,0-6.1,2.7-6.1,6.1v11.2v81.5c0,3.1,2.5,5.6,5.6,5.6h151.8
							c3.1,0,5.6-2.5,5.6-5.6v-81.5v-11.2C281.7,192.5,279,189.8,275.6,189.8z"/>
						<path class="st256" d="M275.6,189.7H124.8c-3.4,0-6.1,2.7-6.1,6.1v11.2v81.5c0,3.1,2.5,5.6,5.6,5.6h151.8
							c3.1,0,5.6-2.5,5.6-5.6v-81.5v-11.2C281.7,192.5,279,189.7,275.6,189.7z"/>
						<path class="st257" d="M275.6,189.7H124.8c-3.4,0-6.1,2.7-6.1,6.1V207v81.5c0,3.1,2.5,5.6,5.6,5.6h151.8
							c3.1,0,5.6-2.5,5.6-5.6V207v-11.2C281.7,192.4,278.9,189.7,275.6,189.7z"/>
						<path class="st258" d="M275.5,189.7H124.8c-3.4,0-6.1,2.7-6.1,6.1V207v81.5c0,3.1,2.5,5.6,5.6,5.6h151.8
							c3.1,0,5.6-2.5,5.6-5.6V207v-11.2C281.7,192.4,278.9,189.7,275.5,189.7z"/>
						<path class="st259" d="M275.5,189.7H124.7c-3.4,0-6.1,2.7-6.1,6.1V207v81.5c0,3.1,2.5,5.6,5.6,5.6h151.8
							c3.1,0,5.6-2.5,5.6-5.6V207v-11.2C281.6,192.4,278.9,189.7,275.5,189.7z"/>
						<path class="st260" d="M275.5,189.6H124.7c-3.4,0-6.1,2.7-6.1,6.1v11.2v81.5c0,3.1,2.5,5.6,5.6,5.6H276c3.1,0,5.6-2.5,5.6-5.6
							v-81.5v-11.2C281.6,192.4,278.9,189.6,275.5,189.6z"/>
						<path class="st261" d="M275.5,189.6H124.7c-3.4,0-6.1,2.7-6.1,6.1v11.2v81.5c0,3.1,2.5,5.6,5.6,5.6H276c3.1,0,5.6-2.5,5.6-5.6
							v-81.5v-11.2C281.6,192.3,278.9,189.6,275.5,189.6z"/>
						<path class="st262" d="M275.5,189.6H124.7c-3.4,0-6.1,2.7-6.1,6.1v11.2v81.5c0,3.1,2.5,5.6,5.6,5.6H276c3.1,0,5.6-2.5,5.6-5.6
							v-81.5v-11.2C281.6,192.3,278.8,189.6,275.5,189.6z"/>
						<path class="st263" d="M275.5,189.5H124.7c-3.4,0-6.1,2.7-6.1,6.1v11.2v81.5c0,3.1,2.5,5.6,5.6,5.6H276c3.1,0,5.6-2.5,5.6-5.6
							v-81.5v-11.2C281.6,192.3,278.8,189.5,275.5,189.5z"/>
						<path class="st264" d="M275.4,189.5H124.7c-3.4,0-6.1,2.7-6.1,6.1v11.2v81.5c0,3.1,2.5,5.6,5.6,5.6H276c3.1,0,5.6-2.5,5.6-5.6
							v-81.5v-11.2C281.6,192.3,278.8,189.5,275.4,189.5z"/>
						<path class="st265" d="M275.4,189.5H124.6c-3.4,0-6.1,2.7-6.1,6.1v11.2v81.5c0,3.1,2.5,5.6,5.6,5.6h151.8
							c3.1,0,5.6-2.5,5.6-5.6v-81.5v-11.2C281.5,192.2,278.8,189.5,275.4,189.5z"/>
						<path class="st266" d="M275.4,189.5H124.6c-3.4,0-6.1,2.7-6.1,6.1v11.2v81.5c0,3.1,2.5,5.6,5.6,5.6h151.8
							c3.1,0,5.6-2.5,5.6-5.6v-81.5v-11.2C281.5,192.2,278.8,189.5,275.4,189.5z"/>
						<path class="st267" d="M275.4,189.4H124.6c-3.4,0-6.1,2.7-6.1,6.1v11.2v81.5c0,3.1,2.5,5.6,5.6,5.6h151.8
							c3.1,0,5.6-2.5,5.6-5.6v-81.5v-11.2C281.5,192.2,278.8,189.4,275.4,189.4z"/>
						<path class="st268" d="M275.4,189.4H124.6c-3.4,0-6.1,2.7-6.1,6.1v11.2v81.5c0,3.1,2.5,5.6,5.6,5.6h151.8
							c3.1,0,5.6-2.5,5.6-5.6v-81.5v-11.2C281.5,192.1,278.7,189.4,275.4,189.4z"/>
						<path class="st269" d="M275.3,189.4H124.6c-3.4,0-6.1,2.7-6.1,6.1v11.2v81.5c0,3.1,2.5,5.6,5.6,5.6h151.8
							c3.1,0,5.6-2.5,5.6-5.6v-81.5v-11.2C281.5,192.1,278.7,189.4,275.3,189.4z"/>
						<path class="st270" d="M275.3,189.4H124.5c-3.4,0-6.1,2.7-6.1,6.1v11.2v81.5c0,3.1,2.5,5.6,5.6,5.6h151.8
							c3.1,0,5.6-2.5,5.6-5.6v-81.5v-11.2C281.4,192.1,278.7,189.4,275.3,189.4z"/>
						<path class="st271" d="M275.3,189.3H124.5c-3.4,0-6.1,2.7-6.1,6.1v11.2v81.5c0,3.1,2.5,5.6,5.6,5.6h151.8
							c3.1,0,5.6-2.5,5.6-5.6v-81.5v-11.2C281.4,192.1,278.7,189.3,275.3,189.3z"/>
						<path class="st272" d="M275.3,189.3H124.5c-3.4,0-6.1,2.7-6.1,6.1v11.2v81.5c0,3.1,2.5,5.6,5.6,5.6h151.8
							c3.1,0,5.6-2.5,5.6-5.6v-81.5v-11.2C281.4,192,278.7,189.3,275.3,189.3z"/>
						<path class="st273" d="M275.3,189.3H124.5c-3.4,0-6.1,2.7-6.1,6.1v11.2v81.5c0,3.1,2.5,5.6,5.6,5.6h151.8
							c3.1,0,5.6-2.5,5.6-5.6v-81.5v-11.2C281.4,192,278.6,189.3,275.3,189.3z"/>
						<path class="st274" d="M275.3,189.2H124.5c-3.4,0-6.1,2.7-6.1,6.1v11.2v81.5c0,3.1,2.5,5.6,5.6,5.6h151.8
							c3.1,0,5.6-2.5,5.6-5.6v-81.5v-11.2C281.4,192,278.6,189.2,275.3,189.2z"/>
						<path class="st275" d="M275.2,189.2H124.5c-3.4,0-6.1,2.7-6.1,6.1v11.2v81.5c0,3.1,2.5,5.6,5.6,5.6h151.8
							c3.1,0,5.6-2.5,5.6-5.6v-81.5v-11.2C281.4,192,278.6,189.2,275.2,189.2z"/>
						<path class="st276" d="M275.2,189.2H124.4c-3.4,0-6.1,2.7-6.1,6.1v11.2V288c0,3.1,2.5,5.6,5.6,5.6h151.8
							c3.1,0,5.6-2.5,5.6-5.6v-81.5v-11.2C281.3,191.9,278.6,189.2,275.2,189.2z"/>
						<path class="st277" d="M275.2,189.2H124.4c-3.4,0-6.1,2.7-6.1,6.1v11.2V288c0,3.1,2.5,5.6,5.6,5.6h151.8
							c3.1,0,5.6-2.5,5.6-5.6v-81.5v-11.2C281.3,191.9,278.6,189.2,275.2,189.2z"/>
						<path class="st278" d="M275.2,189.1H124.4c-3.4,0-6.1,2.7-6.1,6.1v11.2V288c0,3.1,2.5,5.6,5.6,5.6h151.8
							c3.1,0,5.6-2.5,5.6-5.6v-81.5v-11.2C281.3,191.9,278.6,189.1,275.2,189.1z"/>
						<path class="st279" d="M275.2,189.1H124.4c-3.4,0-6.1,2.7-6.1,6.1v11.2V288c0,3.1,2.5,5.6,5.6,5.6h151.8
							c3.1,0,5.6-2.5,5.6-5.6v-81.5v-11.2C281.3,191.9,278.5,189.1,275.2,189.1z"/>
						<path d="M275.1,189.1H124.4c-3.4,0-6.1,2.7-6.1,6.1v11.2v81.5c0,3.1,2.5,5.6,5.6,5.6h151.8c3.1,0,5.6-2.5,5.6-5.6v-81.5v-11.2
							C281.3,191.8,278.5,189.1,275.1,189.1z"/>
					</g>
					<g>
						<linearGradient id="SVGID_19_" gradientUnits="userSpaceOnUse" x1="118.2525" y1="249.9374" x2="281.2616" y2="249.9374">
							<stop  offset="0" style="stop-color:#D3D0FF"/>
							<stop  offset="0.9995" style="stop-color:#F1F9FE"/>
						</linearGradient>
						<path class="st280" d="M123.8,293.5h151.8c3.1,0,5.6-2.5,5.6-5.6v-81.5h-163v81.5C118.3,291,120.8,293.5,123.8,293.5z"/>
						<linearGradient id="SVGID_20_" gradientUnits="userSpaceOnUse" x1="77.5778" y1="197.7236" x2="372.8494" y2="197.7236">
							<stop  offset="0.4665" style="stop-color:#010168"/>
							<stop  offset="0.7458" style="stop-color:#010138"/>
						</linearGradient>
						<path class="st281" d="M275.1,189.1H124.4c-3.4,0-6.1,2.7-6.1,6.1v11.2h163v-11.2C281.3,191.8,278.5,189.1,275.1,189.1z"/>
						<linearGradient id="SVGID_21_" gradientUnits="userSpaceOnUse" x1="125.3251" y1="197.2702" x2="130.5902" y2="197.2702">
							<stop  offset="0" style="stop-color:#A2ED94"/>
							<stop  offset="1" style="stop-color:#69C7B3"/>
						</linearGradient>
						<circle class="st282" cx="128" cy="197.3" r="2.6"/>
						<linearGradient id="SVGID_22_" gradientUnits="userSpaceOnUse" x1="134.7911" y1="197.2702" x2="140.0562" y2="197.2702">
							<stop  offset="5.051200e-04" style="stop-color:#FEBF00"/>
							<stop  offset="0.9841" style="stop-color:#FFDF00"/>
						</linearGradient>
						<circle class="st283" cx="137.4" cy="197.3" r="2.6"/>
						<linearGradient id="SVGID_23_" gradientUnits="userSpaceOnUse" x1="144.2572" y1="197.2702" x2="149.5223" y2="197.2702">
							<stop  offset="0" style="stop-color:#3393EB"/>
							<stop  offset="0.9985" style="stop-color:#37BEDF"/>
						</linearGradient>
						<circle class="st284" cx="146.9" cy="197.3" r="2.6"/>
					</g>
					<rect x="203.8" y="211.1" class="st1" width="74" height="2.1"/>
					<rect x="203.8" y="217.1" class="st1" width="37" height="2.1"/>
					<rect x="203.8" y="223" class="st1" width="37" height="2.1"/>
					<rect x="203.8" y="269" class="st1" width="74" height="2.1"/>
					<rect x="203.8" y="275" class="st1" width="37" height="2.1"/>
					<rect x="203.8" y="281" class="st1" width="37" height="2.1"/>
					<rect x="203.8" y="250.3" class="st1" width="74" height="2.1"/>
					<rect x="203.8" y="256.3" class="st1" width="37" height="2.1"/>
					<rect x="203.8" y="262.3" class="st1" width="37" height="2.1"/>
					<rect x="203.8" y="230.7" class="st1" width="74" height="2.1"/>
					<rect x="203.8" y="236.7" class="st1" width="37" height="2.1"/>
					<rect x="203.8" y="242.7" class="st1" width="37" height="2.1"/>
					
						<rect x="122.9" y="211.1" transform="matrix(-1 -1.224647e-16 1.224647e-16 -1 320.7532 427.232)" class="st1" width="75" height="5.1"/>
					<rect x="122.9" y="220.5" class="st1" width="75" height="62.6"/>
				</g>
				<g>
					<path class="st1" d="M183.9,264.6h-54.4c-1.2,0-2.3-1-2.3-2.3v-33.8c0-1.2,1-2.3,2.3-2.3h54.4c1.2,0,2.3,1,2.3,2.3v33.8
						C186.2,263.6,185.1,264.6,183.9,264.6z"/>
					<linearGradient id="SVGID_24_" gradientUnits="userSpaceOnUse" x1="129.9809" y1="250.2968" x2="183.4461" y2="250.2968">
						<stop  offset="0" style="stop-color:#3393EB"/>
						<stop  offset="0.9985" style="stop-color:#37BEDF"/>
					</linearGradient>
					<path class="st285" d="M130.4,258.8l13-19.6c0.9-1.3,2.8-1.4,3.8-0.1l9.7,12.5c0.9,1.1,2.5,1.2,3.5,0.2l6-6
						c0.9-0.9,2.4-0.9,3.3,0l13.1,12.6c1.5,1.5,0.5,4-1.6,4h-48.8C130.5,262.4,129.3,260.3,130.4,258.8z"/>
					<linearGradient id="SVGID_25_" gradientUnits="userSpaceOnUse" x1="156.1478" y1="243.4109" x2="161.6388" y2="243.4109">
						<stop  offset="5.051200e-04" style="stop-color:#FEBF00"/>
						<stop  offset="0.9841" style="stop-color:#FFDF00"/>
					</linearGradient>
					<circle class="st286" cx="158.9" cy="243.4" r="2.7"/>
				</g>
			</g>
			<g>
				<g>
					<g>
						<path class="st287" d="M342.3,281.3c0,0-17.9-7.2-27.2-19.3c-9.3-12.1-16.2-60.8-16.2-60.8l43.4-15.7l0,0v-3.7l0,0l-46.8,16.9
							c0,0,7.4,52.4,17.5,65.5c10.1,13,29.3,20.8,29.3,20.8s0,0,0,0L342.3,281.3C342.3,281.3,342.3,281.3,342.3,281.3z"/>
						<path class="st288" d="M298.9,201.2c0,0,6.9,48.7,16.2,60.8c9.3,12.1,27.2,19.3,27.2,19.3s0,0,0,0v-95.7l0,0L298.9,201.2z"/>
						<linearGradient id="SVGID_26_" gradientUnits="userSpaceOnUse" x1="342.3064" y1="233.3903" x2="389.057" y2="233.3903">
							<stop  offset="1.027070e-03" style="stop-color:#AC81F9"/>
							<stop  offset="1" style="stop-color:#6466D7"/>
						</linearGradient>
						<path class="st289" d="M371.6,264.2c10.1-13,17.5-65.5,17.5-65.5l-46.8-16.9v3.7l43.4,15.7c0,0-6.9,48.7-16.2,60.8
							c-9.3,12-27,19.2-27.2,19.3v3.7C342.5,284.9,361.6,277.1,371.6,264.2z"/>
						<path class="st290" d="M369.5,262c9.3-12.1,16.2-60.8,16.2-60.8l-43.4-15.7v95.7C342.5,281.2,360.2,274,369.5,262z"/>
						<path class="st1" d="M342.3,192.3L305,205.8c0,0,5.9,41.8,13.9,52.1c8,10.4,23.3,16.5,23.3,16.5s15.3-6.2,23.3-16.5
							c8-10.4,13.9-52.1,13.9-52.1L342.3,192.3z"/>
					</g>
					<linearGradient id="SVGID_27_" gradientUnits="userSpaceOnUse" x1="325.4755" y1="228.4655" x2="359.1196" y2="228.4655">
						<stop  offset="0" style="stop-color:#A2ED94"/>
						<stop  offset="1" style="stop-color:#69C7B3"/>
					</linearGradient>
					<path class="st291" d="M355.7,221.3L355.7,221.3l-0.1-1.8c0-7.3-6-13.3-13.3-13.3s-13.3,6-13.3,13.3v1.8h-0.1
						c-1.9,0-3.5,1.5-3.5,3.5v22.6c0,1.9,1.5,3.5,3.5,3.5h13.4h13.4c1.9,0,3.5-1.5,3.5-3.5v-22.6
						C359.1,222.8,357.6,221.3,355.7,221.3z M344.6,233.9v10.4h-2.3H340v-10.4c-1.7-1-2.7-3-2.1-5.2c0.4-1.6,1.7-2.9,3.2-3.3
						c0.4-0.1,0.8-0.2,1.2-0.2c0.4,0,0.8,0,1.2,0.2c1.6,0.4,2.8,1.7,3.2,3.3C347.3,230.9,346.3,232.9,344.6,233.9z M350.1,221.3
						h-7.8h-7.8v-1.8c0-4.3,3.5-7.8,7.8-7.8c4.3,0,7.8,3.5,7.8,7.8V221.3z"/>
				</g>
				<g>
					<linearGradient id="SVGID_28_" gradientUnits="userSpaceOnUse" x1="325.2339" y1="256.5883" x2="332.364" y2="256.5883">
						<stop  offset="5.051200e-04" style="stop-color:#FEBF00"/>
						<stop  offset="0.9841" style="stop-color:#FFDF00"/>
					</linearGradient>
					<polygon class="st292" points="329.9,255.4 328.8,253.2 327.7,255.4 325.2,255.8 327,257.5 326.6,260 328.8,258.8 331,260 
						330.6,257.5 332.4,255.8 					"/>
					<linearGradient id="SVGID_29_" gradientUnits="userSpaceOnUse" x1="333.4906" y1="256.5883" x2="340.6207" y2="256.5883">
						<stop  offset="5.051200e-04" style="stop-color:#FEBF00"/>
						<stop  offset="0.9841" style="stop-color:#FFDF00"/>
					</linearGradient>
					<polygon class="st293" points="338.2,255.4 337.1,253.2 336,255.4 333.5,255.8 335.3,257.5 334.9,260 337.1,258.8 339.3,260 
						338.8,257.5 340.6,255.8 					"/>
					<linearGradient id="SVGID_30_" gradientUnits="userSpaceOnUse" x1="341.7473" y1="256.5883" x2="348.8773" y2="256.5883">
						<stop  offset="5.051200e-04" style="stop-color:#FEBF00"/>
						<stop  offset="0.9841" style="stop-color:#FFDF00"/>
					</linearGradient>
					<polygon class="st294" points="346.4,255.4 345.3,253.2 344.2,255.4 341.7,255.8 343.5,257.5 343.1,260 345.3,258.8 347.5,260 
						347.1,257.5 348.9,255.8 					"/>
					<linearGradient id="SVGID_31_" gradientUnits="userSpaceOnUse" x1="350.004" y1="256.5883" x2="357.1337" y2="256.5883">
						<stop  offset="5.051200e-04" style="stop-color:#FEBF00"/>
						<stop  offset="0.9841" style="stop-color:#FFDF00"/>
					</linearGradient>
					<polygon class="st295" points="357.1,255.8 354.7,255.4 353.6,253.2 352.5,255.4 350,255.8 351.8,257.5 351.4,260 353.6,258.8 
						355.8,260 355.4,257.5 					"/>
				</g>
			</g>
			<g>
				<g>
					<path class="st10" d="M118.6,70c-9.7,0-18.3,4.7-23.5,12l2.1,2.1c4.6-6.7,12.5-11.2,21.4-11.2c8.9,0,16.7,4.4,21.4,11.2
						l2.1-2.1C136.9,74.8,128.3,70,118.6,70z"/>
					<path class="st10" d="M118.6,75c-8.3,0-15.6,4.2-19.8,10.6l2.1,2c3.6-5.9,10.2-9.8,17.7-9.8c7.5,0,14.1,3.9,17.7,9.8l2.1-2
						C134.2,79.2,126.9,75,118.6,75z"/>
					<path class="st10" d="M118.6,80.8c-6.7,0-12.5,3.6-15.5,9l2,2c2.4-4.9,7.5-8.3,13.4-8.3c5.9,0,11,3.4,13.4,8.3l2-2
						C131.1,84.5,125.3,80.8,118.6,80.8z"/>
					<path class="st10" d="M118.6,87.1c-4.9,0-9.2,3.1-10.7,7.5l2.8,2.8c0.4-3.9,3.8-6.9,7.9-6.9c4.1,0,7.4,3,7.9,6.9l2.8-2.8
						C127.8,90.2,123.6,87.1,118.6,87.1z"/>
					<ellipse class="st10" cx="118.6" cy="98.1" rx="3.9" ry="3.8"/>
				</g>
			</g>
			<path class="st1" d="M316.6,59.4c0-0.2,0-0.3,0-0.5c0-18.9-15.3-34.3-34.3-34.3c-15.3,0-28.2,10-32.6,23.8
				c-4.1-3.1-9.3-4.9-14.8-4.9c-13.7,0-24.8,11.1-24.8,24.8c0,10,6,18.7,14.5,22.6c2.6,1.4,5.5,2.3,8.7,2.3h23.3v-13h-11.1l18.5-32
				l18.5,32h-11.1v13h12.3c0.1,0,0.2,0,0.4,0c0.2,0,0.3,0,0.5,0h28.3c9.5,0,17.1-7.7,17.1-17.1l0,0C329.8,68,324.1,61.2,316.6,59.4z
				"/>
			<g>
				
					<linearGradient id="SVGID_32_" gradientUnits="userSpaceOnUse" x1="-5057.3247" y1="206.4278" x2="-5026.0132" y2="206.4278" gradientTransform="matrix(-1 0 0 1 -4996.29 0)">
					<stop  offset="0" style="stop-color:#6466D7"/>
					<stop  offset="0.999" style="stop-color:#AC81F9"/>
				</linearGradient>
				<path class="st296" d="M31.6,203.9c0-0.1,0-0.2,0-0.2c2.8,0,19.5-0.5,19.5-0.5s-0.9,4.7-3.2,6.5c-7.1,0.3-8,0-8,0l-10.2-1.3
					C29.7,208.3,31.7,205.4,31.6,203.9z"/>
				<linearGradient id="SVGID_33_" gradientUnits="userSpaceOnUse" x1="47.8447" y1="155.9441" x2="73.809" y2="155.9441">
					<stop  offset="0.4665" style="stop-color:#010168"/>
					<stop  offset="0.7458" style="stop-color:#010138"/>
				</linearGradient>
				<path class="st297" d="M73.7,158.9c-0.2,1.5-0.6,3-1.3,4.3c-0.2,0.4-0.4,0.9-0.6,1.5c-0.3,0.8-0.8,4-1.5,4.2
					c-0.5,0.1-0.3-2.3-0.4-2.8c-0.1-0.5-0.6-1-0.8-1.5c-1.1-2.5-1.7-5.3-3.7-7c-1.1-1-2.7-1.4-4.1-1.3c-1.6,0.1-2.8,1.4-4.4,1.5
					c-2.9,0.1-6.4-1.9-7.9-4.4c-1.1-1.8-1.5-4.2-0.7-6.3c0.7-2,2.6-3.7,4.7-4c0.5-0.1,1-0.1,1.5,0.1c0.4,0.1,0.7,0.4,1,0.7
					c1.5,1.1,3.2,2,5,2.4c2.2,0.5,4.6,0.4,6.9,0.7c1.3,0.1,2.7,0.4,3.7,1.4c1.2,1.2,2.1,4,2.5,6C73.8,156.1,73.9,157.2,73.7,158.9z"
					/>
				
					<linearGradient id="SVGID_34_" gradientUnits="userSpaceOnUse" x1="-5088.4023" y1="289.2155" x2="-5033.1001" y2="289.2155" gradientTransform="matrix(-1 0 0 1 -4996.29 0)">
					<stop  offset="0.4665" style="stop-color:#010168"/>
					<stop  offset="0.7458" style="stop-color:#010138"/>
				</linearGradient>
				<path class="st298" d="M45,235.5c0.7-1.6,1.3-2.7,1.7-3.3c8.6-2.2,32.2-2.5,35.6-1.3c0.3,0.1,0.5,0.2,0.7,0.3
					c0.4,0.7,0.8,1.5,1.2,2.4c0.2,0.4,0.4,0.9,0.6,1.4c4.9,11.5,6.8,29.2,7.2,47.2c0.3,10.2,0,20.5-0.4,29.8
					c-0.9,20.5-2.8,36.3-2.8,36.3h-7.2c-0.2-2-10.4-92.9-19.2-93.3c-2.1-0.1-4.2,7.8-6.1,19c-4.7,27.3-8.5,74.3-8.5,74.3h-7.6
					c0,0-3.2-41.6-3.4-63.3C36.6,258,41.9,242.3,45,235.5z"/>
				<path class="st299" d="M57.9,252.1c2.2,0.3,4.5,2.8,4.5,2.8c-2.1-0.1-4.2,7.8-6.1,19C56.3,266.5,56.3,251.9,57.9,252.1z"/>
				<path class="st299" d="M90.1,310.4c-2.2-4-1.7-21.3-5.5-38.6c-3.7-17.3-13-34.2-13-34.2c2.5-5.4,8-5.2,13.1-2.7
					c4.9,11.5,6.8,29.2,7.2,47.2c0.3,10.2,0,20.5-0.4,29.8C91,311.6,90.5,311.1,90.1,310.4z"/>
				<polygon class="st300" points="46.9,350.9 47.1,348.2 40.9,348.2 41.1,350.9 				"/>
				<polygon class="st300" points="88,351.1 88.2,348.2 82.2,348.2 82.4,351.1 				"/>
				
					<linearGradient id="SVGID_35_" gradientUnits="userSpaceOnUse" x1="-5081.1416" y1="362.7978" x2="-5082.1401" y2="347.42" gradientTransform="matrix(-1 0 0 1 -4996.29 0)">
					<stop  offset="0.4665" style="stop-color:#010168"/>
					<stop  offset="0.7458" style="stop-color:#010138"/>
				</linearGradient>
				<path class="st301" d="M78.3,356.8c0.1-0.5,0.6-1,1.4-1.4h0l1.9-4.5h7.3l1.3,4.3h0c1.1,0.4,1.8,1,1.9,1.6h0v2.4
					c0,0.2-0.2,0.5-0.4,0.5H78.6c-0.2,0-0.4-0.2-0.4-0.5L78.3,356.8L78.3,356.8z"/>
				
					<linearGradient id="SVGID_36_" gradientUnits="userSpaceOnUse" x1="-5032.4771" y1="366.0933" x2="-5032.8809" y2="349.7339" gradientTransform="matrix(-1 0 0 1 -4996.29 0)">
					<stop  offset="0.4665" style="stop-color:#010168"/>
					<stop  offset="0.7458" style="stop-color:#010138"/>
				</linearGradient>
				<path class="st302" d="M39,350.9c0,0-0.9,1.9-1.8,2.6s-11.2,2.1-12,3.5c-0.8,1.5,0.5,2.2,0.7,2.2c0.1,0,21.6,0.2,21.8,0
					c0.2-0.2-0.1-8.4-0.1-8.4H39z"/>
				<polygon class="st303" points="59.4,170.4 60.9,177.7 70.5,176.7 69.9,166.1 60.9,166.1 				"/>
				<path class="st304" d="M69.3,167.1c0,0-2.1,5.8-4.3,6.3c-2.2,0.6-5.3-1.1-5.3-1.1l-0.4-1.9c0,0,1.9,1.3,3.4,1.2
					c1.5-0.1,1.3-0.1,1.5-0.1c0.2,0,0.2,0,0.2,0S67,171.3,69.3,167.1z"/>
				<path class="st303" d="M53.7,157.8c-0.9-2-0.1-2.8,1.3-3.1c1.3-0.3,3-0.3,4-0.7c1.1-0.4,2.2-0.6,3.4-0.8c2-0.4,3.1,1.4,3.5,2.6
					c0,0,0,0,0,0.1c0.4,1.2,1.1,3.9,1.7,4.8c0.6,0.9,0.8-3.7,2.4-4.3c0.4-0.1,0.7-0.2,1.1-0.2c0.8,0.1,1.5,0.7,1.8,1.6
					c0.3,1.1,0,2.3-0.6,3.3c-0.5,1-1.3,1.9-1.8,2.9c-1,2-1.1,4.5-2.4,6.4c-1.4,2.1-4.3,2.8-6.7,2.1c-2.4-0.7-4.4-2.8-5.4-5.2
					C54.9,164.1,55.1,160.7,53.7,157.8z"/>
				<path class="st304" d="M60.5,155.1c-2.7,0.2-4.8-0.3-5.4-0.5c1.3-0.3,3-0.3,4-0.7c1.1-0.4,2.2-0.6,3.4-0.8
					c2-0.4,3.1,1.4,3.5,2.6c0,0,0,0,0,0.1C65,154.9,63.1,154.9,60.5,155.1z"/>
				
					<linearGradient id="SVGID_37_" gradientUnits="userSpaceOnUse" x1="-5094.6147" y1="206.3995" x2="-5029.7407" y2="206.3995" gradientTransform="matrix(-1 0 0 1 -4996.29 0)">
					<stop  offset="0" style="stop-color:#6466D7"/>
					<stop  offset="0.999" style="stop-color:#AC81F9"/>
				</linearGradient>
				<path class="st305" d="M48,202.4C48,202.4,48,202.4,48,202.4c0-0.3,0-0.5,0-0.8l-1.8-0.2c0,0,0,0,0-0.1
					c-2.4,1.1-7.3,0.7-12.8,0.9l7.5-1.3c0.3-0.2,5-20.9,6.8-23.3c1.1-1.5,7.4-6.9,12-4.9c0.7,0.3,1.2,0.9,1.8,1.4
					c0.1,0.1,0.1,0.1,0.2,0.2c2.4,2.5,4.7,1.9,6.3,0.9c1.1-0.6,1.9-1.4,2.5-1.9c0.1,0,0.2,0,0.3,0c1.2,0.1,3.6,0.3,6.2,0.6
					c2.8,0.3,5.8,0.7,7.8,1.3c0.4,0.1,0.2-0.1,0.6,0c0,0,6.7,2.1,9.2,13.9c0,0,6.2,21,2.6,24.2c-3.7,3.2-10.6,1.9-10.6,1.9
					l-0.2,10.1c0.2,1.7,0.4,3.4,0.5,5c0.5,6.8,0,11.9-5,9.9c-25.9-10.3-47.2,6.9-38.9-7.6C45.6,228,47.9,210.2,48,202.4z"/>
				<g class="st306">
					<path class="st307" d="M61.7,174.2c2.4,2.5,4.7,1.9,6.3,0.9c1.1-0.6,1.9-1.4,2.5-1.9c0.1,0,0.2,0,0.3,0
						c1.2,0.1,3.6,0.3,6.2,0.6c2.8,0.3,5.8,0.7,7.8,1.3c0.1,1.3-4,0.2-7,0c-3.2-0.2-5.9,3.8-11.3,3.6c-5.2-0.1-6.7-5.5-6.8-6
						c0.6,0.4,1.2,0.9,1.8,1.4C61.5,174.1,61.6,174.2,61.7,174.2z"/>
				</g>
				<polygon class="st299" points="86.5,215.1 67.1,208.4 86.4,222.4 				"/>
				<path class="st299" d="M84.9,185.1c0,0-0.8,11,0.8,16.3c-8.5-1.4-19.6-2-19.6-2l17.5,0.2C83.6,199.6,83.1,191.9,84.9,185.1z"/>
				<polygon class="st299" points="61,200.5 61.2,205.8 64.9,207.4 61.8,205 61.5,199.4 61.1,199.4 				"/>
				<g>
					
						<linearGradient id="SVGID_38_" gradientUnits="userSpaceOnUse" x1="-5034.7842" y1="200.6541" x2="-5025.9614" y2="202.1753" gradientTransform="matrix(-1 0 0 1 -4996.29 0)">
						<stop  offset="0.4665" style="stop-color:#010168"/>
						<stop  offset="0.7458" style="stop-color:#010138"/>
					</linearGradient>
					<polygon class="st308" points="24,198.5 37,198.3 51.3,201.5 51.3,203.1 28.5,203.8 					"/>
					
						<linearGradient id="SVGID_39_" gradientUnits="userSpaceOnUse" x1="-5025.6289" y1="190.9441" x2="-4996.29" y2="190.9441" gradientTransform="matrix(-1 0 0 1 -4996.29 0)">
						<stop  offset="0.4665" style="stop-color:#010168"/>
						<stop  offset="0.7458" style="stop-color:#010138"/>
					</linearGradient>
					<polygon class="st309" points="15.2,178.8 0,178.1 12.8,200.3 29.3,203.8 					"/>
				</g>
				<path class="st303" d="M61.3,199.4c0,0-7.6-3.4-9.8-3.9c-2.3-0.5-5.3-1.1-7.3,0.3s-4.9,4.3-4,4.7c0.9,0.4,1.5,0.5,2.2,0.4
					c0.7-0.2,3.8-1.8,5.9-1.1c2.1,0.6,2.2,2,3,2.3c0.8,0.3,3.2,0.4,4,0.2c0.8-0.2,5.9,3.6,5.9,3.6L61.3,199.4z"/>
				<path class="st303" d="M20.6,197.5c1.7,0.8,2.1,1,2.6,2.1c0,0,0.1,0.4,0.1,0.4c0.4,0.9,0.2,0.6,0.4,0.9c0.5,0.9-0.1-0.4,0.8-0.6
					c0.5-0.1,0.9,0.1,1.6,1.2c0.4,0.6,1.6,1.8,3.2,2.1c0.4,0.1,1.4,0,2.3,0c0.2,1.6-1.7,4.6-1.7,4.6l-0.1,0
					c-0.8-0.1-1.4-0.1-1.9-0.2c-2.8-0.4-7.8-3.2-8.6-4.2c-0.6-0.7-1.5-3.4-1.8-5.9C17.4,196.7,18.6,196.6,20.6,197.5z"/>
			</g>
			<g>
				<path class="st10" d="M598,320c-0.8-1-1.7-1.9-2.2-3.1c-0.7-1.6-0.5-3.5,0.1-5.2c0.5-1.7,1.3-3.3,1.8-5c1.1-4.2,0-8.9-3-12.1
					c-0.6-0.7-1.4-1.4-1.9-2.2c-1.2-1.9-1.2-4.3-0.9-6.5c0.3-2.2,1-4.4,0.8-6.6c-0.2-2.7-1.5-5.3-3.6-7c-2-1.7-4.8-2.3-7.4-2.3
					c0,0,0,0,0,0c0,0-0.1,0-0.1,0c0,0-0.1,0-0.1,0c0,0,0,0,0,0c-2.6,0-5.4,0.6-7.4,2.2c-2.1,1.7-3.5,4.3-3.6,7
					c-0.2,2.2,0.4,4.4,0.7,6.6c0.3,2.2,0.3,4.6-1,6.5c-0.5,0.8-1.3,1.4-1.9,2.1c-3,3.2-4.2,7.9-3.1,12.1c0.4,1.7,1.2,3.3,1.7,5
					c0.5,1.7,0.7,3.6,0,5.2c-0.5,1.2-1.4,2.1-2.2,3.1c-2.9,3.6-4.2,9.1-1.7,13c1,1.6,2.5,2.7,4.1,3.8c2.4,1.6,5.1,2.8,8,3.4
					c1.2,0.3,2.5,0.5,3.8,0.2c0.8-0.2,1.5-0.1,2.4-0.1c0.9,0,1.5-0.1,2.4,0.1c1.2,0.3,2.5,0.1,3.8-0.2c2.8-0.6,5.5-1.8,8-3.4
					c1.6-1,3.1-2.2,4.1-3.7C602.1,329.1,600.9,323.7,598,320z"/>
				<path class="st310" d="M582.6,332.4c2.4-3.2,12.2-16.2,12.2-16.2l-12.2,13.1l-0.4-25.7c1.8-2.5,9.2-12.2,9.2-12.2l-9.2,9.9
					l-0.3-15.6c0.8-1.1,6.6-8.8,6.6-8.8l-6.6,7.1l-0.2-11l-0.2,14.1l-6.4-7c0,0,5.1,6.9,6.3,8.6l-0.2,15.9l-9.1-10
					c0,0,7.3,10,9.1,12.3l-0.4,26.1l-12.4-13.6c0,0,11.1,15.1,12.4,16.9l-0.1,3.8l0,0v4.2h2.2v-4.2h0L582.6,332.4z"/>
				<polygon class="st311" points="572,344.4 591.4,344.4 587.8,359.7 575.7,359.7 				"/>
				<linearGradient id="SVGID_40_" gradientUnits="userSpaceOnUse" x1="586.827" y1="348.9181" x2="576.5369" y2="338.6281">
					<stop  offset="0" style="stop-color:#A2ED94"/>
					<stop  offset="1" style="stop-color:#69C7B3"/>
				</linearGradient>
				<rect x="572" y="343.2" class="st312" width="19.4" height="1.2"/>
			</g>
		</g>
		<g>
			<linearGradient id="SVGID_41_" gradientUnits="userSpaceOnUse" x1="450.3981" y1="50.9947" x2="486.3922" y2="50.9947">
				<stop  offset="5.051200e-04" style="stop-color:#FEBF00"/>
				<stop  offset="0.9841" style="stop-color:#FFDF00"/>
			</linearGradient>
			<path class="st313" d="M485.7,53l-2.8,1.7c-0.3,0.2-0.6,0-0.7-0.3c-0.8-8.8-8.2-15.6-17.2-15.6c-6.1,0-11.4,3.1-14.5,7.9
				c-0.6,1,0.1,2.2,1.2,2.2c0.5,0,0.9-0.2,1.2-0.6c2.6-4,7-6.6,12.1-6.6c7.3,0,13.3,5.5,14.2,12.5c0,0.4-0.4,0.6-0.7,0.4l-2.6-1.6
				c-0.4-0.2-0.8,0.2-0.6,0.6l5,9.4c0.2,0.3,0.6,0.3,0.8,0l5-9.4C486.6,53.2,486.1,52.8,485.7,53z"/>
			<linearGradient id="SVGID_42_" gradientUnits="userSpaceOnUse" x1="444.9125" y1="62.7383" x2="480.9066" y2="62.7383">
				<stop  offset="5.051200e-04" style="stop-color:#FEBF00"/>
				<stop  offset="0.9841" style="stop-color:#FFDF00"/>
			</linearGradient>
			<path class="st314" d="M479.5,64.9c-0.5,0-0.9,0.2-1.2,0.6c-2.6,4-7,6.6-12.1,6.6c-7.3,0-13.3-5.5-14.2-12.5
				c0-0.4,0.4-0.6,0.7-0.4l2.6,1.6c0.4,0.2,0.8-0.2,0.6-0.6l-5-9.4c-0.2-0.3-0.6-0.3-0.8,0l-5,9.4c-0.2,0.4,0.2,0.8,0.6,0.6l2.8-1.7
				c0.3-0.2,0.6,0,0.7,0.3c0.8,8.8,8.2,15.6,17.2,15.6c6.1,0,11.4-3.1,14.5-7.9C481.3,66.1,480.6,64.9,479.5,64.9z"/>
		</g>
	</g>
</g>
</svg>
