<?xml version="1.0" encoding="utf-8"?>
<!-- Generator: Adobe Illustrator 25.2.0, SVG Export Plug-In . SVG Version: 6.00 Build 0)  -->
<svg version="1.1" id="Layer_1" xmlns="http://www.w3.org/2000/svg" xmlns:xlink="http://www.w3.org/1999/xlink" x="0px" y="0px"
	 viewBox="0 0 511 511" style="enable-background:new 0 0 511 511;" xml:space="preserve">
<style type="text/css">
	.st0{fill:url(#SVGID_1_);}
	.st1{fill:url(#SVGID_2_);}
	.st2{fill:url(#SVGID_3_);}
	.st3{fill:url(#SVGID_4_);}
	.st4{fill:url(#SVGID_5_);}
	.st5{fill:url(#SVGID_6_);}
	.st6{fill:url(#SVGID_7_);}
	.st7{fill:url(#SVGID_8_);}
	.st8{fill:url(#SVGID_9_);}
	.st9{fill:url(#SVGID_10_);}
	.st10{fill:url(#SVGID_11_);}
</style>
<g>
	<linearGradient id="SVGID_1_" gradientUnits="userSpaceOnUse" x1="-23.5008" y1="282.9657" x2="513.0706" y2="282.9657">
		<stop  offset="0" style="stop-color:#FACC15"/>
		<stop  offset="1" style="stop-color:#F97316"/>
	</linearGradient>
	<path class="st0" d="M324.3,272.5c-2.9,0-5.4,1-7.5,2.9c-2.2,2-3.3,4.4-3.3,7.5s1.1,5.5,3.3,7.5c2.2,2,4.7,2.9,7.5,2.9
		c2.9,0,5.4-1,7.4-3c2-2,3-4.5,3-7.4c0-2.9-1-5.3-3.1-7.4C329.6,273.6,327.1,272.5,324.3,272.5z"/>
	<linearGradient id="SVGID_2_" gradientUnits="userSpaceOnUse" x1="-23.5008" y1="321.9598" x2="513.0706" y2="321.9598">
		<stop  offset="0" style="stop-color:#FACC15"/>
		<stop  offset="1" style="stop-color:#F97316"/>
	</linearGradient>
	<path class="st1" d="M324.3,311.4c-2.9,0-5.3,1-7.5,3.1s-3.2,4.5-3.2,7.5c0,2.8,1,5.3,3.1,7.5c2.1,2.1,4.7,3.1,7.6,3.1
		c2.9,0,5.3-1,7.4-3.1c2-2,3.1-4.5,3.1-7.3c0-2.9-1-5.5-3.1-7.6C329.6,312.5,327.1,311.4,324.3,311.4z"/>
	<linearGradient id="SVGID_3_" gradientUnits="userSpaceOnUse" x1="-23.5008" y1="285.2308" x2="513.0706" y2="285.2308">
		<stop  offset="0" style="stop-color:#FACC15"/>
		<stop  offset="1" style="stop-color:#F97316"/>
	</linearGradient>
	<path class="st2" d="M211.1,261.9h-5.7l0.1-11c0-2.7-0.9-4.9-2.8-6.6c-1.9-1.9-4-2.8-6.5-2.8c-2.6,0-4.8,0.9-6.7,2.7
		s-2.8,4.1-2.8,6.7v11h-3.1c-2.4,0-4.4,0.8-6.1,2.4c-1.7,1.6-2.6,3.6-2.6,5.9c0,2.2,0.8,4.2,2.4,5.9c1.6,1.7,3.7,2.6,6.2,2.6h3.2
		v40.8c0,1.4,0.2,2.6,0.7,3.7c0.4,1.1,1.1,2.1,2,3c1.8,1.9,4,2.8,6.6,2.8c2.7,0,4.9-0.9,6.7-2.8c1.8-1.9,2.6-4.1,2.6-6.7l-0.1-40.7
		h5.6c2.4,0,4.4-0.8,6.1-2.5c1.7-1.7,2.5-3.7,2.5-5.9c0-2.4-0.8-4.4-2.5-6C215.4,262.7,213.4,261.9,211.1,261.9z"/>
	<linearGradient id="SVGID_4_" gradientUnits="userSpaceOnUse" x1="-23.5008" y1="285.2308" x2="513.0706" y2="285.2308">
		<stop  offset="0" style="stop-color:#FACC15"/>
		<stop  offset="1" style="stop-color:#F97316"/>
	</linearGradient>
	<path class="st3" d="M160.6,261.9h-5.8l0.1-11c0-2.7-1-4.9-2.8-6.6c-1.9-1.9-4-2.8-6.5-2.8c-2.6,0-4.9,0.9-6.7,2.7
		c-1.8,1.8-2.8,4.1-2.8,6.7v11h-3.1c-2.4,0-4.4,0.8-6.1,2.4c-1.7,1.6-2.6,3.6-2.6,5.9c0,2.2,0.8,4.2,2.5,5.9
		c1.6,1.7,3.7,2.6,6.2,2.6h3.2v40.8c0,1.4,0.2,2.6,0.7,3.7c0.5,1.1,1.1,2.1,2,3c1.8,1.9,4,2.8,6.6,2.8c2.7,0,4.9-0.9,6.7-2.8
		c1.8-1.9,2.6-4.1,2.6-6.7l-0.1-40.7h5.7c2.4,0,4.4-0.8,6.1-2.5c1.7-1.7,2.5-3.7,2.5-5.9c0-2.4-0.8-4.4-2.5-6
		C164.9,262.7,163,261.9,160.6,261.9z"/>
	<linearGradient id="SVGID_5_" gradientUnits="userSpaceOnUse" x1="-23.5008" y1="280.7591" x2="513.0706" y2="280.7591">
		<stop  offset="0" style="stop-color:#FACC15"/>
		<stop  offset="1" style="stop-color:#F97316"/>
	</linearGradient>
	<path class="st4" d="M92.7,260.7c-5.3,0-10.1,1.2-14.5,3.8l-2.7,1.8v-24.7c0-2.7-0.9-4.9-2.8-6.6c-1.8-1.9-4-2.8-6.6-2.8
		c-2.6,0-4.9,0.9-6.7,2.8c-1.9,1.9-2.8,4.1-2.8,6.6v78.1c0,2.5,0.9,4.8,2.8,6.6c1.9,1.9,4.1,2.8,6.7,2.8c2.6,0,4.8-0.9,6.7-2.8
		s2.7-4,2.7-6.7v-32.2c0-3,1.1-5.6,3.3-7.7c2.2-2.1,4.9-3.2,8-3.2c2.9,0,5.5,1.1,7.6,3.3c2.1,2.2,3.2,4.8,3.2,7.8v32.1
		c0,2.6,0.9,4.9,2.8,6.7c1.9,1.9,4.1,2.8,6.8,2.8c2.7,0,4.9-0.9,6.6-2.8c1.9-1.9,2.8-4.1,2.8-6.7v-35.2c0-7-1.9-12.5-5.7-16.5
		C106,263.1,100,260.7,92.7,260.7z"/>
	<linearGradient id="SVGID_6_" gradientUnits="userSpaceOnUse" x1="-23.5008" y1="308.2" x2="513.0706" y2="308.2">
		<stop  offset="0" style="stop-color:#FACC15"/>
		<stop  offset="1" style="stop-color:#F97316"/>
	</linearGradient>
	<path class="st5" d="M292.3,276.7c-1.4-2.2-3-4.4-5-6.3c-6.2-6.2-13.6-9.3-22.3-9.3c-6.3,0-12.1,1.6-17.3,4.8
		c-2.9-7.1-17.5-9-17.5,4.7v75.9c0,2.8,0.9,5,2.8,6.8c1.9,1.9,4.1,2.8,6.8,2.8c2.7,0,4.8-1,6.6-2.8c1.8-1.9,2.8-4,2.8-6.6v-26.3
		c4.8,2.6,10.1,3.9,15.9,3.9c8.9,0,16.4-3,22.5-9.1c6.1-6.1,9.1-13.5,9.1-22.4c0-3.8-0.6-7.4-1.8-10.7
		C294.2,280.1,293.4,278.4,292.3,276.7z M264.7,306.1c-7.7,0-13.9-6.2-13.9-13.8c0-7.6,6.2-13.9,13.9-13.9c7.6,0,13.8,6.2,13.8,13.9
		C278.6,299.9,272.4,306.1,264.7,306.1z"/>
	<linearGradient id="SVGID_7_" gradientUnits="userSpaceOnUse" x1="-23.5008" y1="289.9306" x2="513.0706" y2="289.9306">
		<stop  offset="0" style="stop-color:#FACC15"/>
		<stop  offset="1" style="stop-color:#F97316"/>
	</linearGradient>
	<path class="st6" d="M466.5,186.7h-16.4c-18-34.1-44.6-62.9-77.2-83.6c-35.3-22.4-76.2-34.3-118.2-34.3c-16.9,0-33.8,1.9-50,5.7
		c-5.4,1.3-8.7,6.6-7.5,12c1.2,5.4,6.6,8.7,12,7.5c14.8-3.4,30.1-5.2,45.5-5.2c44.4,0,86.2,14.3,120.2,39.7h-45.7
		c-22.1,0-40.1,18-40.1,40.1c0,6.4,1.6,12.6,4.4,18.1H82.2c15.2-25.3,35.8-47.2,60.4-63.8c4.6-3.1,5.8-9.3,2.7-13.8
		c-3.1-4.6-9.3-5.8-13.8-2.7c-30.3,20.4-55.2,48.1-72.2,80.3H42.4c-24,0-43.4,19.5-43.4,43.5v117.1c0,24,19.5,43.5,43.4,43.5h15.7
		c10.9,21.1,25,40.3,41.8,56.9c0,0,0,0,0,0c10.7,10.5,22.6,20,35.4,28.3c35.6,22.9,76.9,35,119.4,35c42.5,0,83.8-12.1,119.4-35
		c32.9-21.2,59.5-50.5,77.2-85.1h15.2c24,0,43.5-19.5,43.5-43.5V230.2C510,206.2,490.5,186.7,466.5,186.7z M329.2,148.4h68.5
		c11.2,11.4,21.1,24.2,29.5,38.3H320.4c-6.8-3.4-11.3-10.5-11.3-18.1C309.1,157.5,318.1,148.4,329.2,148.4z M80.8,390.8h103
		c9.1,2.1,15.7,10.2,15.7,19.7c0,11.1-9,20.2-20.2,20.2h-68.1C99.6,418.8,89.4,405.5,80.8,390.8z M490,347.3
		c0,13-10.5,23.5-23.5,23.5H354.9c-5.5,0-10,4.5-10,10c0,5.5,4.5,10,10,10h73.7C392.9,452.2,326.3,491,254.7,491
		c-44.1,0-86.3-14.8-120.6-40.4h45.3c22.1,0,40.1-18,40.1-40.1c0-7.1-1.9-13.8-5.2-19.7h60.8c5.5,0,10-4.5,10-10c0-5.5-4.5-10-10-10
		h-90.4c0,0,0,0-0.1,0H42.4c-13,0-23.5-10.6-23.5-23.5V230.2c0-13,10.5-23.5,23.5-23.5h22.9h0h0h252.8c0,0,0,0,0.1,0c0,0,0,0,0,0
		H444h0h0h22.4c13,0,23.5,10.5,23.5,23.5V347.3z"/>
	<linearGradient id="SVGID_8_" gradientUnits="userSpaceOnUse" x1="-23.5008" y1="283.143" x2="513.0706" y2="283.143">
		<stop  offset="0" style="stop-color:#FACC15"/>
		<stop  offset="1" style="stop-color:#F97316"/>
	</linearGradient>
	<path class="st7" d="M425.7,238.4l-33,82.1c-0.4,1-0.7,2-0.7,3c0,12.5,15.6,14.5,19.3,4.7l33.2-82.4c0.4-0.9,0.7-2,0.7-3.1
		C445.1,229.7,429.3,228.6,425.7,238.4z"/>
	<linearGradient id="SVGID_9_" gradientUnits="userSpaceOnUse" x1="-23.5008" y1="280.6879" x2="513.0706" y2="280.6879">
		<stop  offset="0" style="stop-color:#FACC15"/>
		<stop  offset="1" style="stop-color:#F97316"/>
	</linearGradient>
	<path class="st8" d="M402.1,240.3c0-13.1-15.9-14.2-19.5-4.4l-33,82.2c-0.4,1-0.7,2-0.7,3c0,12.5,15.6,14.4,19.3,4.7l33.2-82.3
		C401.9,242.5,402.1,241.4,402.1,240.3z"/>
	<linearGradient id="SVGID_10_" gradientUnits="userSpaceOnUse" x1="-23.5008" y1="97.0806" x2="513.0706" y2="97.0806">
		<stop  offset="0" style="stop-color:#FACC15"/>
		<stop  offset="1" style="stop-color:#F97316"/>
	</linearGradient>
	<path class="st9" d="M168.8,107.1c1.5,0,3-0.3,4.5-1.1l0.2-0.1c4.9-2.5,6.9-8.5,4.5-13.4s-8.5-6.9-13.4-4.5l-0.2,0.1
		c-4.9,2.5-6.9,8.5-4.5,13.4C161.6,105.1,165.1,107.1,168.8,107.1z"/>
	<linearGradient id="SVGID_11_" gradientUnits="userSpaceOnUse" x1="-23.5008" y1="380.8544" x2="513.0706" y2="380.8544">
		<stop  offset="0" style="stop-color:#FACC15"/>
		<stop  offset="1" style="stop-color:#F97316"/>
	</linearGradient>
	<path class="st10" d="M315.3,370.9h-0.2c-5.5,0-10,4.5-10,10c0,5.5,4.5,10,10,10h0.2c5.5,0,10-4.5,10-10
		C325.2,375.3,320.8,370.9,315.3,370.9z"/>
</g>
</svg>
