<?xml version="1.0" encoding="utf-8"?>
<!-- Generator: Adobe Illustrator 25.2.0, SVG Export Plug-In . SVG Version: 6.00 Build 0)  -->
<svg version="1.1" id="Layer_1" xmlns="http://www.w3.org/2000/svg" xmlns:xlink="http://www.w3.org/1999/xlink" x="0px" y="0px"
	 viewBox="0 0 486.7 401.9" style="enable-background:new 0 0 486.7 401.9;" xml:space="preserve">
<style type="text/css">
	.st0{opacity:0.4;}
	.st1{fill:#FFFFFF;}
	.st2{opacity:0.5;fill:#FFFFFF;}
	.st3{opacity:0.65;fill:#A5490A;}
	.st4{fill:url(#SVGID_1_);}
	.st5{fill:url(#SVGID_2_);}
	.st6{fill:url(#SVGID_3_);}
	.st7{fill:#396CAA;}
	.st8{fill:url(#SVGID_4_);}
	.st9{fill:#D4ECFF;}
	.st10{fill:#5793CE;}
	.st11{fill:url(#SVGID_5_);}
	.st12{fill:#173D7A;}
	.st13{fill:#274F89;}
	.st14{fill:url(#SVGID_6_);}
	.st15{fill:url(#SVGID_7_);}
	.st16{fill:url(#SVGID_8_);}
	.st17{fill:#FACB15;}
	.st18{opacity:0.5;fill:#173D7A;}
	.st19{fill:url(#SVGID_9_);}
	.st20{fill:url(#SVGID_10_);}
	.st21{fill:url(#SVGID_11_);}
	.st22{fill:url(#SVGID_12_);}
	.st23{fill:url(#SVGID_13_);}
	.st24{fill:url(#SVGID_14_);}
	.st25{fill:url(#SVGID_15_);}
</style>
<g>
	<g class="st0">
		<path class="st1" d="M446.5,131.7l-40.2-23.2l40.2-23.2l40.2,23.2L446.5,131.7z M409.1,108.4l37.4,21.6l37.4-21.6l-37.4-21.6
			L409.1,108.4z"/>
		<path class="st1" d="M368.9,131.7l-0.4-0.2l-39.9-23l40.2-23.2l0.4,0.2l39.9,23L368.9,131.7z M331.6,108.4l37.4,21.6l37.4-21.6
			l-37.4-21.6L331.6,108.4z"/>
		<path class="st1" d="M407.7,154l-40.2-23.2l40.2-23.2l40.2,23.2L407.7,154z M370.3,130.8l37.4,21.6l37.4-21.6l-37.4-21.6
			L370.3,130.8z"/>
		<path class="st1" d="M446.5,176.4l-0.4-0.2l-39.9-23l40.2-23.2l0.4,0.2l39.9,23L446.5,176.4z M409.1,153.2l37.4,21.6l37.4-21.6
			l-37.4-21.6L409.1,153.2z"/>
		<path class="st1" d="M291.3,131.7l-0.4-0.2l-39.9-23l40.2-23.2l0.4,0.2l39.9,23L291.3,131.7z M254,108.4l37.4,21.6l37.4-21.6
			l-37.4-21.6L254,108.4z"/>
		<path class="st1" d="M330.1,154l-0.4-0.2l-39.9-23l40.2-23.2l0.4,0.2l39.9,23L330.1,154z M292.8,130.8l37.4,21.6l37.4-21.6
			l-37.4-21.6L292.8,130.8z"/>
		<path class="st1" d="M368.9,176.4l-0.4-0.2l-39.9-23l40.2-23.2l40.2,23.2L368.9,176.4z M331.6,153.2l37.4,21.6l37.4-21.6
			l-37.4-21.6L331.6,153.2z"/>
		<path class="st1" d="M407.7,198.8l-40.2-23.2l40.2-23.2l0.4,0.2l39.9,23L407.7,198.8z M370.3,175.6l37.4,21.6l37.4-21.6L407.7,154
			L370.3,175.6z"/>
		<path class="st1" d="M446.5,221.2L406.3,198l40.2-23.2l0.4,0.2l39.9,23L446.5,221.2z M409.1,198l37.4,21.6l37.4-21.6l-37.4-21.6
			L409.1,198z"/>
		<path class="st1" d="M213.8,131.7l-0.4-0.2l-39.9-23l40.2-23.2l40.2,23.2L213.8,131.7z M176.4,108.4l37.4,21.6l37.4-21.6
			l-37.4-21.6L176.4,108.4z"/>
		<path class="st1" d="M252.6,154l-40.2-23.2l40.2-23.2l0.4,0.2l39.9,23L252.6,154z M215.2,130.8l37.4,21.6l37.4-21.6l-37.4-21.6
			L215.2,130.8z"/>
		<path class="st1" d="M291.3,176.4l-0.4-0.2l-39.9-23l40.2-23.2l0.4,0.2l39.9,23L291.3,176.4z M254,153.2l37.4,21.6l37.4-21.6
			l-37.4-21.6L254,153.2z"/>
		<path class="st1" d="M330.1,198.8l-0.4-0.2l-39.9-23l40.2-23.2l0.4,0.2l39.9,23L330.1,198.8z M292.8,175.6l37.4,21.6l37.4-21.6
			L330.1,154L292.8,175.6z"/>
		<path class="st1" d="M368.9,221.2L328.7,198l40.2-23.2l40.2,23.2L368.9,221.2z M331.6,198l37.4,21.6l37.4-21.6l-37.4-21.6
			L331.6,198z"/>
		<path class="st1" d="M407.7,243.6l-0.4-0.2l-39.9-23l40.2-23.2l40.2,23.2L407.7,243.6z M370.3,220.4l37.4,21.6l37.4-21.6
			l-37.4-21.6L370.3,220.4z"/>
		<path class="st1" d="M446.5,266l-40.2-23.2l40.2-23.2l0.4,0.2l39.9,23L446.5,266z M409.1,242.8l37.4,21.6l37.4-21.6l-37.4-21.6
			L409.1,242.8z"/>
		<path class="st1" d="M136.2,131.7l-0.4-0.2l-39.9-23l40.2-23.2l0.4,0.2l39.9,23L136.2,131.7z M98.8,108.4l37.4,21.6l37.4-21.6
			l-37.4-21.6L98.8,108.4z"/>
		<path class="st1" d="M175,154l-0.4-0.2l-39.9-23l40.2-23.2l0.4,0.2l39.9,23L175,154z M137.6,130.8l37.4,21.6l37.4-21.6L175,109.3
			L137.6,130.8z"/>
		<path class="st1" d="M213.8,176.4l-0.4-0.2l-39.9-23l40.2-23.2l40.2,23.2L213.8,176.4z M176.4,153.2l37.4,21.6l37.4-21.6
			l-37.4-21.6L176.4,153.2z"/>
		<path class="st1" d="M252.6,198.8l-0.4-0.2l-39.9-23l40.2-23.2l0.4,0.2l39.9,23L252.6,198.8z M215.2,175.6l37.4,21.6l37.4-21.6
			L252.6,154L215.2,175.6z"/>
		<path class="st1" d="M291.4,221.2L251.1,198l40.2-23.2l0.4,0.2l39.9,23L291.4,221.2z M254,198l37.4,21.6l37.4-21.6l-37.4-21.6
			L254,198z"/>
		<path class="st1" d="M330.1,243.6l-40.2-23.2l40.2-23.2l40.2,23.2L330.1,243.6z M292.8,220.4l37.4,21.6l37.4-21.6l-37.4-21.6
			L292.8,220.4z"/>
		<path class="st1" d="M368.9,266l-0.4-0.2l-39.9-23l40.2-23.2l0.4,0.2l39.9,23L368.9,266z M331.6,242.8l37.4,21.6l37.4-21.6
			l-37.4-21.6L331.6,242.8z"/>
		<path class="st1" d="M407.7,288.4l-0.4-0.2l-39.9-23l40.2-23.2l40.2,23.2L407.7,288.4z M370.3,265.2l37.4,21.6l37.4-21.6
			l-37.4-21.6L370.3,265.2z"/>
		<path class="st1" d="M446.5,310.8l-0.4-0.2l-39.9-23l40.2-23.2l0.4,0.2l39.9,23L446.5,310.8z M409.1,287.6l37.4,21.6l37.4-21.6
			L446.5,266L409.1,287.6z"/>
		<path class="st1" d="M58.6,131.7l-0.4-0.2l-39.9-23l40.2-23.2l40.2,23.2L58.6,131.7z M21.3,108.4L58.6,130L96,108.4L58.6,86.9
			L21.3,108.4z"/>
		<path class="st1" d="M97.4,154l-0.4-0.2l-39.9-23l40.2-23.2l0.4,0.2l39.9,23L97.4,154z M60.1,130.8l37.4,21.6l37.4-21.6
			l-37.4-21.6L60.1,130.8z"/>
		<path class="st1" d="M136.2,176.4L96,153.2l40.2-23.2l0.4,0.2l39.9,23L136.2,176.4z M98.8,153.2l37.4,21.6l37.4-21.6l-37.4-21.6
			L98.8,153.2z"/>
		<path class="st1" d="M175,198.8l-0.4-0.2l-39.9-23l40.2-23.2l0.4,0.2l39.9,23L175,198.8z M137.6,175.6l37.4,21.6l37.4-21.6
			L175,154L137.6,175.6z"/>
		<path class="st1" d="M213.8,221.2l-0.4-0.2l-39.9-23l40.2-23.2l0.4,0.2l39.9,23L213.8,221.2z M176.4,198l37.4,21.6l37.4-21.6
			l-37.4-21.6L176.4,198z"/>
		<path class="st1" d="M252.6,243.6l-0.4-0.2l-39.9-23l40.2-23.2l40.2,23.2L252.6,243.6z M215.2,220.4l37.4,21.6l37.4-21.6
			l-37.4-21.6L215.2,220.4z"/>
		<path class="st1" d="M291.4,266l-0.4-0.2l-39.9-23l40.2-23.2l40.2,23.2L291.4,266z M254,242.8l37.4,21.6l37.4-21.6l-37.4-21.6
			L254,242.8z"/>
		<path class="st1" d="M330.1,288.4l-40.2-23.2l40.2-23.2l0.4,0.2l39.9,23L330.1,288.4z M292.8,265.2l37.4,21.6l37.4-21.6
			l-37.4-21.6L292.8,265.2z"/>
		<path class="st1" d="M368.9,310.8l-0.4-0.2l-39.9-23l40.2-23.2l0.4,0.2l39.9,23L368.9,310.8z M331.6,287.6l37.4,21.6l37.4-21.6
			L368.9,266L331.6,287.6z"/>
		<path class="st1" d="M407.7,333.2l-0.4-0.2l-39.9-23l40.2-23.2l0.4,0.2l39.9,23L407.7,333.2z M370.3,310l37.4,21.6l37.4-21.6
			l-37.4-21.6L370.3,310z"/>
		<path class="st1" d="M446.5,355.6l-0.4-0.2l-39.9-23l40.2-23.2l40.2,23.2L446.5,355.6z M409.1,332.4l37.4,21.6l37.4-21.6
			l-37.4-21.6L409.1,332.4z"/>
		<path class="st1" d="M58.6,176.4l-0.4-0.2l-39.9-23L58.6,130l0.4,0.2l39.9,23L58.6,176.4z M21.3,153.2l37.4,21.6L96,153.2
			l-37.4-21.6L21.3,153.2z"/>
		<path class="st1" d="M97.4,198.8l-0.4-0.2l-39.9-23l40.2-23.2l40.2,23.2L97.4,198.8z M60.1,175.6l37.4,21.6l37.4-21.6L97.4,154
			L60.1,175.6z"/>
		<path class="st1" d="M136.2,221.2L96,198l40.2-23.2l0.4,0.2l39.9,23L136.2,221.2z M98.8,198l37.4,21.6l37.4-21.6l-37.4-21.6
			L98.8,198z"/>
		<path class="st1" d="M175,243.6l-0.4-0.2l-39.9-23l40.2-23.2l0.4,0.2l39.9,23L175,243.6z M137.6,220.4L175,242l37.4-21.6
			L175,198.8L137.6,220.4z"/>
		<path class="st1" d="M213.8,266l-0.4-0.2l-39.9-23l40.2-23.2l0.4,0.2l39.9,23L213.8,266z M176.4,242.8l37.4,21.6l37.4-21.6
			l-37.4-21.6L176.4,242.8z"/>
		<path class="st1" d="M252.6,288.4l-0.4-0.2l-39.9-23l40.2-23.2l0.4,0.2l39.9,23L252.6,288.4z M215.2,265.2l37.4,21.6l37.4-21.6
			l-37.4-21.6L215.2,265.2z"/>
		<path class="st1" d="M291.4,310.8l-40.2-23.2l40.2-23.2l40.2,23.2L291.4,310.8z M254,287.6l37.4,21.6l37.4-21.6L291.4,266
			L254,287.6z"/>
		<path class="st1" d="M330.1,333.2L289.9,310l40.2-23.2l0.4,0.2l39.9,23L330.1,333.2z M292.8,310l37.4,21.6l37.4-21.6l-37.4-21.6
			L292.8,310z"/>
		<path class="st1" d="M368.9,355.6l-0.4-0.2l-39.9-23l40.2-23.2l0.4,0.2l39.9,23L368.9,355.6z M331.6,332.4l37.4,21.6l37.4-21.6
			l-37.4-21.6L331.6,332.4z"/>
		<path class="st1" d="M407.7,378l-0.4-0.2l-39.9-23l40.2-23.2l0.4,0.2l39.9,23L407.7,378z M370.3,354.8l37.4,21.6l37.4-21.6
			l-37.4-21.6L370.3,354.8z"/>
		<path class="st1" d="M446.5,400.4l-0.4-0.2l-39.9-23l40.2-23.2l0.4,0.2l39.9,23L446.5,400.4z M409.1,377.2l37.4,21.6l37.4-21.6
			l-37.4-21.6L409.1,377.2z"/>
		<path class="st1" d="M58.6,221.2l-0.4-0.2l-39.9-23l40.2-23.2L59,175l39.9,23L58.6,221.2z M21.3,198l37.4,21.6L96,198l-37.4-21.6
			L21.3,198z"/>
		<path class="st1" d="M97.4,243.6l-0.4-0.2l-39.9-23l40.2-23.2l40.2,23.2L97.4,243.6z M60.1,220.4L97.4,242l37.4-21.6l-37.4-21.6
			L60.1,220.4z"/>
		<path class="st1" d="M136.2,266l-0.4-0.2l-39.9-23l40.2-23.2l0.4,0.2l39.9,23L136.2,266z M98.8,242.8l37.4,21.6l37.4-21.6
			l-37.4-21.6L98.8,242.8z"/>
		<path class="st1" d="M175,288.4l-40.2-23.2L175,242l0.4,0.2l39.9,23L175,288.4z M137.6,265.2l37.4,21.6l37.4-21.6L175,243.6
			L137.6,265.2z"/>
		<path class="st1" d="M213.8,310.8l-0.4-0.2l-39.9-23l40.2-23.2l0.4,0.2l39.9,23L213.8,310.8z M176.4,287.6l37.4,21.6l37.4-21.6
			L213.8,266L176.4,287.6z"/>
		<path class="st1" d="M252.6,333.2L212.4,310l40.2-23.2l40.2,23.2L252.6,333.2z M215.2,310l37.4,21.6l37.4-21.6l-37.4-21.6
			L215.2,310z"/>
		<path class="st1" d="M291.4,355.6l-0.4-0.2l-39.9-23l40.2-23.2l40.2,23.2L291.4,355.6z M254,332.4l37.4,21.6l37.4-21.6l-37.4-21.6
			L254,332.4z"/>
		<path class="st1" d="M330.1,378l-0.4-0.2l-39.9-23l40.2-23.2l0.4,0.2l39.9,23L330.1,378z M292.8,354.8l37.4,21.6l37.4-21.6
			l-37.4-21.6L292.8,354.8z"/>
		<path class="st1" d="M368.9,400.4l-40.2-23.2l40.2-23.2l0.4,0.2l39.9,23L368.9,400.4z M331.6,377.1l37.4,21.6l37.4-21.6
			l-37.4-21.6L331.6,377.1z"/>
		<path class="st1" d="M58.6,266l-0.4-0.2l-39.9-23l40.2-23.2l0.4,0.2l39.9,23L58.6,266z M21.3,242.8l37.4,21.6L96,242.8l-37.4-21.6
			L21.3,242.8z"/>
		<path class="st1" d="M97.4,288.4l-0.4-0.2l-39.9-23L97.4,242l0.4,0.2l39.9,23L97.4,288.4z M60.1,265.2l37.4,21.6l37.4-21.6
			l-37.4-21.6L60.1,265.2z"/>
		<path class="st1" d="M136.2,310.8l-0.4-0.2l-39.9-23l40.2-23.2l40.2,23.2L136.2,310.8z M98.9,287.6l37.4,21.6l37.4-21.6L136.2,266
			L98.9,287.6z"/>
		<path class="st1" d="M175,333.2L134.8,310l40.2-23.2l0.4,0.2l39.9,23L175,333.2z M137.6,310l37.4,21.6l37.4-21.6L175,288.4
			L137.6,310z"/>
		<path class="st1" d="M213.8,355.6l-0.4-0.2l-39.9-23l40.2-23.2l40.2,23.2L213.8,355.6z M176.4,332.4l37.4,21.6l37.4-21.6
			l-37.4-21.6L176.4,332.4z"/>
		<path class="st1" d="M252.6,378l-40.2-23.2l40.2-23.2l0.4,0.2l39.9,23L252.6,378z M215.2,354.8l37.4,21.6l37.4-21.6l-37.4-21.6
			L215.2,354.8z"/>
		<path class="st1" d="M291.4,400.4l-0.4-0.2l-39.9-23l40.2-23.2l0.4,0.2l39.9,23L291.4,400.4z M254,377.1l37.4,21.6l37.4-21.6
			l-37.4-21.6L254,377.1z"/>
		<path class="st1" d="M58.6,310.8l-0.4-0.2l-39.9-23l40.2-23.2l0.4,0.2l39.9,23L58.6,310.8z M21.3,287.6l37.4,21.6L96,287.6
			L58.6,266L21.3,287.6z"/>
		<path class="st1" d="M97.4,333.2l-0.4-0.2l-39.9-23l40.2-23.2l0.4,0.2l39.9,23L97.4,333.2z M60.1,310l37.4,21.6l37.4-21.6
			l-37.4-21.6L60.1,310z"/>
		<path class="st1" d="M136.2,355.6l-0.4-0.2l-39.9-23l40.2-23.2l40.2,23.2L136.2,355.6z M98.9,332.4l37.4,21.6l37.4-21.6
			l-37.4-21.6L98.9,332.4z"/>
		<path class="st1" d="M175,378l-0.4-0.2l-39.9-23l40.2-23.2l0.4,0.2l39.9,23L175,378z M137.6,354.8l37.4,21.6l37.4-21.6L175,333.2
			L137.6,354.8z"/>
		<path class="st1" d="M213.8,400.4l-40.2-23.2l40.2-23.2l40.2,23.2L213.8,400.4z M176.4,377.1l37.4,21.6l37.4-21.6l-37.4-21.6
			L176.4,377.1z"/>
		<path class="st1" d="M58.6,355.6l-40.2-23.2l40.2-23.2l0.4,0.2l39.9,23L58.6,355.6z M21.3,332.4l37.4,21.6L96,332.4l-37.4-21.6
			L21.3,332.4z"/>
		<path class="st1" d="M97.4,378l-0.4-0.2l-39.9-23l40.2-23.2l0.4,0.2l39.9,23L97.4,378z M60.1,354.8l37.4,21.6l37.4-21.6
			l-37.4-21.6L60.1,354.8z"/>
		<path class="st1" d="M136.2,400.4l-0.4-0.2l-39.9-23l40.2-23.2l0.4,0.2l39.9,23L136.2,400.4z M98.9,377.1l37.4,21.6l37.4-21.6
			l-37.4-21.6L98.9,377.1z"/>
		<path class="st1" d="M58.6,400.4l-40.2-23.2l40.2-23.2l0.4,0.2l39.9,23L58.6,400.4z M21.3,377.1l37.4,21.6L96,377.1l-37.4-21.6
			L21.3,377.1z"/>
	</g>
	<g>
		<path class="st1" d="M327.4,347.4c0,2.5-1.7,5.5-3.9,6.7c-2.1,1.2-3.9,0.2-3.9-2.2c0-2.5,1.7-5.5,3.9-6.7
			C325.7,343.9,327.4,344.9,327.4,347.4z"/>
		<path class="st1" d="M339.9,340.1c0,2.5-1.7,5.5-3.9,6.7c-2.1,1.2-3.9,0.2-3.9-2.2s1.7-5.5,3.9-6.7
			C338.2,336.7,339.9,337.7,339.9,340.1z"/>
		<path class="st1" d="M352.5,332.9c0,2.5-1.7,5.5-3.9,6.7c-2.1,1.2-3.9,0.2-3.9-2.2s1.7-5.5,3.9-6.7
			C350.7,329.4,352.5,330.4,352.5,332.9z"/>
		<path class="st1" d="M365,325.6c0,2.5-1.7,5.5-3.9,6.7c-2.1,1.2-3.9,0.2-3.9-2.2c0-2.5,1.7-5.5,3.9-6.7
			C363.3,322.2,365,323.2,365,325.6z"/>
	</g>
	<g>
		<polygon class="st1" points="6.8,253.3 0,257.2 0,249.4 6.8,245.5 		"/>
		<polygon class="st1" points="17.8,246.9 11,250.8 11,243 17.8,239.1 		"/>
		<polygon class="st1" points="28.7,240.6 22,244.5 22,236.7 28.7,232.8 		"/>
		<polygon class="st1" points="39.7,234.3 32.9,238.2 32.9,230.3 39.7,226.4 		"/>
	</g>
	<g>
		<polygon class="st1" points="122.8,343.6 115.1,348 115.1,339.1 122.8,334.6 		"/>
		<polygon class="st1" points="133.5,337.3 125.8,341.8 125.8,332.8 133.5,328.4 		"/>
		<polygon class="st1" points="122.9,355.1 115.1,359.6 115.1,350.7 122.9,346.2 		"/>
		<polygon class="st1" points="133.5,349 125.8,353.5 125.8,344.5 133.5,340.1 		"/>
	</g>
	<path class="st2" d="M206,355.1c-1.2,0.7-2.2,1.6-3.2,2.8c-0.2-6.3-4.7-8.8-10.3-5.6c-1.8,1-3.5,2.5-4.9,4.3
		c-2.5-4.3-7.6-5.4-13.6-1.9c-8.4,4.8-15.2,16.6-15.2,26.3c0,0.8,0.1,1.5,0.2,2.3c-1.2-0.3-2.7-0.1-4.3,0.9c-4,2.3-7.3,8-7.3,12.6
		s3.3,6.5,7.3,4.2l51.3-29.6c3.9-2.2,7-7.7,7-12.1C213,354.7,209.8,352.9,206,355.1z"/>
	<g>
		<g>
			<polygon class="st3" points="452.4,216.8 423.4,200.1 452.4,183.3 481.4,200.1 			"/>
			<path class="st1" d="M452.4,206.4c-0.4,0-0.8-0.1-1.1-0.3l-29-16.8c-0.7-0.4-1.1-1.1-1.1-1.9s0.4-1.5,1.1-1.9l29-16.8
				c0.7-0.4,1.5-0.4,2.2,0l29,16.8c0.7,0.4,1.1,1.1,1.1,1.9s-0.4,1.5-1.1,1.9l-29,16.8C453.2,206.3,452.8,206.4,452.4,206.4z
				 M427.8,187.5l24.6,14.2l24.6-14.2l-24.6-14.2L427.8,187.5z"/>
			<radialGradient id="SVGID_1_" cx="449.6653" cy="156.5448" r="43.2725" gradientUnits="userSpaceOnUse">
				<stop  offset="0" style="stop-color:#274F89"/>
				<stop  offset="1" style="stop-color:#173D7A"/>
			</radialGradient>
			<polygon class="st4" points="481.4,174.4 452.4,191.1 452.4,157.6 481.4,140.8 			"/>
			<linearGradient id="SVGID_2_" gradientUnits="userSpaceOnUse" x1="423.379" y1="140.8431" x2="499.9505" y2="140.8431">
				<stop  offset="0" style="stop-color:#D4ECFF"/>
				<stop  offset="0.2385" style="stop-color:#D0EAFE"/>
				<stop  offset="0.4599" style="stop-color:#C5E2F9"/>
				<stop  offset="0.6745" style="stop-color:#B2D6F2"/>
				<stop  offset="0.8837" style="stop-color:#98C4E7"/>
				<stop  offset="1" style="stop-color:#86B8E0"/>
			</linearGradient>
			<polygon class="st5" points="452.4,157.6 423.4,140.8 452.4,124.1 481.4,140.8 			"/>
			<radialGradient id="SVGID_3_" cx="387.4522" cy="111.7659" r="78.2191" gradientUnits="userSpaceOnUse">
				<stop  offset="0" style="stop-color:#699DD1"/>
				<stop  offset="0.2662" style="stop-color:#6396CC"/>
				<stop  offset="0.6412" style="stop-color:#5184BD"/>
				<stop  offset="1" style="stop-color:#396CAA"/>
			</radialGradient>
			<polygon class="st6" points="452.4,191.1 423.4,174.4 423.4,140.8 452.4,157.6 			"/>
		</g>
		<polygon class="st1" points="442,173 433.8,168.3 433.8,159 442,163.6 		"/>
	</g>
	<g>
		<path class="st3" d="M48.3,344.5L8.2,321.3c-2.5-1.4-2.1-3.9,0.7-5.5l38.7-22.3c2.8-1.6,7.1-1.8,9.6-0.4l40.1,23.1
			c2.5,1.4,2.1,3.9-0.7,5.5l-38.7,22.3C55,345.7,50.7,345.9,48.3,344.5z"/>
		<path class="st1" d="M52.4,335.1c-2,0-3.8-0.4-5.3-1.3L7.1,310.7c-1.8-1-2.8-2.6-2.8-4.4c0-2,1.3-3.8,3.5-5.1l38.7-22.3
			c3.6-2.1,8.7-2.2,11.9-0.4l40.1,23.1c1.8,1,2.8,2.6,2.8,4.4c0,2-1.3,3.8-3.5,5.1L59,333.4C57.1,334.5,54.7,335.1,52.4,335.1z
			 M49.4,329.8c1.8,1,5.2,0.8,7.3-0.4l38.7-22.3c1-0.6,1.2-1.1,1.2-1.2c0,0-0.1-0.2-0.5-0.4L56,282.4c-1.8-1-5.2-0.8-7.3,0.4
			L10,305.1c-1,0.6-1.2,1.1-1.2,1.2c0,0,0.1,0.2,0.5,0.4L49.4,329.8z"/>
		<path class="st7" d="M98.9,291.8L98.9,291.8V278l-31,0l-10.7-6.2c-2.5-1.4-6.8-1.2-9.6,0.4l-10,5.8l-31,0v14.2
			c-0.1,1,0.5,1.9,1.6,2.6l40.1,23.1c2.5,1.4,6.8,1.2,9.6-0.4l38.7-22.3C98.2,294.1,99,292.9,98.9,291.8z"/>
		<radialGradient id="SVGID_4_" cx="9.0932" cy="273.8835" r="50.6276" gradientUnits="userSpaceOnUse">
			<stop  offset="0" style="stop-color:#699DD1"/>
			<stop  offset="0.2662" style="stop-color:#6396CC"/>
			<stop  offset="0.6412" style="stop-color:#5184BD"/>
			<stop  offset="1" style="stop-color:#396CAA"/>
		</radialGradient>
		<path class="st8" d="M52.7,270.8c-1.8,0-3.7,0.5-5.1,1.3l-10,5.8l-31,0v14.2c-0.1,1,0.5,1.9,1.6,2.6l40.1,23.1
			c1.2,0.7,2.8,1,4.5,1V270.8z"/>
		<path class="st9" d="M10.1,277.9l-3.5,0v14.2c-0.1,1,0.5,1.9,1.6,2.6l1.9,1.1V277.9z"/>
		<path class="st10" d="M48.9,318.1c2.1,0.9,5.2,0.9,7.7-0.1v-16.1h-7.7V318.1z"/>
		<linearGradient id="SVGID_5_" gradientUnits="userSpaceOnUse" x1="18.6489" y1="257.6513" x2="97.9521" y2="304.9308">
			<stop  offset="0" style="stop-color:#D4ECFF"/>
			<stop  offset="0.2009" style="stop-color:#D0EAFE"/>
			<stop  offset="0.3874" style="stop-color:#C5E2F9"/>
			<stop  offset="0.5682" style="stop-color:#B2D6F2"/>
			<stop  offset="0.7444" style="stop-color:#98C4E7"/>
			<stop  offset="0.8423" style="stop-color:#86B8E0"/>
		</linearGradient>
		<path class="st11" d="M48.3,303.7L8.2,280.5c-2.5-1.4-2.1-3.9,0.7-5.5l38.7-22.3c2.8-1.6,7.1-1.8,9.6-0.4l40.1,23.1
			c2.5,1.4,2.1,3.9-0.7,5.5l-38.7,22.3C55,304.9,50.7,305.1,48.3,303.7z"/>
		<path class="st1" d="M96.5,278.2l-38.7,22.3c-2.8,1.6-7.1,1.8-9.6,0.4L8.2,277.8c-0.5-0.3-1-0.7-1.2-1.1c-0.8,1.4-0.5,2.8,1.2,3.8
			l40.1,23.1c2.5,1.4,6.8,1.2,9.6-0.4l38.7-22.3c2.2-1.3,2.9-3.1,1.9-4.4C98.1,277.1,97.4,277.7,96.5,278.2z"/>
		<g>
			<path class="st9" d="M84.1,295.4c0,1-0.7,2.3-1.6,2.8s-1.6,0.1-1.6-0.9c0-1,0.7-2.3,1.6-2.8C83.4,294,84.1,294.4,84.1,295.4z"/>
			<path class="st9" d="M89.3,292.4c0,1-0.7,2.3-1.6,2.8c-0.9,0.5-1.6,0.1-1.6-0.9c0-1,0.7-2.3,1.6-2.8
				C88.6,291,89.3,291.4,89.3,292.4z"/>
			<path class="st9" d="M94.5,289.4c0,1-0.7,2.3-1.6,2.8c-0.9,0.5-1.6,0.1-1.6-0.9c0-1,0.7-2.3,1.6-2.8
				C93.8,288,94.5,288.4,94.5,289.4z"/>
		</g>
		<g>
			<path class="st10" d="M50.6,289.3l-18.7-10.8c-1.2-0.7-1-1.8,0.3-2.6l18.1-10.4c1.3-0.8,3.3-0.9,4.5-0.2l18.7,10.8
				c1.2,0.7,1,1.8-0.3,2.6l-18.1,10.4C53.8,289.9,51.8,290,50.6,289.3z"/>
			<path class="st9" d="M52.4,280.3l-2.6-1.5c-0.2-0.1-0.1-0.3,0-0.4l2.5-1.4c0.2-0.1,0.5-0.1,0.6,0l2.6,1.5c0.2,0.1,0.1,0.3,0,0.4
				l-2.5,1.4C52.9,280.3,52.6,280.3,52.4,280.3z"/>
			<path class="st7" d="M31.9,278.5L31.9,278.5c0.1,0,0.2-0.1,0.3-0.2l18.1-10.4c1.3-0.8,3.3-0.9,4.5-0.2l18.7,10.8
				c1.1-0.8,1.1-1.8,0.1-2.4l-18.7-10.8c-1.2-0.7-3.2-0.6-4.5,0.2l-18.1,10.4C30.9,276.7,30.7,277.8,31.9,278.5z"/>
		</g>
	</g>
	<path class="st1" d="M116.4,153.7c-0.8,0.4-1.5,1-2.2,1.6c-0.3-9.9-7.4-13.8-16.2-8.7c-7.1,4.1-13.2,12.9-15.4,21.6
		c-1.8-0.2-3.8,0.2-6.1,1.5c-6.4,3.7-11.6,12.7-11.6,20c0,7.4,5.2,10.4,11.6,6.7l39.8-23c4.7-2.7,8.5-9.3,8.5-14.8
		S121.2,151,116.4,153.7z"/>
	<path class="st1" d="M449.8,14.1c-1.3,0.8-2.6,1.9-3.7,3.1c-0.2-7.2-5.4-10.1-11.7-6.4c-2,1.2-4,2.9-5.6,4.9
		c-2.8-5-8.7-6.1-15.6-2.2c-9.6,5.5-17.4,19-17.4,30.1c0,0.9,0.1,1.8,0.2,2.6c-1.4-0.4-3-0.1-4.9,1c-4.6,2.7-8.3,9.1-8.3,14.4
		s3.7,7.5,8.3,4.8l58.7-33.9c4.4-2.5,8-8.7,8-13.8S454.3,11.6,449.8,14.1z"/>
	<g>
		<path class="st1" d="M409.4,262.9c-0.3,0-0.6-0.1-0.9-0.2c-1-0.5-1.3-1.7-0.8-2.6c2-3.8,4.9-7,8-8.8c1.9-1.1,3.8-1.6,5.6-1.6
			c0.1,0,0.2,0,0.2,0c2.5,0,5.5-1.9,8.1-5.1c1.6-1.9,3.3-3.3,5.1-4.4c1.9-1.1,3.8-1.6,5.6-1.6c2.5,0.2,5.6-1.8,8.4-5.1
			c1.5-1.8,3.3-3.4,5.1-4.4c1.9-1.1,3.8-1.6,5.6-1.6c2.5,0.2,5.6-1.8,8.4-5.1c1.6-1.9,3.3-3.3,5.1-4.4c2.9-1.6,5.7-2,8-1
			c1,0.4,1.4,1.6,1,2.6c-0.4,1-1.6,1.4-2.6,1c-1.2-0.5-2.8-0.2-4.5,0.8c-1.4,0.8-2.8,2-4,3.5c-3.6,4.3-7.8,6.6-11.6,6.5
			c-1-0.1-2.2,0.3-3.5,1c-1.4,0.8-2.8,2-4,3.5c-3.6,4.3-7.8,6.6-11.6,6.5c-1-0.1-2.2,0.3-3.5,1c-1.4,0.8-2.8,2-4,3.5
			c-3.6,4.3-7.8,6.6-11.6,6.5c-1-0.1-2.2,0.3-3.5,1c-2.5,1.4-4.8,4-6.5,7.2C410.8,262.5,410.1,262.9,409.4,262.9z"/>
	</g>
	<g>
		<path class="st3" d="M250,360.4L90.3,268.2c-4.5-2.6-4-7.2,1.3-10.2l108.7-62.8c5.2-3,13.1-3.3,17.6-0.7l159.7,92.2
			c4.5,2.6,4,7.2-1.3,10.2l-108.7,62.8C262.4,362.6,254.5,363,250,360.4z"/>
		<path class="st1" d="M257.7,346.4c-3.2,0-6.3-0.7-8.6-2L89.4,252.2c-2.6-1.5-4-3.6-4-6c0-2.8,1.9-5.4,5.3-7.4L199.4,176
			c5.8-3.4,14.4-3.7,19.5-0.7l159.7,92.2c2.6,1.5,4,3.6,4,6c0,2.8-1.9,5.4-5.3,7.4l-108.7,62.8C265.4,345.4,261.4,346.4,257.7,346.4
			z M250.9,341.1c3.9,2.3,11.1,1.9,15.8-0.7l108.7-62.8c2.1-1.2,3.4-2.8,3.4-4.1c0-1.3-1.1-2.2-2.1-2.8L217,178.5
			c-3.9-2.3-11.1-1.9-15.8,0.7L92.5,242c-2.1,1.2-3.4,2.8-3.4,4.1c0,1.3,1.1,2.2,2.1,2.8L250.9,341.1z"/>
		<g>
			<path class="st12" d="M417.2,93.2L257.5,1c-1.9-1.1-3.7-1.2-5.4-0.7l0,0l-0.3,0.1c0,0,0,0-0.1,0L246,2.7l5.2,2.5
				c0,0.1-0.1,0.2-0.1,0.3l-28.2,128.3c-1.3,5.9,1.3,12.8,5.8,15.5l155.8,90l-0.6,6.6l6.3-2.4c2.1-1,3.8-3.2,4.5-6.4L423,108.6
				C424.3,102.7,421.7,95.8,417.2,93.2z"/>
			<path class="st7" d="M417.2,93.2L257.5,1c-1.9-1.1-3.7-1.2-5.4-0.7l0,0l-0.3,0.1c0,0,0,0-0.1,0L246,2.7l5.2,2.5
				c0,0.1-0.1,0.2-0.1,0.3l-19.3,87.9l78.1,60.9l112.4-54.7C421.2,96.8,419.4,94.5,417.2,93.2z"/>
			<path class="st13" d="M411.2,111.4l12.2-5.2c0.2-4.7-1.7-9.6-4.9-12.2l-19.2,8.1L411.2,111.4z"/>
			<radialGradient id="SVGID_6_" cx="410.8129" cy="232.534" r="259.2225" gradientUnits="userSpaceOnUse">
				<stop  offset="0" style="stop-color:#86B8E0"/>
				<stop  offset="0.1163" style="stop-color:#98C4E7"/>
				<stop  offset="0.3255" style="stop-color:#B2D6F2"/>
				<stop  offset="0.5401" style="stop-color:#C5E2F9"/>
				<stop  offset="0.7615" style="stop-color:#D0EAFE"/>
				<stop  offset="1" style="stop-color:#D4ECFF"/>
			</radialGradient>
			<path class="st14" d="M378.5,245.2L218.8,153c-4.5-2.6-7.1-9.5-5.8-15.5L241.2,9.2c1.3-5.9,6-8.6,10.5-6l159.7,92.2
				c4.5,2.6,7.1,9.5,5.8,15.5L389,239.2C387.7,245.1,383,247.8,378.5,245.2z"/>
			<path class="st1" d="M412.9,94.9L253.2,2.7c-2.2-1.3-4.4-1.3-6.3-0.3c1.5-0.3,3.1-0.1,4.8,0.8l159.7,92.2
				c4.5,2.6,7.1,9.5,5.8,15.5L389,239.2c-0.7,3.1-2.3,5.2-4.2,6.3c2.7-0.6,4.9-3,5.8-6.8l28.2-128.3
				C420,104.4,417.4,97.5,412.9,94.9z"/>
			<path class="st1" d="M375,236.4l-150.2-86.7c-4.1-2.4-6.5-8.7-5.3-14.1l26-118.3c1.2-5.4,5.5-7.9,9.6-5.5l150.2,86.7
				c4.1,2.4,6.5,8.7,5.3,14.1l-26,118.3C383.4,236.3,379.1,238.8,375,236.4z"/>
			<linearGradient id="SVGID_7_" gradientUnits="userSpaceOnUse" x1="219.1817" y1="124.1002" x2="410.9497" y2="124.1002">
				<stop  offset="0" style="stop-color:#FAC515"/>
				<stop  offset="1" style="stop-color:#F97416"/>
			</linearGradient>
			<path class="st15" d="M375,236.4l-150.2-86.7c-4.1-2.4-6.5-8.7-5.3-14.1l26-118.3c1.2-5.4,5.5-7.9,9.6-5.5l150.2,86.7
				c4.1,2.4,6.5,8.7,5.3,14.1l-26,118.3C383.4,236.3,379.1,238.8,375,236.4z"/>
			<path class="st10" d="M376.3,235.8l-150.2-86.7c-4.1-2.4-6.5-8.7-5.3-14.1l26-118.3c0.6-2.7,2-4.7,3.8-5.7
				c-2.4,0.6-4.3,2.8-5.1,6.2l-26,118.3c-1.2,5.4,1.2,11.8,5.3,14.1L375,236.4c2,1.2,4.1,1.2,5.9,0.2
				C379.4,237,377.9,236.7,376.3,235.8z"/>
			<path class="st12" d="M380.7,249.2l-21.8-2.9L217.9,165c-4.5-2.6-12.4-2.3-17.6,0.7l-99.8,57.6l-13.2-1.7v7.5l0,0
				c-0.1,1.7,0.9,3.4,3,4.6L250,325.9c4.5,2.6,12.4,2.3,17.6-0.7l108.7-62.8c2.9-1.7,4.4-3.9,4.3-5.9l0,0V249.2z"/>
			<path class="st7" d="M274.8,197.8l-10-5.8H154.7l-54.3,31.3l-13.2-1.7v7.5l0,0c-0.1,1.7,0.9,3.4,3,4.6L250,325.9
				c2.4,1.4,5.7,1.9,9.1,1.7L274.8,197.8z"/>
			<path class="st10" d="M93.1,222.4l-5.9-0.8v7.5l0,0c-0.1,1.7,0.9,3.4,3,4.6l2.8,1.6V222.4z"/>
			<path class="st13" d="M251.6,326.6c4.3,1.6,10.4,1.3,15-0.9V309h-15V326.6z"/>
			<radialGradient id="SVGID_8_" cx="417.872" cy="252.487" r="351.7928" gradientUnits="userSpaceOnUse">
				<stop  offset="0" style="stop-color:#86B8E0"/>
				<stop  offset="0.1163" style="stop-color:#98C4E7"/>
				<stop  offset="0.3255" style="stop-color:#B2D6F2"/>
				<stop  offset="0.5401" style="stop-color:#C5E2F9"/>
				<stop  offset="0.7615" style="stop-color:#D0EAFE"/>
				<stop  offset="1" style="stop-color:#D4ECFF"/>
			</radialGradient>
			<path class="st16" d="M250,318.4L90.3,226.2c-4.5-2.6-4-7.2,1.3-10.2l108.7-62.8c5.2-3,13.1-3.3,17.6-0.7l159.7,92.2
				c4.5,2.6,4,7.2-1.3,10.2l-108.7,62.8C262.4,320.7,254.5,321,250,318.4z"/>
			<path class="st1" d="M376.4,252.2l-108.7,62.8c-5.2,3-13.1,3.3-17.6,0.7L90.3,223.5c-1.5-0.9-2.4-1.9-2.8-3.1
				c-0.7,2.1,0.2,4.3,2.8,5.8L250,318.4c4.5,2.6,12.4,2.3,17.6-0.7l108.7-62.8c3.5-2,4.9-4.7,4.1-7.1
				C379.9,249.4,378.5,250.9,376.4,252.2z"/>
			<g>
				<path class="st10" d="M158.2,195.7l-7.2-4.2c-0.6-0.3-0.5-0.9,0.2-1.3l8.5-4.9c0.7-0.4,1.7-0.4,2.3-0.1l7.2,4.2
					c0.6,0.3,0.5,0.9-0.2,1.3l-8.5,4.9C159.8,196,158.8,196,158.2,195.7z"/>
				<path class="st10" d="M169.4,202.1l-7.2-4.2c-0.6-0.3-0.5-0.9,0.2-1.3l8.5-4.9c0.7-0.4,1.7-0.4,2.3-0.1l7.2,4.2
					c0.6,0.3,0.5,0.9-0.2,1.3l-8.5,4.9C171,202.4,170,202.5,169.4,202.1z"/>
				<path class="st10" d="M180.5,208.6l-7.2-4.2c-0.6-0.3-0.5-0.9,0.2-1.3l8.5-4.9c0.7-0.4,1.7-0.4,2.3-0.1l7.2,4.2
					c0.6,0.3,0.5,0.9-0.2,1.3l-8.5,4.9C182.1,208.9,181.1,208.9,180.5,208.6z"/>
				<path class="st10" d="M196,203.3l-7.2-4.2c-0.6-0.3-0.5-0.9,0.2-1.3l7.2-4.1c0.7-0.4,1.7-0.4,2.3-0.1l7.2,4.2
					c0.6,0.3,0.5,0.9-0.2,1.3l-7.2,4.1C197.6,203.6,196.6,203.6,196,203.3z"/>
				<path class="st10" d="M207.1,209.7l-7.2-4.2c-0.6-0.3-0.5-0.9,0.2-1.3l7.2-4.1c0.7-0.4,1.7-0.4,2.3-0.1l7.2,4.2
					c0.6,0.3,0.5,0.9-0.2,1.3l-7.2,4.1C208.7,210,207.7,210,207.1,209.7z"/>
				<path class="st10" d="M218.3,216.1l-7.2-4.2c-0.6-0.3-0.5-0.9,0.2-1.3l7.2-4.1c0.7-0.4,1.7-0.4,2.3-0.1l7.2,4.2
					c0.6,0.3,0.5,0.9-0.2,1.3l-7.2,4.1C219.9,216.4,218.9,216.5,218.3,216.1z"/>
				<path class="st10" d="M229.4,222.6l-7.2-4.2c-0.6-0.3-0.5-0.9,0.2-1.3l7.2-4.1c0.7-0.4,1.7-0.4,2.3-0.1l7.2,4.2
					c0.6,0.3,0.5,0.9-0.2,1.3l-7.2,4.1C231,222.9,230,222.9,229.4,222.6z"/>
				<path class="st10" d="M240.6,229l-7.2-4.2c-0.6-0.3-0.5-0.9,0.2-1.3l7.2-4.1c0.7-0.4,1.7-0.4,2.3-0.1l7.2,4.2
					c0.6,0.3,0.5,0.9-0.2,1.3l-7.2,4.1C242.2,229.3,241.2,229.4,240.6,229z"/>
				<path class="st10" d="M251.8,235.5l-7.2-4.2c-0.6-0.3-0.5-0.9,0.2-1.3l7.2-4.1c0.7-0.4,1.7-0.4,2.3-0.1l7.2,4.2
					c0.6,0.3,0.5,0.9-0.2,1.3l-7.2,4.1C253.4,235.8,252.3,235.8,251.8,235.5z"/>
				<path class="st10" d="M262.9,241.9l-7.2-4.2c-0.6-0.3-0.5-0.9,0.2-1.3l7.2-4.1c0.7-0.4,1.7-0.4,2.3-0.1l7.2,4.2
					c0.6,0.3,0.5,0.9-0.2,1.3l-7.2,4.1C264.5,242.2,263.5,242.2,262.9,241.9z"/>
				<path class="st10" d="M274.1,248.4l-7.2-4.2c-0.6-0.3-0.5-0.9,0.2-1.3l7.2-4.1c0.7-0.4,1.7-0.4,2.3-0.1l7.2,4.2
					c0.6,0.3,0.5,0.9-0.2,1.3l-7.2,4.1C275.7,248.6,274.7,248.7,274.1,248.4z"/>
				<path class="st10" d="M285.2,254.8l-7.2-4.2c-0.6-0.3-0.5-0.9,0.2-1.3l7.2-4.1c0.7-0.4,1.7-0.4,2.3-0.1l7.2,4.2
					c0.6,0.3,0.5,0.9-0.2,1.3l-7.2,4.1C286.8,255.1,285.8,255.1,285.2,254.8z"/>
				<path class="st10" d="M296.4,261.2l-7.2-4.2c-0.6-0.3-0.5-0.9,0.2-1.3l7.2-4.1c0.7-0.4,1.7-0.4,2.3-0.1l7.2,4.2
					c0.6,0.3,0.5,0.9-0.2,1.3l-7.2,4.1C298,261.5,297,261.6,296.4,261.2z"/>
				<path class="st10" d="M212.4,200.2l-7.2-4.2c-0.6-0.3-0.5-0.9,0.2-1.3l7.2-4.1c0.7-0.4,1.7-0.4,2.3-0.1l7.2,4.2
					c0.6,0.3,0.5,0.9-0.2,1.3l-7.2,4.1C214,200.5,213,200.5,212.4,200.2z"/>
				<path class="st10" d="M201.1,193.7l-7.2-4.2c-0.6-0.3-0.5-0.9,0.2-1.3l7.2-4.1c0.7-0.4,1.7-0.4,2.3-0.1l7.2,4.2
					c0.6,0.3,0.5,0.9-0.2,1.3l-7.2,4.1C202.7,194,201.7,194,201.1,193.7z"/>
				<path class="st10" d="M189.7,187.1l-15.6-9c-0.6-0.3-0.5-0.9,0.2-1.3l7.2-4.1c0.7-0.4,1.7-0.4,2.3-0.1l15.6,9
					c0.6,0.3,0.5,0.9-0.2,1.3L192,187C191.3,187.4,190.3,187.5,189.7,187.1z"/>
				<path class="st10" d="M197.7,179.2l-12.6-7.3c-0.6-0.3-0.5-0.9,0.2-1.3l7.2-4.1c0.7-0.4,1.7-0.4,2.3-0.1l12.6,7.3
					c0.6,0.3,0.5,0.9-0.2,1.3l-7.2,4.1C199.3,179.5,198.3,179.5,197.7,179.2z"/>
				<path class="st10" d="M223.6,206.7l-7.2-4.2c-0.6-0.3-0.5-0.9,0.2-1.3l7.2-4.1c0.7-0.4,1.7-0.4,2.3-0.1l7.2,4.2
					c0.6,0.3,0.5,0.9-0.2,1.3l-7.2,4.1C225.2,206.9,224.2,207,223.6,206.7z"/>
				<path class="st10" d="M234.7,213.1l-7.2-4.2c-0.6-0.3-0.5-0.9,0.2-1.3l7.2-4.1c0.7-0.4,1.7-0.4,2.3-0.1l7.2,4.2
					c0.6,0.3,0.5,0.9-0.2,1.3L237,213C236.3,213.4,235.3,213.4,234.7,213.1z"/>
				<path class="st10" d="M245.9,219.5l-7.2-4.2c-0.6-0.3-0.5-0.9,0.2-1.3l7.2-4.1c0.7-0.4,1.7-0.4,2.3-0.1l7.2,4.2
					c0.6,0.3,0.5,0.9-0.2,1.3l-7.2,4.1C247.5,219.8,246.5,219.9,245.9,219.5z"/>
				<path class="st10" d="M257,226l-7.2-4.2c-0.6-0.3-0.5-0.9,0.2-1.3l7.2-4.1c0.7-0.4,1.7-0.4,2.3-0.1l7.2,4.2
					c0.6,0.3,0.5,0.9-0.2,1.3l-7.2,4.1C258.6,226.3,257.6,226.3,257,226z"/>
				<path class="st10" d="M268.2,232.4l-7.2-4.2c-0.6-0.3-0.5-0.9,0.2-1.3l7.2-4.1c0.7-0.4,1.7-0.4,2.3-0.1l7.2,4.2
					c0.6,0.3,0.5,0.9-0.2,1.3l-7.2,4.1C269.8,232.7,268.8,232.8,268.2,232.4z"/>
				<path class="st10" d="M279.4,238.9l-7.2-4.2c-0.6-0.3-0.5-0.9,0.2-1.3l7.2-4.1c0.7-0.4,1.7-0.4,2.3-0.1l7.2,4.2
					c0.6,0.3,0.5,0.9-0.2,1.3l-7.2,4.1C281,239.2,279.9,239.2,279.4,238.9z"/>
				<path class="st10" d="M290.5,245.3l-7.2-4.2c-0.6-0.3-0.5-0.9,0.2-1.3l7.2-4.1c0.7-0.4,1.7-0.4,2.3-0.1l7.2,4.2
					c0.6,0.3,0.5,0.9-0.2,1.3l-7.2,4.1C292.1,245.6,291.1,245.6,290.5,245.3z"/>
				<path class="st10" d="M301.7,251.7l-7.2-4.2c-0.6-0.3-0.5-0.9,0.2-1.3l7.2-4.1c0.7-0.4,1.7-0.4,2.3-0.1l7.2,4.2
					c0.6,0.3,0.5,0.9-0.2,1.3l-7.2,4.1C303.3,252,302.3,252.1,301.7,251.7z"/>
				<path class="st10" d="M312.8,258.2l-7.2-4.2c-0.6-0.3-0.5-0.9,0.2-1.3l7.2-4.1c0.7-0.4,1.7-0.4,2.3-0.1l7.2,4.2
					c0.6,0.3,0.5,0.9-0.2,1.3l-7.2,4.1C314.4,258.5,313.4,258.5,312.8,258.2z"/>
				<path class="st10" d="M332.7,269.6l-15.8-9.1c-0.6-0.3-0.5-0.9,0.2-1.3l7.2-4.1c0.7-0.4,1.7-0.4,2.3-0.1l15.8,9.1
					c0.6,0.3,0.5,0.9-0.2,1.3l-7.2,4.1C334.3,269.9,333.2,270,332.7,269.6z"/>
				<path class="st10" d="M354.4,257.1l-13.3-7.7c-0.6-0.3-0.5-0.9,0.2-1.3l7.2-4.1c0.7-0.4,1.7-0.4,2.3-0.1l13.3,7.7
					c0.6,0.3,0.5,0.9-0.2,1.3l-7.2,4.1C356,257.4,355,257.4,354.4,257.1z"/>
				<path class="st10" d="M243.1,205.4l-7.2-4.2c-0.6-0.3-0.5-0.9,0.2-1.3l7.2-4.1c0.7-0.4,1.7-0.4,2.3-0.1l7.2,4.2
					c0.6,0.3,0.5,0.9-0.2,1.3l-7.2,4.1C244.7,205.7,243.7,205.7,243.1,205.4z"/>
				<path class="st10" d="M231.7,198.8l-7.2-4.2c-0.6-0.3-0.5-0.9,0.2-1.3l7.2-4.1c0.7-0.4,1.7-0.4,2.3-0.1l7.2,4.2
					c0.6,0.3,0.5,0.9-0.2,1.3l-7.2,4.1C233.3,199.1,232.3,199.1,231.7,198.8z"/>
				<path class="st10" d="M220.2,192.2L213,188c-0.6-0.3-0.5-0.9,0.2-1.3l7.2-4.1c0.7-0.4,1.7-0.4,2.3-0.1l7.2,4.2
					c0.6,0.3,0.5,0.9-0.2,1.3l-7.2,4.1C221.8,192.5,220.8,192.5,220.2,192.2z"/>
				<path class="st10" d="M208.8,185.6l-7.2-4.2c-0.6-0.3-0.5-0.9,0.2-1.3l7.2-4.1c0.7-0.4,1.7-0.4,2.3-0.1l7.2,4.2
					c0.6,0.3,0.5,0.9-0.2,1.3l-7.2,4.1C210.4,185.9,209.4,185.9,208.8,185.6z"/>
				<path class="st10" d="M254.3,211.8l-7.2-4.2c-0.6-0.3-0.5-0.9,0.2-1.3l7.2-4.1c0.7-0.4,1.7-0.4,2.3-0.1l7.2,4.2
					c0.6,0.3,0.5,0.9-0.2,1.3l-7.2,4.1C255.9,212.1,254.8,212.2,254.3,211.8z"/>
				<path class="st10" d="M265.4,218.3l-7.2-4.2c-0.6-0.3-0.5-0.9,0.2-1.3l7.2-4.1c0.7-0.4,1.7-0.4,2.3-0.1l7.2,4.2
					c0.6,0.3,0.5,0.9-0.2,1.3l-7.2,4.1C267,218.6,266,218.6,265.4,218.3z"/>
				<path class="st10" d="M276.6,224.7l-7.2-4.2c-0.6-0.3-0.5-0.9,0.2-1.3l7.2-4.1c0.7-0.4,1.7-0.4,2.3-0.1l7.2,4.2
					c0.6,0.3,0.5,0.9-0.2,1.3l-7.2,4.1C278.2,225,277.2,225.1,276.6,224.7z"/>
				<path class="st10" d="M287.7,231.2l-7.2-4.2c-0.6-0.3-0.5-0.9,0.2-1.3l7.2-4.1c0.7-0.4,1.7-0.4,2.3-0.1l7.2,4.2
					c0.6,0.3,0.5,0.9-0.2,1.3l-7.2,4.1C289.3,231.5,288.3,231.5,287.7,231.2z"/>
				<path class="st10" d="M298.9,237.6l-7.2-4.2c-0.6-0.3-0.5-0.9,0.2-1.3l7.2-4.1c0.7-0.4,1.7-0.4,2.3-0.1l7.2,4.2
					c0.6,0.3,0.5,0.9-0.2,1.3l-7.2,4.1C300.5,237.9,299.5,237.9,298.9,237.6z"/>
				<path class="st10" d="M310.1,244l-7.2-4.2c-0.6-0.3-0.5-0.9,0.2-1.3l7.2-4.1c0.7-0.4,1.7-0.4,2.3-0.1l7.2,4.2
					c0.6,0.3,0.5,0.9-0.2,1.3l-7.2,4.1C311.6,244.3,310.6,244.4,310.1,244z"/>
				<path class="st10" d="M321.2,250.5l-7.2-4.2c-0.6-0.3-0.5-0.9,0.2-1.3l7.2-4.1c0.7-0.4,1.7-0.4,2.3-0.1l7.2,4.2
					c0.6,0.3,0.5,0.9-0.2,1.3l-7.2,4.1C322.8,250.8,321.8,250.8,321.2,250.5z"/>
				<path class="st10" d="M332.4,256.9l-7.2-4.2c-0.6-0.3-0.5-0.9,0.2-1.3l7.2-4.1c0.7-0.4,1.7-0.4,2.3-0.1l7.2,4.2
					c0.6,0.3,0.5,0.9-0.2,1.3l-7.2,4.1C334,257.2,333,257.3,332.4,256.9z"/>
				<path class="st10" d="M343.5,263.4l-7.2-4.2c-0.6-0.3-0.5-0.9,0.2-1.3l7.2-4.1c0.7-0.4,1.7-0.4,2.3-0.1l7.2,4.2
					c0.6,0.3,0.5,0.9-0.2,1.3l-7.2,4.1C345.1,263.7,344.1,263.7,343.5,263.4z"/>
				<path class="st10" d="M237.2,189.5l-7.2-4.2c-0.6-0.3-0.5-0.9,0.2-1.3l7.2-4.1c0.7-0.4,1.7-0.4,2.3-0.1l7.2,4.2
					c0.6,0.3,0.5,0.9-0.2,1.3l-7.2,4.1C238.8,189.7,237.8,189.8,237.2,189.5z"/>
				<path class="st10" d="M226.1,183l-7.2-4.2c-0.6-0.3-0.5-0.9,0.2-1.3l7.2-4.1c0.7-0.4,1.7-0.4,2.3-0.1l7.2,4.2
					c0.6,0.3,0.5,0.9-0.2,1.3l-7.2,4.1C227.7,183.3,226.7,183.4,226.1,183z"/>
				<path class="st10" d="M215,176.6l-7.2-4.2c-0.6-0.3-0.5-0.9,0.2-1.3l7.2-4.1c0.7-0.4,1.7-0.4,2.3-0.1l7.2,4.2
					c0.6,0.3,0.5,0.9-0.2,1.3l-7.2,4.1C216.6,176.9,215.6,177,215,176.6z"/>
				<path class="st10" d="M203.9,170.2l-7.2-4.2c-0.6-0.3-0.5-0.9,0.2-1.3l7.2-4.1c0.7-0.4,1.7-0.4,2.3-0.1l7.2,4.2
					c0.6,0.3,0.5,0.9-0.2,1.3l-7.2,4.1C205.5,170.5,204.5,170.6,203.9,170.2z"/>
				<path class="st10" d="M215.3,163.6l-7.2-4.2c-0.6-0.3-0.5-0.9,0.2-1.3l2.4-1.4c0.7-0.4,1.7-0.4,2.3-0.1l7.2,4.2
					c0.6,0.3,0.5,0.9-0.2,1.3l-2.4,1.4C216.9,163.9,215.9,164,215.3,163.6z"/>
				<path class="st10" d="M229.8,172l-7.2-4.2c-0.6-0.3-0.5-0.9,0.2-1.3l2.4-1.4c0.7-0.4,1.7-0.4,2.3-0.1l7.2,4.2
					c0.6,0.3,0.5,0.9-0.2,1.3l-2.4,1.4C231.4,172.3,230.4,172.3,229.8,172z"/>
				<path class="st10" d="M240.9,178.4l-7.2-4.2c-0.6-0.3-0.5-0.9,0.2-1.3l2.4-1.4c0.7-0.4,1.7-0.4,2.3-0.1l7.2,4.2
					c0.6,0.3,0.5,0.9-0.2,1.3l-2.4,1.4C242.5,178.7,241.5,178.7,240.9,178.4z"/>
				<path class="st10" d="M251.9,184.8l-7.2-4.2c-0.6-0.3-0.5-0.9,0.2-1.3l2.4-1.4c0.7-0.4,1.7-0.4,2.3-0.1l7.2,4.2
					c0.6,0.3,0.5,0.9-0.2,1.3l-2.4,1.4C253.5,185.1,252.5,185.1,251.9,184.8z"/>
				<path class="st10" d="M263,191.1l-7.2-4.2c-0.6-0.3-0.5-0.9,0.2-1.3l2.4-1.4c0.7-0.4,1.7-0.4,2.3-0.1l7.2,4.2
					c0.6,0.3,0.5,0.9-0.2,1.3l-2.4,1.4C264.6,191.4,263.6,191.5,263,191.1z"/>
				<path class="st10" d="M324.7,226.8l-7.2-4.2c-0.6-0.3-0.5-0.9,0.2-1.3l2.4-1.4c0.7-0.4,1.7-0.4,2.3-0.1l7.2,4.2
					c0.6,0.3,0.5,0.9-0.2,1.3l-2.4,1.4C326.3,227.1,325.3,227.1,324.7,226.8z"/>
				<path class="st10" d="M335.8,233.2l-7.2-4.2c-0.6-0.3-0.5-0.9,0.2-1.3l2.4-1.4c0.7-0.4,1.7-0.4,2.3-0.1l7.2,4.2
					c0.6,0.3,0.5,0.9-0.2,1.3l-2.4,1.4C337.4,233.5,336.4,233.5,335.8,233.2z"/>
				<path class="st10" d="M346.8,239.6l-7.2-4.2c-0.6-0.3-0.5-0.9,0.2-1.3l2.4-1.4c0.7-0.4,1.7-0.4,2.3-0.1l7.2,4.2
					c0.6,0.3,0.5,0.9-0.2,1.3l-2.4,1.4C348.4,239.8,347.4,239.9,346.8,239.6z"/>
				<path class="st10" d="M357.9,245.9l-7.2-4.2c-0.6-0.3-0.5-0.9,0.2-1.3l2.4-1.4c0.7-0.4,1.7-0.4,2.3-0.1l7.2,4.2
					c0.6,0.3,0.5,0.9-0.2,1.3l-2.4,1.4C359.5,246.2,358.5,246.3,357.9,245.9z"/>
				<path class="st10" d="M248.4,195.9l-7.2-4.2c-0.6-0.3-0.5-0.9,0.2-1.3l7.2-4.1c0.7-0.4,1.7-0.4,2.3-0.1l7.2,4.2
					c0.6,0.3,0.5,0.9-0.2,1.3l-7.2,4.1C250,196.2,249,196.2,248.4,195.9z"/>
				<path class="st10" d="M259.5,202.3l-7.2-4.2c-0.6-0.3-0.5-0.9,0.2-1.3l7.2-4.1c0.7-0.4,1.7-0.4,2.3-0.1l7.2,4.2
					c0.6,0.3,0.5,0.9-0.2,1.3l-7.2,4.1C261.1,202.6,260.1,202.7,259.5,202.3z"/>
				<path class="st10" d="M270.7,208.8l-7.2-4.2c-0.6-0.3-0.5-0.9,0.2-1.3l7.2-4.1c0.7-0.4,1.7-0.4,2.3-0.1l7.2,4.2
					c0.6,0.3,0.5,0.9-0.2,1.3l-7.2,4.1C272.3,209.1,271.3,209.1,270.7,208.8z"/>
				<path class="st10" d="M281.9,215.2l-7.2-4.2c-0.6-0.3-0.5-0.9,0.2-1.3l7.2-4.1c0.7-0.4,1.7-0.4,2.3-0.1l7.2,4.2
					c0.6,0.3,0.5,0.9-0.2,1.3l-7.2,4.1C283.5,215.5,282.4,215.6,281.9,215.2z"/>
				<path class="st10" d="M293,221.7l-7.2-4.2c-0.6-0.3-0.5-0.9,0.2-1.3l7.2-4.1c0.7-0.4,1.7-0.4,2.3-0.1l7.2,4.2
					c0.6,0.3,0.5,0.9-0.2,1.3l-7.2,4.1C294.6,222,293.6,222,293,221.7z"/>
				<path class="st10" d="M304.2,228.1l-7.2-4.2c-0.6-0.3-0.5-0.9,0.2-1.3l7.2-4.1c0.7-0.4,1.7-0.4,2.3-0.1l7.2,4.2
					c0.6,0.3,0.5,0.9-0.2,1.3l-7.2,4.1C305.8,228.4,304.8,228.4,304.2,228.1z"/>
				<path class="st10" d="M315.3,234.5l-7.2-4.2c-0.6-0.3-0.5-0.9,0.2-1.3l7.2-4.1c0.7-0.4,1.7-0.4,2.3-0.1l7.2,4.2
					c0.6,0.3,0.5,0.9-0.2,1.3l-7.2,4.1C316.9,234.8,315.9,234.9,315.3,234.5z"/>
				<path class="st10" d="M326.5,241l-7.2-4.2c-0.6-0.3-0.5-0.9,0.2-1.3l7.2-4.1c0.7-0.4,1.7-0.4,2.3-0.1l7.2,4.2
					c0.6,0.3,0.5,0.9-0.2,1.3l-7.2,4.1C328.1,241.3,327.1,241.3,326.5,241z"/>
				<path class="st10" d="M337.7,247.4l-7.2-4.2c-0.6-0.3-0.5-0.9,0.2-1.3l7.2-4.1c0.7-0.4,1.7-0.4,2.3-0.1l7.2,4.2
					c0.6,0.3,0.5,0.9-0.2,1.3l-7.2,4.1C339.2,247.7,338.2,247.8,337.7,247.4z"/>
				<path class="st10" d="M184.6,196.7l-21.3-12.3c-0.6-0.3-0.5-0.9,0.2-1.3l7.2-4.1c0.7-0.4,1.7-0.4,2.3-0.1l21.3,12.3
					c0.6,0.3,0.5,0.9-0.2,1.3l-7.2,4.1C186.2,197,185.2,197,184.6,196.7z"/>
				<path class="st10" d="M321.7,275.8l-21.3-12.3c-0.6-0.3-0.5-0.9,0.2-1.3l7.2-4.1c0.7-0.4,1.7-0.4,2.3-0.1l21.3,12.3
					c0.6,0.3,0.5,0.9-0.2,1.3l-7.2,4.1C323.3,276.1,322.3,276.2,321.7,275.8z"/>
				<path class="st10" d="M277.1,264.3l-7.2-4.2c-0.6-0.3-0.5-0.9,0.2-1.3l8.5-4.9c0.7-0.4,1.7-0.4,2.3-0.1l7.2,4.2
					c0.6,0.3,0.5,0.9-0.2,1.3l-8.5,4.9C278.6,264.6,277.6,264.6,277.1,264.3z"/>
				<path class="st10" d="M196,217.5l-11.6-6.7c-0.6-0.3-0.5-0.9,0.2-1.3l8.5-4.9c0.7-0.4,1.7-0.4,2.3-0.1l11.6,6.7
					c0.6,0.3,0.5,0.9-0.2,1.3l-8.5,4.9C197.6,217.8,196.6,217.9,196,217.5z"/>
				<path class="st10" d="M266.3,258.1l-11.6-6.7c-0.6-0.3-0.5-0.9,0.2-1.3l8.5-4.9c0.7-0.4,1.7-0.4,2.3-0.1l11.6,6.7
					c0.6,0.3,0.5,0.9-0.2,1.3l-8.5,4.9C267.9,258.4,266.9,258.4,266.3,258.1z"/>
				<path class="st10" d="M212.1,226.8l-11.6-6.7c-0.6-0.3-0.5-0.9,0.2-1.3l8.5-4.9c0.7-0.4,1.7-0.4,2.3-0.1l11.6,6.7
					c0.6,0.3,0.5,0.9-0.2,1.3l-8.5,4.9C213.7,227.1,212.7,227.1,212.1,226.8z"/>
				<path class="st10" d="M211.6,213.9l50.2,29c0.6,0.4,0.6,0.9,0,1.3l-8.7,5c-0.6,0.4-1.6,0.4-2.3,0l-50.2-29L211.6,213.9z"/>
				<path class="st10" d="M308.2,276l8,4.6c0.5,0.3,0.4,0.8-0.1,1.1l-3.5,2c-0.5,0.3-1.4,0.4-1.9,0.1l-8-4.6
					c-0.5-0.3-0.4-0.8,0.1-1.1l3.5-2C306.9,275.7,307.8,275.7,308.2,276z"/>
				<path class="st10" d="M297,269.5l8,4.6c0.5,0.3,0.4,0.8-0.1,1.1l-3.5,2c-0.5,0.3-1.4,0.4-1.9,0.1l-8-4.6
					c-0.5-0.3-0.4-0.8,0.1-1.1l3.5-2C295.7,269.2,296.5,269.2,297,269.5z"/>
				<path class="st10" d="M285.8,263l8,4.6c0.5,0.3,0.4,0.8-0.1,1.1l-3.5,2c-0.5,0.3-1.4,0.4-1.9,0.1l-8-4.6
					c-0.5-0.3-0.4-0.8,0.1-1.1l3.5-2C284.5,262.8,285.4,262.8,285.8,263z"/>
				<path class="st10" d="M303.2,265.9l8,4.6c0.5,0.3,0.4,0.8-0.1,1.1l-3.5,2c-0.5,0.3-1.4,0.4-1.9,0.1l-8-4.6
					c-0.5-0.3-0.4-0.8,0.1-1.1l3.5-2C301.8,265.7,302.7,265.7,303.2,265.9z"/>
			</g>
			<g>
				<polygon class="st9" points="280.7,71.4 262.6,61 263.3,57.1 281.5,67.5 				"/>
				<polygon class="st1" points="278.8,80.5 260.6,70 261.4,66.1 279.5,76.6 				"/>
				<polygon class="st9" points="367.8,206.5 349.7,196 350.4,192.1 368.6,202.6 				"/>
				<polygon class="st9" points="274.8,98.7 256.7,88.2 257.4,84.3 275.6,94.8 				"/>
			</g>
			<polygon class="st9" points="352.2,149.8 285,111 285.9,106.6 353,145.4 			"/>
			<polygon class="st9" points="328.1,157.1 281.2,130.1 282.1,125.7 329,152.8 			"/>
			<polygon class="st1" points="323.7,143.9 283.1,120.5 284,116.2 324.5,139.6 			"/>
			<g>
				<path class="st17" d="M315.1,106.5c-0.6,1.4-2.3,1.9-3.6,1.1s-2-2.6-1.3-4c0.6-1.4,2.3-1.9,3.6-1.1S315.7,105.1,315.1,106.5z"/>
				<path class="st1" d="M323.8,111.5c-0.6,1.4-2.3,1.9-3.6,1.1c-1.4-0.8-2-2.6-1.3-4c0.6-1.4,2.3-1.9,3.6-1.1
					C323.9,108.3,324.4,110.1,323.8,111.5z"/>
				<path class="st9" d="M332.5,116.6c-0.6,1.4-2.3,1.9-3.6,1.1s-2-2.6-1.3-4c0.6-1.4,2.3-1.9,3.6-1.1S333.2,115.2,332.5,116.6z"/>
				<path class="st17" d="M341.3,121.6c-0.6,1.4-2.3,1.9-3.6,1.1c-1.4-0.8-2-2.6-1.3-4c0.6-1.4,2.3-1.9,3.6-1.1
					S341.9,120.2,341.3,121.6z"/>
			</g>
			<polygon class="st17" points="350.3,159.3 330,147.6 330.9,143.2 351.1,154.9 			"/>
		</g>
	</g>
	<path class="st1" d="M211.7,277.8l-52.9-30.5c-1.3-0.7-1.1-2.1,0.4-2.9l27.9-16.1c1.5-0.9,3.8-1,5-0.2l52.9,30.5
		c1.3,0.7,1.1,2.1-0.4,2.9l-27.9,16.1C215.3,278.4,213,278.5,211.7,277.8z"/>
	<g>
		<polygon class="st18" points="253.1,306.6 109.8,224 151.6,199.9 294.9,282.5 		"/>
		<path class="st1" d="M253.1,287.6c-0.4,0-0.8-0.1-1.1-0.3l-143.3-82.6c-0.7-0.4-1.1-1.1-1.1-1.9c0-0.8,0.4-1.5,1.1-1.9l41.8-24.1
			c0.7-0.4,1.5-0.4,2.2,0L296,259.3c0.7,0.4,1.1,1.1,1.1,1.9c0,0.8-0.4,1.5-1.1,1.9l-41.8,24.1C253.9,287.5,253.5,287.6,253.1,287.6
			z M114.3,202.7l138.9,80.1l37.3-21.6l-138.9-80.1L114.3,202.7z"/>
		<g>
			<g>
				<g>
					<path class="st7" d="M176.7,219.7c-1,0-1.8-0.8-1.8-1.8V162c0-1,0.8-1.8,1.8-1.8c1,0,1.8,0.8,1.8,1.8v55.9
						C178.5,218.9,177.7,219.7,176.7,219.7z"/>
					<g>
						<radialGradient id="SVGID_9_" cx="166.8447" cy="191.5798" r="16.3624" gradientUnits="userSpaceOnUse">
							<stop  offset="0" style="stop-color:#699DD1"/>
							<stop  offset="0.2662" style="stop-color:#6396CC"/>
							<stop  offset="0.6412" style="stop-color:#5184BD"/>
							<stop  offset="1" style="stop-color:#396CAA"/>
						</radialGradient>
						<path class="st19" d="M167.9,155.7v37.8l0,0c0,1.3,0.9,2.6,2.6,3.6c3.4,2,9,2,12.4,0c1.7-1,2.6-2.3,2.6-3.6v-37.8H167.9z"/>
						<g>
							<path class="st7" d="M167.9,161.9v12.8c5.1,2.3,12.4,2.3,17.5,0v-12.8C180.3,159.5,173.1,159.5,167.9,161.9z"/>
							<radialGradient id="SVGID_10_" cx="157.6937" cy="174.0164" r="25.8723" gradientUnits="userSpaceOnUse">
								<stop  offset="0" style="stop-color:#699DD1"/>
								<stop  offset="0.2662" style="stop-color:#6396CC"/>
								<stop  offset="0.6412" style="stop-color:#5184BD"/>
								<stop  offset="1" style="stop-color:#396CAA"/>
							</radialGradient>
							<path class="st20" d="M190.9,103h-28.4v59.3l0,0c0,2.1,1.4,4.2,4.2,5.8c5.5,3.2,14.5,3.2,20.1,0c2.8-1.6,4.2-3.7,4.2-5.8l0,0
								V103z"/>
						</g>
					</g>
				</g>
				<path class="st9" d="M174.2,187.7c0,1.7-1.2,2.4-2.7,1.6c-1.5-0.9-2.7-3-2.7-4.7c0-1.7,1.2-2.4,2.7-1.6
					C173,183.8,174.2,186,174.2,187.7z"/>
			</g>
			<g>
				<g>
					<path class="st7" d="M231.7,251.5c-1,0-1.8-0.8-1.8-1.8v-55.9c0-1,0.8-1.8,1.8-1.8c1,0,1.8,0.8,1.8,1.8v55.9
						C233.5,250.7,232.7,251.5,231.7,251.5z"/>
					<g>
						<radialGradient id="SVGID_11_" cx="221.8625" cy="223.3812" r="16.3623" gradientUnits="userSpaceOnUse">
							<stop  offset="0" style="stop-color:#699DD1"/>
							<stop  offset="0.2662" style="stop-color:#6396CC"/>
							<stop  offset="0.6412" style="stop-color:#5184BD"/>
							<stop  offset="1" style="stop-color:#396CAA"/>
						</radialGradient>
						<path class="st21" d="M222.9,187.5v37.8l0,0c0,1.3,0.9,2.6,2.6,3.6c3.4,2,9,2,12.4,0c1.7-1,2.6-2.3,2.6-3.6v-37.8H222.9z"/>
						<g>
							<path class="st7" d="M222.9,193.7v12.8c5.1,2.3,12.4,2.3,17.5,0v-12.8C235.3,191.3,228.1,191.3,222.9,193.7z"/>
							<radialGradient id="SVGID_12_" cx="212.7113" cy="205.8178" r="25.8724" gradientUnits="userSpaceOnUse">
								<stop  offset="0" style="stop-color:#699DD1"/>
								<stop  offset="0.2662" style="stop-color:#6396CC"/>
								<stop  offset="0.6412" style="stop-color:#5184BD"/>
								<stop  offset="1" style="stop-color:#396CAA"/>
							</radialGradient>
							<path class="st22" d="M245.9,134.8h-28.4v59.3l0,0c0,2.1,1.4,4.2,4.2,5.8c5.5,3.2,14.5,3.2,20.1,0c2.8-1.6,4.2-3.7,4.2-5.8
								l0,0V134.8z"/>
						</g>
					</g>
				</g>
				<path class="st9" d="M229.2,219.5c0,1.7-1.2,2.4-2.7,1.6c-1.5-0.9-2.7-3-2.7-4.7c0-1.7,1.2-2.4,2.7-1.6
					C228,215.6,229.2,217.8,229.2,219.5z"/>
			</g>
			<g>
				<g>
					<path class="st10" d="M122.3,60.1L160,38.4c0,0-1.4,21.6-1.4,21.7c0,0-21.6,6.7-21.6,6.7L122.3,60.1z"/>
					<radialGradient id="SVGID_13_" cx="237.178" cy="115.0954" r="93.1152" gradientUnits="userSpaceOnUse">
						<stop  offset="0" style="stop-color:#274FB1"/>
						<stop  offset="1" style="stop-color:#173D7A"/>
					</radialGradient>
					<path class="st23" d="M324.1,184.8c0-15.2-10.7-33.7-23.8-41.3c-2.9-1.7-5.6-2.6-8.1-3c-3.8-20-17.7-41.2-34.2-50.7
						c-5-2.9-9.7-4.4-14-4.7c-2.3-24.2-19.1-51.7-39.5-63.5c-10.7-6.2-20.3-6.9-27.5-3.1l0,0l-0.3,0.2c-0.2,0.1-0.4,0.2-0.5,0.3
						l-22.2,13.1l7.4,5.8c-6.6,2.9-10.8,10.3-10.8,21.3c0,20.3,14.2,44.9,31.8,55l108.3,77.3l3.3,22.5l23.4-13.8c0,0,0,0,0.1,0
						l0.1-0.1l0,0C321.5,197.6,324.1,192.3,324.1,184.8z"/>
					<path class="st10" d="M151.4,50.3l51-29.8c-9.9-5.2-18.8-5.6-25.5-2l0,0l-0.3,0.2c-0.2,0.1-0.4,0.2-0.5,0.3l-22.2,13.1l7.4,5.8
						C156.5,39.9,153,44.2,151.4,50.3z"/>
					<path class="st10" d="M245.5,137.9l37.2-21.8c-6.4-11-15.2-20.7-24.9-26.3c-1.3-0.7-2.6-1.4-3.8-2l-47.3,27.7L245.5,137.9z"/>
					<path class="st9" d="M164.2,34.5l16.6,9.6l30.4-17.9c-2.2-1.7-4.5-3.3-6.8-4.6c-3.7-2.1-7.2-3.6-10.6-4.5L164.2,34.5z"/>
					<path class="st9" d="M278.6,109.6l-29.7,17.5l10.3,11.5l26.9-15.9C284.1,118.2,281.5,113.8,278.6,109.6z"/>
					<linearGradient id="SVGID_14_" gradientUnits="userSpaceOnUse" x1="112.6756" y1="122.7226" x2="300.7488" y2="122.7226">
						<stop  offset="0" style="stop-color:#D4ECFF"/>
						<stop  offset="0.2385" style="stop-color:#D0EAFE"/>
						<stop  offset="0.4599" style="stop-color:#C5E2F9"/>
						<stop  offset="0.6745" style="stop-color:#B2D6F2"/>
						<stop  offset="0.8837" style="stop-color:#98C4E7"/>
						<stop  offset="1" style="stop-color:#86B8E0"/>
					</linearGradient>
					<path class="st24" d="M276.9,157.2c-2.9-1.7-5.6-2.6-8.1-3c-3.8-20-17.7-41.2-34.2-50.7c-5-2.9-9.7-4.4-14-4.7
						c-2.3-24.2-19.1-51.7-39.5-63.5c-22-12.7-39.8-2.4-39.8,23c0,0.9,0,1.7,0.1,2.6c-16.1-7.4-28.6,0.9-28.6,20
						c0,20.3,14.2,44.9,31.8,55l132.5,76.5c13.2,7.6,23.8,1.4,23.8-13.8C300.7,183.3,290.1,164.9,276.9,157.2z"/>
					<g>
						<path class="st1" d="M141.3,60.9c0-0.9-0.1-1.7-0.1-2.6c0,0,0-0.1,0-0.1c-8.9-3.5-16.5-1.9-21.3,3.6
							C125.1,57.5,132.7,56.9,141.3,60.9z"/>
						<path class="st1" d="M278.8,155.4c-2.9-1.7-5.6-2.6-8.1-3c-3.8-20-17.7-41.2-34.2-50.7c-5-2.9-9.7-4.4-14-4.7
							c-2.3-24.2-19.1-51.7-39.5-63.5c-13.7-7.9-25.8-6.9-32.9,1.1c7.3-6.2,18.5-6.5,31,0.8c20.4,11.8,37.2,39.3,39.5,63.5
							c4.3,0.3,9,1.9,14,4.7c16.6,9.6,30.4,30.8,34.2,50.7c2.5,0.4,5.3,1.4,8.1,3c13.2,7.6,23.8,26.1,23.8,41.3
							c0,5.5-1.4,9.8-3.8,12.7c3.6-2.8,5.7-7.7,5.7-14.6C302.7,181.5,292,163,278.8,155.4z"/>
					</g>
					<g>
						<g>
							<linearGradient id="SVGID_15_" gradientUnits="userSpaceOnUse" x1="119.3333" y1="122.7166" x2="294.0911" y2="122.7166">
								<stop  offset="0" style="stop-color:#FAC515"/>
								<stop  offset="1" style="stop-color:#F97416"/>
							</linearGradient>
							<path class="st25" d="M138.5,66.9l10,4.6l-0.5-11c0-0.8-0.1-1.5-0.1-2.3c0-9.8,3-16.9,8.3-20c5.4-3.1,13-2.1,21.5,2.8
								c18.2,10.5,34.1,36.1,36.2,58.3l0.5,5.6l5.6,0.4c3.4,0.3,7.2,1.6,11.2,3.9c14.5,8.4,27.5,27.8,31,46.2l0.9,4.6l4.6,0.7
								c1.8,0.3,3.8,1,5.9,2.2c11.1,6.4,20.5,22.7,20.5,35.5c0,4.8-1.3,8.3-3.7,9.7c-2.3,1.3-6,0.7-10.2-1.7l-132.5-76.5
								c-15.4-8.9-28.4-31.4-28.4-49.2c0-7,2.1-12.3,5.6-14.6c1.5-0.9,3.3-1.4,5.3-1.4C132.7,64.8,135.5,65.5,138.5,66.9z"/>
						</g>
					</g>
				</g>
				<g>
					<polygon class="st10" points="204.6,149.9 208.1,148.2 204.7,145.6 					"/>
					<polygon class="st10" points="194.1,102.7 197.5,101 197.6,102.8 					"/>
					<polygon class="st10" points="214.6,138.9 218.1,137.1 211.3,130.6 					"/>
					<g>
						<path class="st10" d="M207.1,148.1l-16.5-9.7c-0.8-0.5-1.5-1.7-1.5-2.8l0.1-19.2l19.6,11.5l-0.1,19.2
							C208.6,148.1,207.9,148.6,207.1,148.1z"/>
						<path class="st10" d="M197.5,101l-17.9,11.5c-0.8,0.5-0.1,2.3,1,3l18.2,10.7l18.2,10.7c1.2,0.7,1.8-0.4,1-1.8l-17.7-32.5
							C199.6,101.3,198.2,100.5,197.5,101z"/>
					</g>
					<g>
						<path class="st9" d="M203.5,149.8l-16.5-9.7c-0.8-0.5-1.5-1.7-1.5-2.8l0.1-19.2l19.6,11.5l-0.1,19.2
							C205,149.9,204.4,150.3,203.5,149.8z"/>
						<path class="st9" d="M193.9,102.8L176,114.3c-0.8,0.5-0.1,2.3,1,3l18.2,10.7l18.2,10.7c1.2,0.7,1.8-0.4,1-1.8l-17.7-32.5
							C196.1,103.1,194.7,102.3,193.9,102.8z"/>
					</g>
				</g>
			</g>
		</g>
	</g>
</g>
</svg>
