<svg width="168" height="42" viewBox="0 0 168 42" fill="none" xmlns="http://www.w3.org/2000/svg">
<g clip-path="url(#clip0_1_14)">
<path fill-rule="evenodd" clip-rule="evenodd" d="M58.6894 14.568C58.6894 14.568 63.2694 8.39191 68.5576 5.13886C73.8457 1.88582 78.3313 6.64752 75.4511 13.6251C75.4511 13.6722 72.0043 2.54586 58.6894 14.568Z" fill="#FAAC19"/>
<path fill-rule="evenodd" clip-rule="evenodd" d="M47.877 14.568C47.877 14.568 43.297 8.39191 38.0088 5.13886C32.7207 1.88582 28.2351 6.64752 31.1153 13.6251C31.1153 13.6722 34.5621 2.54586 47.877 14.568Z" fill="#FAAC19"/>
<path d="M2.50245 40.6395C1.69977 40.6395 0.849887 40.5924 0.283296 40.3566C1.41648 40.3566 2.50245 39.4137 2.50245 36.6321V20.8383L1.41648 21.2627L0 18.5282H10.4347C15.4868 18.5282 18.0837 20.9326 18.0837 24.28C18.0837 26.2601 17.4227 27.863 16.0534 28.9474C18.4614 29.8903 19.689 31.9647 19.689 34.9349C19.689 38.0465 17.1866 40.5924 12.3706 40.5924H2.50245V40.6395ZM6.04364 28.4288C7.17682 28.4288 9.44319 28.4288 9.86813 28.4288C13.3149 28.4288 14.4481 27.0144 14.4481 24.4214C14.4481 22.017 12.7011 20.6498 9.91535 20.6498C7.03518 20.6498 6.04364 20.8383 6.04364 21.5927V28.4288ZM6.04364 36.1607C6.04364 38.6594 7.12961 38.5651 11.8512 38.5651C14.5425 38.5651 16.0062 37.245 16.0062 34.982C16.0062 32.2476 14.8258 30.7861 11.8984 30.7861C11.0485 30.7861 7.03518 30.7861 5.99642 30.7861V36.1607H6.04364Z" fill="black"/>
<path d="M27.2908 34.2748C27.9046 37.3865 30.3598 39.0837 32.9095 39.0837C34.5149 39.0837 36.7812 38.3294 39.0476 37.0093C37.0645 39.8852 34.0427 41.2995 31.3514 41.2995C26.677 41.2995 23.3247 37.7165 23.3247 32.6247C23.4191 27.6273 25.7799 24.0443 31.0681 24.0443C36.5924 24.0443 39.2364 27.9573 39.2364 34.322H27.2908V34.2748ZM36.7812 32.059C36.6396 29.6546 35.3175 26.4958 31.8235 26.4958C28.6129 26.4958 27.2908 29.2774 27.1964 32.2947L36.7812 32.059Z" fill="black"/>
<path d="M108.691 41.3938H105.055V30.7389H95.4234V36.8679C95.4234 40.4038 93.8653 41.3938 91.7878 41.3938C90.8907 41.3938 90.0408 41.2995 89.5686 41.111C90.7018 41.111 91.7878 40.168 91.7878 37.3865V21.5927L90.749 22.017L89.3326 19.2825H95.4234V28.6645H105.055V23.7614C105.055 20.8384 106.189 18.9525 108.502 18.9525C109.352 18.9525 110.344 19.2354 110.91 19.6126C109.588 19.6126 108.691 20.2255 108.691 23.3842V41.3938Z" fill="black"/>
<path d="M113.932 33.7562C113.932 28.2402 117.804 24.9872 122.62 24.9872C127.389 24.9872 131.213 28.2874 131.213 33.7562C131.213 38.8951 127.861 41.9596 122.525 41.9596C117.19 41.9596 113.932 38.8951 113.932 33.7562ZM122.714 39.9323C125.783 39.9323 127.625 37.4336 127.625 33.9448C127.625 32.3419 127.011 27.0616 122.62 27.0616C118.37 27.0616 117.52 32.3419 117.52 33.9448C117.52 37.7165 119.409 39.9323 122.714 39.9323Z" fill="black"/>
<path d="M146.842 29.466C145.944 28.6174 143.348 27.3916 141.648 27.3916C139.429 27.3916 138.012 28.4759 138.012 29.4189C138.012 30.9275 139.523 31.6347 142.97 32.1533C147.597 33.0491 149.438 34.2749 149.438 36.4436C149.438 39.7437 145.708 41.771 142.545 41.771C137.162 41.771 134.424 38.5651 134.424 33.5677C136.171 36.3021 138.059 39.1309 142.073 39.1309C144.859 39.1309 145.803 37.6222 145.803 36.5378C145.803 35.2178 143.064 35.0292 141.601 34.7463C138.484 34.1334 134.377 33.3791 134.377 29.6546C134.377 26.9673 137.21 25.0343 140.845 25.0343C142.167 25.0343 143.678 25.4115 145.567 26.6373L145.378 25.3643H149.627L146.842 29.466Z" fill="black"/>
<path d="M152.602 25.3172H154.868V24.2328C154.868 21.687 153.263 21.1212 152.649 21.1212C153.074 20.7441 153.971 20.4612 154.821 20.4612C156.474 20.4612 158.457 21.1684 158.457 24.7986V25.3172H164.973V27.2973H158.457V34.7934C158.457 37.8579 159.543 39.7909 161.903 39.7909C162.564 39.7909 163.226 39.6494 163.887 39.3194L163.556 36.7736H166.956L164.548 41.0638C163.414 41.771 162.187 42.0067 161.006 42.0067C158.126 42.0067 154.774 40.3566 154.774 35.6421V27.2973H152.507V25.3172H152.602Z" fill="black"/>
<path fill-rule="evenodd" clip-rule="evenodd" d="M63.1277 28.1459C63.6471 30.3618 63.5527 32.5776 62.7028 34.652C61.2391 38.1408 58.0284 39.9323 54.9594 40.2623C54.5344 40.8281 54.3456 41.0638 54.0623 41.5353C53.4484 40.7809 53.3068 40.5924 53.0707 40.3095C49.0574 39.9795 45.5634 37.1979 43.6747 32.6719L43.3442 31.9647C43.7692 32.4833 46.3188 37.5279 53.7317 37.6693C62.7028 37.7636 64.3553 24.8457 56.2342 22.7713C53.1179 21.9698 47.6409 22.8185 47.6881 26.9201C47.6881 27.3916 48.2075 27.7688 48.9629 28.0988C51.9375 28.9945 56.2814 26.873 58.2645 24.61C58.6422 24.94 59.3032 25.6001 59.6337 25.9772C57.6507 28.3345 52.3625 30.4561 49.2934 29.5131C48.3019 29.2303 47.3576 28.5231 47.0271 27.203C46.6966 25.8358 47.2632 24.4214 48.0186 23.4314C49.0101 22.1113 50.3794 21.3098 51.7959 20.8855C53.4484 20.3669 55.1482 20.3669 56.7063 20.7912C60.2003 21.7813 62.325 24.7514 63.1277 28.1459ZM59.4449 21.2627C59.7754 21.5455 61.0974 22.4885 61.2863 22.7242C61.3335 22.347 61.3807 21.9698 61.3335 21.5927C61.2391 17.7267 57.934 14.9452 55.2427 14.1437C51.2765 12.9179 47.6409 14.9452 45.469 19.1883C46.1772 18.5282 50.1433 13.7194 55.9981 16.1709C57.934 17.0196 59.3977 18.7168 59.4449 21.2627Z" fill="black"/>
<path fill-rule="evenodd" clip-rule="evenodd" d="M58.0756 14.568C60.3892 11.2207 64.4025 5.61032 68.7464 4.33739C83.1001 0.141436 76.8676 23.4785 64.1665 22.5827C70.8239 22.0641 82.5335 4.19596 70.2101 5.56318C66.0551 6.03464 61.4752 11.4564 58.6894 15.0394C58.5006 14.8509 58.2645 14.7094 58.0756 14.568Z" fill="black"/>
<path fill-rule="evenodd" clip-rule="evenodd" d="M48.6324 14.5208C46.7438 11.5978 43.958 7.49615 40.5585 5.37459C39.7558 4.85599 38.9059 4.47883 38.0561 4.2431C34.9398 3.30019 31.1625 4.90314 29.51 7.07184C28.3296 8.62764 27.9046 10.702 28.8489 12.9179C30.6904 17.2081 35.5536 19.0468 40.7474 18.7639C37.2534 18.4339 30.3599 16.2181 30.5015 10.9849C30.6431 5.56318 36.5924 5.04457 40.4168 7.68473C42.8721 9.38197 45.5162 11.4092 48.0658 14.9923C48.2547 14.8037 48.4436 14.6623 48.6324 14.5208Z" fill="black"/>
<path fill-rule="evenodd" clip-rule="evenodd" d="M51.607 13.0122C45.8467 12.0693 44.5719 6.3175 49.0102 4.19595C50.1433 3.67735 51.5598 3.44162 52.9291 3.44162C54.6761 3.44162 56.4703 3.81878 57.8867 4.85599C59.0199 5.70461 59.7754 6.88325 59.9642 8.25047C60.2003 10.042 59.4449 11.7392 58.1228 12.965C56.3758 14.568 53.9206 15.1337 51.5598 15.1337C52.4569 14.6623 53.3068 13.7665 53.6373 13.7194C54.9594 13.4836 56.3286 13.0122 57.2729 12.0693C61.7112 7.59043 57.8395 4.71455 52.9291 5.04457C51.5126 5.13886 50.1433 5.42174 49.1046 5.94034C46.4133 7.21327 46.6494 10.702 51.607 13.0122Z" fill="black"/>
<path fill-rule="evenodd" clip-rule="evenodd" d="M56.6119 3.7245C57.3202 2.49871 58.9255 0.754327 60.5308 0.188579C62.4667 -0.518604 62.325 1.46151 62.0418 1.74438C62.089 0.942909 61.0502 0.707181 60.3892 0.990054C58.8311 1.69724 56.6119 3.7245 56.6119 3.7245Z" fill="black"/>
<path fill-rule="evenodd" clip-rule="evenodd" d="M48.1131 3.7245C47.4048 2.49871 45.7995 0.754327 44.1941 0.188579C42.2583 -0.518604 42.3999 1.46151 42.6832 1.74438C42.636 0.942909 43.6748 0.707181 44.3358 0.990054C45.8939 1.69724 48.1603 3.7245 48.1131 3.7245Z" fill="black"/>
<path fill-rule="evenodd" clip-rule="evenodd" d="M86.6412 33.3319C86.7357 33.0962 86.9245 32.9076 87.1606 32.9076C87.3967 32.8605 87.5856 32.9076 87.7272 33.0491C87.8689 33.1905 87.9161 33.3791 87.8216 33.6148C87.4439 34.5577 86.9245 35.4535 86.2635 36.3492C85.6025 37.245 84.7998 37.9993 83.9499 38.6122C83.0528 39.2251 82.2029 39.5551 81.2586 39.5551C78.6618 39.4609 76.9148 38.2822 76.0649 35.9721C75.5927 37.1979 74.9789 38.3294 74.2234 39.3194C73.468 40.3095 72.4292 40.8752 71.06 41.0638C69.5963 41.1581 68.3687 40.7809 67.4244 40.0266C66.48 39.2251 65.7718 38.2351 65.3468 36.9621C64.9219 35.6892 64.733 34.3691 64.8747 32.9548C65.1108 30.8332 65.7246 29.0888 66.7633 27.7216C67.8021 26.3544 68.9825 25.5529 70.3045 25.3172C71.6266 25.0343 72.807 25.5058 73.7985 26.6844C74.4595 27.5802 74.6012 28.5702 74.2234 29.7489C73.8457 30.9275 73.1375 31.9176 72.0987 32.8133C71.06 33.7091 69.7851 34.1805 68.4159 34.322C68.4159 34.9349 68.4631 35.6892 68.652 36.5378C68.8408 37.4336 69.1241 38.1879 69.5491 38.848C69.974 39.508 70.5406 39.838 71.2488 39.7909C72.0043 39.6966 72.6653 39.3194 73.2319 38.6122C73.7985 37.9522 74.2707 37.1036 74.6956 36.2078C75.0733 35.2649 75.4511 34.3691 75.7344 33.5205C75.7344 33.3319 75.7344 33.1433 75.7344 32.9548C75.9232 31.3518 76.4426 30.0317 77.2925 28.9474C78.1424 27.9102 79.1811 27.203 80.3615 26.8258C81.4003 26.543 82.2029 26.543 82.9112 26.7315C83.5722 26.9673 84.0916 27.2501 84.4221 27.5802L84.4693 27.6273C84.5165 27.6745 84.5165 27.7216 84.5637 27.7216C85.2248 28.4759 85.3192 29.4188 84.847 30.5503C84.4221 31.4933 83.6666 32.2947 82.6751 33.0019C81.6364 33.7091 80.5032 34.1334 79.3228 34.1805C79.3228 35.0763 79.5116 35.9721 79.8422 36.8207C80.2199 37.6693 80.7393 38.1408 81.4475 38.2351C82.3918 38.2351 83.3833 37.7636 84.4221 36.7736C85.3664 35.7364 86.1219 34.6049 86.6412 33.3319ZM81.7308 28.6645C80.5504 29.5603 79.7477 31.0218 79.37 33.0019C80.2671 32.9076 81.1642 32.5776 81.9669 32.0119C82.7695 31.4461 83.3361 30.7861 83.6666 30.0789C83.9499 29.4188 83.9027 28.9002 83.525 28.5231C83.3361 28.3345 83.1 28.2873 82.8167 28.2873C82.5807 28.2402 82.2029 28.3816 81.7308 28.6645ZM72.8542 27.3444C72.146 26.7787 71.4849 26.7787 70.8239 27.3444C70.1629 27.9102 69.5963 28.7117 69.1713 29.796C68.7464 30.8804 68.4631 31.9647 68.4159 32.9548C69.6907 32.8605 70.7295 32.4362 71.5794 31.729C72.382 30.9746 72.9486 30.1732 73.1847 29.3246C73.4208 28.4759 73.3263 27.8159 72.8542 27.3444Z" fill="black"/>
</g>
<defs>
<clipPath id="clip0_1_14">
<rect width="167.05" height="42.0067" fill="white"/>
</clipPath>
</defs>
</svg>
