<?xml version="1.0" encoding="utf-8"?>
<!-- Generator: Adobe Illustrator 25.2.0, SVG Export Plug-In . SVG Version: 6.00 Build 0)  -->
<svg version="1.1" xmlns="http://www.w3.org/2000/svg" xmlns:xlink="http://www.w3.org/1999/xlink" x="0px" y="0px"
	 viewBox="0 0 446.9 419.1" style="enable-background:new 0 0 446.9 419.1;" xml:space="preserve">
<style type="text/css">
	.st0{fill:#FFF9EB;}
	.st1{fill:#A39686;}
	.st2{fill:#F84558;}
	.st3{fill:#5D9DC1;}
	.st4{fill:#FFFFFF;}
	.st5{fill:#473632;}
	.st6{fill:#FFCA7A;}
	.st7{fill:#00AC64;}
	.st8{fill:#EAE2D3;}
	.st9{fill:#DB2E47;}
	.st10{fill:#F4AB7A;}
	.st11{fill:#E28C52;}
	.st12{fill:#DB9C49;}
	.st13{fill:#2B1F1D;}
</style>
<g id="BACKGROUND">
</g>
<g id="OBJECTS">
	<g>
		<g>
			<g>
				<path class="st0" d="M446.2,246.1c10.4,109.3-100.5,161.4-210.4,161.4S21.5,400.2,21.5,290.3S-101.4-21.8,240,43.4
					C347.9,64,426.6,41.4,446.2,246.1z"/>
			</g>
			<g>
				<g>
					<path class="st1" d="M292.9,406.2C292.9,406.2,292.9,406.2,292.9,406.2c-2.2-0.1-4.5-0.5-6.8-1c-0.3-0.1-0.5-0.4-0.4-0.7
						c0.1-0.3,0.4-0.5,0.7-0.4c2.2,0.5,4.4,0.9,6.5,1c0.3,0,0.5,0.3,0.5,0.6C293.5,406,293.2,406.2,292.9,406.2z M299.6,405.7
						c-0.3,0-0.5-0.2-0.5-0.4c-0.1-0.3,0.1-0.6,0.4-0.7c2.3-0.5,4.2-1.5,5.7-2.8c0.2-0.2,0.6-0.2,0.8,0c0.2,0.2,0.2,0.6,0,0.8
						c-1.6,1.5-3.7,2.5-6.2,3.1C299.7,405.7,299.7,405.7,299.6,405.7z M279.9,403.2c-0.1,0-0.1,0-0.2,0c-2.1-0.8-4.2-1.6-6.3-2.5
						c-0.3-0.1-0.4-0.5-0.3-0.7c0.1-0.3,0.5-0.4,0.7-0.3c2,0.9,4.1,1.7,6.2,2.5c0.3,0.1,0.4,0.4,0.3,0.7
						C280.4,403,280.1,403.2,279.9,403.2z M267.6,397.8c-0.1,0-0.2,0-0.3-0.1c-2-1-4-2.1-5.9-3.3c-0.3-0.2-0.3-0.5-0.2-0.8
						c0.2-0.3,0.5-0.3,0.8-0.2c1.9,1.1,3.8,2.2,5.8,3.3c0.3,0.1,0.4,0.5,0.2,0.8C268,397.7,267.8,397.8,267.6,397.8z M308.8,397
						c0,0-0.1,0-0.1,0c-0.3-0.1-0.5-0.4-0.4-0.7c0.2-0.8,0.3-1.8,0.3-2.7c0-1.2-0.1-2.4-0.4-3.7c-0.1-0.3,0.2-0.6,0.5-0.6
						c0.3-0.1,0.6,0.2,0.6,0.5c0.2,1.4,0.4,2.7,0.4,3.9c0,1-0.1,2-0.3,2.9C309.2,396.8,309,397,308.8,397z M293.8,391.4
						c-0.7,0-1.4-0.1-2.1-0.3c-0.3-0.1-0.5-0.4-0.4-0.7c0.1-0.3,0.4-0.5,0.7-0.4c1.9,0.5,4.1,0.2,6-1c0.3-0.2,0.6-0.1,0.8,0.2
						c0.2,0.3,0.1,0.6-0.2,0.8C297,390.9,295.4,391.4,293.8,391.4z M256.2,390.8c-0.1,0-0.2,0-0.3-0.1c-1.8-1.3-3.6-2.7-5.4-4.1
						c-0.2-0.2-0.3-0.5-0.1-0.8c0.2-0.2,0.5-0.3,0.8-0.1c1.7,1.4,3.5,2.7,5.3,4c0.3,0.2,0.3,0.5,0.1,0.8
						C256.5,390.8,256.3,390.8,256.2,390.8z M287.1,386.8c-0.2,0-0.4-0.1-0.5-0.3c-0.5-1.2-0.8-2.6-0.8-4.1c0-1,0.1-2,0.4-2.9
						c0.1-0.3,0.4-0.5,0.7-0.4c0.3,0.1,0.5,0.4,0.4,0.7c-0.2,0.8-0.3,1.7-0.3,2.6c0,1.3,0.2,2.5,0.7,3.6c0.1,0.3,0,0.6-0.3,0.7
						C287.2,386.8,287.1,386.8,287.1,386.8z M302.6,385.1c-0.1,0-0.1,0-0.2,0c-0.3-0.1-0.4-0.4-0.3-0.7c0.3-0.9,0.5-1.7,0.5-2.6
						c0-0.9-0.2-1.7-0.5-2.5c-0.1-0.3-0.3-0.6-0.4-0.9c-0.2-0.3-0.1-0.6,0.2-0.8c0.2-0.1,0.4-0.1,0.5,0c0,0,0-0.1,0.1-0.1
						c0.2-0.2,0.6-0.2,0.8,0c1.5,1.6,2.9,3.5,3.9,5.6c0.1,0.3,0,0.6-0.3,0.7c-0.3,0.1-0.6,0-0.7-0.3c-0.8-1.6-1.8-3.1-2.9-4.4
						c0.3,0.8,0.4,1.6,0.4,2.5c0,1-0.2,2-0.6,3C303,384.9,302.8,385.1,302.6,385.1z M245.8,382.4c-0.1,0-0.3,0-0.4-0.2
						c-1.2-1.2-2.5-2.4-3.6-3.6c-0.2-0.2-0.2-0.6,0-0.8c0.2-0.2,0.6-0.2,0.8,0c1.2,1.2,2.4,2.4,3.6,3.5c0.2,0.2,0.2,0.6,0,0.8
						C246.1,382.3,245.9,382.4,245.8,382.4z M290.7,375.1c-0.2,0-0.4-0.1-0.5-0.3c-0.1-0.3,0-0.6,0.3-0.7c0.2-0.1,0.3-0.2,0.5-0.2
						c2-0.8,4-0.9,6-0.3l-1-0.8c-1.4-1.1-2.7-2.4-4-3.7c-0.2-0.2-0.2-0.6,0-0.8c0.2-0.2,0.6-0.2,0.8,0c1.2,1.3,2.5,2.5,3.9,3.6
						l1.1,0.9c0.2,0.2,0.3,0.5,0.1,0.8c-0.1,0.1-0.2,0.2-0.3,0.2c0.2,0.1,0.3,0.4,0.2,0.6c-0.1,0.3-0.4,0.5-0.7,0.4
						c-1.9-0.6-3.8-0.6-5.7,0.2c-0.2,0.1-0.3,0.1-0.4,0.2C290.9,375.1,290.8,375.1,290.7,375.1z M288.1,364.2
						c-0.2,0-0.3-0.1-0.4-0.2c-1.4-1.8-2.7-3.7-3.8-5.6c-0.2-0.3-0.1-0.6,0.2-0.8c0.3-0.2,0.6-0.1,0.8,0.2c1.1,1.9,2.4,3.7,3.7,5.5
						c0.2,0.2,0.1,0.6-0.1,0.8C288.3,364.2,288.2,364.2,288.1,364.2z M281.3,352.7c-0.2,0-0.4-0.1-0.5-0.3c-0.9-2.1-1.6-4.3-2.1-6.5
						c-0.1-0.3,0.1-0.6,0.4-0.7c0.3-0.1,0.6,0.1,0.7,0.4c0.5,2.1,1.2,4.2,2,6.3c0.1,0.3,0,0.6-0.3,0.7
						C281.5,352.7,281.4,352.7,281.3,352.7z M278.3,339.7c-0.3,0-0.5-0.2-0.6-0.5c0-0.5,0-1,0-1.5c0-1.8,0.1-3.6,0.4-5.3
						c0.1-0.3,0.3-0.5,0.6-0.5c0.3,0.1,0.5,0.3,0.5,0.6c-0.3,1.7-0.4,3.4-0.4,5.1c0,0.5,0,1,0,1.5
						C278.9,339.4,278.7,339.7,278.3,339.7C278.3,339.7,278.3,339.7,278.3,339.7z M280.5,326.5c-0.1,0-0.1,0-0.2,0
						c-0.3-0.1-0.4-0.4-0.3-0.7c0.8-2.1,1.9-4.1,3.2-6c0.2-0.3,0.5-0.3,0.8-0.2c0.3,0.2,0.3,0.5,0.2,0.8c-1.2,1.8-2.3,3.8-3.1,5.8
						C281,326.4,280.8,326.5,280.5,326.5z M288,315.5c-0.1,0-0.3-0.1-0.4-0.2c-0.2-0.2-0.2-0.6,0-0.8c1.5-1.5,3.3-3,5.1-4.4
						c0.2-0.2,0.6-0.1,0.8,0.1c0.2,0.2,0.1,0.6-0.1,0.8c-1.8,1.4-3.5,2.8-5,4.3C288.2,315.4,288.1,315.5,288,315.5z M298.7,307.5
						c-0.2,0-0.4-0.1-0.5-0.3c-0.2-0.3-0.1-0.6,0.2-0.8c1.9-1.1,3.9-2.1,6.1-3c0.3-0.1,0.6,0,0.7,0.3c0.1,0.3,0,0.6-0.3,0.7
						c-2.1,0.9-4.1,1.9-6,3C298.9,307.4,298.8,307.5,298.7,307.5z M310.9,302c-0.2,0-0.4-0.1-0.5-0.4c-0.1-0.3,0-0.6,0.3-0.7
						c2-0.7,4.2-1.4,6.4-2.1c0.3-0.1,0.6,0.1,0.7,0.4c0.1,0.3-0.1,0.6-0.4,0.7c-2.2,0.6-4.3,1.3-6.4,2C311,302,311,302,310.9,302z
						 M323.8,298.3c-0.3,0-0.5-0.2-0.5-0.4c-0.1-0.3,0.1-0.6,0.4-0.7c2.1-0.5,4.3-1,6.5-1.4c0.3-0.1,0.6,0.1,0.7,0.4
						c0.1,0.3-0.1,0.6-0.4,0.7c0,0-0.1,0-0.1,0c-2.2,0.4-4.4,0.9-6.5,1.4C323.9,298.3,323.9,298.3,323.8,298.3z M337,295.6
						c-0.3,0-0.5-0.2-0.5-0.5c-0.1-0.3,0.1-0.6,0.4-0.7l6.6-1.2c0.3-0.1,0.6,0.1,0.7,0.4c0.1,0.3-0.1,0.6-0.4,0.7l-6.6,1.2
						C337,295.6,337,295.6,337,295.6z M350.2,293.1c-0.3,0-0.5-0.2-0.5-0.5c-0.1-0.3,0.1-0.6,0.4-0.7c2.2-0.4,4.4-0.9,6.6-1.3
						c0.3-0.1,0.6,0.1,0.7,0.4c0.1,0.3-0.1,0.6-0.4,0.7c-2.2,0.5-4.4,0.9-6.6,1.3C350.2,293.1,350.2,293.1,350.2,293.1z
						 M363.3,290.4c-0.3,0-0.5-0.2-0.5-0.4c-0.1-0.3,0.1-0.6,0.4-0.7c2.2-0.5,4.4-1.1,6.5-1.6c0.3-0.1,0.6,0.1,0.7,0.4
						c0.1,0.3-0.1,0.6-0.4,0.7c-2.1,0.5-4.3,1.1-6.5,1.6C363.4,290.4,363.3,290.4,363.3,290.4z M376.3,286.9c-0.2,0-0.5-0.2-0.5-0.4
						c-0.1-0.3,0.1-0.6,0.4-0.7c2.2-0.7,4.3-1.4,6.3-2.1c0.3-0.1,0.6,0,0.7,0.3c0.1,0.3,0,0.6-0.3,0.7c-2,0.7-4.2,1.4-6.4,2.1
						C376.4,286.9,376.3,286.9,376.3,286.9z M388.9,282.4c-0.2,0-0.4-0.1-0.5-0.3c-0.1-0.3,0-0.6,0.3-0.7c2.1-0.9,4.1-1.8,6.1-2.8
						c0.3-0.1,0.6,0,0.8,0.2c0.1,0.3,0,0.6-0.2,0.8c-2,1-4,1.9-6.1,2.8C389,282.4,389,282.4,388.9,282.4z M400.9,276.4
						c-0.2,0-0.4-0.1-0.5-0.3c-0.2-0.3-0.1-0.6,0.2-0.8c1.9-1.1,3.8-2.4,5.6-3.6c0.3-0.2,0.6-0.1,0.8,0.1c0.2,0.3,0.1,0.6-0.1,0.8
						c-1.8,1.3-3.7,2.5-5.7,3.6C401.1,276.4,401,276.4,400.9,276.4z M411.9,268.7c-0.2,0-0.3-0.1-0.4-0.2c-0.2-0.2-0.2-0.6,0.1-0.8
						c1.7-1.4,3.4-3,4.9-4.5c0.2-0.2,0.6-0.2,0.8,0c0.2,0.2,0.2,0.6,0,0.8c-1.6,1.6-3.2,3.1-5,4.6
						C412.1,268.6,412,268.7,411.9,268.7z M421.3,259.1c-0.1,0-0.2,0-0.3-0.1c-0.2-0.2-0.3-0.5-0.1-0.8c1.4-1.7,2.7-3.6,3.8-5.4
						c0.2-0.3,0.5-0.3,0.8-0.2c0.3,0.2,0.3,0.5,0.2,0.8c-1.2,1.9-2.5,3.8-3.9,5.5C421.6,259.1,421.4,259.1,421.3,259.1z
						 M428.3,247.7c-0.1,0-0.2,0-0.2-0.1c-0.3-0.1-0.4-0.5-0.3-0.7c0.9-2,1.8-4.1,2.5-6.2c0.1-0.3,0.4-0.4,0.7-0.3
						c0.3,0.1,0.4,0.4,0.3,0.7c-0.7,2.2-1.6,4.3-2.5,6.3C428.7,247.6,428.5,247.7,428.3,247.7z M105.8,242.7c-0.1,0-0.2,0-0.2-0.1
						c-2-1-4-2-6-3c-0.3-0.1-0.4-0.5-0.2-0.8c0.1-0.3,0.5-0.4,0.8-0.2c2,1,4,2,6,3c0.3,0.1,0.4,0.5,0.3,0.7
						C106.2,242.6,106,242.7,105.8,242.7z M93.9,236.6c-0.1,0-0.2,0-0.3-0.1c-1.9-1.1-3.9-2.2-5.8-3.4c-0.3-0.2-0.3-0.5-0.2-0.8
						c0.2-0.3,0.5-0.3,0.8-0.2c1.9,1.2,3.8,2.3,5.8,3.4c0.3,0.2,0.4,0.5,0.2,0.8C94.2,236.5,94.1,236.6,93.9,236.6z M432.7,235.1
						c0,0-0.1,0-0.1,0c-0.3-0.1-0.5-0.4-0.4-0.7c0.5-2.1,0.9-4.3,1.2-6.5c0-0.3,0.3-0.5,0.6-0.5c0.3,0,0.5,0.3,0.5,0.6
						c-0.3,2.3-0.7,4.5-1.2,6.6C433.1,234.9,432.9,235.1,432.7,235.1z M82.4,229.6c-0.1,0-0.2,0-0.3-0.1c-1.9-1.2-3.7-2.5-5.6-3.8
						c-0.3-0.2-0.3-0.5-0.1-0.8c0.2-0.3,0.5-0.3,0.8-0.1c1.8,1.3,3.7,2.5,5.5,3.8c0.3,0.2,0.3,0.5,0.2,0.8
						C82.8,229.5,82.6,229.6,82.4,229.6z M71.5,221.8c-0.1,0-0.2,0-0.3-0.1c-1.8-1.4-3.6-2.8-5.3-4.2c-0.2-0.2-0.3-0.5-0.1-0.8
						c0.2-0.2,0.5-0.3,0.8-0.1c1.7,1.4,3.5,2.8,5.3,4.1c0.2,0.2,0.3,0.5,0.1,0.8C71.8,221.7,71.6,221.8,71.5,221.8z M434.5,221.8
						C434.5,221.8,434.5,221.8,434.5,221.8c-0.3,0-0.6-0.3-0.6-0.6c0.1-1.8,0.2-3.6,0.2-5.4c0-0.4,0-0.8,0-1.3
						c0-0.3,0.2-0.6,0.6-0.6c0,0,0,0,0,0c0.3,0,0.6,0.2,0.6,0.6c0,0.4,0,0.8,0,1.3c0,1.8-0.1,3.7-0.2,5.5
						C435,221.6,434.8,221.8,434.5,221.8z M61.1,213.3c-0.1,0-0.3,0-0.4-0.1c-1.7-1.5-3.4-3-5-4.5c-0.2-0.2-0.2-0.6,0-0.8
						c0.2-0.2,0.6-0.2,0.8,0c1.6,1.5,3.3,3,5,4.5c0.2,0.2,0.3,0.6,0.1,0.8C61.4,213.3,61.2,213.3,61.1,213.3z M434.4,208.4
						c-0.3,0-0.5-0.2-0.6-0.5c-0.2-2.2-0.4-4.4-0.7-6.6c0-0.3,0.2-0.6,0.5-0.6c0.3,0,0.6,0.2,0.6,0.5c0.3,2.3,0.5,4.5,0.7,6.7
						C434.9,208.1,434.7,208.4,434.4,208.4C434.4,208.4,434.4,208.4,434.4,208.4z M51.3,204.1c-0.1,0-0.3-0.1-0.4-0.2
						c-1.6-1.6-3.1-3.2-4.7-4.9c-0.2-0.2-0.2-0.6,0-0.8c0.2-0.2,0.6-0.2,0.8,0c1.5,1.6,3.1,3.3,4.6,4.8c0.2,0.2,0.2,0.6,0,0.8
						C51.6,204.1,51.4,204.1,51.3,204.1z M432.7,195.1c-0.3,0-0.5-0.2-0.5-0.5c-0.4-2.1-0.8-4.3-1.3-6.6c-0.1-0.3,0.1-0.6,0.4-0.7
						c0.3-0.1,0.6,0.1,0.7,0.4c0.5,2.2,0.9,4.5,1.3,6.6C433.3,194.7,433.1,195,432.7,195.1C432.7,195.1,432.7,195.1,432.7,195.1z
						 M42.2,194.3c-0.2,0-0.3-0.1-0.4-0.2c-1.4-1.6-2.8-3.3-4.1-4.9l-0.2-0.2c-0.2-0.2-0.2-0.6,0.1-0.8c0.2-0.2,0.6-0.2,0.8,0.1
						l0.2,0.2c1.3,1.6,2.7,3.3,4.1,4.9c0.2,0.2,0.2,0.6-0.1,0.8C42.4,194.2,42.3,194.3,42.2,194.3z M33.8,183.8
						c-0.2,0-0.3-0.1-0.5-0.2c-1.4-1.9-2.6-3.7-3.8-5.5c-0.2-0.3-0.1-0.6,0.2-0.8c0.3-0.2,0.6-0.1,0.8,0.2c1.2,1.8,2.5,3.7,3.8,5.5
						c0.2,0.2,0.1,0.6-0.1,0.8C34,183.7,33.9,183.8,33.8,183.8z M429.9,181.9c-0.2,0-0.5-0.2-0.5-0.4c-0.6-2.2-1.2-4.4-1.8-6.4
						c-0.1-0.3,0.1-0.6,0.4-0.7c0.3-0.1,0.6,0.1,0.7,0.4c0.6,2.1,1.2,4.2,1.8,6.5c0.1,0.3-0.1,0.6-0.4,0.7
						C430,181.9,429.9,181.9,429.9,181.9z M26.5,172.6c-0.2,0-0.4-0.1-0.5-0.3c-1.1-2-2.2-4-3.2-6c-0.1-0.3,0-0.6,0.3-0.7
						c0.3-0.1,0.6,0,0.7,0.3c0.9,1.9,2,3.9,3.1,5.9c0.2,0.3,0.1,0.6-0.2,0.8C26.7,172.5,26.6,172.6,26.5,172.6z M425.9,169.1
						c-0.2,0-0.4-0.1-0.5-0.4c-0.8-2.1-1.7-4.2-2.6-6.1c-0.1-0.3,0-0.6,0.3-0.7c0.3-0.1,0.6,0,0.7,0.3c0.9,2,1.8,4.1,2.6,6.2
						c0.1,0.3,0,0.6-0.3,0.7C426,169.1,425.9,169.1,425.9,169.1z M20.6,160.5c-0.2,0-0.4-0.1-0.5-0.4c-0.8-2.1-1.6-4.3-2.2-6.4
						c-0.1-0.3,0.1-0.6,0.4-0.7c0.3-0.1,0.6,0.1,0.7,0.4c0.6,2.1,1.3,4.2,2.1,6.3c0.1,0.3,0,0.6-0.3,0.7
						C20.8,160.5,20.7,160.5,20.6,160.5z M420.1,157c-0.2,0-0.4-0.1-0.5-0.3c-1.2-2-2.4-3.8-3.7-5.5c-0.2-0.2-0.1-0.6,0.1-0.8
						c0.2-0.2,0.6-0.1,0.8,0.1c1.3,1.7,2.6,3.6,3.8,5.6c0.2,0.3,0.1,0.6-0.2,0.8C420.3,157,420.2,157,420.1,157z M385.8,156.9
						c-2,0-4.1-0.6-5.8-1.7c-0.3-0.2-0.3-0.5-0.2-0.8c0.2-0.3,0.5-0.3,0.8-0.2c1.8,1.1,4,1.6,6.1,1.5c0.3,0,0.6,0.2,0.6,0.5
						c0,0.3-0.2,0.6-0.5,0.6C386.4,156.9,386.1,156.9,385.8,156.9z M392.2,153.5c-0.1,0-0.2,0-0.3-0.1c-0.3-0.1-0.4-0.5-0.2-0.8
						c0.6-1.1,0.8-2.3,0.8-3.7c0-0.8-0.1-1.6-0.2-2.5c-0.1-0.3,0.1-0.6,0.4-0.7c0.3-0.1,0.6,0.1,0.7,0.4c0.2,1,0.3,1.9,0.3,2.7
						c0,1.5-0.3,2.9-0.9,4.1l-0.1,0.1C392.5,153.4,392.4,153.5,392.2,153.5z M376.5,150c-0.3,0-0.5-0.2-0.5-0.5
						c-0.1-0.6-0.2-1.1-0.2-1.7c0-1.7,0.4-3.4,1.3-5.1c0.1-0.3,0.5-0.4,0.8-0.2c0.3,0.1,0.4,0.5,0.2,0.8c-0.8,1.5-1.2,3.1-1.2,4.6
						c0,0.5,0,1,0.1,1.5c0.1,0.3-0.1,0.6-0.5,0.6C376.6,150,376.6,150,376.5,150z M35.4,148.2c-1.9,0-3.8-0.3-5.7-0.9
						c-0.3-0.1-0.5-0.4-0.4-0.7c0.1-0.3,0.4-0.5,0.7-0.4c2.1,0.7,4.3,0.9,6.4,0.8c0.3,0,0.6,0.2,0.6,0.5c0,0.3-0.2,0.6-0.5,0.6
						C36.2,148.2,35.8,148.2,35.4,148.2z M17,147.6c-0.3,0-0.5-0.2-0.6-0.5c-0.4-2.2-0.6-4.5-0.8-6.7c0-0.3,0.2-0.6,0.5-0.6
						c0.3,0,0.6,0.2,0.6,0.5c0.1,2.2,0.4,4.4,0.8,6.6C17.6,147.2,17.4,147.5,17,147.6C17.1,147.6,17,147.6,17,147.6z M412,146.4
						c-0.1,0-0.3-0.1-0.4-0.2c-1.6-1.6-3.3-3-5-4.3c-0.2-0.2-0.3-0.5-0.1-0.8c0.2-0.2,0.5-0.3,0.8-0.1c1.8,1.3,3.5,2.8,5.1,4.4
						c0.2,0.2,0.2,0.6,0,0.8C412.3,146.3,412.2,146.4,412,146.4z M42.9,146.3c-0.2,0-0.4-0.1-0.5-0.3c-0.2-0.3-0.1-0.6,0.2-0.8
						c1-0.6,1.9-1.4,2.6-2.3c0.6-0.7,1.1-1.5,1.6-2.5c0.1-0.3,0.5-0.4,0.7-0.3c0.3,0.1,0.4,0.5,0.3,0.7c-0.5,1-1.1,1.9-1.7,2.7
						c-0.8,1-1.8,1.8-2.9,2.5C43.1,146.2,43,146.3,42.9,146.3z M24,144.3c-0.1,0-0.2,0-0.3-0.1c-0.3-0.3-0.7-0.6-1-0.8
						c-1.3-1.2-2.5-2.7-3.6-4.2c-0.2-0.3-0.1-0.6,0.2-0.8c0.3-0.2,0.6-0.1,0.8,0.2c1,1.5,2.2,2.9,3.4,4c0.3,0.3,0.6,0.5,0.9,0.8
						c0.2,0.2,0.3,0.5,0.1,0.8C24.3,144.2,24.1,144.3,24,144.3z M390.8,140.5c-0.2,0-0.4-0.1-0.5-0.4c-0.6-1.4-1.2-2.8-1.9-4.1
						c0,0-0.1,0-0.1,0c-0.6,0.1-1.2,0.2-1.7,0.3c-1.5,0.4-2.9,1-4.2,2c-0.3,0.2-0.6,0.1-0.8-0.1c-0.2-0.3-0.1-0.6,0.1-0.8
						c1.4-1,3-1.7,4.6-2.1c0.5-0.1,1-0.2,1.5-0.3c-0.1-0.3-0.3-0.5-0.4-0.8c-0.2-0.3-0.1-0.6,0.2-0.8c0.3-0.2,0.6-0.1,0.8,0.2
						c1.2,2,2.2,4,3,6.1c0.1,0.3,0,0.6-0.3,0.7C391,140.5,390.9,140.5,390.8,140.5z M401.2,138.5c-0.1,0-0.2,0-0.2-0.1
						c-2.1-1-4.2-1.7-6.2-2.1c-0.3-0.1-0.5-0.4-0.4-0.7c0.1-0.3,0.4-0.5,0.7-0.4c2.1,0.4,4.3,1.2,6.5,2.2c0.3,0.1,0.4,0.5,0.3,0.7
						C401.6,138.4,401.4,138.5,401.2,138.5z M49,134.9C49,134.9,49,134.9,49,134.9c-0.4,0-0.6-0.3-0.6-0.6c0.1-0.8,0.2-1.6,0.2-2.5
						c0-0.4,0-0.9,0-1.4c0-0.9,0-1.8-0.1-2.7c0-0.3,0.2-0.6,0.5-0.6c0.3,0,0.6,0.2,0.6,0.5c0.1,0.9,0.1,1.8,0.1,2.8
						c0,0.5,0,0.9,0,1.4c0,0.9-0.1,1.8-0.2,2.6C49.5,134.7,49.3,134.9,49,134.9z M16.4,134.2C16.3,134.2,16.3,134.2,16.4,134.2
						c-0.4,0-0.6-0.3-0.6-0.6c0-0.2,0-0.4,0.1-0.7c-0.8-2-1.4-4.1-1.9-6.4c-0.1-0.3,0.1-0.6,0.4-0.7c0.3-0.1,0.6,0.1,0.7,0.4
						c0.4,1.6,0.7,3,1.2,4.3c0.2-1.3,0.5-2.5,0.9-3.7c0.1-0.3,0.4-0.5,0.7-0.4c0.3,0.1,0.5,0.4,0.4,0.7c-0.6,2-1.1,4.2-1.3,6.5
						C16.9,134,16.6,134.2,16.4,134.2z M384.1,128.9c-0.2,0-0.3-0.1-0.4-0.2c-1.3-1.7-2.8-3.4-4.4-5c-0.2-0.2-0.2-0.6,0-0.8
						c0.2-0.2,0.6-0.2,0.8,0c1.6,1.6,3.1,3.3,4.5,5.1c0.2,0.2,0.1,0.6-0.1,0.8C384.3,128.9,384.2,128.9,384.1,128.9z M47.6,121.7
						c-0.2,0-0.4-0.1-0.5-0.3c-0.9-2.1-2.1-3.9-3.7-5.2c-0.2-0.2-0.3-0.6-0.1-0.8c0.2-0.2,0.6-0.3,0.8-0.1c1.7,1.4,3,3.3,4,5.6
						c0.1,0.3,0,0.6-0.3,0.7C47.8,121.6,47.7,121.7,47.6,121.7z M20.5,121.6c-0.1,0-0.2,0-0.3-0.1c-0.3-0.2-0.3-0.5-0.2-0.8
						c0.6-1,1.4-1.9,2.1-2.7c0.8-0.8,1.6-1.6,2.6-2.3c0.3-0.2,0.6-0.1,0.8,0.1c0.2,0.3,0.1,0.6-0.1,0.8c-0.9,0.6-1.7,1.3-2.4,2.1
						c-0.7,0.8-1.4,1.7-2,2.6C20.8,121.5,20.7,121.6,20.5,121.6z M13.3,120.3c-0.3,0-0.5-0.2-0.6-0.5c-0.3-2.2-0.5-4.5-0.7-6.7
						c0-0.3,0.2-0.6,0.5-0.6c0.3,0,0.6,0.2,0.6,0.5c0.2,2.2,0.4,4.4,0.7,6.6C13.9,120,13.7,120.3,13.3,120.3
						C13.4,120.3,13.4,120.3,13.3,120.3z M374.7,119.4c-0.1,0-0.3,0-0.4-0.1c-1.7-1.4-3.5-2.7-5.3-4c-0.3-0.2-0.3-0.5-0.2-0.8
						c0.2-0.3,0.5-0.3,0.8-0.2c1.9,1.3,3.7,2.6,5.4,4c0.2,0.2,0.3,0.5,0.1,0.8C375,119.3,374.9,119.4,374.7,119.4z M31.1,113.9
						c-0.2,0-0.5-0.2-0.5-0.4c-0.1-0.3,0.1-0.6,0.4-0.7c2.3-0.6,4.7-0.7,6.9-0.4c0.3,0,0.5,0.3,0.5,0.6c0,0.3-0.3,0.5-0.6,0.5
						c-2-0.3-4.2-0.2-6.4,0.4C31.2,113.9,31.1,113.9,31.1,113.9z M363.6,111.9c-0.1,0-0.2,0-0.3-0.1c-1.9-1.1-3.9-2.1-5.9-3
						c-0.3-0.1-0.4-0.5-0.3-0.7c0.1-0.3,0.5-0.4,0.7-0.3c2.1,1,4.1,2,6,3.1c0.3,0.2,0.4,0.5,0.2,0.8
						C364,111.8,363.8,111.9,363.6,111.9z M12.3,106.9c-0.3,0-0.6-0.2-0.6-0.6c0-0.5,0-1,0-1.6c0-1.7,0-3.5,0.1-5.2
						c0-0.3,0.3-0.6,0.6-0.5c0.3,0,0.5,0.3,0.5,0.6c-0.1,1.7-0.1,3.4-0.1,5.1c0,0.5,0,1,0,1.6C12.9,106.7,12.7,106.9,12.3,106.9
						C12.4,106.9,12.4,106.9,12.3,106.9z M351.4,106.2c-0.1,0-0.1,0-0.2,0c-0.5-0.2-1.1-0.4-1.6-0.6c-1.1-0.4-2.1-0.7-3.2-1.1
						l-1.5-0.5c-0.3-0.1-0.4-0.4-0.3-0.7c0.1-0.3,0.4-0.4,0.7-0.3l1.5,0.5c1.1,0.4,2.2,0.7,3.2,1.1c0.5,0.2,1.1,0.4,1.6,0.6
						c0.3,0.1,0.4,0.4,0.3,0.7C351.9,106.1,351.7,106.2,351.4,106.2z M338.8,101.7c-0.1,0-0.2,0-0.2,0c-2-0.9-3.8-1.8-5.3-2.9
						c-0.2-0.1-0.4-0.3-0.7-0.5c-0.3-0.2-0.3-0.5-0.1-0.8c0.2-0.3,0.5-0.3,0.8-0.1c0.2,0.1,0.4,0.3,0.6,0.4c1.5,1,3.2,1.9,5.1,2.8
						c0.3,0.1,0.4,0.5,0.3,0.7C339.2,101.5,339,101.7,338.8,101.7z M328,94c-0.2,0-0.3-0.1-0.4-0.2c-1.3-1.4-2.7-3.1-4.3-5.2
						c-0.2-0.2-0.1-0.6,0.1-0.8c0.2-0.2,0.6-0.1,0.8,0.1c1.6,2.1,2.9,3.7,4.2,5.1c0.2,0.2,0.2,0.6,0,0.8C328.2,93.9,328.1,94,328,94
						z M13,93.5C13,93.5,12.9,93.5,13,93.5c-0.4,0-0.6-0.3-0.6-0.6c0.2-2.2,0.6-4.5,0.9-6.7c0.1-0.3,0.3-0.5,0.6-0.5
						c0.3,0.1,0.5,0.3,0.5,0.6c-0.4,2.2-0.7,4.4-0.9,6.6C13.5,93.3,13.3,93.5,13,93.5z M319.8,83.3c-0.2,0-0.3-0.1-0.5-0.2
						c-0.7-1-1.5-2-2.2-3c-0.6-0.8-1.2-1.6-1.9-2.3c-0.2-0.2-0.2-0.6,0.1-0.8c0.2-0.2,0.6-0.2,0.8,0.1c0.6,0.8,1.3,1.5,1.9,2.3
						c0.8,1,1.5,2,2.2,3c0.2,0.2,0.1,0.6-0.1,0.8C320,83.3,319.9,83.3,319.8,83.3z M15.3,80.3c0,0-0.1,0-0.1,0
						c-0.3-0.1-0.5-0.4-0.4-0.7c0.5-2.2,1.1-4.4,1.8-6.5c0.1-0.3,0.4-0.5,0.7-0.4c0.3,0.1,0.5,0.4,0.4,0.7c-0.7,2.1-1.3,4.3-1.8,6.4
						C15.8,80.1,15.5,80.3,15.3,80.3z M311.1,73.1c-0.1,0-0.3-0.1-0.4-0.2c-1.6-1.5-3.2-3.1-4.9-4.5c-0.2-0.2-0.3-0.6-0.1-0.8
						c0.2-0.2,0.6-0.3,0.8-0.1c1.7,1.5,3.4,3,5,4.6c0.2,0.2,0.2,0.6,0,0.8C311.4,73.1,311.2,73.1,311.1,73.1z M19.3,67.5
						c-0.1,0-0.1,0-0.2,0c-0.3-0.1-0.4-0.4-0.3-0.7c0.8-2.1,1.7-4.2,2.7-6.2c0.1-0.3,0.5-0.4,0.7-0.3c0.3,0.1,0.4,0.5,0.3,0.7
						c-1,2-1.9,4-2.7,6.1C19.7,67.4,19.5,67.5,19.3,67.5z M300.8,64.5c-0.1,0-0.2,0-0.3-0.1c-1.8-1.3-3.7-2.5-5.6-3.7
						c-0.3-0.2-0.3-0.5-0.2-0.8c0.2-0.3,0.5-0.3,0.8-0.2c1.9,1.2,3.8,2.4,5.6,3.7c0.3,0.2,0.3,0.5,0.1,0.8
						C301.2,64.4,301,64.5,300.8,64.5z M289.4,57.5c-0.1,0-0.2,0-0.3-0.1c-1.9-1-4-2-6-2.9c-0.3-0.1-0.4-0.5-0.3-0.7
						c0.1-0.3,0.5-0.4,0.7-0.3c2.1,0.9,4.1,1.9,6.1,2.9c0.3,0.1,0.4,0.5,0.2,0.8C289.8,57.4,289.6,57.5,289.4,57.5z M25.2,55.5
						c-0.1,0-0.2,0-0.3-0.1c-0.3-0.2-0.4-0.5-0.2-0.8c1.1-1.9,2.4-3.9,3.6-5.7c0.2-0.3,0.5-0.3,0.8-0.1c0.3,0.2,0.3,0.5,0.1,0.8
						c-1.3,1.8-2.5,3.7-3.6,5.6C25.5,55.4,25.4,55.5,25.2,55.5z M277.1,52.1c-0.1,0-0.1,0-0.2,0c-2-0.8-4.2-1.5-6.3-2.2
						c-0.3-0.1-0.5-0.4-0.4-0.7c0.1-0.3,0.4-0.5,0.7-0.4c2.2,0.7,4.3,1.4,6.4,2.2c0.3,0.1,0.4,0.4,0.3,0.7
						C277.6,51.9,277.4,52.1,277.1,52.1z M264.3,48.1c0,0-0.1,0-0.1,0c-2.1-0.5-4.3-1-6.5-1.5c-0.3-0.1-0.5-0.4-0.4-0.7
						c0.1-0.3,0.4-0.5,0.7-0.4c2.2,0.5,4.4,1,6.6,1.5c0.3,0.1,0.5,0.4,0.4,0.7C264.8,47.9,264.6,48.1,264.3,48.1z M158.4,47.1
						C158.4,47.1,158.4,47.1,158.4,47.1c-2.2-0.1-4.5-0.4-6.8-1.1c-0.3-0.1-0.5-0.4-0.4-0.7c0.1-0.3,0.4-0.5,0.7-0.4
						c2.2,0.6,4.4,1,6.5,1c0.3,0,0.6,0.3,0.5,0.6C159,46.9,158.7,47.1,158.4,47.1z M165.1,46.4c-0.2,0-0.5-0.2-0.5-0.4
						c-0.1-0.3,0.1-0.6,0.4-0.7c0.4-0.1,0.7-0.2,1.1-0.3c1.6-0.5,3.3-1.3,4.9-2.4c0.3-0.2,0.6-0.1,0.8,0.2c0.2,0.3,0.1,0.6-0.2,0.8
						c-1.7,1.1-3.4,1.9-5.1,2.5c-0.4,0.1-0.7,0.2-1.1,0.3C165.2,46.4,165.1,46.4,165.1,46.4z M251.2,45.4
						C251.1,45.4,251.1,45.4,251.2,45.4c-2.3-0.4-4.5-0.7-6.7-0.9c-0.3,0-0.5-0.3-0.5-0.6c0-0.3,0.3-0.5,0.6-0.5
						c2.2,0.3,4.5,0.6,6.7,0.9c0.3,0,0.5,0.3,0.5,0.6C251.7,45.2,251.4,45.4,251.2,45.4z M32.9,44.5c-0.1,0-0.3,0-0.4-0.1
						c-0.2-0.2-0.3-0.6-0.1-0.8c1.4-1.7,3-3.4,4.5-5c0.2-0.2,0.6-0.2,0.8,0s0.2,0.6,0,0.8c-1.6,1.6-3.1,3.2-4.5,4.9
						C33.2,44.4,33,44.5,32.9,44.5z M197.6,43.9C197.6,43.9,197.6,43.9,197.6,43.9c-2.4,0-4.7-0.2-6.8-0.4c-0.3,0-0.5-0.3-0.5-0.6
						c0-0.3,0.3-0.5,0.6-0.5c2.1,0.2,4.2,0.3,6.7,0.4c0.3,0,0.6,0.3,0.6,0.6C198.2,43.7,197.9,43.9,197.6,43.9z M204.3,43.8
						c-0.3,0-0.5-0.2-0.6-0.5c0-0.3,0.2-0.6,0.5-0.6c2.2-0.1,4.3-0.2,6.5-0.3l0.2,0c0.3,0,0.6,0.2,0.6,0.5c0,0.3-0.2,0.6-0.5,0.6
						l-0.2,0C208.7,43.7,206.5,43.8,204.3,43.8C204.3,43.8,204.3,43.8,204.3,43.8z M237.8,43.8C237.8,43.8,237.8,43.8,237.8,43.8
						c-2.2-0.2-4.5-0.3-6.7-0.4c-0.3,0-0.5-0.3-0.5-0.6c0-0.3,0.3-0.5,0.6-0.5c2.3,0.1,4.5,0.2,6.7,0.4c0.3,0,0.5,0.3,0.5,0.6
						C238.4,43.6,238.1,43.8,237.8,43.8z M145.5,43.7c-0.1,0-0.2,0-0.2-0.1c-1.5-0.7-3-1.5-4.4-2.4c-0.5-0.3-1-0.6-1.5-0.9
						c-0.3-0.2-0.3-0.5-0.2-0.8c0.2-0.3,0.5-0.3,0.8-0.2c0.5,0.3,1,0.6,1.4,0.9c1.4,0.9,2.9,1.7,4.3,2.3c0.3,0.1,0.4,0.5,0.3,0.7
						C146,43.6,145.8,43.7,145.5,43.7z M217.7,43.3c-0.3,0-0.6-0.2-0.6-0.5c0-0.3,0.2-0.6,0.5-0.6c1.8-0.1,3.7-0.1,5.5-0.1l1.2,0
						c0.3,0,0.6,0.3,0.6,0.6c0,0.3-0.3,0.6-0.6,0.6c0,0,0,0,0,0l-1.2,0C221.4,43.2,219.6,43.2,217.7,43.3
						C217.7,43.3,217.7,43.3,217.7,43.3z M184.3,42.5c0,0-0.1,0-0.1,0c-1-0.2-2-0.5-2.9-0.7c-1.2-0.3-2.4-0.8-3.6-1.2
						c-0.3-0.1-0.4-0.4-0.3-0.7c0.1-0.3,0.4-0.4,0.7-0.3c1.1,0.5,2.3,0.9,3.5,1.2c0.9,0.3,1.9,0.5,2.8,0.7c0.3,0.1,0.5,0.4,0.4,0.7
						C184.8,42.3,184.5,42.5,184.3,42.5z M176.4,39.4c-0.1,0-0.3-0.1-0.4-0.2c-0.2-0.2-0.2-0.6,0-0.8c0.8-0.8,1.6-1.6,2.5-2.5
						c0.8-0.8,1.4-1.6,2.1-2.3c0.2-0.2,0.6-0.3,0.8-0.1c0.2,0.2,0.3,0.6,0.1,0.8c-0.7,0.8-1.4,1.5-2.1,2.3c-0.9,1-1.7,1.8-2.6,2.6
						C176.7,39.4,176.6,39.4,176.4,39.4z M171.9,37.5c-0.1,0-0.2,0-0.3-0.1c-2-1.3-3.8-2.7-5.3-4.2c-0.2-0.2-0.2-0.6,0-0.8
						c0.2-0.2,0.6-0.2,0.8,0c1.5,1.5,3.3,2.9,5.2,4.1c0.3,0.2,0.3,0.5,0.2,0.8C172.3,37.4,172.1,37.5,171.9,37.5z M134.2,36.6
						c-0.1,0-0.2,0-0.3-0.1c-1.2-0.9-2.3-1.8-3.5-2.7l-1.8-1.4c-0.2-0.2-0.3-0.5-0.1-0.8c0.2-0.2,0.5-0.3,0.8-0.1l1.8,1.4
						c1.2,0.9,2.3,1.8,3.5,2.7c0.2,0.2,0.3,0.5,0.1,0.8C134.6,36.5,134.4,36.6,134.2,36.6z M42.3,35c-0.2,0-0.3-0.1-0.4-0.2
						c-0.2-0.2-0.2-0.6,0.1-0.8c1.7-1.4,3.5-2.8,5.4-4.1c0.3-0.2,0.6-0.1,0.8,0.1c0.2,0.3,0.1,0.6-0.1,0.8c-1.8,1.3-3.6,2.6-5.3,4
						C42.6,34.9,42.4,35,42.3,35z M185.1,29.2c-0.1,0-0.2,0-0.3-0.1c-0.3-0.2-0.3-0.5-0.2-0.8c1.3-2,2.3-3.9,3-5.9
						c0.1-0.3,0.4-0.4,0.7-0.3c0.3,0.1,0.4,0.4,0.3,0.7c-0.7,2-1.8,4.1-3.1,6.1C185.5,29.2,185.3,29.2,185.1,29.2z M123.5,28.5
						c-0.1,0-0.2,0-0.3-0.1c-1.3-0.9-2.4-1.6-3.6-2.3c-0.7-0.4-1.4-0.8-2.1-1.2c-0.3-0.1-0.4-0.5-0.2-0.8c0.1-0.3,0.5-0.4,0.8-0.2
						c0.7,0.4,1.4,0.8,2.1,1.2c1.2,0.7,2.4,1.5,3.6,2.3c0.3,0.2,0.3,0.5,0.1,0.8C123.8,28.4,123.7,28.5,123.5,28.5z M162.5,28.2
						c-0.2,0-0.4-0.1-0.5-0.3c-1.2-2-2.1-4.2-2.6-6.3c-0.1-0.3,0.1-0.6,0.4-0.7c0.3-0.1,0.6,0.1,0.7,0.4c0.5,2.1,1.3,4.1,2.5,6
						c0.2,0.3,0.1,0.6-0.2,0.8C162.7,28.1,162.6,28.2,162.5,28.2z M53.4,27.4c-0.2,0-0.4-0.1-0.5-0.3c-0.1-0.3-0.1-0.6,0.2-0.8
						c2-1.1,4-2.1,6.1-3c0.3-0.1,0.6,0,0.7,0.3c0.1,0.3,0,0.6-0.3,0.7c-2,0.9-4,1.9-6,3C53.6,27.4,53.5,27.4,53.4,27.4z M111.7,22.2
						c-0.1,0-0.1,0-0.2,0c-2-0.8-4.2-1.5-6.3-2.1c-0.3-0.1-0.5-0.4-0.4-0.7c0.1-0.3,0.4-0.5,0.7-0.4c2.2,0.6,4.4,1.3,6.4,2.1
						c0.3,0.1,0.4,0.4,0.3,0.7C112.1,22,111.9,22.2,111.7,22.2z M65.6,22c-0.2,0-0.5-0.1-0.5-0.4c-0.1-0.3,0.1-0.6,0.3-0.7
						c2.1-0.7,4.3-1.4,6.5-1.9c0.3-0.1,0.6,0.1,0.7,0.4c0.1,0.3-0.1,0.6-0.4,0.7c-2.1,0.5-4.3,1.1-6.4,1.9C65.8,22,65.7,22,65.6,22z
						 M78.7,18.8c-0.3,0-0.5-0.2-0.6-0.5c0-0.3,0.2-0.6,0.5-0.6c2.2-0.3,4.5-0.6,6.7-0.7c0.3,0,0.6,0.2,0.6,0.5
						c0,0.3-0.2,0.6-0.5,0.6C83.2,18.3,81,18.5,78.7,18.8C78.7,18.8,78.7,18.8,78.7,18.8z M98.7,18.7C98.7,18.7,98.7,18.7,98.7,18.7
						c-2.2-0.3-4.5-0.5-6.7-0.6c-0.3,0-0.5-0.3-0.5-0.6c0-0.3,0.3-0.6,0.6-0.5c2.3,0.1,4.5,0.3,6.7,0.6c0.3,0,0.5,0.3,0.5,0.6
						C99.2,18.6,99,18.7,98.7,18.7z M189.5,16.7C189.5,16.7,189.5,16.7,189.5,16.7c-0.3,0-0.6-0.3-0.6-0.6c0-0.2,0-0.4,0-0.5
						c0-2-0.3-4-1-5.9c-0.1-0.3,0.1-0.6,0.3-0.7c0.3-0.1,0.6,0.1,0.7,0.3c0.7,2,1,4.1,1,6.2c0,0.2,0,0.4,0,0.6
						C190,16.5,189.8,16.7,189.5,16.7z M159.6,15.3C159.6,15.3,159.5,15.3,159.6,15.3c-0.4-0.1-0.6-0.4-0.6-0.7
						c0.4-2.2,1.3-4.4,2.6-6.4c0.2-0.3,0.5-0.3,0.8-0.2c0.3,0.2,0.3,0.5,0.2,0.8c-1.2,1.9-2.1,3.9-2.4,6
						C160.1,15.1,159.9,15.3,159.6,15.3z M185,4.4c-0.1,0-0.3-0.1-0.4-0.2c-0.7-0.7-1.4-1.2-2.1-1.7c-1-0.7-2.2-1.1-3.3-1.4
						c-0.3-0.1-0.5-0.4-0.4-0.7c0.1-0.3,0.4-0.5,0.7-0.4c1.3,0.3,2.5,0.8,3.7,1.6c0.8,0.5,1.6,1.2,2.3,1.9c0.2,0.2,0.2,0.6,0,0.8
						C185.3,4.4,185.2,4.4,185,4.4z M166.7,4.3c-0.2,0-0.3-0.1-0.4-0.2c-0.2-0.2-0.1-0.6,0.1-0.8c1.9-1.4,4-2.5,6.2-3.1
						c0.3-0.1,0.6,0.1,0.7,0.4c0.1,0.3-0.1,0.6-0.4,0.7c-2,0.5-4,1.6-5.8,2.9C166.9,4.2,166.8,4.3,166.7,4.3z"/>
				</g>
				<g>
					<g>
						<path class="st2" d="M182.3,124.5c0,3.2-2.6,5.7-5.7,5.7c-3.2,0-5.7-2.6-5.7-5.7c0-3.2,2.6-5.7,5.7-5.7
							C179.7,118.8,182.3,121.3,182.3,124.5z"/>
					</g>
					<g>
						<path class="st2" d="M199.1,124.5c0,3.2-2.6,5.7-5.7,5.7c-3.2,0-5.7-2.6-5.7-5.7c0-3.2,2.6-5.7,5.7-5.7
							C196.6,118.8,199.1,121.3,199.1,124.5z"/>
					</g>
					<g>
						<path class="st2" d="M215,124.5c0,3.2-2.6,5.7-5.7,5.7c-3.2,0-5.7-2.6-5.7-5.7c0-3.2,2.6-5.7,5.7-5.7
							C212.5,118.8,215,121.3,215,124.5z"/>
					</g>
				</g>
				<g>
					<g>
						<path class="st3" d="M143.6,110.8c0-0.8-0.1-1.6-0.1-2.4c0-23.5,19.1-42.6,42.6-42.6c2.3,0,4.5,0.2,6.7,0.5
							c0.5-28.5,23.7-51.5,52.3-51.5c19,0,35.6,10.1,44.8,25.2c5.8-2.2,12.1-3.4,18.7-3.4C337,36.6,360,59,361,87.1
							c2.4-0.5,4.8-0.8,7.4-0.8c15.4,0,28.3,10.4,32.1,24.6H143.6z"/>
					</g>
					<g>
						<g>
							<g>
								<rect x="241.6" y="75.4" class="st4" width="18.2" height="35.4"/>
							</g>
							<g>
								<polygon class="st4" points="269.8,78.5 250.7,59.3 231.5,78.5 								"/>
							</g>
						</g>
						<g>
							<g>
								<rect x="284.3" y="109.5" class="st3" width="18.2" height="35.4"/>
							</g>
							<g>
								<polygon class="st3" points="312.6,141.8 293.4,161 274.2,141.8 								"/>
							</g>
						</g>
					</g>
				</g>
				<g>
					<g>
						<g>
							<path class="st5" d="M346.2,347.6c-0.5,0-0.9-0.4-0.9-0.9v-14.7c0-0.5,0.4-0.9,0.9-0.9c0.5,0,0.9,0.4,0.9,0.9v14.7
								C347.1,347.2,346.7,347.6,346.2,347.6z"/>
						</g>
						<g>
							<g>
								<path class="st6" d="M387.9,373.2c0,0-18.7,22.7-41.8,22.7c-23.1,0-41.8-22.7-41.8-22.7s18.7-22.7,41.8-22.7
									C369.2,350.5,387.9,373.2,387.9,373.2z"/>
							</g>
							<g>
								<path class="st5" d="M326.2,353.5c-0.3,0-0.7-0.2-0.8-0.5l-8.4-15.6c-0.2-0.5-0.1-1,0.4-1.3c0.5-0.2,1-0.1,1.3,0.4l8.4,15.6
									c0.2,0.5,0.1,1-0.4,1.3C326.5,353.5,326.3,353.5,326.2,353.5z"/>
							</g>
							<g>
								<path class="st5" d="M366.1,353.5c-0.1,0-0.3,0-0.4-0.1c-0.5-0.2-0.6-0.8-0.4-1.3l8.4-15.6c0.2-0.5,0.8-0.6,1.3-0.4
									c0.5,0.2,0.6,0.8,0.4,1.3l-8.4,15.6C366.8,353.3,366.5,353.5,366.1,353.5z"/>
							</g>
							<g>
								<path class="st5" d="M311.1,363.2c-0.2,0-0.5-0.1-0.7-0.3l-13.3-14.2c-0.4-0.4-0.3-1,0-1.3c0.4-0.4,1-0.3,1.3,0l13.3,14.2
									c0.4,0.4,0.3,1,0,1.3C311.5,363.1,311.3,363.2,311.1,363.2z"/>
							</g>
							<g>
								<path class="st5" d="M379.8,361.8c-0.2,0-0.5-0.1-0.6-0.3c-0.4-0.4-0.4-0.9,0-1.3l13.3-14.2c0.4-0.4,0.9-0.4,1.3,0
									c0.4,0.4,0.4,0.9,0,1.3l-13.3,14.2C380.3,361.7,380.1,361.8,379.8,361.8z"/>
							</g>
							<g>
								<path class="st5" d="M346.2,407.4c-0.5,0-0.9-0.4-0.9-0.9v-8c0-0.5,0.4-0.9,0.9-0.9c0.5,0,0.9,0.4,0.9,0.9v8
									C347.1,407,346.7,407.4,346.2,407.4z"/>
							</g>
							<g>
								<path class="st5" d="M317.8,403.4c-0.1,0-0.3,0-0.4-0.1c-0.5-0.2-0.7-0.8-0.5-1.2l4.2-9.3c0.2-0.5,0.8-0.7,1.2-0.5
									c0.5,0.2,0.7,0.8,0.5,1.2l-4.2,9.3C318.5,403.2,318.2,403.4,317.8,403.4z"/>
							</g>
							<g>
								<path class="st5" d="M374.5,403.4c-0.4,0-0.7-0.2-0.8-0.5l-4.2-9.3c-0.2-0.5,0-1,0.5-1.2c0.5-0.2,1,0,1.2,0.5l4.2,9.3
									c0.2,0.5,0,1-0.5,1.2C374.7,403.4,374.6,403.4,374.5,403.4z"/>
							</g>
						</g>
					</g>
					<g>
						<g>
							<g>
								<circle class="st3" cx="346.2" cy="371.8" r="15.7"/>
							</g>
							<g>
								<path class="st5" d="M353.2,371.8c0,3.9-3.1,7-7,7c-3.9,0-7-3.1-7-7s3.1-7,7-7C350.1,364.8,353.2,367.9,353.2,371.8z"/>
							</g>
						</g>
						<g>
							<circle class="st4" cx="351.4" cy="376.2" r="3.4"/>
						</g>
					</g>
				</g>
				<g>
					<path class="st2" d="M405.9,406.2l-21.8-16l26.2-9.9L405.9,406.2z M388.7,390.8l15.7,11.5l3.1-18.6L388.7,390.8z"/>
				</g>
				<g>
					<path class="st2" d="M301,27l-21.8-16l26.2-9.9L301,27z M283.8,11.7l15.7,11.5l3.1-18.6L283.8,11.7z"/>
				</g>
				<g>
					<path class="st2" d="M310.4,173.6l3.1-19.8l15.4,13.9L310.4,173.6z M314.7,157l-2.2,14.2l13.3-4.3L314.7,157z"/>
				</g>
				<g>
					<path class="st7" d="M125.4,105.1c-5.1,0-9.2-4.1-9.2-9.2c0-5.1,4.1-9.2,9.2-9.2c5.1,0,9.2,4.1,9.2,9.2
						C134.6,100.9,130.5,105.1,125.4,105.1z M125.4,88.8c-3.9,0-7,3.2-7,7c0,3.9,3.2,7,7,7c3.9,0,7-3.2,7-7
						C132.4,92,129.2,88.8,125.4,88.8z"/>
				</g>
				<g>
					<path class="st7" d="M33.7,302.1c-5.1,0-9.2-4.1-9.2-9.2c0-5.1,4.1-9.2,9.2-9.2s9.2,4.1,9.2,9.2C43,298,38.8,302.1,33.7,302.1z
						 M33.7,285.9c-3.9,0-7,3.2-7,7c0,3.9,3.2,7,7,7c3.9,0,7-3.2,7-7C40.8,289,37.6,285.9,33.7,285.9z"/>
				</g>
				<g>
					<g>
						<rect x="89.8" y="137.3" class="st3" width="117.8" height="280.7"/>
					</g>
					<g>
						<rect x="150.1" y="137.3" class="st6" width="117.4" height="280.7"/>
					</g>
					<g>
						<g>
							<g>
								<rect x="156.6" y="150.6" class="st4" width="105.1" height="43.7"/>
							</g>
							<g>
								<g>
									<rect x="163.6" y="154.8" class="st6" width="4.6" height="35.3"/>
								</g>
								<g>
									<rect x="171.1" y="154.8" class="st6" width="4.6" height="35.3"/>
								</g>
								<g>
									<g>
										<path class="st5" d="M206.2,161.9h-26.6v-6.8h26.6V161.9z M180.3,161.3h25.2v-5.4h-25.2V161.3z"/>
									</g>
									<g>
										<path class="st5" d="M206.2,171.2h-26.6v-6.8h26.6V171.2z M180.3,170.5h25.2v-5.4h-25.2V170.5z"/>
									</g>
									<g>
										<path class="st5" d="M206.2,180.5h-26.6v-6.8h26.6V180.5z M180.3,179.8h25.2v-5.4h-25.2V179.8z"/>
									</g>
									<g>
										<path class="st5" d="M206.2,189.8h-26.6V183h26.6V189.8z M180.3,189.1h25.2v-5.4h-25.2V189.1z"/>
									</g>
								</g>
								<g>
									<g>
										<rect x="225.3" y="155.5" class="st8" width="29.3" height="34"/>
									</g>
									<g>
										<g>
											<g>
												<path class="st5" d="M249.4,164.8h-18.8c-1.5,0-2.7-1.2-2.7-2.7v0c0-1.5,1.2-2.7,2.7-2.7h18.8c1.5,0,2.7,1.2,2.7,2.7v0
													C252.2,163.6,250.9,164.8,249.4,164.8z"/>
											</g>
											<g>
												<path class="st8" d="M249.5,162.6h-18.9c-0.3,0-0.6-0.2-0.6-0.6s0.2-0.6,0.6-0.6h18.9c0.3,0,0.6,0.2,0.6,0.6
													S249.8,162.6,249.5,162.6z"/>
											</g>
										</g>
										<g>
											<g>
												<path class="st5" d="M249.4,175.2h-18.8c-1.5,0-2.7-1.2-2.7-2.7l0,0c0-1.5,1.2-2.7,2.7-2.7h18.8c1.5,0,2.7,1.2,2.7,2.7
													l0,0C252.2,174,250.9,175.2,249.4,175.2z"/>
											</g>
											<g>
												<path class="st8" d="M249.5,173h-18.9c-0.3,0-0.6-0.2-0.6-0.6s0.2-0.6,0.6-0.6h18.9c0.3,0,0.6,0.2,0.6,0.6
													S249.8,173,249.5,173z"/>
											</g>
										</g>
										<g>
											<g>
												<path class="st5" d="M249.4,185.7h-18.8c-1.5,0-2.7-1.2-2.7-2.7l0,0c0-1.5,1.2-2.7,2.7-2.7h18.8c1.5,0,2.7,1.2,2.7,2.7
													l0,0C252.2,184.4,250.9,185.7,249.4,185.7z"/>
											</g>
											<g>
												<path class="st8" d="M249.5,183.5h-18.9c-0.3,0-0.6-0.2-0.6-0.6c0-0.3,0.2-0.6,0.6-0.6h18.9c0.3,0,0.6,0.2,0.6,0.6
													C250,183.2,249.8,183.5,249.5,183.5z"/>
											</g>
										</g>
									</g>
								</g>
								<g>
									<g>
										<g>
											<g>
												<path class="st7" d="M212.8,169.6c0,0.7-0.6,1.3-1.3,1.3c-0.7,0-1.3-0.6-1.3-1.3c0-0.7,0.6-1.3,1.3-1.3
													C212.2,168.3,212.8,168.9,212.8,169.6z"/>
											</g>
											<g>
												<path class="st2" d="M217.1,169.6c0,0.7-0.6,1.3-1.3,1.3c-0.7,0-1.3-0.6-1.3-1.3c0-0.7,0.6-1.3,1.3-1.3
													C216.5,168.3,217.1,168.9,217.1,169.6z"/>
											</g>
											<g>
												<path class="st6" d="M221.4,169.6c0,0.7-0.6,1.3-1.3,1.3c-0.7,0-1.3-0.6-1.3-1.3c0-0.7,0.6-1.3,1.3-1.3
													C220.8,168.3,221.4,168.9,221.4,169.6z"/>
											</g>
										</g>
										<g>
											<g>
												<path class="st6" d="M212.8,173.7c0,0.7-0.6,1.3-1.3,1.3c-0.7,0-1.3-0.6-1.3-1.3c0-0.7,0.6-1.3,1.3-1.3
													C212.2,172.3,212.8,172.9,212.8,173.7z"/>
											</g>
											<g>
												<path class="st7" d="M217.1,173.7c0,0.7-0.6,1.3-1.3,1.3c-0.7,0-1.3-0.6-1.3-1.3c0-0.7,0.6-1.3,1.3-1.3
													C216.5,172.3,217.1,172.9,217.1,173.7z"/>
											</g>
											<g>
												<path class="st2" d="M221.4,173.7c0,0.7-0.6,1.3-1.3,1.3c-0.7,0-1.3-0.6-1.3-1.3c0-0.7,0.6-1.3,1.3-1.3
													C220.8,172.3,221.4,172.9,221.4,173.7z"/>
											</g>
										</g>
									</g>
									<g>
										<g>
											<g>
												<g>
													<path class="st7" d="M212.8,156.4c0,0.7-0.6,1.3-1.3,1.3c-0.7,0-1.3-0.6-1.3-1.3c0-0.7,0.6-1.3,1.3-1.3
														C212.2,155,212.8,155.6,212.8,156.4z"/>
												</g>
												<g>
													<path class="st2" d="M217.1,156.4c0,0.7-0.6,1.3-1.3,1.3c-0.7,0-1.3-0.6-1.3-1.3c0-0.7,0.6-1.3,1.3-1.3
														C216.5,155,217.1,155.6,217.1,156.4z"/>
												</g>
												<g>
													<path class="st6" d="M221.4,156.4c0,0.7-0.6,1.3-1.3,1.3c-0.7,0-1.3-0.6-1.3-1.3c0-0.7,0.6-1.3,1.3-1.3
														C220.8,155,221.4,155.6,221.4,156.4z"/>
												</g>
											</g>
											<g>
												<g>
													<path class="st6" d="M212.8,160.4c0,0.7-0.6,1.3-1.3,1.3c-0.7,0-1.3-0.6-1.3-1.3c0-0.7,0.6-1.3,1.3-1.3
														C212.2,159.1,212.8,159.7,212.8,160.4z"/>
												</g>
												<g>
													<path class="st6" d="M217.1,160.4c0,0.7-0.6,1.3-1.3,1.3c-0.7,0-1.3-0.6-1.3-1.3c0-0.7,0.6-1.3,1.3-1.3
														C216.5,159.1,217.1,159.7,217.1,160.4z"/>
												</g>
												<g>
													<path class="st7" d="M221.4,160.4c0,0.7-0.6,1.3-1.3,1.3c-0.7,0-1.3-0.6-1.3-1.3c0-0.7,0.6-1.3,1.3-1.3
														C220.8,159.1,221.4,159.7,221.4,160.4z"/>
												</g>
											</g>
										</g>
										<g>
											<g>
												<g>
													<path class="st6" d="M212.8,182.9c0,0.7-0.6,1.3-1.3,1.3c-0.7,0-1.3-0.6-1.3-1.3s0.6-1.3,1.3-1.3
														C212.2,181.6,212.8,182.2,212.8,182.9z"/>
												</g>
												<g>
													<path class="st7" d="M217.1,182.9c0,0.7-0.6,1.3-1.3,1.3c-0.7,0-1.3-0.6-1.3-1.3s0.6-1.3,1.3-1.3
														C216.5,181.6,217.1,182.2,217.1,182.9z"/>
												</g>
												<g>
													<path class="st6" d="M221.4,182.9c0,0.7-0.6,1.3-1.3,1.3c-0.7,0-1.3-0.6-1.3-1.3s0.6-1.3,1.3-1.3
														C220.8,181.6,221.4,182.2,221.4,182.9z"/>
												</g>
											</g>
											<g>
												<g>
													<path class="st7" d="M212.8,186.9c0,0.7-0.6,1.3-1.3,1.3c-0.7,0-1.3-0.6-1.3-1.3c0-0.7,0.6-1.3,1.3-1.3
														C212.2,185.6,212.8,186.2,212.8,186.9z"/>
												</g>
												<g>
													<path class="st2" d="M217.1,186.9c0,0.7-0.6,1.3-1.3,1.3c-0.7,0-1.3-0.6-1.3-1.3c0-0.7,0.6-1.3,1.3-1.3
														C216.5,185.6,217.1,186.2,217.1,186.9z"/>
												</g>
												<g>
													<path class="st6" d="M221.4,186.9c0,0.7-0.6,1.3-1.3,1.3c-0.7,0-1.3-0.6-1.3-1.3c0-0.7,0.6-1.3,1.3-1.3
														C220.8,185.6,221.4,186.2,221.4,186.9z"/>
												</g>
											</g>
										</g>
									</g>
								</g>
							</g>
						</g>
						<g>
							<g>
								<rect x="156.6" y="202.3" class="st4" width="105.1" height="43.7"/>
							</g>
							<g>
								<g>
									<rect x="163.6" y="206.5" class="st6" width="4.6" height="35.3"/>
								</g>
								<g>
									<rect x="171.1" y="206.5" class="st6" width="4.6" height="35.3"/>
								</g>
								<g>
									<g>
										<path class="st5" d="M206.2,213.6h-26.6v-6.8h26.6V213.6z M180.3,213h25.2v-5.4h-25.2V213z"/>
									</g>
									<g>
										<path class="st5" d="M206.2,222.9h-26.6v-6.8h26.6V222.9z M180.3,222.3h25.2v-5.4h-25.2V222.3z"/>
									</g>
									<g>
										<path class="st5" d="M206.2,232.2h-26.6v-6.8h26.6V232.2z M180.3,231.6h25.2v-5.4h-25.2V231.6z"/>
									</g>
									<g>
										<path class="st5" d="M206.2,241.5h-26.6v-6.8h26.6V241.5z M180.3,240.8h25.2v-5.4h-25.2V240.8z"/>
									</g>
								</g>
								<g>
									<g>
										<rect x="225.3" y="207.2" class="st8" width="29.3" height="34"/>
									</g>
									<g>
										<g>
											<g>
												<path class="st5" d="M249.4,216.5h-18.8c-1.5,0-2.7-1.2-2.7-2.7l0,0c0-1.5,1.2-2.7,2.7-2.7h18.8c1.5,0,2.7,1.2,2.7,2.7
													l0,0C252.2,215.3,250.9,216.5,249.4,216.5z"/>
											</g>
											<g>
												<path class="st8" d="M249.5,214.3h-18.9c-0.3,0-0.6-0.2-0.6-0.6s0.2-0.6,0.6-0.6h18.9c0.3,0,0.6,0.2,0.6,0.6
													S249.8,214.3,249.5,214.3z"/>
											</g>
										</g>
										<g>
											<g>
												<path class="st5" d="M249.4,226.9h-18.8c-1.5,0-2.7-1.2-2.7-2.7l0,0c0-1.5,1.2-2.7,2.7-2.7h18.8c1.5,0,2.7,1.2,2.7,2.7
													l0,0C252.2,225.7,250.9,226.9,249.4,226.9z"/>
											</g>
											<g>
												<path class="st8" d="M249.5,224.7h-18.9c-0.3,0-0.6-0.2-0.6-0.6c0-0.3,0.2-0.6,0.6-0.6h18.9c0.3,0,0.6,0.2,0.6,0.6
													C250,224.5,249.8,224.7,249.5,224.7z"/>
											</g>
										</g>
										<g>
											<g>
												<path class="st5" d="M249.4,237.4h-18.8c-1.5,0-2.7-1.2-2.7-2.7l0,0c0-1.5,1.2-2.7,2.7-2.7h18.8c1.5,0,2.7,1.2,2.7,2.7
													l0,0C252.2,236.1,250.9,237.4,249.4,237.4z"/>
											</g>
											<g>
												<path class="st8" d="M249.5,235.2h-18.9c-0.3,0-0.6-0.2-0.6-0.6s0.2-0.6,0.6-0.6h18.9c0.3,0,0.6,0.2,0.6,0.6
													S249.8,235.2,249.5,235.2z"/>
											</g>
										</g>
									</g>
								</g>
								<g>
									<g>
										<g>
											<g>
												<path class="st7" d="M212.8,221.3c0,0.7-0.6,1.3-1.3,1.3c-0.7,0-1.3-0.6-1.3-1.3c0-0.7,0.6-1.3,1.3-1.3
													C212.2,220,212.8,220.6,212.8,221.3z"/>
											</g>
											<g>
												<path class="st2" d="M217.1,221.3c0,0.7-0.6,1.3-1.3,1.3c-0.7,0-1.3-0.6-1.3-1.3c0-0.7,0.6-1.3,1.3-1.3
													C216.5,220,217.1,220.6,217.1,221.3z"/>
											</g>
											<g>
												<path class="st6" d="M221.4,221.3c0,0.7-0.6,1.3-1.3,1.3c-0.7,0-1.3-0.6-1.3-1.3c0-0.7,0.6-1.3,1.3-1.3
													C220.8,220,221.4,220.6,221.4,221.3z"/>
											</g>
										</g>
										<g>
											<g>
												<path class="st6" d="M212.8,225.4c0,0.7-0.6,1.3-1.3,1.3c-0.7,0-1.3-0.6-1.3-1.3c0-0.7,0.6-1.3,1.3-1.3
													C212.2,224,212.8,224.6,212.8,225.4z"/>
											</g>
											<g>
												<path class="st7" d="M217.1,225.4c0,0.7-0.6,1.3-1.3,1.3c-0.7,0-1.3-0.6-1.3-1.3c0-0.7,0.6-1.3,1.3-1.3
													C216.5,224,217.1,224.6,217.1,225.4z"/>
											</g>
											<g>
												<path class="st2" d="M221.4,225.4c0,0.7-0.6,1.3-1.3,1.3c-0.7,0-1.3-0.6-1.3-1.3c0-0.7,0.6-1.3,1.3-1.3
													C220.8,224,221.4,224.6,221.4,225.4z"/>
											</g>
										</g>
									</g>
									<g>
										<g>
											<g>
												<g>
													<path class="st7" d="M212.8,208.1c0,0.7-0.6,1.3-1.3,1.3c-0.7,0-1.3-0.6-1.3-1.3s0.6-1.3,1.3-1.3
														C212.2,206.7,212.8,207.3,212.8,208.1z"/>
												</g>
												<g>
													<path class="st2" d="M217.1,208.1c0,0.7-0.6,1.3-1.3,1.3c-0.7,0-1.3-0.6-1.3-1.3s0.6-1.3,1.3-1.3
														C216.5,206.7,217.1,207.3,217.1,208.1z"/>
												</g>
												<g>
													<path class="st6" d="M221.4,208.1c0,0.7-0.6,1.3-1.3,1.3c-0.7,0-1.3-0.6-1.3-1.3s0.6-1.3,1.3-1.3
														C220.8,206.7,221.4,207.3,221.4,208.1z"/>
												</g>
											</g>
											<g>
												<g>
													<path class="st6" d="M212.8,212.1c0,0.7-0.6,1.3-1.3,1.3c-0.7,0-1.3-0.6-1.3-1.3c0-0.7,0.6-1.3,1.3-1.3
														C212.2,210.8,212.8,211.4,212.8,212.1z"/>
												</g>
												<g>
													<path class="st6" d="M217.1,212.1c0,0.7-0.6,1.3-1.3,1.3c-0.7,0-1.3-0.6-1.3-1.3c0-0.7,0.6-1.3,1.3-1.3
														C216.5,210.8,217.1,211.4,217.1,212.1z"/>
												</g>
												<g>
													<path class="st7" d="M221.4,212.1c0,0.7-0.6,1.3-1.3,1.3c-0.7,0-1.3-0.6-1.3-1.3c0-0.7,0.6-1.3,1.3-1.3
														C220.8,210.8,221.4,211.4,221.4,212.1z"/>
												</g>
											</g>
										</g>
										<g>
											<g>
												<g>
													<path class="st6" d="M212.8,234.6c0,0.7-0.6,1.3-1.3,1.3c-0.7,0-1.3-0.6-1.3-1.3c0-0.7,0.6-1.3,1.3-1.3
														C212.2,233.3,212.8,233.9,212.8,234.6z"/>
												</g>
												<g>
													<path class="st7" d="M217.1,234.6c0,0.7-0.6,1.3-1.3,1.3c-0.7,0-1.3-0.6-1.3-1.3c0-0.7,0.6-1.3,1.3-1.3
														C216.5,233.3,217.1,233.9,217.1,234.6z"/>
												</g>
												<g>
													<path class="st6" d="M221.4,234.6c0,0.7-0.6,1.3-1.3,1.3c-0.7,0-1.3-0.6-1.3-1.3c0-0.7,0.6-1.3,1.3-1.3
														C220.8,233.3,221.4,233.9,221.4,234.6z"/>
												</g>
											</g>
											<g>
												<g>
													<path class="st7" d="M212.8,238.6c0,0.7-0.6,1.3-1.3,1.3c-0.7,0-1.3-0.6-1.3-1.3c0-0.7,0.6-1.3,1.3-1.3
														C212.2,237.3,212.8,237.9,212.8,238.6z"/>
												</g>
												<g>
													<path class="st2" d="M217.1,238.6c0,0.7-0.6,1.3-1.3,1.3c-0.7,0-1.3-0.6-1.3-1.3c0-0.7,0.6-1.3,1.3-1.3
														C216.5,237.3,217.1,237.9,217.1,238.6z"/>
												</g>
												<g>
													<path class="st6" d="M221.4,238.6c0,0.7-0.6,1.3-1.3,1.3c-0.7,0-1.3-0.6-1.3-1.3c0-0.7,0.6-1.3,1.3-1.3
														C220.8,237.3,221.4,237.9,221.4,238.6z"/>
												</g>
											</g>
										</g>
									</g>
								</g>
							</g>
						</g>
						<g>
							<g>
								<rect x="156.6" y="254" class="st4" width="105.1" height="43.7"/>
							</g>
							<g>
								<g>
									<rect x="163.6" y="258.3" class="st6" width="4.6" height="35.3"/>
								</g>
								<g>
									<rect x="171.1" y="258.3" class="st6" width="4.6" height="35.3"/>
								</g>
								<g>
									<g>
										<path class="st5" d="M206.2,265.4h-26.6v-6.8h26.6V265.4z M180.3,264.7h25.2v-5.4h-25.2V264.7z"/>
									</g>
									<g>
										<path class="st5" d="M206.2,274.6h-26.6v-6.8h26.6V274.6z M180.3,274h25.2v-5.4h-25.2V274z"/>
									</g>
									<g>
										<path class="st5" d="M206.2,283.9h-26.6v-6.8h26.6V283.9z M180.3,283.3h25.2v-5.4h-25.2V283.3z"/>
									</g>
									<g>
										<path class="st5" d="M206.2,293.2h-26.6v-6.8h26.6V293.2z M180.3,292.6h25.2v-5.4h-25.2V292.6z"/>
									</g>
								</g>
								<g>
									<g>
										<rect x="225.3" y="258.9" class="st8" width="29.3" height="34"/>
									</g>
									<g>
										<g>
											<g>
												<path class="st5" d="M249.4,268.2h-18.8c-1.5,0-2.7-1.2-2.7-2.7l0,0c0-1.5,1.2-2.7,2.7-2.7h18.8c1.5,0,2.7,1.2,2.7,2.7
													l0,0C252.2,267,250.9,268.2,249.4,268.2z"/>
											</g>
											<g>
												<path class="st8" d="M249.5,266h-18.9c-0.3,0-0.6-0.2-0.6-0.6c0-0.3,0.2-0.6,0.6-0.6h18.9c0.3,0,0.6,0.2,0.6,0.6
													C250,265.8,249.8,266,249.5,266z"/>
											</g>
										</g>
										<g>
											<g>
												<path class="st5" d="M249.4,278.6h-18.8c-1.5,0-2.7-1.2-2.7-2.7l0,0c0-1.5,1.2-2.7,2.7-2.7h18.8c1.5,0,2.7,1.2,2.7,2.7
													l0,0C252.2,277.4,250.9,278.6,249.4,278.6z"/>
											</g>
											<g>
												<path class="st8" d="M249.5,276.5h-18.9c-0.3,0-0.6-0.2-0.6-0.6s0.2-0.6,0.6-0.6h18.9c0.3,0,0.6,0.2,0.6,0.6
													S249.8,276.5,249.5,276.5z"/>
											</g>
										</g>
										<g>
											<g>
												<path class="st5" d="M249.4,289.1h-18.8c-1.5,0-2.7-1.2-2.7-2.7l0,0c0-1.5,1.2-2.7,2.7-2.7h18.8c1.5,0,2.7,1.2,2.7,2.7
													l0,0C252.2,287.9,250.9,289.1,249.4,289.1z"/>
											</g>
											<g>
												<path class="st8" d="M249.5,286.9h-18.9c-0.3,0-0.6-0.2-0.6-0.6c0-0.3,0.2-0.6,0.6-0.6h18.9c0.3,0,0.6,0.2,0.6,0.6
													C250,286.6,249.8,286.9,249.5,286.9z"/>
											</g>
										</g>
									</g>
								</g>
								<g>
									<g>
										<g>
											<g>
												<path class="st7" d="M212.8,273c0,0.7-0.6,1.3-1.3,1.3c-0.7,0-1.3-0.6-1.3-1.3c0-0.7,0.6-1.3,1.3-1.3
													C212.2,271.7,212.8,272.3,212.8,273z"/>
											</g>
											<g>
												<path class="st2" d="M217.1,273c0,0.7-0.6,1.3-1.3,1.3c-0.7,0-1.3-0.6-1.3-1.3c0-0.7,0.6-1.3,1.3-1.3
													C216.5,271.7,217.1,272.3,217.1,273z"/>
											</g>
											<g>
												<path class="st6" d="M221.4,273c0,0.7-0.6,1.3-1.3,1.3c-0.7,0-1.3-0.6-1.3-1.3c0-0.7,0.6-1.3,1.3-1.3
													C220.8,271.7,221.4,272.3,221.4,273z"/>
											</g>
										</g>
										<g>
											<g>
												<path class="st6" d="M212.8,277.1c0,0.7-0.6,1.3-1.3,1.3c-0.7,0-1.3-0.6-1.3-1.3c0-0.7,0.6-1.3,1.3-1.3
													C212.2,275.7,212.8,276.3,212.8,277.1z"/>
											</g>
											<g>
												<path class="st7" d="M217.1,277.1c0,0.7-0.6,1.3-1.3,1.3c-0.7,0-1.3-0.6-1.3-1.3c0-0.7,0.6-1.3,1.3-1.3
													C216.5,275.7,217.1,276.3,217.1,277.1z"/>
											</g>
											<g>
												<path class="st2" d="M221.4,277.1c0,0.7-0.6,1.3-1.3,1.3c-0.7,0-1.3-0.6-1.3-1.3c0-0.7,0.6-1.3,1.3-1.3
													C220.8,275.7,221.4,276.3,221.4,277.1z"/>
											</g>
										</g>
									</g>
									<g>
										<g>
											<g>
												<g>
													<path class="st7" d="M212.8,259.8c0,0.7-0.6,1.3-1.3,1.3c-0.7,0-1.3-0.6-1.3-1.3c0-0.7,0.6-1.3,1.3-1.3
														C212.2,258.4,212.8,259,212.8,259.8z"/>
												</g>
												<g>
													<path class="st2" d="M217.1,259.8c0,0.7-0.6,1.3-1.3,1.3c-0.7,0-1.3-0.6-1.3-1.3c0-0.7,0.6-1.3,1.3-1.3
														C216.5,258.4,217.1,259,217.1,259.8z"/>
												</g>
												<g>
													<path class="st6" d="M221.4,259.8c0,0.7-0.6,1.3-1.3,1.3c-0.7,0-1.3-0.6-1.3-1.3c0-0.7,0.6-1.3,1.3-1.3
														C220.8,258.4,221.4,259,221.4,259.8z"/>
												</g>
											</g>
											<g>
												<g>
													<path class="st6" d="M212.8,263.8c0,0.7-0.6,1.3-1.3,1.3c-0.7,0-1.3-0.6-1.3-1.3c0-0.7,0.6-1.3,1.3-1.3
														C212.2,262.5,212.8,263.1,212.8,263.8z"/>
												</g>
												<g>
													<path class="st6" d="M217.1,263.8c0,0.7-0.6,1.3-1.3,1.3c-0.7,0-1.3-0.6-1.3-1.3c0-0.7,0.6-1.3,1.3-1.3
														C216.5,262.5,217.1,263.1,217.1,263.8z"/>
												</g>
												<g>
													<path class="st7" d="M221.4,263.8c0,0.7-0.6,1.3-1.3,1.3c-0.7,0-1.3-0.6-1.3-1.3c0-0.7,0.6-1.3,1.3-1.3
														C220.8,262.5,221.4,263.1,221.4,263.8z"/>
												</g>
											</g>
										</g>
										<g>
											<g>
												<g>
													<path class="st6" d="M212.8,286.3c0,0.7-0.6,1.3-1.3,1.3c-0.7,0-1.3-0.6-1.3-1.3s0.6-1.3,1.3-1.3
														C212.2,285,212.8,285.6,212.8,286.3z"/>
												</g>
												<g>
													<path class="st7" d="M217.1,286.3c0,0.7-0.6,1.3-1.3,1.3c-0.7,0-1.3-0.6-1.3-1.3s0.6-1.3,1.3-1.3
														C216.5,285,217.1,285.6,217.1,286.3z"/>
												</g>
												<g>
													<path class="st6" d="M221.4,286.3c0,0.7-0.6,1.3-1.3,1.3c-0.7,0-1.3-0.6-1.3-1.3s0.6-1.3,1.3-1.3
														C220.8,285,221.4,285.6,221.4,286.3z"/>
												</g>
											</g>
											<g>
												<g>
													<path class="st7" d="M212.8,290.3c0,0.7-0.6,1.3-1.3,1.3c-0.7,0-1.3-0.6-1.3-1.3c0-0.7,0.6-1.3,1.3-1.3
														C212.2,289,212.8,289.6,212.8,290.3z"/>
												</g>
												<g>
													<path class="st2" d="M217.1,290.3c0,0.7-0.6,1.3-1.3,1.3c-0.7,0-1.3-0.6-1.3-1.3c0-0.7,0.6-1.3,1.3-1.3
														C216.5,289,217.1,289.6,217.1,290.3z"/>
												</g>
												<g>
													<path class="st6" d="M221.4,290.3c0,0.7-0.6,1.3-1.3,1.3c-0.7,0-1.3-0.6-1.3-1.3c0-0.7,0.6-1.3,1.3-1.3
														C220.8,289,221.4,289.6,221.4,290.3z"/>
												</g>
											</g>
										</g>
									</g>
								</g>
							</g>
						</g>
						<g>
							<g>
								<rect x="156.6" y="306.9" class="st4" width="105.1" height="43.7"/>
							</g>
							<g>
								<g>
									<rect x="163.6" y="311.1" class="st6" width="4.6" height="35.3"/>
								</g>
								<g>
									<rect x="171.1" y="311.1" class="st6" width="4.6" height="35.3"/>
								</g>
								<g>
									<g>
										<path class="st5" d="M206.2,318.2h-26.6v-6.8h26.6V318.2z M180.3,317.6h25.2v-5.4h-25.2V317.6z"/>
									</g>
									<g>
										<path class="st5" d="M206.2,327.5h-26.6v-6.8h26.6V327.5z M180.3,326.8h25.2v-5.4h-25.2V326.8z"/>
									</g>
									<g>
										<path class="st5" d="M206.2,336.8h-26.6V330h26.6V336.8z M180.3,336.1h25.2v-5.4h-25.2V336.1z"/>
									</g>
									<g>
										<path class="st5" d="M206.2,346.1h-26.6v-6.8h26.6V346.1z M180.3,345.4h25.2V340h-25.2V345.4z"/>
									</g>
								</g>
								<g>
									<g>
										<rect x="225.3" y="311.8" class="st8" width="29.3" height="34"/>
									</g>
									<g>
										<g>
											<g>
												<path class="st5" d="M249.4,321.1h-18.8c-1.5,0-2.7-1.2-2.7-2.7l0,0c0-1.5,1.2-2.7,2.7-2.7h18.8c1.5,0,2.7,1.2,2.7,2.7
													l0,0C252.2,319.9,250.9,321.1,249.4,321.1z"/>
											</g>
											<g>
												<path class="st8" d="M249.5,318.9h-18.9c-0.3,0-0.6-0.2-0.6-0.6c0-0.3,0.2-0.6,0.6-0.6h18.9c0.3,0,0.6,0.2,0.6,0.6
													C250,318.6,249.8,318.9,249.5,318.9z"/>
											</g>
										</g>
										<g>
											<g>
												<path class="st5" d="M249.4,331.5h-18.8c-1.5,0-2.7-1.2-2.7-2.7l0,0c0-1.5,1.2-2.7,2.7-2.7h18.8c1.5,0,2.7,1.2,2.7,2.7
													l0,0C252.2,330.3,250.9,331.5,249.4,331.5z"/>
											</g>
											<g>
												<path class="st8" d="M249.5,329.3h-18.9c-0.3,0-0.6-0.2-0.6-0.6c0-0.3,0.2-0.6,0.6-0.6h18.9c0.3,0,0.6,0.2,0.6,0.6
													C250,329.1,249.8,329.3,249.5,329.3z"/>
											</g>
										</g>
										<g>
											<g>
												<path class="st5" d="M249.4,342h-18.8c-1.5,0-2.7-1.2-2.7-2.7l0,0c0-1.5,1.2-2.7,2.7-2.7h18.8c1.5,0,2.7,1.2,2.7,2.7
													l0,0C252.2,340.7,250.9,342,249.4,342z"/>
											</g>
											<g>
												<path class="st8" d="M249.5,339.8h-18.9c-0.3,0-0.6-0.2-0.6-0.6c0-0.3,0.2-0.6,0.6-0.6h18.9c0.3,0,0.6,0.2,0.6,0.6
													C250,339.5,249.8,339.8,249.5,339.8z"/>
											</g>
										</g>
									</g>
								</g>
								<g>
									<g>
										<g>
											<g>
												<path class="st7" d="M212.8,325.9c0,0.7-0.6,1.3-1.3,1.3c-0.7,0-1.3-0.6-1.3-1.3s0.6-1.3,1.3-1.3
													C212.2,324.6,212.8,325.2,212.8,325.9z"/>
											</g>
											<g>
												<path class="st2" d="M217.1,325.9c0,0.7-0.6,1.3-1.3,1.3c-0.7,0-1.3-0.6-1.3-1.3s0.6-1.3,1.3-1.3
													C216.5,324.6,217.1,325.2,217.1,325.9z"/>
											</g>
											<g>
												<path class="st6" d="M221.4,325.9c0,0.7-0.6,1.3-1.3,1.3c-0.7,0-1.3-0.6-1.3-1.3s0.6-1.3,1.3-1.3
													C220.8,324.6,221.4,325.2,221.4,325.9z"/>
											</g>
										</g>
										<g>
											<g>
												<path class="st6" d="M212.8,330c0,0.7-0.6,1.3-1.3,1.3c-0.7,0-1.3-0.6-1.3-1.3s0.6-1.3,1.3-1.3
													C212.2,328.6,212.8,329.2,212.8,330z"/>
											</g>
											<g>
												<path class="st7" d="M217.1,330c0,0.7-0.6,1.3-1.3,1.3c-0.7,0-1.3-0.6-1.3-1.3s0.6-1.3,1.3-1.3
													C216.5,328.6,217.1,329.2,217.1,330z"/>
											</g>
											<g>
												<path class="st2" d="M221.4,330c0,0.7-0.6,1.3-1.3,1.3c-0.7,0-1.3-0.6-1.3-1.3s0.6-1.3,1.3-1.3
													C220.8,328.6,221.4,329.2,221.4,330z"/>
											</g>
										</g>
									</g>
									<g>
										<g>
											<g>
												<g>
													<path class="st7" d="M212.8,312.7c0,0.7-0.6,1.3-1.3,1.3c-0.7,0-1.3-0.6-1.3-1.3c0-0.7,0.6-1.3,1.3-1.3
														C212.2,311.3,212.8,311.9,212.8,312.7z"/>
												</g>
												<g>
													<path class="st2" d="M217.1,312.7c0,0.7-0.6,1.3-1.3,1.3c-0.7,0-1.3-0.6-1.3-1.3c0-0.7,0.6-1.3,1.3-1.3
														C216.5,311.3,217.1,311.9,217.1,312.7z"/>
												</g>
												<g>
													<path class="st6" d="M221.4,312.7c0,0.7-0.6,1.3-1.3,1.3c-0.7,0-1.3-0.6-1.3-1.3c0-0.7,0.6-1.3,1.3-1.3
														C220.8,311.3,221.4,311.9,221.4,312.7z"/>
												</g>
											</g>
											<g>
												<g>
													<path class="st6" d="M212.8,316.7c0,0.7-0.6,1.3-1.3,1.3c-0.7,0-1.3-0.6-1.3-1.3c0-0.7,0.6-1.3,1.3-1.3
														C212.2,315.4,212.8,316,212.8,316.7z"/>
												</g>
												<g>
													<path class="st6" d="M217.1,316.7c0,0.7-0.6,1.3-1.3,1.3c-0.7,0-1.3-0.6-1.3-1.3c0-0.7,0.6-1.3,1.3-1.3
														C216.5,315.4,217.1,316,217.1,316.7z"/>
												</g>
												<g>
													<path class="st7" d="M221.4,316.7c0,0.7-0.6,1.3-1.3,1.3c-0.7,0-1.3-0.6-1.3-1.3c0-0.7,0.6-1.3,1.3-1.3
														C220.8,315.4,221.4,316,221.4,316.7z"/>
												</g>
											</g>
										</g>
										<g>
											<g>
												<g>
													<path class="st6" d="M212.8,339.2c0,0.7-0.6,1.3-1.3,1.3c-0.7,0-1.3-0.6-1.3-1.3c0-0.7,0.6-1.3,1.3-1.3
														C212.2,337.9,212.8,338.5,212.8,339.2z"/>
												</g>
												<g>
													<path class="st7" d="M217.1,339.2c0,0.7-0.6,1.3-1.3,1.3c-0.7,0-1.3-0.6-1.3-1.3c0-0.7,0.6-1.3,1.3-1.3
														C216.5,337.9,217.1,338.5,217.1,339.2z"/>
												</g>
												<g>
													<path class="st6" d="M221.4,339.2c0,0.7-0.6,1.3-1.3,1.3c-0.7,0-1.3-0.6-1.3-1.3c0-0.7,0.6-1.3,1.3-1.3
														C220.8,337.9,221.4,338.5,221.4,339.2z"/>
												</g>
											</g>
											<g>
												<g>
													<path class="st7" d="M212.8,343.2c0,0.7-0.6,1.3-1.3,1.3c-0.7,0-1.3-0.6-1.3-1.3c0-0.7,0.6-1.3,1.3-1.3
														C212.2,341.9,212.8,342.5,212.8,343.2z"/>
												</g>
												<g>
													<path class="st2" d="M217.1,343.2c0,0.7-0.6,1.3-1.3,1.3c-0.7,0-1.3-0.6-1.3-1.3c0-0.7,0.6-1.3,1.3-1.3
														C216.5,341.9,217.1,342.5,217.1,343.2z"/>
												</g>
												<g>
													<path class="st6" d="M221.4,343.2c0,0.7-0.6,1.3-1.3,1.3c-0.7,0-1.3-0.6-1.3-1.3c0-0.7,0.6-1.3,1.3-1.3
														C220.8,341.9,221.4,342.5,221.4,343.2z"/>
												</g>
											</g>
										</g>
									</g>
								</g>
							</g>
						</g>
						<g>
							<g>
								<rect x="156.6" y="361" class="st4" width="105.1" height="43.7"/>
							</g>
							<g>
								<g>
									<rect x="163.6" y="365.2" class="st6" width="4.6" height="35.3"/>
								</g>
								<g>
									<rect x="171.1" y="365.2" class="st6" width="4.6" height="35.3"/>
								</g>
								<g>
									<g>
										<path class="st5" d="M206.2,372.3h-26.6v-6.8h26.6V372.3z M180.3,371.6h25.2v-5.4h-25.2V371.6z"/>
									</g>
									<g>
										<path class="st5" d="M206.2,381.6h-26.6v-6.8h26.6V381.6z M180.3,380.9h25.2v-5.4h-25.2V380.9z"/>
									</g>
									<g>
										<path class="st5" d="M206.2,390.9h-26.6v-6.8h26.6V390.9z M180.3,390.2h25.2v-5.4h-25.2V390.2z"/>
									</g>
									<g>
										<path class="st5" d="M206.2,400.2h-26.6v-6.8h26.6V400.2z M180.3,399.5h25.2v-5.4h-25.2V399.5z"/>
									</g>
								</g>
								<g>
									<g>
										<rect x="225.3" y="365.8" class="st8" width="29.3" height="34"/>
									</g>
									<g>
										<g>
											<g>
												<path class="st5" d="M249.4,375.1h-18.8c-1.5,0-2.7-1.2-2.7-2.7l0,0c0-1.5,1.2-2.7,2.7-2.7h18.8c1.5,0,2.7,1.2,2.7,2.7
													l0,0C252.2,373.9,250.9,375.1,249.4,375.1z"/>
											</g>
											<g>
												<path class="st8" d="M249.5,372.9h-18.9c-0.3,0-0.6-0.2-0.6-0.6c0-0.3,0.2-0.6,0.6-0.6h18.9c0.3,0,0.6,0.2,0.6,0.6
													C250,372.7,249.8,372.9,249.5,372.9z"/>
											</g>
										</g>
										<g>
											<g>
												<path class="st5" d="M249.4,385.6h-18.8c-1.5,0-2.7-1.2-2.7-2.7l0,0c0-1.5,1.2-2.7,2.7-2.7h18.8c1.5,0,2.7,1.2,2.7,2.7
													l0,0C252.2,384.4,250.9,385.6,249.4,385.6z"/>
											</g>
											<g>
												<path class="st8" d="M249.5,383.4h-18.9c-0.3,0-0.6-0.2-0.6-0.6c0-0.3,0.2-0.6,0.6-0.6h18.9c0.3,0,0.6,0.2,0.6,0.6
													C250,383.1,249.8,383.4,249.5,383.4z"/>
											</g>
										</g>
										<g>
											<g>
												<path class="st5" d="M249.4,396h-18.8c-1.5,0-2.7-1.2-2.7-2.7l0,0c0-1.5,1.2-2.7,2.7-2.7h18.8c1.5,0,2.7,1.2,2.7,2.7
													l0,0C252.2,394.8,250.9,396,249.4,396z"/>
											</g>
											<g>
												<path class="st8" d="M249.5,393.8h-18.9c-0.3,0-0.6-0.2-0.6-0.6c0-0.3,0.2-0.6,0.6-0.6h18.9c0.3,0,0.6,0.2,0.6,0.6
													C250,393.6,249.8,393.8,249.5,393.8z"/>
											</g>
										</g>
									</g>
								</g>
								<g>
									<g>
										<g>
											<g>
												<path class="st7" d="M212.8,380c0,0.7-0.6,1.3-1.3,1.3c-0.7,0-1.3-0.6-1.3-1.3s0.6-1.3,1.3-1.3
													C212.2,378.7,212.8,379.3,212.8,380z"/>
											</g>
											<g>
												<path class="st2" d="M217.1,380c0,0.7-0.6,1.3-1.3,1.3c-0.7,0-1.3-0.6-1.3-1.3s0.6-1.3,1.3-1.3
													C216.5,378.7,217.1,379.3,217.1,380z"/>
											</g>
											<g>
												<path class="st6" d="M221.4,380c0,0.7-0.6,1.3-1.3,1.3c-0.7,0-1.3-0.6-1.3-1.3s0.6-1.3,1.3-1.3
													C220.8,378.7,221.4,379.3,221.4,380z"/>
											</g>
										</g>
										<g>
											<g>
												<path class="st6" d="M212.8,384c0,0.7-0.6,1.3-1.3,1.3c-0.7,0-1.3-0.6-1.3-1.3s0.6-1.3,1.3-1.3
													C212.2,382.7,212.8,383.3,212.8,384z"/>
											</g>
											<g>
												<path class="st7" d="M217.1,384c0,0.7-0.6,1.3-1.3,1.3c-0.7,0-1.3-0.6-1.3-1.3s0.6-1.3,1.3-1.3
													C216.5,382.7,217.1,383.3,217.1,384z"/>
											</g>
											<g>
												<path class="st2" d="M221.4,384c0,0.7-0.6,1.3-1.3,1.3c-0.7,0-1.3-0.6-1.3-1.3s0.6-1.3,1.3-1.3
													C220.8,382.7,221.4,383.3,221.4,384z"/>
											</g>
										</g>
									</g>
									<g>
										<g>
											<g>
												<g>
													<path class="st7" d="M212.8,366.7c0,0.7-0.6,1.3-1.3,1.3c-0.7,0-1.3-0.6-1.3-1.3c0-0.7,0.6-1.3,1.3-1.3
														C212.2,365.4,212.8,366,212.8,366.7z"/>
												</g>
												<g>
													<path class="st2" d="M217.1,366.7c0,0.7-0.6,1.3-1.3,1.3c-0.7,0-1.3-0.6-1.3-1.3c0-0.7,0.6-1.3,1.3-1.3
														C216.5,365.4,217.1,366,217.1,366.7z"/>
												</g>
												<g>
													<path class="st6" d="M221.4,366.7c0,0.7-0.6,1.3-1.3,1.3c-0.7,0-1.3-0.6-1.3-1.3c0-0.7,0.6-1.3,1.3-1.3
														C220.8,365.4,221.4,366,221.4,366.7z"/>
												</g>
											</g>
											<g>
												<g>
													<path class="st6" d="M212.8,370.7c0,0.7-0.6,1.3-1.3,1.3c-0.7,0-1.3-0.6-1.3-1.3c0-0.7,0.6-1.3,1.3-1.3
														C212.2,369.4,212.8,370,212.8,370.7z"/>
												</g>
												<g>
													<path class="st6" d="M217.1,370.7c0,0.7-0.6,1.3-1.3,1.3c-0.7,0-1.3-0.6-1.3-1.3c0-0.7,0.6-1.3,1.3-1.3
														C216.5,369.4,217.1,370,217.1,370.7z"/>
												</g>
												<g>
													<path class="st7" d="M221.4,370.7c0,0.7-0.6,1.3-1.3,1.3c-0.7,0-1.3-0.6-1.3-1.3c0-0.7,0.6-1.3,1.3-1.3
														C220.8,369.4,221.4,370,221.4,370.7z"/>
												</g>
											</g>
										</g>
										<g>
											<g>
												<g>
													<path class="st6" d="M212.8,393.3c0,0.7-0.6,1.3-1.3,1.3c-0.7,0-1.3-0.6-1.3-1.3c0-0.7,0.6-1.3,1.3-1.3
														C212.2,391.9,212.8,392.5,212.8,393.3z"/>
												</g>
												<g>
													<path class="st7" d="M217.1,393.3c0,0.7-0.6,1.3-1.3,1.3c-0.7,0-1.3-0.6-1.3-1.3c0-0.7,0.6-1.3,1.3-1.3
														C216.5,391.9,217.1,392.5,217.1,393.3z"/>
												</g>
												<g>
													<path class="st6" d="M221.4,393.3c0,0.7-0.6,1.3-1.3,1.3c-0.7,0-1.3-0.6-1.3-1.3c0-0.7,0.6-1.3,1.3-1.3
														C220.8,391.9,221.4,392.5,221.4,393.3z"/>
												</g>
											</g>
											<g>
												<g>
													<path class="st7" d="M212.8,397.3c0,0.7-0.6,1.3-1.3,1.3c-0.7,0-1.3-0.6-1.3-1.3c0-0.7,0.6-1.3,1.3-1.3
														C212.2,396,212.8,396.6,212.8,397.3z"/>
												</g>
												<g>
													<path class="st2" d="M217.1,397.3c0,0.7-0.6,1.3-1.3,1.3c-0.7,0-1.3-0.6-1.3-1.3c0-0.7,0.6-1.3,1.3-1.3
														C216.5,396,217.1,396.6,217.1,397.3z"/>
												</g>
												<g>
													<path class="st6" d="M221.4,397.3c0,0.7-0.6,1.3-1.3,1.3c-0.7,0-1.3-0.6-1.3-1.3c0-0.7,0.6-1.3,1.3-1.3
														C220.8,396,221.4,396.6,221.4,397.3z"/>
												</g>
											</g>
										</g>
									</g>
								</g>
							</g>
						</g>
					</g>
				</g>
				<g>
					<g>
						<g>
							<path class="st5" d="M47.6,417.1c-1,0.3-2.1,0.3-3.2,0.3c-5.7,0-11.3,0.1-17,0.1c-0.5,0-1,0-1.3-0.4c-0.7-0.7,0.2-1.8,1-2.2
								c4.1-2.4,9.2-2.7,13.1-5.3c1.7-1.1,3.1-2.7,4.9-3.5c2.5-1,5.5-0.3,7.4,1.6c0.8,0.7,1.9,1.9,1.2,2.9c-0.4,0.6-0.8,0.9-1.2,1.5
								c-0.3,0.7-0.7,1.3-1.1,2C50.5,415.5,49.2,416.7,47.6,417.1z"/>
						</g>
						<g>
							<path class="st9" d="M77.3,238.2c-7.8,15.6-15.6,31.2-23.1,47c-3.8,7.9-7.5,16-9.1,24.7c-1,5.6-1.1,11.3-1.2,17
								c-0.4,26.6-0.8,53.3-1.3,79.9c3-0.6,6.4-0.5,9.4-0.4c5.7-16.7,10.6-34.8,13.1-52.3c1.7-11.8,2.4-24.4-2.8-35.1
								c2.4-1.1,3.2-4.6,1.6-6.7c7.9-9.6,15.7-20,21.4-31.1c5.6-11.1,8.8-23.9,6.6-36.1c-0.7-4-3-8.7-7.1-8.8
								C82.4,236.3,78.4,236.1,77.3,238.2z"/>
						</g>
						<g>
							<path class="st2" d="M114.7,228.8c5.6,20.9-1.1,42.8-7.8,63.4c-13.6,41.9-27.4,84.4-51.1,121.6c-3.6-2.1-8.8-4.4-12.4-6.5
								c19.4-53.7,39.7-110.6,38.7-167.7C90.6,232.1,103.5,229.3,114.7,228.8z"/>
						</g>
					</g>
					<g>
						<g>
							<path class="st10" d="M78.2,231.9l-28.5-3.1c0,0-11.2,5.8-16-3.6l43.2-2.1L78.2,231.9z"/>
						</g>
						<g>
							<g>
								<path class="st5" d="M94.9,112.6c12.3-5.2,28.6,6.3,27.2,19.8c-0.7,6.6-5.9,14.4-1.2,20.5c2.6,3.1,7.1,3.7,10.4,6.1
									c10.6,8.6,0.6,24.6-11.9,22c-17-4-16.8-19.3-14.7-33.4C101.5,136.3,78.2,123.6,94.9,112.6z"/>
							</g>
							<g>
								<path class="st6" d="M94.1,119.6c9.4,2.7,13.5,15.2,7,22.8c-4.3-6.3-8.5-12.6-12.8-18.9C85.1,119.9,91.5,118.3,94.1,119.6z"
									/>
							</g>
							<g>
								<path class="st5" d="M72.3,141.5c-8-0.1-13.9-11.2-6.1-15.8c8.5-0.9,20.6-10,27.3-1.3c10.1,0,10.2,12.3,7.2,19.4
									c-0.9,3.1-2.2,6.6-5.3,7.5C88.6,152.8,82.8,141.7,72.3,141.5z"/>
							</g>
							<g>
								<g>
									<g>
										<path class="st10" d="M71.2,143.7c5,17.5,24.6,14.3,22.5-4.4C91.3,121.4,67.1,125.7,71.2,143.7z"/>
									</g>
									<g>
										<path class="st10" d="M92.9,141.7c-2.2,7.7,4.7,5.7,6.3,0.9c0.3-2.4-0.8-4.6-2.5-4.9S93.2,139.2,92.9,141.7z"/>
									</g>
									<g>
										<path class="st11" d="M93.5,141.9c-1.4,4.5,2.9,3.6,3.8,0.5C97.9,139,94,138.4,93.5,141.9z"/>
									</g>
								</g>
								<g>
									<path class="st10" d="M93.2,146.6l2.7,13.4c-10.9,9.4-8.3-0.7-9.5-8.9L93.2,146.6z"/>
								</g>
								<g>
									<path class="st11" d="M86.7,154.9c0,0,5.5-2.7,6.2-7.7c0,0,1.2,5.7-5.9,11.6L86.7,154.9z"/>
								</g>
							</g>
						</g>
						<g>
							<path class="st6" d="M92.6,159.2c-8.8,1.4-14.3,10.1-18.4,18c-2.4,4.6-4.8,9.4-5.5,14.6c-0.7,4.9,0.2,9.8,1,14.6
								c2,11.4,0.6,25.3,2.6,36.6c14,1.3,33.4-0.3,45.3-7.7c2-14.8,2.7-34.9,0.3-49.6c-1.1-6.5-3-13-6.9-18.2
								C107,162.3,99,158.2,92.6,159.2z"/>
						</g>
						<g>
							<path class="st10" d="M79,217c12.5-2.1,25-4.4,37.5-6.7c2.6-0.5,5.7-1.4,6.4-3.9c0.6-2.2-0.8-4.3-2.2-6.1
								c-7-9.1-14-18.2-21.1-27.3c3.7-2.9,9.3-5.6,13.9-6.3c8.7,10.3,15.9,22.5,19.8,35.4c1.2,3.8,2.3,8.6-0.3,11.5
								c-8.9,9.9-46.8,9.5-54.4,7.4C79,218.8,79.8,219,79,217z"/>
						</g>
						<g>
							<path class="st6" d="M103.2,161.3c0,0,14.1,3.9,22.2,15.9c0,0-3.8,6.8-17.3,11.5l-7.7-7.4
								C100.3,181.2,89.6,171.2,103.2,161.3z"/>
						</g>
						<g>
							<path class="st12" d="M99.2,170.9c0,0,2.9,11.5,7.5,17.7c0,0,1.9,0,4.3-1.1l8.2,10.7l0.2,9.6
								C119.4,207.8,99.3,191.6,99.2,170.9z"/>
						</g>
						<g>
							<g>
								<polygon class="st13" points="30.7,225.2 84.4,225.2 75.3,182.1 21.5,182.1 								"/>
							</g>
							<g>
								<polygon class="st5" points="28.1,225.2 81.8,225.2 72.6,182.1 18.9,182.1 								"/>
							</g>
							<g>
								<path class="st5" d="M28.1,225.2h72.2c0.3-2.5-1.5-4.8-4-4.7c0,0-68.2,0-68.2,0V225.2z"/>
							</g>
							<g>
								<path class="st13" d="M46.7,204.1c0.5,2.8,3.5,2.2,2.9-0.6C49.1,200.7,46.1,201.2,46.7,204.1z"/>
							</g>
						</g>
					</g>
				</g>
				<g>
					<g>
						<g>
							<path class="st8" d="M401.9,318.7H289V187.1c0-3.7,3-6.8,6.8-6.8h99.4c3.7,0,6.8,3,6.8,6.8V318.7z"/>
						</g>
						<g>
							<path class="st3" d="M401.9,196.1H289v-9c0-3.7,3-6.8,6.8-6.8h99.4c3.7,0,6.8,3,6.8,6.8V196.1z"/>
						</g>
						<g>
							<circle class="st4" cx="302.4" cy="188.8" r="2.8"/>
						</g>
						<g>
							<path class="st2" d="M313.5,188.8c0,1.6-1.3,2.8-2.8,2.8s-2.8-1.3-2.8-2.8c0-1.6,1.3-2.8,2.8-2.8S313.5,187.2,313.5,188.8z"
								/>
						</g>
						<g>
							<circle class="st6" cx="318.9" cy="188.8" r="2.8"/>
						</g>
					</g>
					<g>
						<g>
							<rect x="298.7" y="205.2" class="st4" width="93.5" height="57"/>
						</g>
						<g>
							<path class="st7" d="M298.7,262.2c0,0,32.5-32.4,52.5-19.4c20,13,15.5-24.8,41-19.3v38.7H298.7z"/>
						</g>
						<g>
							<circle class="st6" cx="318.8" cy="224.6" r="9"/>
						</g>
					</g>
					<g>
						<g>
							<path class="st4" d="M367.4,270.2h-43.8c-0.6,0-1-0.5-1-1c0-0.6,0.5-1,1-1h43.8c0.6,0,1,0.5,1,1
								C368.4,269.7,367.9,270.2,367.4,270.2z"/>
						</g>
						<g>
							<g>
								<path class="st4" d="M392.2,279.2h-93.5c-0.6,0-1-0.5-1-1c0-0.6,0.5-1,1-1h93.5c0.6,0,1,0.5,1,1
									C393.2,278.8,392.8,279.2,392.2,279.2z"/>
							</g>
							<g>
								<path class="st4" d="M392.2,286.4h-93.5c-0.6,0-1-0.5-1-1c0-0.6,0.5-1,1-1h93.5c0.6,0,1,0.5,1,1
									C393.2,285.9,392.8,286.4,392.2,286.4z"/>
							</g>
							<g>
								<path class="st4" d="M392.2,293.6h-93.5c-0.6,0-1-0.5-1-1c0-0.6,0.5-1,1-1h93.5c0.6,0,1,0.5,1,1
									C393.2,293.1,392.8,293.6,392.2,293.6z"/>
							</g>
							<g>
								<path class="st4" d="M392.2,300.7h-93.5c-0.6,0-1-0.5-1-1c0-0.6,0.5-1,1-1h93.5c0.6,0,1,0.5,1,1
									C393.2,300.3,392.8,300.7,392.2,300.7z"/>
							</g>
							<g>
								<path class="st4" d="M392.2,307.9h-93.5c-0.6,0-1-0.5-1-1c0-0.6,0.5-1,1-1h93.5c0.6,0,1,0.5,1,1
									C393.2,307.4,392.8,307.9,392.2,307.9z"/>
							</g>
						</g>
					</g>
				</g>
				<g>
					<path class="st6" d="M110.4,63.8h-6.2c-0.5-1.8-1.1-3.5-2-5.1l4.3-4.3c1.2-1.2,1.2-3.1,0-4.3l-4.7-4.7c-1.2-1.2-3.1-1.2-4.3,0
						l-4.1,4.1c-1.6-1-3.4-1.7-5.3-2.3v-5.7c0-1.7-1.4-3-3-3h-6.7c-1.7,0-3,1.4-3,3v5.7c-1.9,0.5-3.7,1.3-5.4,2.3l-4-4
						c-1.2-1.2-3.1-1.2-4.3,0L57,50.1c-1.2,1.2-1.2,3.1,0,4.3l4.2,4.2c-0.9,1.6-1.6,3.4-2,5.2h-6c-1.7,0-3,1.4-3,3v6.7
						c0,1.7,1.4,3,3,3h6.4c0.5,1.7,1.2,3.3,2.1,4.8L57,85.9c-1.2,1.2-1.2,3.1,0,4.3l4.7,4.7c1.2,1.2,3.1,1.2,4.3,0l4.8-4.8
						c1.4,0.8,3,1.4,4.6,1.8v6.9c0,1.7,1.4,3,3,3h6.7c1.7,0,3-1.4,3-3v-6.9c1.6-0.5,3.1-1.1,4.5-1.8l4.9,4.9c1.2,1.2,3.1,1.2,4.3,0
						l4.7-4.7c1.2-1.2,1.2-3.1,0-4.3l-4.7-4.7c0.8-1.5,1.5-3,2.1-4.7h6.5c1.7,0,3-1.4,3-3v-6.7C113.5,65.1,112.1,63.8,110.4,63.8z
						 M81.8,84.9c-8.1,0-14.7-6.6-14.7-14.7c0-8.1,6.6-14.7,14.7-14.7S96.5,62,96.5,70.2C96.5,78.3,89.9,84.9,81.8,84.9z"/>
				</g>
				<g>
					<path class="st4" d="M338.6,69.1h-4.7c-0.3-1.4-0.9-2.7-1.5-3.9l3.3-3.3c0.9-0.9,0.9-2.4,0-3.3l-3.6-3.6
						c-0.9-0.9-2.4-0.9-3.3,0l-3.1,3.1c-1.2-0.7-2.6-1.3-4-1.7v-4.3c0-1.3-1-2.3-2.3-2.3h-5.1c-1.3,0-2.3,1-2.3,2.3v4.3
						c-1.4,0.4-2.8,1-4.1,1.7l-3.1-3.1c-0.9-0.9-2.4-0.9-3.3,0l-3.6,3.6c-0.9,0.9-0.9,2.4,0,3.3l3.2,3.2c-0.7,1.2-1.2,2.6-1.5,4H295
						c-1.3,0-2.3,1-2.3,2.3v5.1c0,1.3,1,2.3,2.3,2.3h4.8c0.4,1.3,0.9,2.5,1.6,3.6l-3.5,3.5c-0.9,0.9-0.9,2.4,0,3.3l3.6,3.6
						c0.9,0.9,2.4,0.9,3.3,0l3.7-3.7c1.1,0.6,2.3,1,3.5,1.4v5.2c0,1.3,1,2.3,2.3,2.3h5.1c1.3,0,2.3-1,2.3-2.3v-5.3
						c1.2-0.3,2.3-0.8,3.4-1.4l3.7,3.7c0.9,0.9,2.4,0.9,3.3,0l3.6-3.6c0.9-0.9,0.9-2.4,0-3.3l-3.6-3.6c0.6-1.1,1.2-2.3,1.6-3.5h5
						c1.3,0,2.3-1,2.3-2.3v-5.1C340.9,70.2,339.8,69.1,338.6,69.1z M316.8,85.1c-6.2,0-11.2-5-11.2-11.2c0-6.2,5-11.2,11.2-11.2
						S328,67.8,328,74C328,80.1,323,85.1,316.8,85.1z"/>
				</g>
				<g>
					<path class="st6" d="M369.7,140.5h-4.3c-0.3-1.2-0.8-2.4-1.4-3.5l3-3c0.8-0.8,0.8-2.2,0-3l-3.3-3.3c-0.8-0.8-2.2-0.8-3,0
						l-2.8,2.8c-1.1-0.7-2.4-1.2-3.7-1.6v-4c0-1.2-0.9-2.1-2.1-2.1h-4.6c-1.2,0-2.1,0.9-2.1,2.1v3.9c-1.3,0.4-2.6,0.9-3.7,1.6
						l-2.8-2.8c-0.8-0.8-2.2-0.8-3,0l-3.3,3.3c-0.8,0.8-0.8,2.2,0,3l2.9,2.9c-0.6,1.1-1.1,2.3-1.4,3.6h-4.2c-1.2,0-2.1,0.9-2.1,2.1
						v4.6c0,1.2,0.9,2.1,2.1,2.1h4.4c0.4,1.2,0.9,2.3,1.5,3.3l-3.2,3.2c-0.8,0.8-0.8,2.2,0,3l3.3,3.3c0.8,0.8,2.2,0.8,3,0l3.3-3.3
						c1,0.5,2.1,1,3.2,1.3v4.8c0,1.2,0.9,2.1,2.1,2.1h4.6c1.2,0,2.1-0.9,2.1-2.1V160c1.1-0.3,2.1-0.7,3.1-1.3l3.4,3.4
						c0.8,0.8,2.2,0.8,3,0l3.3-3.3c0.8-0.8,0.8-2.2,0-3l-3.3-3.3c0.6-1,1.1-2.1,1.4-3.2h4.5c1.2,0,2.1-0.9,2.1-2.1v-4.6
						C371.9,141.4,370.9,140.5,369.7,140.5z M349.8,155.1c-5.6,0-10.2-4.6-10.2-10.2c0-5.6,4.6-10.2,10.2-10.2
						c5.6,0,10.2,4.6,10.2,10.2C360.1,150.5,355.5,155.1,349.8,155.1z"/>
				</g>
				<g>
					<path class="st6" d="M53.3,255.3h-3.5c-0.3-1-0.6-2-1.1-2.9l2.4-2.4c0.7-0.7,0.7-1.8,0-2.5l-2.7-2.7c-0.7-0.7-1.8-0.7-2.5,0
						l-2.3,2.3c-0.9-0.6-1.9-1-3-1.3v-3.2c0-1-0.8-1.7-1.7-1.7h-3.8c-1,0-1.7,0.8-1.7,1.7v3.2c-1.1,0.3-2.1,0.7-3,1.3l-2.3-2.3
						c-0.7-0.7-1.8-0.7-2.5,0l-2.7,2.7c-0.7,0.7-0.7,1.8,0,2.5l2.4,2.4c-0.5,0.9-0.9,1.9-1.2,3h-3.4c-1,0-1.7,0.8-1.7,1.7v3.8
						c0,1,0.8,1.7,1.7,1.7h3.6c0.3,1,0.7,1.9,1.2,2.7l-2.6,2.6c-0.7,0.7-0.7,1.8,0,2.5l2.7,2.7c0.7,0.7,1.8,0.7,2.5,0l2.7-2.7
						c0.8,0.4,1.7,0.8,2.6,1v3.9c0,1,0.8,1.7,1.7,1.7h3.8c1,0,1.7-0.8,1.7-1.7v-3.9c0.9-0.3,1.8-0.6,2.6-1L46,273
						c0.7,0.7,1.8,0.7,2.5,0l2.7-2.7c0.7-0.7,0.7-1.8,0-2.5l-2.7-2.7c0.5-0.8,0.9-1.7,1.2-2.7h3.7c1,0,1.7-0.8,1.7-1.7V257
						C55.1,256,54.3,255.3,53.3,255.3z M37,267.3c-4.6,0-8.4-3.8-8.4-8.4c0-4.6,3.8-8.4,8.4-8.4s8.4,3.8,8.4,8.4
						C45.4,263.5,41.6,267.3,37,267.3z"/>
				</g>
				<g>
					<path class="st5" d="M408.9,419.1H2.9c-0.6,0-1.1-0.5-1.1-1.1c0-0.6,0.5-1.1,1.1-1.1h406c0.6,0,1.1,0.5,1.1,1.1
						C410,418.6,409.5,419.1,408.9,419.1z"/>
				</g>
				<g>
					<g>
						<path class="st6" d="M132.1,394.6c-1,0-2-0.4-2.7-1.1l-21.3-21.3c-1.5-1.5-1.5-3.9,0-5.4c1.5-1.5,3.9-1.5,5.4,0l21.3,21.3
							c1.5,1.5,1.5,3.9,0,5.4C134.1,394.2,133.1,394.6,132.1,394.6z"/>
					</g>
					<g>
						<path class="st6" d="M110.8,394.6c-1,0-2-0.4-2.7-1.1c-1.5-1.5-1.5-3.9,0-5.4l21.3-21.3c1.5-1.5,3.9-1.5,5.4,0
							c1.5,1.5,1.5,3.9,0,5.4l-21.3,21.3C112.8,394.2,111.8,394.6,110.8,394.6z"/>
					</g>
				</g>
				<g>
					<g>
						<path class="st6" d="M390.4,77.3c-1,0-2-0.4-2.7-1.1l-21.3-21.3c-1.5-1.5-1.5-3.9,0-5.4c1.5-1.5,3.9-1.5,5.4,0l21.3,21.3
							c1.5,1.5,1.5,3.9,0,5.4C392.4,76.9,391.4,77.3,390.4,77.3z"/>
					</g>
					<g>
						<path class="st6" d="M369.2,77.3c-1,0-2-0.4-2.7-1.1c-1.5-1.5-1.5-3.9,0-5.4l21.3-21.3c1.5-1.5,3.9-1.5,5.4,0
							c1.5,1.5,1.5,3.9,0,5.4l-21.3,21.3C371.1,76.9,370.2,77.3,369.2,77.3z"/>
					</g>
				</g>
				<g>
					<g>
						<path class="st6" d="M402.6,343.4c-0.7,0-1.4-0.3-1.9-0.8L386.1,328c-1-1-1-2.7,0-3.7c1-1,2.7-1,3.7,0l14.7,14.7
							c1,1,1,2.7,0,3.7C404,343.1,403.3,343.4,402.6,343.4z"/>
					</g>
					<g>
						<path class="st6" d="M387.9,343.4c-0.7,0-1.4-0.3-1.9-0.8c-1-1-1-2.7,0-3.7l14.7-14.7c1-1,2.7-1,3.7,0c1,1,1,2.7,0,3.7
							l-14.7,14.7C389.3,343.1,388.6,343.4,387.9,343.4z"/>
					</g>
				</g>
				<g>
					<g>
						<path class="st6" d="M143.6,76.1c-0.7,0-1.4-0.3-1.9-0.8L127,60.6c-1-1-1-2.7,0-3.7c1-1,2.7-1,3.7,0l14.7,14.7
							c1,1,1,2.7,0,3.7C144.9,75.8,144.2,76.1,143.6,76.1z"/>
					</g>
					<g>
						<path class="st6" d="M128.9,76.1c-0.7,0-1.4-0.3-1.9-0.8c-1-1-1-2.7,0-3.7l14.7-14.7c1-1,2.7-1,3.7,0c1,1,1,2.7,0,3.7
							l-14.7,14.7C130.2,75.8,129.6,76.1,128.9,76.1z"/>
					</g>
				</g>
			</g>
		</g>
	</g>
</g>
</svg>
