<?xml version="1.0" encoding="utf-8"?>
<!-- Generator: Adobe Illustrator 25.2.0, SVG Export Plug-In . SVG Version: 6.00 Build 0)  -->
<svg version="1.1" id="Capa_1" xmlns="http://www.w3.org/2000/svg" xmlns:xlink="http://www.w3.org/1999/xlink" x="0px" y="0px"
	 viewBox="0 0 512 512" style="enable-background:new 0 0 512 512;" xml:space="preserve">
<style type="text/css">
	.st0{fill:url(#SVGID_1_);}
	.st1{fill:url(#SVGID_2_);}
	.st2{fill:url(#SVGID_3_);}
	.st3{fill:url(#SVGID_4_);}
	.st4{fill:url(#SVGID_5_);}
	.st5{fill:url(#SVGID_6_);}
</style>
<g>
	<linearGradient id="SVGID_1_" gradientUnits="userSpaceOnUse" x1="-13" y1="203.2504" x2="504.8127" y2="203.2504">
		<stop  offset="0" style="stop-color:#FACC15"/>
		<stop  offset="1" style="stop-color:#F97316"/>
	</linearGradient>
	<path class="st0" d="M336.4,119.7c-1.1-6.8-5.4-12.4-11.7-15.2c-6.3-2.8-13.4-2.2-19.1,1.6c-0.2,0.1-0.3,0.2-0.5,0.3l-67.1,50
		l-70.3,11.1c-8.6,1.4-15.1,8.1-16.6,16.2l-20.9,3.3c-5.3,0.8-9.9,3.7-13.1,8c-3.1,4.3-4.4,9.6-3.6,14.9l3.1,19.8
		c1.6,9.9,10.1,16.9,19.8,16.9c1,0,24.1-3.5,24.1-3.5c3.9,7.7,13.6,12.2,22.5,10l4,25.3c1.2,7.9,5.5,14.9,12,19.6
		c5.2,3.8,11.3,5.8,17.6,5.8c1.6,0,3.2-0.1,4.7-0.4c7.9-1.2,14.9-5.5,19.6-12c4.7-6.5,6.6-14.4,5.4-22.4l-4-25.3l9.3-1.5
		c0,0,79.1,24.2,79.2,24.3c1.8,0.5,3.6,0.7,5.3,0.7c4.9,0,9.6-1.8,13.3-5.1c5.1-4.6,7.5-11.3,6.4-18.1L336.4,119.7z M224.8,279.6
		c-1.6,2.2-3.9,3.6-6.5,4c-2.6,0.4-5.3-0.2-7.5-1.8c-2.2-1.6-3.6-3.9-4-6.5l-4-25.3l19.8-3.1l4,25.3
		C227,274.8,226.3,277.4,224.8,279.6L224.8,279.6z M136.5,226.6l-3.1-19.8l19.8-3.1l3.1,19.8L136.5,226.6z M178.1,233.6l-7.3-46.3
		l62.8-9.9l7.3,46.3L178.1,233.6z M261.4,224.3l-8.5-53.9l63.8-47.5l19.6,124.4L261.4,224.3z"/>
	<linearGradient id="SVGID_2_" gradientUnits="userSpaceOnUse" x1="-13" y1="173.7482" x2="504.8127" y2="173.7482">
		<stop  offset="0" style="stop-color:#FACC15"/>
		<stop  offset="1" style="stop-color:#F97316"/>
	</linearGradient>
	<path class="st1" d="M379.6,184.6l9.9-2c5.4-1.1,8.9-6.4,7.8-11.8c-1.1-5.4-6.4-8.9-11.8-7.8l-9.9,2c-5.4,1.1-8.9,6.4-7.8,11.8
		c1,4.7,5.1,8,9.8,8C378.2,184.8,378.9,184.7,379.6,184.6L379.6,184.6z"/>
	<linearGradient id="SVGID_3_" gradientUnits="userSpaceOnUse" x1="-13" y1="137.2748" x2="504.8127" y2="137.2748">
		<stop  offset="0" style="stop-color:#FACC15"/>
		<stop  offset="1" style="stop-color:#F97316"/>
	</linearGradient>
	<path class="st2" d="M376.2,148.1l7.6-6.7c4.1-3.7,4.5-10,0.9-14.1c-3.7-4.1-10-4.5-14.1-0.9l-7.6,6.7c-4.1,3.7-4.5,10-0.9,14.1
		c2,2.2,4.7,3.4,7.5,3.4C372,150.6,374.3,149.8,376.2,148.1z"/>
	<linearGradient id="SVGID_4_" gradientUnits="userSpaceOnUse" x1="-13" y1="214.9851" x2="504.8127" y2="214.9851">
		<stop  offset="0" style="stop-color:#FACC15"/>
		<stop  offset="1" style="stop-color:#F97316"/>
	</linearGradient>
	<path class="st3" d="M393.8,207.1l-9.6-3.2c-5.2-1.8-10.9,1.1-12.7,6.3c-1.8,5.2,1.1,10.9,6.3,12.7l9.6,3.2
		c1.1,0.4,2.1,0.5,3.2,0.5c4.2,0,8.1-2.7,9.5-6.9C401.9,214.5,399,208.8,393.8,207.1z"/>
	<linearGradient id="SVGID_5_" gradientUnits="userSpaceOnUse" x1="-13" y1="498.708" x2="504.8127" y2="498.708">
		<stop  offset="0" style="stop-color:#FACC15"/>
		<stop  offset="1" style="stop-color:#F97316"/>
	</linearGradient>
	<circle class="st4" cx="256" cy="498.7" r="10"/>
	<linearGradient id="SVGID_6_" gradientUnits="userSpaceOnUse" x1="-13" y1="256.0007" x2="504.8127" y2="256.0007">
		<stop  offset="0" style="stop-color:#FACC15"/>
		<stop  offset="1" style="stop-color:#F97316"/>
	</linearGradient>
	<path class="st5" d="M511.9,224.3c0.5-3.3-0.6-6.8-3.3-9.1l-69-59.8V79.4c0-11-9-20-20-20h-90.7c-0.1-0.1-0.2-0.2-0.2-0.2
		L269.1,7.5c-7.5-6.5-18.8-6.5-26.3,0l-59.7,51.8H92.5c-11,0-20,9-20,20v75.9l-69,59.8c-2.7,2.4-3.8,5.8-3.3,9.1
		c-0.1,0.5-0.1,265-0.1,265c0,11,9,20,20,20h191c5.5,0,10-4.5,10-10s-4.5-10-10-10H39L197.5,353l47.7,30.5c3.3,2.1,7,3.1,10.8,3.1
		c3.8,0,7.5-1,10.8-3.1l49.9-31.9L477,489.3H300.9c-5.5,0-10,4.5-10,10s4.5,10,10,10h191c11,0,20-9,20-20
		C512,489.3,511.9,224.8,511.9,224.3L511.9,224.3z M484.3,220.7l-44.8,28.6v-67.5L484.3,220.7z M256,22.7l42.3,36.7h-84.6L256,22.7z
		 M72.4,181.8v67.5l-44.8-28.6L72.4,181.8z M20,479.1V239.6l159.9,102.1L20,479.1z M256,366.6l-53.6-34.2c-0.3-0.2-0.5-0.4-0.8-0.5
		L92.5,262.1V79.4h327v182.7L256,366.6z M492,475.7L334.3,340.3L492,239.6L492,475.7L492,475.7z"/>
</g>
</svg>
