<?xml version="1.0" encoding="utf-8"?>
<!-- Generator: Adobe Illustrator 25.0.0, SVG Export Plug-In . SVG Version: 6.00 Build 0)  -->
<svg version="1.1" id="background" xmlns="http://www.w3.org/2000/svg" xmlns:xlink="http://www.w3.org/1999/xlink" x="0px" y="0px"
	 viewBox="0 0 600 400" style="enable-background:new 0 0 600 400;" xml:space="preserve">
<style type="text/css">
	.st0{fill:url(#SVGID_1_);}
</style>
<g>
	
		<linearGradient id="SVGID_1_" gradientUnits="userSpaceOnUse" x1="300" y1="396.6403" x2="300" y2="5.6804" gradientTransform="matrix(1 0 0 -1 0 399.8898)">
		<stop  offset="0" style="stop-color:#E0D8BF"/>
		<stop  offset="1" style="stop-color:#E0C998"/>
	</linearGradient>
	<path class="st0" d="M589,0.5h11V0h-11.9L583,8.8l-5.1,8.8h-20.4L547.3,0h-22.2l-7.5,12.9l-2.8,4.8h-20.4L484.3,0h-22.1l-10.2,17.7
		h-20.4L421.3,0h-22.1l-10.2,17.7h-20.4L358.3,0h-22.1l-7.5,12.9l-2.8,4.8h-20.4L295.3,0h-22.1L263,17.7h-20.4L232.4,0h-22.2
		l-5.1,8.8l-5.1,8.8h-20.4L169.4,0h-22.1l-2.8,4.8L137,17.7h-20.4L106.4,0H84.2L74,17.7H53.6L43.4,0H21.2l-5.1,8.8L11,17.7H0v1h11
		l5.1,8.8l5.1,8.8l-5.1,8.8L11,54H0v1h11l5.1,8.8l5.1,8.8l-5.1,8.8L11,90.4H0v1h11l5.1,8.8l5.1,8.8l-5.1,8.8l-5.1,8.8H0v1h11
		l5.1,8.8l5.1,8.8l-5.1,8.9l-5.1,8.8H0v1h11l5.1,8.8l5.1,8.8l-5.1,8.8l-5.1,8.8H0v1h11l5.1,8.8l5.1,8.8l-5.1,8.8l-5.1,8.8H0v1h11
		l5.1,8.8l5.1,8.9l-5.1,8.8l-5.1,8.8H0v1h11l5.1,8.8l5.1,8.8l-5.1,8.8l-5.1,8.8H0v1h11l5.1,8.8l5.1,8.8l-5.1,8.8l-5.1,8.8H0v1h11
		l5.1,8.9l5.1,8.8l-5.1,8.8l-5.1,8.8H0v1h11l5.1,8.8l5.1,8.8h22.2l10.2-17.7H74l6.8,11.8l3.4,5.9h22.2l10.2-17.7H137l7.4,12.9
		l2.8,4.8h22.1l10.2-17.7H200l5.1,8.8l5.1,8.8h22.1l10.2-17.7H263l6.8,11.8l3.4,5.9h22.1l10.2-17.7h20.4l2.8,4.8l7.5,12.9h22.1
		l10.2-17.7h20.4l10.2,17.7h22.1l10.2-17.7h20.4l6.8,11.8l3.4,5.9h22.1l10.2-17.7h20.4l2.8,4.8l7.5,12.9h22.2l10.2-17.7h20.4
		l5.1,8.8l5.1,8.8H600v-0.5h-11l-5.1-8.8l-5.1-8.8l5.1-8.8l5.1-8.8h11v-1h-11l-5.1-8.8l-5.1-8.9l5.1-8.8l5.1-8.8h11v-1h-11l-5.1-8.8
		l-5.1-8.8l5.1-8.8l5.1-8.8h11v-1h-11l-5.1-8.8l-5.1-8.8l5.1-8.8l5.1-8.8h11v-1h-11l-5.1-8.9l-5.1-8.8l5.1-8.8l5.1-8.8h11v-1h-11
		l-5.1-8.8l-5.1-8.8l5.1-8.8l5.1-8.8h11v-1h-11l-5.1-8.8l-5.1-8.8l5.1-8.8l5.1-8.9h11v-1h-11l-5.1-8.8l-5.1-8.8l5.1-8.8l5.1-8.8h11
		v-1h-11l-5.1-8.8l-5.1-8.8l5.1-8.8l5.1-8.8h11v-1h-11l-5.1-8.8l-5.1-8.8l5.1-8.8l5.1-8.8h11v-1h-11l-5.1-8.8l-5.1-8.8l5.1-8.8
		L589,0.5z M526,0.5h20.4l10.2,17.7l-10.2,17.7H526l-10.2-17.7L526,0.5z M400,181.3l-10.2-17.7L400,146h20.4l10.2,17.7l-10.2,17.7
		H400z M430.6,200l-10.2,17.7H400L389.8,200l10.2-17.7h20.4L430.6,200z M399.1,181.8l-10.2,17.7h-20.4l-10.2-17.7l10.2-17.7h20.4
		L399.1,181.8z M367.6,200l-10.2,17.7H337l-6.8-11.8l-3.4-5.9l10.2-17.7h20.4L367.6,200z M357.4,181.3H337l-10.2-17.7L337,146h20.4
		l10.2,17.7L357.4,181.3z M328.7,168.9l7.5,12.9l-7.5,12.9l-2.8,4.8h-20.4l-10.2-17.7l10.2-17.7H326L328.7,168.9z M304.7,200
		l-10.2,17.7h-20.4l-2.8-4.8l-7.5-12.9l7.5-12.9l2.8-4.8h20.4L304.7,200z M294.5,181.3H274l-2.7-4.7l-7.5-12.9l7.5-12.9l2.8-4.8
		h20.4l10.2,17.7L294.5,181.3z M273.2,181.8L263,199.5h-20.4l-10.2-17.7l10.2-17.7H263L273.2,181.8z M241.7,200l-10.2,17.7h-20.4
		l-5.1-8.8l-5.1-8.8l5.1-8.8l5.1-8.8h20.4L241.7,200z M231.5,181.3h-20.4l-5.1-8.8l-5.1-8.8l5.1-8.8l5.1-8.9h20.4l10.2,17.7
		L231.5,181.3z M205.1,173l5.1,8.8l-5.1,8.8l-5.1,8.8h-20.4l-10.2-17.7l10.2-17.7H200L205.1,173z M168.5,181.3h-20.4l-10.2-17.7
		l10.2-17.7h20.4l10.2,17.7L168.5,181.3z M168.5,182.3l10.2,17.7l-10.2,17.7h-20.4L137.9,200l10.2-17.7H168.5z M168.5,218.7
		l10.2,17.7L168.5,254h-20.4l-10.2-17.7l10.2-17.7H168.5z M169.4,218.2l10.2-17.7H200l5.1,8.8l5.1,8.8l-5.1,8.8l-5.1,8.8h-20.4
		L169.4,218.2z M206,227.5l5.1-8.8h20.4l10.2,17.7l-10.2,17.7h-20.4l-5.1-8.9l-5.1-8.8L206,227.5z M232.4,218.2l10.2-17.7H263
		l6.8,11.8l3.4,5.9L263,235.9h-20.4L232.4,218.2z M271.3,223.4l2.8-4.8h20.4l10.2,17.7L294.5,254H274l-2.7-4.7l-7.5-13L271.3,223.4z
		 M295.3,218.2l10.2-17.7h20.4l2.8,4.8l7.5,12.9l-7.5,12.9l-2.8,4.8h-20.4L295.3,218.2z M337,218.7h20.4l10.2,17.7L357.4,254H337
		l-10.2-17.7L337,218.7z M358.3,218.2l10.2-17.7h20.4l10.2,17.7l-10.2,17.7h-20.4L358.3,218.2z M400,218.7h20.4l10.2,17.7L420.4,254
		H400l-10.2-17.7L400,218.7z M421.3,218.2l10.2-17.7h20.4l6.8,11.8l3.4,5.9l-10.2,17.7h-20.4L421.3,218.2z M431.5,199.5l-10.2-17.7
		l10.2-17.7h20.4l10.2,17.7l-10.2,17.7H431.5z M431.5,163.1l-10.2-17.7l10.2-17.7h20.4l6.8,11.8l3.4,5.9l-10.2,17.7L431.5,163.1
		L431.5,163.1z M420.4,144.9H400l-10.2-17.7l10.2-17.7h20.4l10.2,17.7L420.4,144.9z M399.1,145.4l-10.2,17.7h-20.4l-10.2-17.7
		l10.2-17.7h20.4L399.1,145.4z M357.4,144.9H337l-6.8-11.8l-3.4-5.9l10.2-17.7h20.4l10.2,17.7L357.4,144.9z M328.7,132.5l7.5,12.9
		l-7.5,12.9l-2.8,4.8h-20.4l-10.2-17.7l10.2-17.7H326L328.7,132.5z M294.5,144.9H274l-2.8-4.8l-7.5-12.9l7.5-12.9l2.7-4.7h20.4
		l10.2,17.7L294.5,144.9z M269.8,139.6l3.4,5.9L263,163.1h-20.4l-10.2-17.7l10.2-17.7H263L269.8,139.6z M231.5,144.9h-20.4l-5.1-8.8
		l-5.1-8.8l5.1-8.8l5.1-8.8h20.4l10.2,17.7L231.5,144.9z M205.1,136.6l5.1,8.8l-5.1,8.9l-5.1,8.8h-20.4l-10.2-17.7l10.2-17.7H200
		L205.1,136.6z M168.5,144.9h-20.4l-10.2-17.7l10.2-17.7h20.4l10.2,17.7L168.5,144.9z M144.5,140.7l2.8,4.8l-2.8,4.8l-7.4,12.9
		h-20.4l-10.2-17.7l10.2-17.7H137L144.5,140.7z M137,164.1l7.5,12.9l2.7,4.7l-2.8,4.8l-7.4,12.9h-20.4l-10.2-17.7l10.2-17.7
		L137,164.1L137,164.1z M137,200.5l7.4,12.9l2.8,4.8l-2.8,4.8l-7.4,12.9h-20.4l-10.2-17.7l10.2-17.7H137z M137,236.9l7.5,13l2.7,4.7
		l-2.8,4.8l-7.4,12.9h-20.4l-10.2-17.7l10.2-17.7L137,236.9L137,236.9z M148.1,255.1h20.4l10.2,17.7l-10.2,17.7h-20.4l-10.2-17.7
		L148.1,255.1z M169.4,254.6l10.2-17.7H200l5.1,8.8l5.1,8.9l-5.1,8.8l-5.1,8.8h-20.4L169.4,254.6z M206,263.9l5.1-8.8h20.4
		l10.2,17.7l-10.2,17.7h-20.4l-5.1-8.8l-5.1-8.8L206,263.9z M232.4,254.6l10.2-17.7H263l10.2,17.7L263,272.2h-20.4L232.4,254.6z
		 M271.3,259.8l2.8-4.8h20.4l10.2,17.7l-10.2,17.7H274l-2.8-4.8l-7.5-12.9L271.3,259.8z M295.3,254.6l10.2-17.7h20.4l2.7,4.7l7.5,13
		l-7.5,12.9l-2.8,4.8h-20.4L295.3,254.6z M337,255.1h20.4l10.2,17.7l-10.2,17.7H337l-6.8-11.8l-3.4-5.9L337,255.1z M358.3,254.6
		l10.2-17.7h20.4l10.2,17.7l-10.2,17.7h-20.4L358.3,254.6z M400,255.1h20.4l10.2,17.7l-10.2,17.7H400l-10.2-17.7L400,255.1z
		 M421.3,254.6l10.2-17.7h20.4l10.2,17.7l-10.2,17.7h-20.4L421.3,254.6z M460.2,259.8l2.8-4.8h20.4l10.2,17.7l-10.2,17.7H463
		l-2.8-4.8l-7.5-12.9L460.2,259.8z M463,254.1l-2.7-4.7l-7.5-13l7.5-12.9l2.8-4.8h20.4l10.2,17.7L483.4,254L463,254.1L463,254.1z
		 M463,217.7l-2.8-4.8l-7.4-12.9l7.5-12.9l2.8-4.8h20.4l10.2,17.7l-10.2,17.7H463z M463,181.3l-2.7-4.7l-7.5-12.9l7.5-12.9l2.8-4.8
		h20.4l10.2,17.7l-10.2,17.7H463z M463,144.9l-2.8-4.8l-7.5-12.9l7.5-12.9l2.7-4.7h20.4l10.2,17.7L483.4,145L463,144.9L463,144.9z
		 M463,108.6l-2.8-4.8l-7.5-12.9l7.5-12.9l2.7-4.7h20.4l10.2,17.7l-10.2,17.7H463z M458.7,103.2l3.4,5.9l-10.2,17.7h-20.4
		l-10.2-17.7l10.2-17.7h20.4L458.7,103.2z M420.4,108.6H400l-10.2-17.7L400,73.2h20.4l10.2,17.7L420.4,108.6z M399.1,109.1
		l-10.2,17.7h-20.4l-10.2-17.7l10.2-17.7h20.4L399.1,109.1z M357.4,108.6H337l-6.8-11.8l-3.4-5.9L337,73.2h20.4l10.2,17.7
		L357.4,108.6z M328.7,96.2l7.5,12.9l-7.5,12.9l-2.7,4.7h-20.4l-10.2-17.7l10.2-17.7H326L328.7,96.2z M294.5,108.6H274l-2.8-4.8
		l-7.5-12.9l7.5-12.9l2.7-4.7h20.4l10.2,17.7L294.5,108.6z M269.8,103.2l3.4,5.9L263,126.8h-20.4l-10.2-17.7l10.2-17.7H263
		L269.8,103.2z M231.5,108.6h-20.4l-5.1-8.8l-5.1-8.8l5.1-8.8l5.1-8.8h20.4l10.2,17.7L231.5,108.6z M205.1,100.2l5.1,8.8l-5.1,8.8
		l-5.1,8.8h-20.4l-10.2-17.7l10.2-17.7H200L205.1,100.2z M168.5,108.6h-20.4l-10.2-17.7l10.2-17.7h20.4l10.2,17.7L168.5,108.6z
		 M144.5,104.3l2.8,4.8l-2.7,4.7l-7.5,12.9h-20.4l-10.2-17.7l10.2-17.7H137L144.5,104.3z M105.5,108.6H85.1l-2.8-4.8l-7.5-12.9
		L82.4,78l2.7-4.7h20.4l10.2,17.7L105.5,108.6z M105.5,109.6l10.2,17.7l-10.2,17.7H85.1l-2.8-4.8l-7.5-12.9l7.5-12.9l2.7-4.7
		C85.1,109.6,105.5,109.6,105.5,109.6z M105.5,145.9l10.2,17.7l-10.2,17.7H85.1l-2.7-4.7l-7.5-12.9l7.5-12.9l2.8-4.8H105.5z
		 M105.5,182.3l10.2,17.7l-10.2,17.7H85.1l-2.8-4.8L74.9,200l7.5-12.9l2.8-4.8H105.5z M105.5,218.7l10.2,17.7L105.5,254H85.1
		l-2.7-4.7l-7.5-13l7.5-12.9l2.8-4.8L105.5,218.7L105.5,218.7z M105.5,255.1l10.2,17.7l-10.2,17.7H85.1l-2.8-4.8l-7.5-12.9l7.5-12.9
		l2.8-4.8L105.5,255.1L105.5,255.1z M105.5,291.4l10.2,17.7l-10.2,17.7H85.1l-2.8-4.8l-7.5-12.9l7.5-12.9l2.8-4.8L105.5,291.4
		L105.5,291.4z M106.4,290.9l10.2-17.7H137l7.4,12.9l2.8,4.8l-2.8,4.8l-7.4,12.9h-20.4L106.4,290.9z M148.1,291.4h20.4l10.2,17.7
		l-10.2,17.7h-20.4l-10.2-17.7L148.1,291.4z M169.4,290.9l10.2-17.7H200l5.1,8.8l5.1,8.8l-5.1,8.8l-5.1,8.8h-20.4L169.4,290.9z
		 M206,300.2l5.1-8.8h20.4l10.2,17.7l-10.2,17.7h-20.4l-5.1-8.8l-5.1-8.8L206,300.2z M232.4,290.9l10.2-17.7H263l6.8,11.8l3.4,5.9
		L263,308.6h-20.4L232.4,290.9z M271.3,296.2l2.8-4.8h20.4l10.2,17.7l-10.2,17.7H274l-2.8-4.8l-7.5-12.9L271.3,296.2z M295.3,290.9
		l10.2-17.7h20.4l2.8,4.8l7.5,12.9l-7.5,12.9l-2.8,4.8h-20.4L295.3,290.9z M337,291.4h20.4l10.2,17.7l-10.2,17.7H337l-6.8-11.8
		l-3.4-5.9L337,291.4z M358.3,290.9l10.2-17.7h20.4l10.2,17.7l-10.2,17.7h-20.4L358.3,290.9z M400,291.4h20.4l10.2,17.7l-10.2,17.7
		H400l-10.2-17.7L400,291.4z M421.3,290.9l10.2-17.7h20.4l6.8,11.8l3.4,5.9l-10.2,17.7h-20.4L421.3,290.9z M460.2,296.2l2.8-4.8
		h20.4l10.2,17.7l-10.2,17.7H463l-2.8-4.8l-7.5-12.9L460.2,296.2z M484.3,290.9l10.2-17.7h20.4l2.8,4.8l7.5,12.9l-7.5,12.9l-2.8,4.8
		h-20.4L484.3,290.9z M494.5,272.2l-10.2-17.7l10.2-17.7h20.4l2.7,4.7l7.5,13l-7.5,12.9l-2.8,4.8H494.5z M494.5,235.9l-10.2-17.7
		l10.2-17.7h20.4l2.8,4.8l7.5,12.9l-7.5,12.9l-2.8,4.8L494.5,235.9L494.5,235.9z M494.5,199.5l-10.2-17.7l10.2-17.7h20.4l2.7,4.7
		l7.5,12.9l-7.5,12.9l-2.8,4.8H494.5z M494.5,163.1l-10.2-17.7l10.2-17.7h20.4l2.8,4.8l7.5,12.9l-7.5,12.9l-2.8,4.8H494.5z
		 M494.5,126.8l-10.2-17.7l10.2-17.7h20.4l2.8,4.8l7.5,12.9l-7.5,12.9l-2.7,4.7H494.5z M494.5,90.4l-10.2-17.7L494.5,55h20.4
		l2.8,4.8l7.5,12.9l-7.5,12.9l-2.7,4.7H494.5z M483.4,72.2H463l-2.8-4.8l-7.5-12.9l7.5-12.9l2.8-4.8h20.4l10.2,17.7L483.4,72.2z
		 M458.7,66.8l3.4,5.9l-10.2,17.7h-20.4l-10.2-17.7L431.5,55h20.4L458.7,66.8z M420.4,72.2H400l-10.2-17.7L400,36.9h20.4l10.2,17.7
		L420.4,72.2z M399.1,72.7l-10.2,17.7h-20.4l-10.2-17.7L368.5,55h20.4L399.1,72.7z M357.4,72.2H337l-6.8-11.8l-3.4-5.9L337,36.9
		h20.4l10.2,17.7L357.4,72.2z M328.7,59.8l7.5,12.9l-7.5,12.9l-2.7,4.7h-20.4l-10.2-17.7L305.5,55H326L328.7,59.8z M294.5,72.2H274
		l-2.8-4.8l-7.5-12.9l7.5-12.9l2.8-4.8h20.4l10.2,17.7L294.5,72.2z M269.8,66.8l3.4,5.9L263,90.4h-20.4l-10.2-17.7L242.6,55H263
		L269.8,66.8z M231.5,72.2h-20.4l-5.1-8.8l-5.1-8.8l5.1-8.8l5.1-8.8h20.4l10.2,17.7L231.5,72.2z M205.1,63.9l5.1,8.8l-5.1,8.8
		l-5.1,8.8h-20.4l-10.2-17.7L179.6,55H200L205.1,63.9z M168.5,72.2h-20.4l-10.2-17.7l10.2-17.7h20.4l10.2,17.7L168.5,72.2z
		 M144.5,68l2.8,4.8l-2.7,4.7L137,90.4h-20.4l-10.2-17.7L116.6,55H137L144.5,68z M105.5,72.2H85.1l-2.8-4.8l-7.5-12.9l7.5-12.9
		l2.8-4.8h20.4l10.2,17.7L105.5,72.2z M80.8,66.8l3.4,5.9L74,90.4H53.6L43.4,72.7L53.6,55H74L80.8,66.8z M74,91.4l6.8,11.8l3.4,5.9
		L74,126.8H53.6l-10.2-17.7l10.2-17.7C53.6,91.4,74,91.4,74,91.4z M74,127.8l6.8,11.8l3.4,5.9L74,163.1H53.6l-10.2-17.7l10.2-17.7
		H74z M74,164.1l10.2,17.7L74,199.5H53.6l-10.2-17.7l10.2-17.7L74,164.1L74,164.1z M74,200.5l6.8,11.8l3.4,5.9L74,235.9H53.6
		l-10.2-17.7l10.2-17.7H74z M74,236.9l10.2,17.7L74,272.2H53.6l-10.2-17.7l10.2-17.7H74z M74,273.2l6.8,11.8l3.4,5.9L74,308.6H53.6
		l-10.2-17.7l10.2-17.7H74z M74,309.6l6.8,11.8l3.4,5.9L74,345H53.6l-10.2-17.7l10.2-17.7H74z M82.3,332.5l2.8-4.8h20.4l10.2,17.7
		l-10.2,17.7H85.1l-2.7-4.7l-7.5-13L82.3,332.5z M106.4,327.3l10.2-17.7H137l7.4,12.9l2.8,4.8l-2.8,4.8L137,345h-20.4L106.4,327.3z
		 M148.1,327.8h20.4l10.2,17.7l-10.2,17.7h-20.4l-10.2-17.7L148.1,327.8z M169.4,327.3l10.2-17.7H200l5.1,8.8l5.1,8.8l-5.1,8.8
		l-5.1,8.8h-20.4L169.4,327.3z M206,336.6l5.1-8.8h20.4l10.2,17.7l-10.2,17.7h-20.4l-5.1-8.8l-5.1-8.9L206,336.6z M232.4,327.3
		l10.2-17.7H263l6.8,11.8l3.4,5.9L263,345h-20.4L232.4,327.3z M271.3,332.5l2.8-4.8h20.4l10.2,17.7l-10.2,17.7H274l-2.7-4.7l-7.5-13
		L271.3,332.5z M295.3,327.3l10.2-17.7h20.4l2.8,4.8l7.5,12.9l-7.5,12.9l-2.8,4.8h-20.4L295.3,327.3z M337,327.8h20.4l10.2,17.7
		l-10.2,17.7H337l-10.2-17.7L337,327.8z M358.3,327.3l10.2-17.7h20.4l10.2,17.7l-10.2,17.7h-20.4L358.3,327.3z M400,327.8h20.4
		l10.2,17.7l-10.2,17.7H400l-10.2-17.7L400,327.8z M421.3,327.3l10.2-17.7h20.4l6.8,11.8l3.4,5.9L451.9,345h-20.4L421.3,327.3z
		 M460.2,332.5l2.8-4.8h20.4l10.2,17.7l-10.2,17.7H463l-2.7-4.7l-7.5-13L460.2,332.5z M484.3,327.3l10.2-17.7h20.4l2.8,4.8l7.5,12.9
		l-7.5,12.9l-2.8,4.8h-20.4L484.3,327.3z M526,327.8h20.4l10.2,17.7l-10.2,17.7H526l-10.2-17.7L526,327.8z M526,326.8l-6.8-11.8
		l-3.4-5.9l10.2-17.7h20.4l10.2,17.7l-10.2,17.7L526,326.8L526,326.8z M526,290.4l-6.8-11.8l-3.4-5.9L526,255h20.4l10.2,17.7
		l-10.2,17.7L526,290.4L526,290.4z M526,254.1l-10.2-17.7l10.2-17.7h20.4l10.2,17.7L546.4,254L526,254.1L526,254.1z M526,217.7
		l-6.8-11.8l-3.4-5.9l10.2-17.7h20.4l10.2,17.7l-10.2,17.7H526z M526,181.3l-10.2-17.7L526,146h20.4l10.2,17.7l-10.2,17.7H526z
		 M526,144.9l-6.8-11.8l-3.4-5.9l10.2-17.7h20.4l10.2,17.7l-10.2,17.7H526z M526,108.6l-6.8-11.8l-3.4-5.9L526,73.2h20.4l10.2,17.7
		l-10.2,17.7H526z M526,72.2l-6.8-11.8l-3.4-5.9L526,36.9h20.4l10.2,17.7l-10.2,17.7H526z M514.9,18.7l2.7,4.7l7.5,12.9l-7.5,12.9
		l-2.8,4.8h-20.4l-10.2-17.7l10.2-17.7H514.9z M460.2,5.3l2.8-4.8h20.4l10.2,17.7l-10.2,17.7H463l-2.7-4.7l-7.5-13L460.2,5.3z
		 M451.9,18.7l10.2,17.7L451.9,54h-20.4l-10.2-17.7l10.2-17.7H451.9z M400,0.5h20.4l10.2,17.7l-10.2,17.7H400l-10.2-17.7L400,0.5z
		 M388.9,18.7l10.2,17.7L388.9,54h-20.4l-10.2-17.7l10.2-17.7H388.9z M337,0.5h20.4l10.2,17.7l-10.2,17.7H337l-10.2-17.7L337,0.5z
		 M326,18.7l2.7,4.7l7.5,12.9l-7.5,12.9L326,54h-20.4l-10.2-17.7l10.2-17.7H326z M271.3,5.3l2.8-4.8h20.4l10.2,17.7l-10.2,17.7H274
		l-2.7-4.7l-7.5-13L271.3,5.3z M263,18.7l10.2,17.7L263,54h-20.4l-10.2-17.7l10.2-17.7H263z M206,9.3l5.1-8.8h20.4l10.2,17.7
		l-10.2,17.7h-20.4L206,27l-5.1-8.8L206,9.3z M200,18.7l5.1,8.8l5.1,8.8l-5.1,8.8L200,54h-20.4l-10.2-17.7l10.2-17.7H200z
		 M148.1,0.5h20.4l10.2,17.7l-10.2,17.7h-20.4l-10.2-17.7L148.1,0.5z M137,18.7l7.5,13l2.7,4.7l-2.8,4.8L137,54h-20.4l-10.2-17.7
		l10.2-17.7H137z M82.3,5.3l2.8-4.8h20.4l10.2,17.7l-10.2,17.7H85.1l-2.7-4.7l-7.5-13L82.3,5.3z M74,18.7l10.2,17.7L74,54H53.6
		L43.4,36.4l10.2-17.7H74z M17,27l-5.1-8.8L17,9.3l5.1-8.8h20.4l10.2,17.7L42.5,35.9H22.1L17,27z M17,63.4l-5.1-8.8l5.1-8.9l5.1-8.8
		h20.4l10.2,17.7L42.5,72.2H22.1L17,63.4z M17,99.7l-5.1-8.8l5.1-8.8l5.1-8.8h20.4l10.2,17.7l-10.2,17.7H22.1L17,99.7z M17,136.1
		l-5.1-8.8l5.1-8.8l5.1-8.8h20.4l10.2,17.7L42.5,145H22.1L17,136.1z M17,172.5l-5.1-8.8l5.1-8.8l5.1-8.9h20.4l10.2,17.7l-10.2,17.7
		H22.1L17,172.5z M17,208.8l-5.1-8.8l5.1-8.8l5.1-8.8h20.4L52.7,200l-10.2,17.7H22.1L17,208.8z M17,245.2l-5.1-8.8l5.1-8.8l5.1-8.8
		h20.4l10.2,17.7l-10.2,17.7H22.1L17,245.2z M17,281.6l-5.1-8.8l5.1-8.8l5.1-8.8h20.4l10.2,17.7l-10.2,17.7H22.1L17,281.6z
		 M17,317.9l-5.1-8.8l5.1-8.8l5.1-8.8h20.4l10.2,17.7l-10.2,17.7H22.1L17,317.9z M17,354.3l-5.1-8.9l5.1-8.8l5.1-8.8h20.4l10.2,17.7
		l-10.2,17.7H22.1L17,354.3z M42.5,399.5H22.1l-5.1-8.8l-5.1-8.8L17,373l5.1-8.8h20.4l10.2,17.7L42.5,399.5z M53.6,381.3l-10.2-17.7
		L53.6,346H74l10.2,17.7L74,381.3H53.6z M105.5,399.5H85.1l-2.8-4.8l-7.5-12.9l7.5-12.9l2.8-4.8h20.4l10.2,17.7L105.5,399.5z
		 M116.6,381.3l-10.2-17.7l10.2-17.7H137l7.5,13l2.7,4.7l-2.8,4.8l-7.4,12.9L116.6,381.3L116.6,381.3z M168.5,399.5h-20.4
		l-10.2-17.7l10.2-17.7h20.4l10.2,17.7L168.5,399.5z M179.6,381.3l-10.2-17.7l10.2-17.7H200l5.1,8.9l5.1,8.8l-5.1,8.8l-5.1,8.8
		H179.6z M231.5,399.5h-20.4l-5.1-8.8l-5.1-8.8l5.1-8.8l5.1-8.8h20.4l10.2,17.7L231.5,399.5z M242.6,381.3l-10.2-17.7l10.2-17.7H263
		l10.2,17.7L263,381.3H242.6z M294.5,399.5H274l-2.8-4.8l-7.5-12.9l7.5-12.9l2.8-4.8h20.4l10.2,17.7L294.5,399.5z M305.5,381.3
		l-10.2-17.7l10.2-17.7H326l2.7,4.7l7.5,13l-7.5,12.9l-2.8,4.8H305.5z M357.4,399.5H337l-6.8-11.8l-3.4-5.9l10.2-17.7h20.4
		l10.2,17.7L357.4,399.5z M368.5,381.3l-10.2-17.7l10.2-17.7h20.4l10.2,17.7l-10.2,17.7H368.5z M420.4,399.5H400l-10.2-17.7
		l10.2-17.7h20.4l10.2,17.7L420.4,399.5z M431.5,381.3l-10.2-17.7l10.2-17.7h20.4l10.2,17.7l-10.2,17.7H431.5z M483.4,399.5H463
		l-2.8-4.8l-7.5-12.9l7.5-12.9l2.8-4.8h20.4l10.2,17.7L483.4,399.5z M494.5,381.3l-10.2-17.7l10.2-17.7h20.4l2.7,4.7l7.5,13
		l-7.5,12.9l-2.8,4.8H494.5z M546.4,399.5H526l-6.8-11.8l-3.4-5.9l10.2-17.7h20.4l10.2,17.7L546.4,399.5z M583,354.8l5.1,8.8
		l-5.1,8.8l-5.1,8.8h-20.4l-10.2-17.7l10.2-17.7h20.4L583,354.8z M583,318.4l5.1,8.8l-5.1,8.8l-5.1,8.8h-20.4l-10.2-17.7l10.2-17.7
		h20.4L583,318.4z M583,282.1l5.1,8.8l-5.1,8.8l-5.1,8.8h-20.4l-10.2-17.7l10.2-17.7h20.4L583,282.1z M583,245.7l5.1,8.9l-5.1,8.8
		l-5.1,8.8h-20.4l-10.2-17.7l10.2-17.7h20.4L583,245.7z M583,209.3l5.1,8.8L583,227l-5.1,8.8h-20.4l-10.2-17.7l10.2-17.7h20.4
		L583,209.3z M583,173l5.1,8.8l-5.1,8.8l-5.1,8.8h-20.4l-10.2-17.7l10.2-17.7h20.4L583,173z M583,136.6l5.1,8.8l-5.1,8.9l-5.1,8.8
		h-20.4l-10.2-17.7l10.2-17.7h20.4L583,136.6z M583,100.2l5.1,8.8l-5.1,8.8l-5.1,8.8h-20.4l-10.2-17.7l10.2-17.7h20.4L583,100.2z
		 M583,63.9l5.1,8.8l-5.1,8.8l-5.1,8.8h-20.4l-10.2-17.7L557.5,55h20.4L583,63.9z M583,27.5l5.1,8.8l-5.1,8.8l-5.1,8.9h-20.4
		l-10.2-17.7l10.2-17.7h20.4L583,27.5z"/>
</g>
</svg>
