<?xml version="1.0" encoding="utf-8"?>
<!-- Generator: Adobe Illustrator 25.0.0, SVG Export Plug-In . SVG Version: 6.00 Build 0)  -->
<svg version="1.1" id="Layer_1" xmlns="http://www.w3.org/2000/svg" xmlns:xlink="http://www.w3.org/1999/xlink" x="0px" y="0px"
	 viewBox="0 0 550 550" style="enable-background:new 0 0 550 550;" xml:space="preserve">
<style type="text/css">
	.st0{fill:url(#SVGID_1_);}
	.st1{fill:url(#SVGID_2_);}
	.st2{fill:url(#SVGID_3_);}
	.st3{fill:url(#SVGID_4_);}
	.st4{fill:url(#SVGID_5_);}
	.st5{fill:url(#SVGID_6_);}
	.st6{fill:url(#SVGID_7_);}
	.st7{fill:url(#SVGID_8_);}
	.st8{fill:url(#SVGID_9_);}
	.st9{fill:url(#SVGID_10_);}
	.st10{fill:url(#SVGID_11_);}
	.st11{fill:url(#SVGID_12_);}
	.st12{fill:url(#SVGID_13_);}
	.st13{fill:url(#SVGID_14_);}
	.st14{fill:url(#SVGID_15_);}
	.st15{fill:url(#SVGID_16_);}
	.st16{fill:url(#SVGID_17_);}
	.st17{fill:url(#SVGID_18_);}
	.st18{fill:url(#SVGID_19_);}
	.st19{fill:url(#SVGID_20_);}
</style>
<g id="_x31_7403_-_Page_Speed">
	<g id="XMLID_151_">
		<g id="XMLID_113_">
			<g id="XMLID_150_">
				<linearGradient id="SVGID_1_" gradientUnits="userSpaceOnUse" x1="-19.1787" y1="279.6396" x2="549.8512" y2="279.6396">
					<stop  offset="0" style="stop-color:#FACC15"/>
					<stop  offset="1" style="stop-color:#F97316"/>
				</linearGradient>
				<path class="st0" d="M505.3,509.7H362c-4.7,0-8.5-3.8-8.5-8.5s3.8-8.5,8.5-8.5h143.4c13.3,0,24.2-10.9,24.2-24.2V91.3
					c0-13.7-10.8-24.8-24.2-24.8H45.5c-13.5,0-25,11.3-25,24.8v377.2c0,13.4,11.2,24.2,25,24.2H188c4.7,0,8.5,3.8,8.5,8.5
					s-3.8,8.5-8.5,8.5H45.5c-23.1,0-41.9-18.5-41.9-41.2V91.3c0-22.6,19.2-41.7,41.9-41.7h459.8c22.7,0,41.1,18.7,41.1,41.7v377.2
					C546.5,491.3,528,509.7,505.3,509.7z"/>
			</g>
			<g id="XMLID_126_">
				<linearGradient id="SVGID_2_" gradientUnits="userSpaceOnUse" x1="-19.1787" y1="159.8168" x2="549.8512" y2="159.8168">
					<stop  offset="0" style="stop-color:#FACC15"/>
					<stop  offset="1" style="stop-color:#F97316"/>
				</linearGradient>
				<path class="st1" d="M538,168.3H12c-4.7,0-8.5-3.8-8.5-8.5c0-4.7,3.8-8.5,8.5-8.5h526c4.7,0,8.5,3.8,8.5,8.5
					C546.5,164.5,542.7,168.3,538,168.3z"/>
			</g>
			<g id="XMLID_123_">
				<linearGradient id="SVGID_3_" gradientUnits="userSpaceOnUse" x1="-19.1787" y1="109.254" x2="549.8512" y2="109.254">
					<stop  offset="0" style="stop-color:#FACC15"/>
					<stop  offset="1" style="stop-color:#F97316"/>
				</linearGradient>
				<path class="st2" d="M250,134.7H63.5c-4.7,0-8.5-3.8-8.5-8.5V92.3c0-4.7,3.8-8.5,8.5-8.5H250c4.7,0,8.5,3.8,8.5,8.5v33.9
					C258.4,130.9,254.6,134.7,250,134.7L250,134.7z M72,117.7h169.5v-16.9H72V117.7z"/>
			</g>
			<g id="XMLID_122_">
				<linearGradient id="SVGID_4_" gradientUnits="userSpaceOnUse" x1="-19.1787" y1="109.2959" x2="549.8512" y2="109.2959">
					<stop  offset="0" style="stop-color:#FACC15"/>
					<stop  offset="1" style="stop-color:#F97316"/>
				</linearGradient>
				<path class="st3" d="M343.2,134.7c-14,0-25.4-11.4-25.4-25.4s11.4-25.4,25.4-25.4s25.4,11.4,25.4,25.4S357.2,134.7,343.2,134.7z
					 M343.2,100.8c-4.7,0-8.5,3.8-8.5,8.5c0,4.7,3.8,8.5,8.5,8.5s8.5-3.8,8.5-8.5S347.9,100.8,343.2,100.8z"/>
			</g>
			<g id="XMLID_121_">
				<linearGradient id="SVGID_5_" gradientUnits="userSpaceOnUse" x1="-19.1787" y1="109.2959" x2="549.8512" y2="109.2959">
					<stop  offset="0" style="stop-color:#FACC15"/>
					<stop  offset="1" style="stop-color:#F97316"/>
				</linearGradient>
				<path class="st4" d="M414.2,134.7c-14,0-25.4-11.4-25.4-25.4s11.4-25.4,25.4-25.4s25.4,11.4,25.4,25.4S428.2,134.7,414.2,134.7z
					 M414.2,100.8c-4.7,0-8.5,3.8-8.5,8.5c0,4.7,3.8,8.5,8.5,8.5s8.5-3.8,8.5-8.5S418.9,100.8,414.2,100.8z"/>
			</g>
			<g id="XMLID_120_">
				<linearGradient id="SVGID_6_" gradientUnits="userSpaceOnUse" x1="-19.1787" y1="109.2959" x2="549.8512" y2="109.2959">
					<stop  offset="0" style="stop-color:#FACC15"/>
					<stop  offset="1" style="stop-color:#F97316"/>
				</linearGradient>
				<path class="st5" d="M414.2,134.7c-14,0-25.4-11.4-25.4-25.4s11.4-25.4,25.4-25.4s25.4,11.4,25.4,25.4S428.2,134.7,414.2,134.7z
					 M414.2,100.8c-4.7,0-8.5,3.8-8.5,8.5c0,4.7,3.8,8.5,8.5,8.5s8.5-3.8,8.5-8.5S418.9,100.8,414.2,100.8z"/>
			</g>
			<g id="XMLID_119_">
				<linearGradient id="SVGID_7_" gradientUnits="userSpaceOnUse" x1="-19.1787" y1="109.2959" x2="549.8512" y2="109.2959">
					<stop  offset="0" style="stop-color:#FACC15"/>
					<stop  offset="1" style="stop-color:#F97316"/>
				</linearGradient>
				<path class="st6" d="M478.8,134.7c-14,0-25.4-11.4-25.4-25.4s11.4-25.4,25.4-25.4c14,0,25.4,11.4,25.4,25.4
					S492.8,134.7,478.8,134.7z M478.8,100.8c-4.7,0-8.5,3.8-8.5,8.5c0,4.7,3.8,8.5,8.5,8.5c4.7,0,8.5-3.8,8.5-8.5
					S483.5,100.8,478.8,100.8z"/>
			</g>
		</g>
		<g id="XMLID_115_">
			<linearGradient id="SVGID_8_" gradientUnits="userSpaceOnUse" x1="-19.1787" y1="420.8481" x2="549.8512" y2="420.8481">
				<stop  offset="0" style="stop-color:#FACC15"/>
				<stop  offset="1" style="stop-color:#F97316"/>
			</linearGradient>
			<path class="st7" d="M275.4,548c-70.1,0-127.2-57-127.2-127.2s57-127.2,127.2-127.2s127.2,57,127.2,127.2S345.5,548,275.4,548z
				 M275.4,310.7c-60.8,0-110.2,49.4-110.2,110.2S214.6,531,275.4,531s110.2-49.4,110.2-110.2S336.1,310.7,275.4,310.7z"/>
		</g>
		<g id="XMLID_125_">
			<linearGradient id="SVGID_9_" gradientUnits="userSpaceOnUse" x1="-19.1787" y1="480.0516" x2="549.8512" y2="480.0516">
				<stop  offset="0" style="stop-color:#FACC15"/>
				<stop  offset="1" style="stop-color:#F97316"/>
			</linearGradient>
			<path class="st8" d="M377.9,488.5H172.1c-4.7,0-8.5-3.8-8.5-8.5s3.8-8.5,8.5-8.5h205.7c4.7,0,8.5,3.8,8.5,8.5
				S382.5,488.5,377.9,488.5z"/>
		</g>
		<g id="XMLID_116_">
			<linearGradient id="SVGID_10_" gradientUnits="userSpaceOnUse" x1="-19.1787" y1="463.1883" x2="549.8512" y2="463.1883">
				<stop  offset="0" style="stop-color:#FACC15"/>
				<stop  offset="1" style="stop-color:#F97316"/>
			</linearGradient>
			<path class="st9" d="M292.3,488.6c-4.7,0-8.5-3.8-8.5-8.5v-17c0-4.7-3.8-8.5-8.5-8.5s-8.5,3.8-8.5,8.5v17c0,4.7-3.8,8.5-8.5,8.5
				s-8.5-3.8-8.5-8.5v-17c0-14,11.4-25.4,25.4-25.4s25.4,11.4,25.4,25.4v17C300.8,484.8,297,488.6,292.3,488.6z"/>
		</g>
		<g id="XMLID_117_">
			<linearGradient id="SVGID_11_" gradientUnits="userSpaceOnUse" x1="-19.1787" y1="424.5567" x2="549.8512" y2="424.5567">
				<stop  offset="0" style="stop-color:#FACC15"/>
				<stop  offset="1" style="stop-color:#F97316"/>
			</linearGradient>
			<path class="st10" d="M275.4,454.8c-1.4,0-2.8-0.3-4.1-1.1c-4.1-2.3-5.5-7.5-3.2-11.5l24.4-43.4c2.3-4.1,7.5-5.5,11.5-3.2
				c4.1,2.3,5.5,7.5,3.2,11.5l-24.4,43.4C281.2,453.2,278.3,454.8,275.4,454.8z"/>
		</g>
		<g id="XMLID_118_">
			<linearGradient id="SVGID_12_" gradientUnits="userSpaceOnUse" x1="-19.1787" y1="420.67" x2="549.8512" y2="420.67">
				<stop  offset="0" style="stop-color:#FACC15"/>
				<stop  offset="1" style="stop-color:#F97316"/>
			</linearGradient>
			<path class="st11" d="M198.7,429.2h-8.5c-4.7,0-8.5-3.8-8.5-8.5s3.8-8.5,8.5-8.5h8.5c4.7,0,8.5,3.8,8.5,8.5
				S203.3,429.2,198.7,429.2z"/>
		</g>
		<g id="XMLID_127_">
			<linearGradient id="SVGID_13_" gradientUnits="userSpaceOnUse" x1="-19.1787" y1="420.67" x2="549.8512" y2="420.67">
				<stop  offset="0" style="stop-color:#FACC15"/>
				<stop  offset="1" style="stop-color:#F97316"/>
			</linearGradient>
			<path class="st12" d="M359.8,429.2h-8.5c-4.7,0-8.5-3.8-8.5-8.5s3.8-8.5,8.5-8.5h8.5c4.7,0,8.5,3.8,8.5,8.5
				S364.5,429.2,359.8,429.2z"/>
		</g>
		<g id="XMLID_128_">
			<linearGradient id="SVGID_14_" gradientUnits="userSpaceOnUse" x1="-19.1787" y1="363.9091" x2="549.8512" y2="363.9091">
				<stop  offset="0" style="stop-color:#FACC15"/>
				<stop  offset="1" style="stop-color:#F97316"/>
			</linearGradient>
			<path class="st13" d="M221.4,375.4c-2.2,0-4.3-0.8-6-2.5l-6-6c-3.3-3.3-3.3-8.7,0-12c3.3-3.3,8.7-3.3,12,0l6,6
				c3.3,3.3,3.3,8.7,0,12C225.8,374.6,223.6,375.4,221.4,375.4z"/>
		</g>
		<g id="XMLID_146_">
			<linearGradient id="SVGID_15_" gradientUnits="userSpaceOnUse" x1="-19.1787" y1="363.9091" x2="549.8512" y2="363.9091">
				<stop  offset="0" style="stop-color:#FACC15"/>
				<stop  offset="1" style="stop-color:#F97316"/>
			</linearGradient>
			<path class="st14" d="M329.3,375.4c-2.2,0-4.3-0.8-6-2.5c-3.3-3.3-3.3-8.7,0-12l6-6c3.3-3.3,8.7-3.3,12,0c3.3,3.3,3.3,8.7,0,12
				l-6,6C333.7,374.6,331.5,375.4,329.3,375.4L329.3,375.4z"/>
		</g>
		<g id="XMLID_148_">
			<linearGradient id="SVGID_16_" gradientUnits="userSpaceOnUse" x1="-19.1787" y1="340.0807" x2="549.8512" y2="340.0807">
				<stop  offset="0" style="stop-color:#FACC15"/>
				<stop  offset="1" style="stop-color:#F97316"/>
			</linearGradient>
			<path class="st15" d="M275,352.8c-4.7,0-8.5-3.8-8.5-8.5v-8.5c0-4.7,3.8-8.5,8.5-8.5s8.5,3.8,8.5,8.5v8.5
				C283.5,349,279.7,352.8,275,352.8z"/>
		</g>
		<g id="XMLID_114_">
			<linearGradient id="SVGID_17_" gradientUnits="userSpaceOnUse" x1="-19.1787" y1="263.9359" x2="549.8512" y2="263.9359">
				<stop  offset="0" style="stop-color:#FACC15"/>
				<stop  offset="1" style="stop-color:#F97316"/>
			</linearGradient>
			<path class="st16" d="M139.8,297.8H46.5c-4.7,0-8.5-3.8-8.5-8.5v-50.9c0-4.7,3.8-8.5,8.5-8.5h93.2c4.7,0,8.5,3.8,8.5,8.5v50.9
				C148.3,294.1,144.5,297.8,139.8,297.8z M55,280.9h76.3V247H55V280.9z"/>
		</g>
		<g id="XMLID_147_">
			<linearGradient id="SVGID_18_" gradientUnits="userSpaceOnUse" x1="-19.1787" y1="238.2492" x2="549.8512" y2="238.2492">
				<stop  offset="0" style="stop-color:#FACC15"/>
				<stop  offset="1" style="stop-color:#F97316"/>
			</linearGradient>
			<path class="st17" d="M504,246.7H376.8c-4.7,0-8.5-3.8-8.5-8.5c0-4.7,3.8-8.5,8.5-8.5H504c4.7,0,8.5,3.8,8.5,8.5
				C512.5,242.9,508.7,246.7,504,246.7z"/>
		</g>
		<g id="XMLID_124_">
			<linearGradient id="SVGID_19_" gradientUnits="userSpaceOnUse" x1="-19.1787" y1="280.6646" x2="549.8512" y2="280.6646">
				<stop  offset="0" style="stop-color:#FACC15"/>
				<stop  offset="1" style="stop-color:#F97316"/>
			</linearGradient>
			<path class="st18" d="M504,289.1H385.3c-4.7,0-8.5-3.8-8.5-8.5s3.8-8.5,8.5-8.5H504c4.7,0,8.5,3.8,8.5,8.5S508.7,289.1,504,289.1
				z"/>
		</g>
		<g id="XMLID_149_">
			<linearGradient id="SVGID_20_" gradientUnits="userSpaceOnUse" x1="-19.1787" y1="323.08" x2="549.8512" y2="323.08">
				<stop  offset="0" style="stop-color:#FACC15"/>
				<stop  offset="1" style="stop-color:#F97316"/>
			</linearGradient>
			<path class="st19" d="M504,331.6h-84.8c-4.7,0-8.5-3.8-8.5-8.5s3.8-8.5,8.5-8.5H504c4.7,0,8.5,3.8,8.5,8.5S508.7,331.6,504,331.6
				z"/>
		</g>
	</g>
</g>
<g id="Layer_1_1_">
</g>
</svg>
