<?xml version="1.0" encoding="utf-8"?>
<!-- Generator: Adobe Illustrator 25.2.0, SVG Export Plug-In . SVG Version: 6.00 Build 0)  -->
<svg version="1.1" id="Portfolio" xmlns="http://www.w3.org/2000/svg" xmlns:xlink="http://www.w3.org/1999/xlink" x="0px" y="0px"
	 viewBox="0 0 512 512" style="enable-background:new 0 0 512 512;" xml:space="preserve">
<style type="text/css">
	.st0{fill:url(#SVGID_1_);}
	.st1{fill:url(#SVGID_2_);}
	.st2{fill:url(#SVGID_3_);}
	.st3{fill:url(#SVGID_4_);}
	.st4{fill:url(#SVGID_5_);}
	.st5{fill:url(#SVGID_6_);}
	.st6{fill:url(#SVGID_7_);}
	.st7{fill:url(#SVGID_8_);}
	.st8{fill:url(#SVGID_9_);}
	.st9{fill:url(#SVGID_10_);}
	.st10{fill:url(#SVGID_11_);}
</style>
<g>
	<linearGradient id="SVGID_1_" gradientUnits="userSpaceOnUse" x1="-9" y1="332.006" x2="548.0225" y2="332.006">
		<stop  offset="0" style="stop-color:#FACC15"/>
		<stop  offset="1" style="stop-color:#F97316"/>
	</linearGradient>
	<path class="st0" d="M501.7,229c-6.3-6.3-15-10.3-24.7-10.3h-70.1v-38.9c0-7.6-3.2-14.5-8.2-19.6c-5-5.1-12-8.2-19.6-8.2H245.5
		c-7.7,0-14.6,3.1-19.7,8.2c-5,5-8.1,12-8.1,19.6v38.9h-70.2v0c-9.6,0-18.4,3.9-24.7,10.3c-6.3,6.3-10.3,15.1-10.3,24.7V477
		c0,9.7,3.9,18.4,10.3,24.7c6.3,6.3,15.1,10.3,24.7,10.3H477c9.7,0,18.4-3.9,24.7-10.3c6.3-6.3,10.3-15.1,10.3-24.7V253.7
		C512,244.1,508,235.4,501.7,229L501.7,229z M233.7,179.8c0-3.2,1.3-6.2,3.4-8.3c2.2-2.2,5.1-3.5,8.3-3.5h133.6
		c3.2,0,6.2,1.3,8.3,3.5h0.1c2.1,2.1,3.4,5,3.4,8.3v38.9h-17.8v-26v-8h-8H259.5h-8v8v26h-17.8V179.8z M267.5,200.7h89.7v18h-89.7
		V200.7z M128.5,253.7c0-5.2,2.2-9.9,5.6-13.4c3.4-3.4,8.2-5.6,13.4-5.6h70.2h8h33.8h8H477c5.2,0,10,2.2,13.4,5.6v-0.1
		c3.4,3.4,5.6,8.2,5.6,13.4v49.9h0c0,4.7-1.8,8.6-4.8,11.6c-3.8,3.8-9.4,6.3-15.7,7.5L353.9,346v-27c0-4.2-1.7-8-4.4-10.7l-0.1-0.1
		c-2.7-2.7-6.5-4.4-10.7-4.4h-52.8c-4.2,0-7.9,1.7-10.7,4.4v0.1c-2.8,2.7-4.5,6.6-4.5,10.7v26.8L149,322.8
		c-6.2-1.2-11.8-3.8-15.6-7.5c-3-3-4.9-6.9-4.9-11.6V253.7z M337.9,319.8v57.7c0,7-2.9,13.4-7.5,18c-4.7,4.7-11,7.5-18.1,7.5
		c-7,0-13.4-2.9-18-7.5c-4.7-4.6-7.5-11.1-7.5-18v-57.7H337.9z M490.4,490.4c-3.4,3.4-8.2,5.5-13.4,5.5H147.5
		c-5.2,0-9.9-2.1-13.4-5.5c-3.4-3.4-5.6-8.2-5.6-13.4V331.6c5.2,3.3,11.2,5.6,17.5,6.8l124.6,23.7v15.5c0,11.4,4.7,21.8,12.2,29.4
		c7.5,7.6,17.9,12.2,29.4,12.2s21.9-4.7,29.4-12.2c7.6-7.5,12.2-17.9,12.2-29.4v-15.3l124.7-23.9c6.3-1.2,12.3-3.5,17.5-6.8V477
		C496,482.2,493.9,487,490.4,490.4z"/>
	<linearGradient id="SVGID_2_" gradientUnits="userSpaceOnUse" x1="-9" y1="224.982" x2="548.0225" y2="224.982">
		<stop  offset="0" style="stop-color:#FACC15"/>
		<stop  offset="1" style="stop-color:#F97316"/>
	</linearGradient>
	<path class="st1" d="M88.3,434H24c-2.2,0-4.2-0.9-5.6-2.3l-0.1-0.1c-1.4-1.4-2.3-3.4-2.3-5.7V24c0-2.2,0.9-4.2,2.3-5.7l0.1,0.1
		c1.4-1.5,3.4-2.4,5.6-2.4h218.9v48.4c0,8.3,3.3,15.8,8.6,21.4c0.2,0.2,0.3,0.3,0.5,0.5c5.6,5.6,13.3,9.1,21.9,9.1h43.3v32.4
		c0,4.4,3.6,8,8.1,8c4.4,0,8-3.6,8-8V88.6c0-3.1-0.6-5.9-1.6-8.7c-1-2.5-2.4-4.9-4.3-7.1c-0.2-0.2-0.3-0.3-0.4-0.5L266.6,7.8
		c-2.4-2.5-5.1-4.4-8-5.8c-1.7-0.7-3.4-1.3-5.2-1.6c-0.8-0.3-1.6-0.4-2.5-0.4c-0.2,0-0.5,0-0.7,0c-0.4,0-0.9,0-1.3,0H24
		C17.4,0,11.4,2.7,7.1,7.1C2.7,11.4,0,17.4,0,24v401.9c0,6.6,2.7,12.6,7.1,16.9v0.1c4.4,4.3,10.4,7,16.9,7h64.3c4.4,0,8-3.6,8-8
		C96.3,437.5,92.7,434,88.3,434z M273.9,79.3c-4.1,0-7.9-1.7-10.6-4.4c-0.1-0.1-0.2-0.2-0.3-0.3c-2.5-2.7-4.1-6.3-4.1-10.3V28.5
		l46.9,50.9L273.9,79.3z"/>
	<linearGradient id="SVGID_3_" gradientUnits="userSpaceOnUse" x1="-9" y1="79.452" x2="548.0225" y2="79.452">
		<stop  offset="0" style="stop-color:#FACC15"/>
		<stop  offset="1" style="stop-color:#F97316"/>
	</linearGradient>
	<path class="st2" d="M203.8,71.5H92.2c-4.4,0-8,3.6-8,8c0,4.4,3.6,8,8,8h111.6c4.4,0,8-3.6,8-8C211.8,75,208.2,71.5,203.8,71.5z"/>
	<linearGradient id="SVGID_4_" gradientUnits="userSpaceOnUse" x1="-9" y1="79.452" x2="548.0225" y2="79.452">
		<stop  offset="0" style="stop-color:#FACC15"/>
		<stop  offset="1" style="stop-color:#F97316"/>
	</linearGradient>
	<path class="st3" d="M54.1,71.5h-6c-4.4,0-8,3.6-8,8c0,4.4,3.6,8,8,8h6c4.4,0,8.1-3.6,8.1-8C62.1,75,58.5,71.5,54.1,71.5z"/>
	<linearGradient id="SVGID_5_" gradientUnits="userSpaceOnUse" x1="-9" y1="152.022" x2="548.0225" y2="152.022">
		<stop  offset="0" style="stop-color:#FACC15"/>
		<stop  offset="1" style="stop-color:#F97316"/>
	</linearGradient>
	<path class="st4" d="M92.2,144c-4.4,0-8,3.6-8,8c0,4.4,3.6,8,8,8h59c4.4,0,8-3.6,8-8c0-4.4-3.6-8-8-8H92.2z"/>
	<linearGradient id="SVGID_6_" gradientUnits="userSpaceOnUse" x1="-9" y1="152.022" x2="548.0225" y2="152.022">
		<stop  offset="0" style="stop-color:#FACC15"/>
		<stop  offset="1" style="stop-color:#F97316"/>
	</linearGradient>
	<path class="st5" d="M54.1,144h-6c-4.4,0-8,3.6-8,8c0,4.4,3.6,8,8,8h6c4.4,0,8.1-3.6,8.1-8C62.1,147.6,58.5,144,54.1,144z"/>
	<linearGradient id="SVGID_7_" gradientUnits="userSpaceOnUse" x1="-9" y1="115.764" x2="548.0225" y2="115.764">
		<stop  offset="0" style="stop-color:#FACC15"/>
		<stop  offset="1" style="stop-color:#F97316"/>
	</linearGradient>
	<path class="st6" d="M54.1,107.8h-6c-4.4,0-8,3.6-8,8c0,4.4,3.6,8,8,8h6c4.4,0,8.1-3.6,8.1-8C62.1,111.3,58.5,107.8,54.1,107.8z"/>
	<linearGradient id="SVGID_8_" gradientUnits="userSpaceOnUse" x1="-9" y1="115.764" x2="548.0225" y2="115.764">
		<stop  offset="0" style="stop-color:#FACC15"/>
		<stop  offset="1" style="stop-color:#F97316"/>
	</linearGradient>
	<path class="st7" d="M211.8,115.8c0-4.4-3.6-8-8-8H92.2c-4.4,0-8,3.6-8,8c0,4.4,3.6,8,8,8h111.6
		C208.2,123.8,211.8,120.1,211.8,115.8z"/>
	<linearGradient id="SVGID_9_" gradientUnits="userSpaceOnUse" x1="-9" y1="97.3188" x2="548.0225" y2="97.3188">
		<stop  offset="0" style="stop-color:#FACC15"/>
		<stop  offset="1" style="stop-color:#F97316"/>
	</linearGradient>
	<path class="st8" d="M505.6,113.4l-28.5-6.1c-1.2-4.1-2.6-8.1-4.1-12c-1.7-3.9-3.5-7.8-5.6-11.4l15.8-24.3
		c2.2-3.1,1.9-7.4-0.9-10.2l-9.5-9.5c-0.1-0.2-0.3-0.3-0.4-0.4l-9.9-9.9h-0.1c-2.6-2.6-6.8-3.1-9.9-1.1l-24.5,16
		c-3.7-2.1-7.5-3.9-11.4-5.6c-3.9-1.6-7.9-3-12-4.2l-5.9-28C398.2,3,394.8,0,390.8,0h-14h-14c-3.7,0-7.1,2.6-7.8,6.4l-4,18.9
		l-3.1,14.5c-0.9,4.3,1.9,8.5,6.2,9.4c4.3,0.9,8.5-1.8,9.4-6.2l3.1-14.5l2.6-12.5h7.6h7.5l5.7,27.1c0.7,3.3,3.3,5.7,6.4,6.2
		c4.8,1.1,9.5,2.6,14,4.5c4.7,1.9,9.2,4.3,13.4,7c2.9,1.8,6.5,1.6,9.1-0.4l22.7-14.8l5.3,5.3c0.2,0.2,0.3,0.3,0.4,0.4l4.9,4.9
		l-15.2,23.2c-1.7,2.7-1.7,6.1-0.1,8.6c2.7,4.3,5.1,8.8,7,13.4c1.9,4.7,3.5,9.5,4.6,14.4c0.7,3.2,3.2,5.4,6.2,6.1l27.2,5.7v7.5H496
		v7.6l-27.1,5.7c-3.3,0.7-5.7,3.3-6.2,6.5c-1.1,4.8-2.6,9.4-4.5,14c-1.9,4.7-4.3,9.2-7,13.4c-2.4,3.7-1.3,8.7,2.4,11.1
		c3.8,2.4,8.7,1.3,11-2.5c3.2-4.9,5.9-10.3,8.3-15.9c1.6-3.8,2.9-7.8,4.1-12l28-5.9c3.9-0.5,6.9-3.9,6.9-7.9v-14v-13.6
		C512.2,117.8,509.5,114.2,505.6,113.4z"/>
	<linearGradient id="SVGID_10_" gradientUnits="userSpaceOnUse" x1="-9" y1="118.4311" x2="548.0225" y2="118.4311">
		<stop  offset="0" style="stop-color:#FACC15"/>
		<stop  offset="1" style="stop-color:#F97316"/>
	</linearGradient>
	<path class="st9" d="M421.9,155.9c-1.8,4-0.1,8.7,3.9,10.6c4.1,1.8,8.8,0.1,10.6-3.9c1.9-4.3,3.4-8.7,4.4-13.3
		c1-4.5,1.5-9.2,1.5-14c0-18.1-7.3-34.5-19.2-46.3c-11.9-11.9-28.3-19.2-46.4-19.2c-4.4,0-8,3.6-8,8s3.6,8,8,8
		c13.7,0,26,5.6,35,14.5c8.9,9,14.5,21.4,14.5,35c0,3.7-0.4,7.2-1.1,10.7C424.4,149.4,423.3,152.8,421.9,155.9z"/>
	<linearGradient id="SVGID_11_" gradientUnits="userSpaceOnUse" x1="-9" y1="376.508" x2="548.0225" y2="376.508">
		<stop  offset="0" style="stop-color:#FACC15"/>
		<stop  offset="1" style="stop-color:#F97316"/>
	</linearGradient>
	<circle class="st10" cx="312.3" cy="376.5" r="8"/>
</g>
</svg>
