<?xml version="1.0" encoding="utf-8"?>
<!-- Generator: Adobe Illustrator 25.0.0, SVG Export Plug-In . SVG Version: 6.00 Build 0)  -->
<svg version="1.1" id="Layer_1" xmlns="http://www.w3.org/2000/svg" xmlns:xlink="http://www.w3.org/1999/xlink" x="0px" y="0px"
	 viewBox="0 0 496 496" style="enable-background:new 0 0 496 496;" xml:space="preserve">
<style type="text/css">
	.st0{fill:url(#SVGID_1_);}
	.st1{fill:url(#SVGID_2_);}
	.st2{fill:url(#SVGID_3_);}
	.st3{fill:url(#SVGID_4_);}
	.st4{fill:url(#SVGID_5_);}
	.st5{fill:url(#SVGID_6_);}
	.st6{fill:url(#SVGID_7_);}
	.st7{fill:url(#SVGID_8_);}
	.st8{fill:url(#SVGID_9_);}
	.st9{fill:url(#SVGID_10_);}
	.st10{fill:url(#SVGID_11_);}
	.st11{fill:url(#SVGID_12_);}
	.st12{fill:url(#SVGID_13_);}
</style>
<g>
	<linearGradient id="SVGID_1_" gradientUnits="userSpaceOnUse" x1="-2.0161" y1="248" x2="498.3299" y2="248">
		<stop  offset="0" style="stop-color:#FACC15"/>
		<stop  offset="1" style="stop-color:#F97316"/>
	</linearGradient>
	<path class="st0" d="M279.5,303.1c4.3,0,7.9-3.5,7.9-7.9v-47.4c7.9,8.1,16.7,15.5,26.4,21.9l48,32c1.3,0.9,2.9,1.3,4.4,1.3
		s3-0.4,4.4-1.3l48-32c46.1-30.7,73.6-82.2,73.6-137.6V11.8c0-4.3-3.5-7.9-7.9-7.9H248c-4.3,0-7.9,3.5-7.9,7.9v118.1h-78.7V49.7
		c9.1-3.3,15.7-11.9,15.7-22.2c0-13-10.6-23.6-23.6-23.6c-13,0-23.6,10.6-23.6,23.6c0,10.3,6.6,18.9,15.7,22.2v80.2h-15.7V74.8
		c0-4.3-3.5-7.9-7.9-7.9H81.2C77.9,57.7,69.3,51.1,59,51.1c-13,0-23.6,10.6-23.6,23.6S46,98.4,59,98.4c10.3,0,18.9-6.6,22.2-15.7
		h32.9v47.2H35.4C18,129.9,3.9,144,3.9,161.4v39.4c0,4.3,3.5,7.9,7.9,7.9h23.6v15.7H11.8c-4.3,0-7.9,3.5-7.9,7.9v63
		c0,4.4,3.5,7.9,7.9,7.9h23.6v15.7H11.8c-4.3,0-7.9,3.5-7.9,7.9v63c0,4.4,3.5,7.9,7.9,7.9h23.6v15.7H11.8c-4.3,0-7.9,3.5-7.9,7.9v63
		c0,4.4,3.5,7.9,7.9,7.9h267.7c4.3,0,7.9-3.5,7.9-7.9v-23.6h142.9c3.5,13.6,15.7,23.6,30.4,23.6c17.4,0,31.5-14.1,31.5-31.5
		c0-17.4-14.1-31.5-31.5-31.5c-14.6,0-26.9,10.1-30.4,23.6H287.4v-23.6c0-4.4-3.5-7.9-7.9-7.9h-23.6v-15.7h23.6
		c4.3,0,7.9-3.5,7.9-7.9v-23.6h64.1c3.5,13.6,15.7,23.6,30.4,23.6c17.4,0,31.5-14.1,31.5-31.5c0-17.4-14.1-31.5-31.5-31.5
		c-14.6,0-26.9,10.1-30.4,23.6h-64.1v-23.6c0-4.4-3.5-7.9-7.9-7.9h-23.6v-15.7H279.5z M59,82.6c-4.3,0-7.9-3.5-7.9-7.9
		c0-4.3,3.5-7.9,7.9-7.9s7.9,3.5,7.9,7.9C66.9,79.1,63.3,82.6,59,82.6z M460.6,437c8.7,0,15.7,7.1,15.7,15.7s-7.1,15.7-15.7,15.7
		c-8.7,0-15.7-7.1-15.7-15.7S451.9,437,460.6,437z M381.9,342.5c8.7,0,15.7,7.1,15.7,15.7c0,8.7-7.1,15.7-15.7,15.7
		c-8.7,0-15.7-7.1-15.7-15.7C366.1,349.6,373.2,342.5,381.9,342.5z M255.9,19.6h220.5v112.6c0,50.1-24.9,96.7-66.6,124.5l-43.6,29.1
		l-43.6-29.1c-41.7-27.8-66.6-74.4-66.6-124.5V19.6z M255.9,208.6h3c2.8,5.4,6,10.7,9.4,15.7h-12.3V208.6z M153.5,19.6
		c4.3,0,7.9,3.5,7.9,7.9s-3.5,7.9-7.9,7.9c-4.3,0-7.9-3.5-7.9-7.9S149.2,19.6,153.5,19.6z M19.6,192.9v-15.7h31.5v-15.7H19.6
		c0-8.7,7.1-15.7,15.7-15.7h205.3c1.3,16.4,5,32.3,10.9,47.2H19.6z M240.1,208.6v15.7h-189v-15.7H240.1z M271.6,429.1v15.7h-31.5
		v15.7h31.5v15.7h-252v-15.7h31.5v-15.7H19.6v-15.7H271.6z M51.1,413.4v-15.7h189v15.7H51.1z M271.6,334.6v15.7h-31.5v15.7h31.5
		v15.7h-252v-15.7h31.5v-15.7H19.6v-15.7H271.6z M51.1,318.9v-15.7h189v15.7H51.1z M19.6,287.4v-15.7h31.5v-15.7H19.6v-15.7h252
		v15.7h-31.5v15.7h31.5v15.7H19.6z"/>
	<linearGradient id="SVGID_2_" gradientUnits="userSpaceOnUse" x1="-2.0161" y1="129.8821" x2="498.3299" y2="129.8821">
		<stop  offset="0" style="stop-color:#FACC15"/>
		<stop  offset="1" style="stop-color:#F97316"/>
	</linearGradient>
	<path class="st1" d="M429.1,208.6c4.3,0,7.9-3.5,7.9-7.9V122c0-4.3-3.5-7.9-7.9-7.9h-7.9v-7.9c0-30.4-24.7-55.1-55.1-55.1
		S311,75.9,311,106.3v7.9h-7.9c-4.3,0-7.9,3.5-7.9,7.9v78.7c0,4.3,3.5,7.9,7.9,7.9H429.1z M326.7,106.3c0-21.7,17.7-39.4,39.4-39.4
		s39.4,17.7,39.4,39.4v7.9h-15.7v-7.9c0-13-10.6-23.6-23.6-23.6s-23.6,10.6-23.6,23.6v7.9h-15.7V106.3z M374,106.3v7.9h-15.7v-7.9
		c0-4.3,3.5-7.9,7.9-7.9S374,101.9,374,106.3z M311,129.9h110.2v63H311V129.9z"/>
	<linearGradient id="SVGID_3_" gradientUnits="userSpaceOnUse" x1="-2.0161" y1="161.3802" x2="498.3299" y2="161.3802">
		<stop  offset="0" style="stop-color:#FACC15"/>
		<stop  offset="1" style="stop-color:#F97316"/>
	</linearGradient>
	<polygon class="st2" points="342.5,161.4 358.2,161.4 358.2,177.1 374,177.1 374,161.4 389.7,161.4 389.7,145.6 342.5,145.6 	"/>
	<linearGradient id="SVGID_4_" gradientUnits="userSpaceOnUse" x1="-2.0161" y1="43.2624" x2="498.3299" y2="43.2624">
		<stop  offset="0" style="stop-color:#FACC15"/>
		<stop  offset="1" style="stop-color:#F97316"/>
	</linearGradient>
	<rect x="271.6" y="35.4" class="st3" width="15.7" height="15.7"/>
	<linearGradient id="SVGID_5_" gradientUnits="userSpaceOnUse" x1="-2.0161" y1="43.2624" x2="498.3299" y2="43.2624">
		<stop  offset="0" style="stop-color:#FACC15"/>
		<stop  offset="1" style="stop-color:#F97316"/>
	</linearGradient>
	<rect x="444.9" y="35.4" class="st4" width="15.7" height="15.7"/>
	<linearGradient id="SVGID_6_" gradientUnits="userSpaceOnUse" x1="-2.0161" y1="452.7376" x2="498.3299" y2="452.7376">
		<stop  offset="0" style="stop-color:#FACC15"/>
		<stop  offset="1" style="stop-color:#F97316"/>
	</linearGradient>
	<rect x="66.9" y="444.9" class="st5" width="15.7" height="15.7"/>
	<linearGradient id="SVGID_7_" gradientUnits="userSpaceOnUse" x1="-2.0161" y1="452.7376" x2="498.3299" y2="452.7376">
		<stop  offset="0" style="stop-color:#FACC15"/>
		<stop  offset="1" style="stop-color:#F97316"/>
	</linearGradient>
	<rect x="208.6" y="444.9" class="st6" width="15.7" height="15.7"/>
	<linearGradient id="SVGID_8_" gradientUnits="userSpaceOnUse" x1="-2.0161" y1="358.2433" x2="498.3299" y2="358.2433">
		<stop  offset="0" style="stop-color:#FACC15"/>
		<stop  offset="1" style="stop-color:#F97316"/>
	</linearGradient>
	<rect x="66.9" y="350.4" class="st7" width="15.7" height="15.7"/>
	<linearGradient id="SVGID_9_" gradientUnits="userSpaceOnUse" x1="-2.0161" y1="358.2433" x2="498.3299" y2="358.2433">
		<stop  offset="0" style="stop-color:#FACC15"/>
		<stop  offset="1" style="stop-color:#F97316"/>
	</linearGradient>
	<rect x="208.6" y="350.4" class="st8" width="15.7" height="15.7"/>
	<linearGradient id="SVGID_10_" gradientUnits="userSpaceOnUse" x1="-2.0161" y1="263.7491" x2="498.3299" y2="263.7491">
		<stop  offset="0" style="stop-color:#FACC15"/>
		<stop  offset="1" style="stop-color:#F97316"/>
	</linearGradient>
	<rect x="66.9" y="255.9" class="st9" width="15.7" height="15.7"/>
	<linearGradient id="SVGID_11_" gradientUnits="userSpaceOnUse" x1="-2.0161" y1="263.7491" x2="498.3299" y2="263.7491">
		<stop  offset="0" style="stop-color:#FACC15"/>
		<stop  offset="1" style="stop-color:#F97316"/>
	</linearGradient>
	<rect x="208.6" y="255.9" class="st10" width="15.7" height="15.7"/>
	<linearGradient id="SVGID_12_" gradientUnits="userSpaceOnUse" x1="-2.0161" y1="169.2548" x2="498.3299" y2="169.2548">
		<stop  offset="0" style="stop-color:#FACC15"/>
		<stop  offset="1" style="stop-color:#F97316"/>
	</linearGradient>
	<rect x="66.9" y="161.4" class="st11" width="15.7" height="15.7"/>
	<linearGradient id="SVGID_13_" gradientUnits="userSpaceOnUse" x1="-2.0161" y1="169.2548" x2="498.3299" y2="169.2548">
		<stop  offset="0" style="stop-color:#FACC15"/>
		<stop  offset="1" style="stop-color:#F97316"/>
	</linearGradient>
	<rect x="208.6" y="161.4" class="st12" width="15.7" height="15.7"/>
</g>
<g id="Layer_1_1_">
</g>
</svg>
