<?xml version="1.0" encoding="utf-8"?>
<!-- Generator: Adobe Illustrator 25.0.0, SVG Export Plug-In . SVG Version: 6.00 Build 0)  -->
<svg version="1.1" id="Layer_1" xmlns="http://www.w3.org/2000/svg" xmlns:xlink="http://www.w3.org/1999/xlink" x="0px" y="0px"
	 viewBox="0 0 512 512" style="enable-background:new 0 0 512 512;" xml:space="preserve">
<style type="text/css">
	.st0{fill:url(#SVGID_1_);}
	.st1{fill:url(#SVGID_2_);}
	.st2{fill:url(#SVGID_3_);}
	.st3{fill:url(#SVGID_4_);}
	.st4{fill:url(#SVGID_5_);}
	.st5{fill:url(#SVGID_6_);}
	.st6{fill:url(#SVGID_7_);}
	.st7{fill:url(#SVGID_8_);}
	.st8{fill:url(#SVGID_9_);}
	.st9{fill:url(#SVGID_10_);}
</style>
<g id="Outline">
	<g id="Hosting-server-cloud">
		<linearGradient id="SVGID_1_" gradientUnits="userSpaceOnUse" x1="-1" y1="162.8731" x2="506.0483" y2="162.8731">
			<stop  offset="0" style="stop-color:#FACC15"/>
			<stop  offset="1" style="stop-color:#F97316"/>
		</linearGradient>
		<path class="st0" d="M171.3,154.4h101.6v16.9H171.3V154.4z"/>
		<linearGradient id="SVGID_2_" gradientUnits="userSpaceOnUse" x1="-1" y1="162.8731" x2="506.0483" y2="162.8731">
			<stop  offset="0" style="stop-color:#FACC15"/>
			<stop  offset="1" style="stop-color:#F97316"/>
		</linearGradient>
		<path class="st1" d="M289.9,154.4h16.9v16.9h-16.9V154.4z"/>
		<linearGradient id="SVGID_3_" gradientUnits="userSpaceOnUse" x1="-1" y1="162.8731" x2="506.0483" y2="162.8731">
			<stop  offset="0" style="stop-color:#FACC15"/>
			<stop  offset="1" style="stop-color:#F97316"/>
		</linearGradient>
		<path class="st2" d="M323.7,154.4h16.9v16.9h-16.9V154.4z"/>
		<linearGradient id="SVGID_4_" gradientUnits="userSpaceOnUse" x1="-1" y1="230.6051" x2="506.0483" y2="230.6051">
			<stop  offset="0" style="stop-color:#FACC15"/>
			<stop  offset="1" style="stop-color:#F97316"/>
		</linearGradient>
		<path class="st3" d="M171.3,222.1h101.6v16.9H171.3V222.1z"/>
		<linearGradient id="SVGID_5_" gradientUnits="userSpaceOnUse" x1="-1" y1="230.6051" x2="506.0483" y2="230.6051">
			<stop  offset="0" style="stop-color:#FACC15"/>
			<stop  offset="1" style="stop-color:#F97316"/>
		</linearGradient>
		<path class="st4" d="M289.9,222.1h16.9v16.9h-16.9V222.1z"/>
		<linearGradient id="SVGID_6_" gradientUnits="userSpaceOnUse" x1="-1" y1="230.6051" x2="506.0483" y2="230.6051">
			<stop  offset="0" style="stop-color:#FACC15"/>
			<stop  offset="1" style="stop-color:#F97316"/>
		</linearGradient>
		<path class="st5" d="M323.7,222.1h16.9v16.9h-16.9V222.1z"/>
		<linearGradient id="SVGID_7_" gradientUnits="userSpaceOnUse" x1="-1" y1="298.3371" x2="506.0483" y2="298.3371">
			<stop  offset="0" style="stop-color:#FACC15"/>
			<stop  offset="1" style="stop-color:#F97316"/>
		</linearGradient>
		<path class="st6" d="M171.3,289.9h101.6v16.9H171.3V289.9z"/>
		<linearGradient id="SVGID_8_" gradientUnits="userSpaceOnUse" x1="-1" y1="298.3371" x2="506.0483" y2="298.3371">
			<stop  offset="0" style="stop-color:#FACC15"/>
			<stop  offset="1" style="stop-color:#F97316"/>
		</linearGradient>
		<path class="st7" d="M289.9,289.9h16.9v16.9h-16.9V289.9z"/>
		<linearGradient id="SVGID_9_" gradientUnits="userSpaceOnUse" x1="-1" y1="298.3371" x2="506.0483" y2="298.3371">
			<stop  offset="0" style="stop-color:#FACC15"/>
			<stop  offset="1" style="stop-color:#F97316"/>
		</linearGradient>
		<path class="st8" d="M323.7,289.9h16.9v16.9h-16.9V289.9z"/>
		<linearGradient id="SVGID_10_" gradientUnits="userSpaceOnUse" x1="-1" y1="255.9796" x2="506.0483" y2="255.9796">
			<stop  offset="0" style="stop-color:#FACC15"/>
			<stop  offset="1" style="stop-color:#F97316"/>
		</linearGradient>
		<path class="st9" d="M476.1,349.1c-15.4,0-28.9,10.5-32.8,25.4h-94.2v-33.9c14,0,25.4-11.4,25.4-25.4v-25.4h50.8
			c46.8,0,84.6-38,84.6-84.7c0-46.8-38-84.6-84.7-84.6c-4.6,0-9.2,0.4-13.7,1.1C388.8,35.8,300.7-15.4,214.8,7.4
			C171.6,18.8,135.1,47.7,114,87.2c-3.5-0.4-6.9-0.5-10.4-0.5C47.5,86.7,2,132.2,2,188.3s45.5,101.6,101.6,101.6h33.9v25.4
			c0,14,11.4,25.4,25.4,25.4v33.9H68.7c-4.7-18.1-23.1-29-41.3-24.3c-18.1,4.7-29,23.1-24.3,41.3c4.7,18.1,23.1,29,41.3,24.3
			c11.9-3.1,21.2-12.4,24.3-24.3h102.7c4.7,0,8.5-3.8,8.5-8.5v-42.3h16.9v67.7H129c-4.7,0-8.5,3.8-8.5,8.5v26.5
			c-18.1,4.7-29,23.1-24.3,41.3c4.7,18.1,23.1,29,41.3,24.3s29-23.1,24.3-41.3c-3.1-11.9-12.4-21.2-24.3-24.3v-18h67.7
			c4.7,0,8.5-3.8,8.5-8.5v-76.2h33.9v85.7c-18.1,4.7-29,23.1-24.3,41.3c4.7,18.1,23.1,29,41.3,24.3c18.1-4.7,29-23.1,24.3-41.3
			c-3.1-11.9-12.4-21.2-24.3-24.3v-85.7h33.9v76.2c0,4.7,3.8,8.5,8.5,8.5h67.7v18c-18.1,4.7-29,23.1-24.3,41.3
			c4.7,18.1,23.1,29,41.3,24.3c18.1-4.7,29-23.1,24.3-41.3c-3.1-11.9-12.4-21.2-24.3-24.3v-26.5c0-4.7-3.8-8.5-8.5-8.5h-67.7v-67.7
			h16.9V383c0,4.7,3.8,8.5,8.5,8.5h102.7c4.7,18.1,23.1,29,41.3,24.3c18.1-4.7,29-23.1,24.3-41.3
			C505.1,359.6,491.6,349.1,476.1,349.1z M35.9,399.9c-9.4,0-16.9-7.6-16.9-16.9s7.6-16.9,16.9-16.9s16.9,7.6,16.9,16.9
			C52.8,392.3,45.2,399.9,35.9,399.9z M145.9,476.1c0,9.4-7.6,16.9-16.9,16.9s-16.9-7.6-16.9-16.9c0-9.4,7.6-16.9,16.9-16.9
			C138.3,459.2,145.9,466.8,145.9,476.1z M272.9,459.2c0,9.4-7.6,16.9-16.9,16.9c-9.4,0-16.9-7.6-16.9-16.9
			c0-9.4,7.6-16.9,16.9-16.9C265.3,442.3,272.9,449.9,272.9,459.2z M399.9,476.1c0,9.4-7.6,16.9-16.9,16.9s-16.9-7.6-16.9-16.9
			c0-9.4,7.6-16.9,16.9-16.9C392.3,459.2,399.9,466.8,399.9,476.1z M154.4,179.8v-33.9c0-4.7,3.8-8.5,8.5-8.5h186.3
			c4.7,0,8.5,3.8,8.5,8.5v33.9c0,4.7-3.8,8.5-8.5,8.5H162.9C158.2,188.3,154.4,184.5,154.4,179.8z M154.4,247.5v-33.9
			c0-4.7,3.8-8.5,8.5-8.5h186.3c4.7,0,8.5,3.8,8.5,8.5v33.9c0,4.7-3.8,8.5-8.5,8.5H162.9C158.2,256,154.4,252.2,154.4,247.5z
			 M18.9,188.3c0.1-46.7,37.9-84.6,84.7-84.7c4.6,0,9.3,0.4,13.9,1.1c3.7,0.6,7.4-1.3,9-4.7C161.2,28.5,247.3-1.3,318.8,33.4
			c40.1,19.5,69,56.4,78.1,100.1c1,4.6,5.4,7.5,10,6.6c0.2,0,0.4-0.1,0.5-0.1c36.1-9.9,73.3,11.4,83.2,47.5
			c9.9,36.1-11.4,73.3-47.5,83.2c-5.8,1.6-11.8,2.4-17.8,2.4h-52.3c-1.1-3.1-2.8-6-5-8.5c4.2-4.6,6.5-10.7,6.5-16.9v-33.9
			c0-6.3-2.3-12.3-6.5-16.9c4.2-4.6,6.5-10.7,6.5-16.9v-33.9c0-14-11.4-25.4-25.4-25.4H162.9c-14,0-25.4,11.4-25.4,25.4v33.9
			c0,6.3,2.3,12.3,6.5,16.9c-4.2,4.6-6.5,10.7-6.5,16.9v33.9c0,6.3,2.3,12.3,6.5,16.9c-2.2,2.5-3.9,5.3-5,8.5h-35.3
			C56.9,272.9,19,235,18.9,188.3z M154.4,315.3v-33.9c0-4.7,3.8-8.5,8.5-8.5h186.3c4.7,0,8.5,3.8,8.5,8.5v33.9
			c0,4.7-3.8,8.5-8.5,8.5H162.9C158.2,323.7,154.4,319.9,154.4,315.3z M476.1,399.9c-9.4,0-16.9-7.6-16.9-16.9s7.6-16.9,16.9-16.9
			s16.9,7.6,16.9,16.9C493.1,392.3,485.5,399.9,476.1,399.9z"/>
	</g>
</g>
<g id="Layer_1_1_">
</g>
</svg>
