<svg width="18" height="18" viewBox="0 0 18 18" fill="none" xmlns="http://www.w3.org/2000/svg">
<g clip-path="url(#clip0_1_75)">
<path d="M9 0.000396729C4.02996 0.000396729 0 4.02956 0 9C0 13.9704 4.02956 17.9996 9 17.9996C13.9708 17.9996 18 13.9704 18 9C18 4.02956 13.9708 0.000396729 9 0.000396729ZM9 2.69138C10.6446 2.69138 11.9772 4.02442 11.9772 5.66819C11.9772 7.31235 10.6446 8.645 9 8.645C7.35623 8.645 6.02359 7.31235 6.02359 5.66819C6.02359 4.02442 7.35623 2.69138 9 2.69138ZM8.99802 15.6466C7.35781 15.6466 5.85557 15.0493 4.69687 14.0606C4.41461 13.8198 4.25173 13.4668 4.25173 13.0964C4.25173 11.4293 5.60098 10.0951 7.26847 10.0951H10.7323C12.4002 10.0951 13.7443 11.4293 13.7443 13.0964C13.7443 13.4672 13.5822 13.8194 13.2996 14.0602C12.1413 15.0493 10.6386 15.6466 8.99802 15.6466Z" fill="#5E636E"/>
</g>
<defs>
<clipPath id="clip0_1_75">
<rect width="18" height="18" fill="white"/>
</clipPath>
</defs>
</svg>
