<?xml version="1.0" encoding="utf-8"?>
<!-- Generator: Adobe Illustrator 25.0.0, SVG Export Plug-In . SVG Version: 6.00 Build 0)  -->
<svg version="1.1" id="Capa_1" xmlns="http://www.w3.org/2000/svg" xmlns:xlink="http://www.w3.org/1999/xlink" x="0px" y="0px"
	 viewBox="0 0 512 512" style="enable-background:new 0 0 512 512;" xml:space="preserve">
<style type="text/css">
	.st0{fill:url(#SVGID_1_);}
	.st1{fill:url(#SVGID_2_);}
	.st2{fill:url(#SVGID_3_);}
	.st3{fill:url(#SVGID_4_);}
	.st4{fill:url(#SVGID_5_);}
	.st5{fill:url(#SVGID_6_);}
	.st6{fill:url(#SVGID_7_);}
	.st7{fill:url(#SVGID_8_);}
	.st8{fill:url(#SVGID_9_);}
	.st9{fill:url(#SVGID_10_);}
	.st10{fill:url(#SVGID_11_);}
	.st11{fill:url(#SVGID_12_);}
</style>
<g>
	<linearGradient id="SVGID_1_" gradientUnits="userSpaceOnUse" x1="-2" y1="53.6666" x2="508.0627" y2="53.6666">
		<stop  offset="0" style="stop-color:#FACC15"/>
		<stop  offset="1" style="stop-color:#F97316"/>
	</linearGradient>
	<path class="st0" d="M210.9,61.2h128.6c4.1,0,7.5-3.4,7.5-7.5c0-4.1-3.4-7.5-7.5-7.5H210.9c-4.1,0-7.5,3.4-7.5,7.5
		S206.7,61.2,210.9,61.2z"/>
	<linearGradient id="SVGID_2_" gradientUnits="userSpaceOnUse" x1="-2" y1="85.6127" x2="508.0627" y2="85.6127">
		<stop  offset="0" style="stop-color:#FACC15"/>
		<stop  offset="1" style="stop-color:#F97316"/>
	</linearGradient>
	<path class="st1" d="M210.9,93.1h57.3c4.1,0,7.5-3.4,7.5-7.5s-3.4-7.5-7.5-7.5h-57.3c-4.1,0-7.5,3.4-7.5,7.5
		C203.4,89.8,206.7,93.1,210.9,93.1z"/>
	<linearGradient id="SVGID_3_" gradientUnits="userSpaceOnUse" x1="-2" y1="258" x2="508.0627" y2="258">
		<stop  offset="0" style="stop-color:#FACC15"/>
		<stop  offset="1" style="stop-color:#F97316"/>
	</linearGradient>
	<path class="st2" d="M475.7,79.4c-4.1,0-7.5,3.4-7.5,7.5c0,4.1,3.4,7.5,7.5,7.5c7.4,0,13.4,6,13.4,13.4v213h-54.7V94.4h12.5
		c4.1,0,7.5-3.4,7.5-7.5c0-4.1-3.4-7.5-7.5-7.5h-12.5v-51c0-12.4-10.1-22.5-22.5-22.5H98.1C85.7,5.9,75.6,16,75.6,28.4v51H36.3
		c-15.6,0-28.4,12.7-28.4,28.4v220.5v69.1c0,15.6,12.7,28.4,28.4,28.4h46.2c4.1,0,7.5-3.4,7.5-7.5c0-4.1-3.4-7.5-7.5-7.5H36.3
		c-7.4,0-13.4-6-13.4-13.4v-61.6h60.2h343.8h62.2v61.6c0,7.4-6,13.4-13.4,13.4H309.9H202.1h-84.3c-4.1,0-7.5,3.4-7.5,7.5
		c0,4.1,3.4,7.5,7.5,7.5h76.8v39.7c-20.2,0.4-36.5,16.9-36.5,37.2c0,4.1,3.4,7.5,7.5,7.5h180.9c4.1,0,7.5-3.4,7.5-7.5
		c0-20.3-16.3-36.8-36.5-37.2v-39.7h158.3c15.6,0,28.4-12.7,28.4-28.4v-69.1V107.8C504.1,92.1,491.4,79.4,475.7,79.4z M75.6,320.8
		H22.9v-213c0-7.4,6-13.4,13.4-13.4h39.3V320.8z M419.4,320.8H90.6V130.4h34.5c4.1,0,7.5-3.4,7.5-7.5s-3.4-7.5-7.5-7.5H90.6v-87
		c0-4.2,3.4-7.5,7.5-7.5h313.8c4.2,0,7.5,3.4,7.5,7.5v87H164c-4.1,0-7.5,3.4-7.5,7.5s3.4,7.5,7.5,7.5h255.4V320.8z M209.6,425.7
		h92.9v39.7h-92.9V425.7z M337.7,495.1H174.3c3.1-8.6,11.3-14.7,20.9-14.7h6.8h107.9h6.8C326.4,480.4,334.6,486.6,337.7,495.1z"/>
	<linearGradient id="SVGID_4_" gradientUnits="userSpaceOnUse" x1="-2" y1="373.0365" x2="508.0627" y2="373.0365">
		<stop  offset="0" style="stop-color:#FACC15"/>
		<stop  offset="1" style="stop-color:#F97316"/>
	</linearGradient>
	<path class="st3" d="M283.1,373c0-12.7-10.3-23-23-23c-12.7,0-23,10.3-23,23c0,12.7,10.3,23,23,23C272.8,396,283.1,385.7,283.1,373
		z M252.3,373c0-4.3,3.5-7.8,7.8-7.8c4.3,0,7.8,3.5,7.8,7.8c0,4.3-3.5,7.8-7.8,7.8C255.8,380.8,252.3,377.3,252.3,373z"/>
	<linearGradient id="SVGID_5_" gradientUnits="userSpaceOnUse" x1="-2" y1="65.8048" x2="508.0627" y2="65.8048">
		<stop  offset="0" style="stop-color:#FACC15"/>
		<stop  offset="1" style="stop-color:#F97316"/>
	</linearGradient>
	<path class="st4" d="M172.7,90.9c1.3-2.3,1.3-5.2,0-7.5L148,40.7c-1.3-2.3-3.8-3.7-6.5-3.7c-2.7,0-5.2,1.4-6.5,3.7l-24.7,42.7
		c-1.3,2.3-1.3,5.2,0,7.5s3.8,3.7,6.5,3.7h49.3C168.8,94.7,171.3,93.2,172.7,90.9z M129.8,79.7l11.7-20.2l11.7,20.2H129.8z"/>
	<linearGradient id="SVGID_6_" gradientUnits="userSpaceOnUse" x1="-2" y1="165.5366" x2="508.0627" y2="165.5366">
		<stop  offset="0" style="stop-color:#FACC15"/>
		<stop  offset="1" style="stop-color:#F97316"/>
	</linearGradient>
	<path class="st5" d="M288.8,173h108.6c4.1,0,7.5-3.4,7.5-7.5s-3.4-7.5-7.5-7.5H288.8c-4.1,0-7.5,3.4-7.5,7.5
		C281.3,169.7,284.6,173,288.8,173z"/>
	<linearGradient id="SVGID_7_" gradientUnits="userSpaceOnUse" x1="-2" y1="198.5049" x2="508.0627" y2="198.5049">
		<stop  offset="0" style="stop-color:#FACC15"/>
		<stop  offset="1" style="stop-color:#F97316"/>
	</linearGradient>
	<path class="st6" d="M288.8,206h108.6c4.1,0,7.5-3.4,7.5-7.5s-3.4-7.5-7.5-7.5H288.8c-4.1,0-7.5,3.4-7.5,7.5S284.6,206,288.8,206z"
		/>
	<linearGradient id="SVGID_8_" gradientUnits="userSpaceOnUse" x1="-2" y1="231.4733" x2="508.0627" y2="231.4733">
		<stop  offset="0" style="stop-color:#FACC15"/>
		<stop  offset="1" style="stop-color:#F97316"/>
	</linearGradient>
	<path class="st7" d="M288.8,239h108.6c4.1,0,7.5-3.4,7.5-7.5s-3.4-7.5-7.5-7.5H288.8c-4.1,0-7.5,3.4-7.5,7.5
		C281.3,235.6,284.6,239,288.8,239z"/>
	<linearGradient id="SVGID_9_" gradientUnits="userSpaceOnUse" x1="-2" y1="264.4416" x2="508.0627" y2="264.4416">
		<stop  offset="0" style="stop-color:#FACC15"/>
		<stop  offset="1" style="stop-color:#F97316"/>
	</linearGradient>
	<path class="st8" d="M288.8,271.9h108.6c4.1,0,7.5-3.4,7.5-7.5c0-4.1-3.4-7.5-7.5-7.5H288.8c-4.1,0-7.5,3.4-7.5,7.5
		C281.3,268.6,284.6,271.9,288.8,271.9z"/>
	<linearGradient id="SVGID_10_" gradientUnits="userSpaceOnUse" x1="-2" y1="297.41" x2="508.0627" y2="297.41">
		<stop  offset="0" style="stop-color:#FACC15"/>
		<stop  offset="1" style="stop-color:#F97316"/>
	</linearGradient>
	<path class="st9" d="M288.8,304.9h50.7c4.1,0,7.5-3.4,7.5-7.5c0-4.1-3.4-7.5-7.5-7.5h-50.7c-4.1,0-7.5,3.4-7.5,7.5
		C281.3,301.6,284.6,304.9,288.8,304.9z"/>
	<linearGradient id="SVGID_11_" gradientUnits="userSpaceOnUse" x1="-2" y1="228.3155" x2="508.0627" y2="228.3155">
		<stop  offset="0" style="stop-color:#FACC15"/>
		<stop  offset="1" style="stop-color:#F97316"/>
	</linearGradient>
	<path class="st10" d="M109.3,159.2v88.4v49.8c0,4.1,3.4,7.5,7.5,7.5H255c4.1,0,7.5-3.4,7.5-7.5v-42.4v-95.8c0-4.1-3.4-7.5-7.5-7.5
		H116.8C112.7,151.7,109.3,155.1,109.3,159.2z M247.5,166.7v78.4c-0.8-0.1-1.7-0.3-2.5-0.4c-13.1-1.5-20.6,3.8-26.6,8
		c-4.5,3.2-8.4,5.9-15,6.4c-10.6,0.9-17.4-4.8-26-11.9c-9.6-7.9-20.5-16.9-37.8-15.9c-5.2,0.3-10.3,1.5-15.3,3.6v-68.2H247.5z
		 M124.3,251.6c5.3-3.2,10.8-5,16.2-5.3c11.4-0.7,18.8,5.4,27.3,12.5c9.4,7.8,20.1,16.6,36.8,15.3c10.6-0.9,17.1-5.4,22.4-9
		c5.4-3.7,8.9-6.2,16.4-5.4c1.4,0.2,2.8,0.4,4.2,0.8v29.5h0H124.3V251.6z"/>
	<linearGradient id="SVGID_12_" gradientUnits="userSpaceOnUse" x1="-2" y1="206.3972" x2="508.0627" y2="206.3972">
		<stop  offset="0" style="stop-color:#FACC15"/>
		<stop  offset="1" style="stop-color:#F97316"/>
	</linearGradient>
	<path class="st11" d="M205.7,229.3c12.6,0,22.9-10.3,22.9-22.9s-10.3-22.9-22.9-22.9c-12.6,0-22.9,10.3-22.9,22.9
		C182.7,219,193,229.3,205.7,229.3z M205.7,198.5c4.4,0,7.9,3.6,7.9,7.9c0,4.4-3.6,7.9-7.9,7.9c-4.4,0-7.9-3.6-7.9-7.9
		C197.7,202,201.3,198.5,205.7,198.5z"/>
</g>
<g id="Layer_1_1_">
</g>
</svg>
